<?xml version="1.0" encoding="UTF-8" standalone="no"?>
<!DOCTYPE svg PUBLIC "-//W3C//DTD SVG 1.1//EN" "http://www.w3.org/Graphics/SVG/1.1/DTD/svg11.dtd">
<svg width="100%" height="100%" viewBox="0 0 60 61" version="1.1" xmlns="http://www.w3.org/2000/svg" xmlns:xlink="http://www.w3.org/1999/xlink" xml:space="preserve" xmlns:serif="http://www.serif.com/" style="fill-rule:evenodd;clip-rule:evenodd;stroke-linejoin:round;stroke-miterlimit:1.41421;">
    <g transform="matrix(1,0,0,1,-102.094,-801.871)">
        <g transform="matrix(1,0,0,1,1.36424e-12,52.4375)">
            <g transform="matrix(0.13865,-0.0282071,0.0284923,0.140052,-307.914,736.356)">
                <path d="M2985.45,769.199C2946.97,769.59 2913.86,783.359 2886.13,810.508C2858.59,838.242 2844.82,871.347 2844.82,909.824C2844.82,942.637 2855.47,972.129 2876.75,998.301C2898.04,1024.67 2924.8,1040.98 2957.03,1047.23C2966.79,1049.18 2976.36,1050.16 2985.74,1050.16C3012.5,1050.16 3038.08,1042.25 3062.5,1026.43C3095.31,1004.94 3115.43,975.449 3122.85,937.949C3124.8,928.379 3125.78,918.906 3125.78,909.531C3125.78,887.656 3120.5,866.269 3109.96,845.371C3094.72,815.683 3072.16,794.297 3042.28,781.211C3024.51,773.398 3005.56,769.394 2985.45,769.199ZM2986.03,698.887C3045.6,699.863 3095.5,721.054 3135.74,762.461C3160.15,787.265 3177.34,816.562 3187.3,850.351C3193.16,870.273 3196.09,890.293 3196.09,910.41C3196.09,924.277 3194.62,938.144 3191.7,952.012C3183.49,992.832 3164.25,1028.28 3133.98,1058.36C3103.9,1088.63 3068.45,1107.87 3027.63,1116.07C3013.76,1119 2999.9,1120.47 2986.03,1120.47C2965.72,1120.47 2945.31,1117.34 2924.8,1111.09C2890.62,1101.13 2861.13,1083.55 2836.32,1058.36C2806.25,1028.67 2787.11,992.734 2778.9,950.547C2776.17,936.289 2774.8,922.129 2774.8,908.066C2774.8,881.113 2780.07,854.746 2790.62,828.965C2806.64,790.097 2832.42,758.75 2867.97,734.922C2903.12,711.484 2941.79,699.472 2983.98,698.887L2986.03,698.887ZM3121.68,770.664C3112.3,755.625 3094.04,741.953 3066.89,729.648C3045.21,719.883 3027.05,715 3012.4,715C3009.08,715 3005.95,715.195 3003.02,715.586C2999.51,716.367 2997.75,717.441 2997.75,718.808C2997.75,721.152 2999.61,722.422 3003.32,722.617C3039.64,726.523 3077.53,744.101 3116.99,775.351C3118.75,777.109 3120.21,777.988 3121.38,777.988C3121.97,777.988 3122.46,777.695 3122.85,777.109C3123.24,776.719 3123.43,776.035 3123.43,775.058C3123.43,773.887 3122.85,772.422 3121.68,770.664Z" style="fill:rgb(204,56,107);fill-rule:nonzero;"/>
            </g>
        </g>
    </g>
</svg>
