<svg width="130" height="130" viewBox="0 0 130 130" fill="none" xmlns="http://www.w3.org/2000/svg">
<g clip-path="url(#clip0_4151_32162)">
<path fill-rule="evenodd" clip-rule="evenodd" d="M54.7993 11.0977L54.7519 10.8917C55.9761 10.6202 57.1746 10.2439 58.3342 9.76667C63.241 7.56667 63.5076 2.55 63.3826 0.391667V0.0598629L63.366 0.0423177H63.3826V0L63.4206 0.0423177H67.3149V0.425651C67.2066 3.75898 67.3981 6.79232 70.5888 8.89233C72.2269 9.9435 74.0554 10.6627 75.9706 11.009L75.9699 11.0117C77.2394 11.2439 78.5289 11.3497 79.8193 11.3276C85.1844 11.1692 87.2587 6.32761 87.9669 4.28594L88.1002 3.91927L88.6167 4.13594L91.3992 5.30261L91.7407 5.45261L91.5908 5.79427C90.2162 8.82758 89.2331 11.7109 91.3742 14.8692C92.548 16.3999 93.9767 17.7164 95.5979 18.7609L95.4979 18.8987L95.5221 18.916L95.5979 18.8113C96.6476 19.6373 97.798 20.3261 99.0218 20.8613C104.02 22.7697 107.736 19.1447 109.169 17.528L109.435 17.2363L109.42 17.7677L109.446 17.7387L109.46 17.2363L109.852 17.6363L111.976 19.778L112.235 20.0447L111.96 20.303C109.535 22.5863 107.528 24.8697 108.294 28.6363C108.815 30.5162 109.612 32.308 110.66 33.953L110.653 33.9568C111.369 35.1569 112.227 36.2657 113.209 37.2591C117.116 40.9424 121.865 39.0174 123.806 38.0924L124.156 37.9174L124.017 38.2646L124.018 38.2682L124.156 37.9264L124.372 38.4514L125.514 41.2431L125.655 41.5931L125.297 41.7181C122.181 42.8931 119.374 44.2181 118.633 47.9431C118.349 49.9562 118.428 52.0037 118.866 53.9888L118.891 53.9843C119.125 55.1327 119.489 56.2509 119.974 57.3177C122.198 62.2094 127.297 62.3177 129.454 62.2178H129.846L129.237 62.7592L129.251 62.7586L129.846 62.2266V66.1849H129.454C126.122 66.0932 123.073 66.3849 120.99 69.5766C119.741 71.6307 119.487 73.1599 119.126 75.3416L119.076 75.6429L119.082 75.6442C118.927 76.8402 118.868 78.0469 118.907 79.2525C119.091 84.6275 123.598 86.4525 125.639 87.1525L126.002 87.2767L126.005 87.275L126.005 87.2775L125.789 87.8L124.639 90.5833L124.489 90.925L124.148 90.775C121.107 89.4167 118.224 88.45 115.067 90.6C113.152 92.0033 112.333 93.3175 111.178 95.1692L111.173 95.1775L111.169 95.1833C111.106 95.285 111.042 95.3875 110.977 95.4917L110.625 95.2875L110.624 95.2892L110.977 95.4942C110.273 96.5708 109.667 97.7083 109.169 98.8942C107.286 103.894 110.668 107.486 112.284 108.894L112.576 109.152L111.945 109.123L111.937 109.132L112.576 109.167L112.185 109.567L110.052 111.7L109.785 111.967L109.527 111.692C107.236 109.275 104.945 107.275 101.196 108.058C99.1351 108.535 97.2057 109.462 95.5454 110.772L95.5479 110.775C94.5499 111.45 93.6085 112.206 92.7321 113.033C89.0665 116.958 90.8743 121.517 91.824 123.45L91.9906 123.808L91.4433 123.557L91.4267 123.564L91.9656 123.812L91.4491 124.028L88.6666 125.178L88.3168 125.32L88.1835 124.97C86.9922 121.862 85.7842 119.137 82.027 118.437C79.9522 118.059 77.8215 118.129 75.7767 118.641L75.7789 118.65C74.6089 118.887 73.4728 119.267 72.3966 119.783C67.5064 122.008 67.2398 126.908 67.3981 129.058V129.45L67.0424 129.094H67.019L67.3814 129.45H63.4326V129.075C63.5243 125.742 63.316 122.708 60.1003 120.617C58.3178 119.528 56.3347 118.807 54.2687 118.5L54.2712 118.487C53.0543 118.263 51.823 118.127 50.5865 118.078C45.2132 118.262 43.447 122.77 42.7472 124.812L42.6139 125.178L42.3778 124.591L42.3593 124.641L42.5806 125.175L42.0641 124.967L39.2816 123.808L38.9317 123.658L39.0817 123.317C40.4396 120.275 41.3393 117.642 39.19 114.483C37.9308 112.712 36.3445 111.197 34.5168 110.022L34.5081 110.033C33.5089 109.267 32.4208 108.623 31.2674 108.117C26.2689 106.233 22.8366 109.9 21.4037 111.517L21.1454 111.808L20.7456 111.417C20.4283 111.099 20.1337 110.791 19.8263 110.469C19.5444 110.174 19.2519 109.868 18.9211 109.533L18.6545 109.267L18.8889 109.246L18.8631 109.22L18.6545 109.233L18.9294 108.975C21.3454 106.683 23.1532 103.733 22.2618 100.025C21.7675 98.1125 20.895 96.3192 19.6959 94.75L20.0516 94.5008L20.0493 94.4983L19.6876 94.7508C18.9346 93.7083 18.0807 92.7425 17.1383 91.8675C13.2145 88.2008 8.80754 89.9842 6.89978 90.9342L6.54156 91.1092L6.32496 90.5842L5.17531 87.8008L5.03368 87.4508L5.71238 87.6942L5.72033 87.6908L5.04202 87.4517L5.39192 87.3183C8.49931 86.1267 11.2234 84.8183 11.9316 81.0182C12.3148 78.5182 11.7066 74.7016 10.9652 72.2766L10.9964 72.2687C10.5916 70.9454 9.8452 69.7521 8.83255 68.8091C6.5573 67.0769 3.73997 66.2113 0.884956 66.3674V62.7159L0.843262 62.6771H0.884956V62.6757L0.886262 62.6771H1.21815C4.55047 62.7604 7.58289 62.5521 9.66559 59.3438C10.7701 57.6016 11.4809 55.6392 11.7483 53.5938L11.7608 53.5963C11.9842 52.449 12.1193 51.2862 12.1648 50.1181C11.9816 44.7514 7.16636 42.6931 5.09199 41.9931L4.7171 41.8681L5.52688 41.5838L5.47807 41.565L4.7171 41.8335L4.93371 41.3085L6.08336 38.5252L6.23331 38.1835L6.57487 38.3335C9.6156 39.6918 12.5231 40.5418 15.5971 38.2752C17.1672 37.0337 18.5309 35.5515 19.6376 33.8835L19.6576 33.8981C20.3795 32.9152 20.9772 31.8468 21.437 30.7171C23.3281 25.7171 19.9208 22.2921 18.2963 20.8671L18.0047 20.6087L18.6809 20.6417L18.6455 20.6086L18.0047 20.5683L18.4046 20.1683L20.5373 18.035L20.8039 17.7767L21.0621 18.0433C23.3531 20.46 25.6857 22.3433 29.3929 21.56C31.4127 21.0087 33.3231 20.1152 35.0412 18.9183L35.2953 19.2922L35.3291 19.2696L35.0912 18.9197C36.2075 18.1877 37.2684 17.3743 38.2653 16.4863C41.9308 12.553 39.7898 8.06966 38.8401 6.13632L38.6485 5.77799L38.8641 5.88044L38.6485 5.77591L39.1733 5.55924L41.9558 4.40924L42.3057 4.26757L42.439 4.61757C43.6303 7.72591 44.9799 10.4509 48.7371 11.1592C50.7428 11.4305 52.7803 11.3544 54.7603 10.9342L54.7979 11.098L54.7993 11.0977ZM18.2147 67.5498C15.5451 65.1366 13.0635 62.5228 10.7919 59.7312L10.7981 59.7201C13.0802 62.5182 15.5733 65.137 18.2556 67.5536L18.2147 67.5498ZM88.3234 4.40119L88.1043 3.92829L88.3243 4.39839L88.3234 4.40119ZM14.3392 74.8595C14.2309 74.4262 13.6894 71.1928 13.9726 70.0095C14.3139 68.5854 15.1129 67.9686 20.6765 68.9326C20.8196 70.4199 21.0375 71.9037 21.3306 73.3783C21.6275 74.8719 21.9994 76.3447 22.4436 77.7914L22.4142 77.8126L22.3784 77.71C21.5799 78.2956 20.7451 78.83 19.8792 79.31C18.9128 79.86 17.9464 80.3267 16.8967 79.86C15.7054 79.0267 14.7307 76.4262 14.3392 74.8595ZM20.6788 60.3285C20.9671 57.3468 21.5545 54.3942 22.4364 51.5161L22.4256 51.5083L22.4117 51.5516C17.6382 48.5349 17.08 48.7183 16.1386 49.8849C15.3017 50.9221 14.8467 53.731 14.7326 54.4353C14.7204 54.5107 14.7121 54.5619 14.7076 54.5844L14.7391 54.5924C14.7206 54.7044 14.6961 54.8404 14.6682 54.9956C14.4321 56.3067 13.9495 58.9867 14.7391 60.1341C15.3555 60.9674 16.7718 60.8507 17.8631 60.7424L20.6788 60.3285ZM25.8069 43.436C27.1566 40.9239 28.7401 38.5524 30.5324 36.3516L30.4805 36.2676C27.33 32.0697 26.2855 31.6383 24.9944 32.3172C23.8455 32.9212 22.495 35.0619 22.1394 35.6255C22.1049 35.6802 22.0798 35.7199 22.0652 35.7421L22.0785 35.7522C21.0288 37.4856 20.1957 39.6939 20.479 40.8939C20.6706 41.9522 21.9202 42.3439 22.9782 42.6606L25.8069 43.436ZM40.3765 27.3956C41.6203 26.5645 42.901 25.7988 44.2133 25.1003L44.1475 24.6927L44.1466 24.6878L44.0979 24.3858C43.6308 22.521 43.206 21.3055 42.7821 20.5242C42.5015 20.087 42.1872 19.6967 41.854 19.4322C41.4455 19.1852 41.0125 19.1749 40.5229 19.2333C39.0567 19.4083 36.6491 21.0917 36.4491 21.2583L36.4329 21.2334C34.9998 22.3755 32.7996 24.2132 32.4503 25.7604C32.3175 26.7066 33.2409 27.462 34.0573 28.1299C34.1109 28.1737 34.1641 28.2172 34.2165 28.2604L36.6407 30.1771L36.5247 30.2752L36.5281 30.2773C37.7544 29.2518 39.0387 28.2895 40.3765 27.3956ZM52.0899 21.828C54.9848 20.9377 57.9697 20.3412 60.9994 20.0523L60.9999 20.0505L60.7168 20.0762C61.5999 14.6012 61.1417 13.6429 59.7421 13.2096C58.3853 12.7895 55.4392 13.4423 55.0174 13.5358L54.9852 13.5429L54.9694 13.4824L54.9527 13.4864L54.9602 13.5189C53.6023 13.7939 50.9364 14.7606 50.045 15.9272C49.4619 16.7606 50.3533 19.2606 52.261 21.7606L52.0821 21.8172L52.0899 21.828ZM69.6454 20.0666C72.5776 20.3558 75.4599 20.9327 78.2529 21.7807L78.2582 21.7732L78.1782 21.7528C81.0774 17.0278 81.169 15.8612 80.0443 14.9195C78.9589 14.0107 76.0113 13.6143 75.3126 13.5203L75.2489 13.5116L75.2458 13.5275C74.496 13.4275 70.7555 13.0692 69.8141 14.0108C68.6191 15.2062 69.3056 18.4509 69.5745 19.7222L69.5747 19.7232C69.6043 19.8633 69.629 19.9799 69.6454 20.0666ZM99.7675 36.1102C101.659 38.4004 103.309 40.8619 104.701 43.4546L104.715 43.4522L104.637 43.3083C110.035 42.0167 110.402 41.1833 110.268 39.725C110.137 38.2843 108.639 35.8435 108.41 35.5675L108.386 35.5839C107.703 34.5173 105.961 32.3672 104.045 32.1839C103.121 32.1339 102.271 33.0173 101.546 33.7756C101.045 34.2999 100.58 34.9637 100.194 35.5135C100.037 35.7366 99.8941 35.9416 99.7675 36.1102ZM108.06 51.5134C108.921 54.3215 109.508 57.2205 109.804 60.1703L109.824 60.1752L109.802 59.985C115.025 60.76 116 60.285 116.467 58.885C116.875 57.6612 116.442 55.5521 116.277 54.7457C116.252 54.6299 116.234 54.5405 116.225 54.485L116.392 54.4388L116.39 54.4256L116.175 54.4847C116.143 54.3603 116.107 54.1908 116.063 53.9885C115.785 52.7005 115.221 50.086 113.817 49.3514C112.768 48.8847 111.635 49.4514 110.66 49.9681L108.06 51.5134ZM109.841 68.7178C109.571 71.6712 109.01 74.583 108.168 77.4113L108.189 77.4268L108.202 77.3852C112.976 80.4102 113.567 80.3602 114.575 79.3018C115.583 78.2438 116.125 74.5959 116.125 74.3687C116.383 72.8103 116.4 70.3103 115.742 69.0687C115.1 68.1687 113.984 68.1603 112.884 68.2353L109.841 68.7178ZM102.484 89.5217C101.669 90.7408 100.799 91.915 99.8758 93.0417L99.8783 93.0467L100.097 92.7767C103.246 96.8183 104.07 97.4517 105.37 96.7683C106.516 96.1658 108.052 93.7142 108.455 93.0708L108.456 93.07C108.509 92.9842 108.542 92.9308 108.552 92.9183L108.568 92.9308C109.402 91.5617 110.851 89.0567 110.543 87.9433C110.248 86.87 109.02 86.505 107.987 86.1975L107.861 86.16C106.803 85.8433 105.861 85.66 104.92 85.51L104.995 85.3683L104.948 85.36C104.205 86.7858 103.383 88.1758 102.484 89.5217ZM93.8409 99.1133C91.5499 101.014 89.0707 102.687 86.4365 104.102L86.4373 104.106L86.5006 104.076C87.7419 109.592 88.4084 109.984 89.833 109.859C91.2575 109.734 93.9984 107.842 94.2816 107.626L94.609 107.988L94.6265 107.976L94.2983 107.627C95.5812 106.71 97.8722 104.293 97.9888 103.46C98.1055 102.627 97.2307 101.585 96.381 100.885C96.1194 100.659 95.8511 100.442 95.5754 100.233C95.0047 99.8483 94.4266 99.475 93.8409 99.1133ZM56.515 108.573C55.0757 108.287 53.6558 107.931 52.2598 107.507L52.2574 107.511L52.311 107.527C49.2952 112.302 49.5035 112.96 50.6448 113.893C51.7853 114.826 54.9306 115.501 55.3342 115.56L55.3434 115.493C56.9013 115.752 60.0087 115.735 60.8834 114.977C61.4916 114.535 61.6498 113.31 61.5415 112.218C61.4172 111.205 61.2089 110.203 60.9191 109.223C59.4457 109.081 57.9759 108.864 56.515 108.573ZM44.4064 104.286C41.7628 102.895 39.2586 101.24 36.934 99.3417L36.7006 99.4858L36.6537 99.5142C32.2962 102.597 32.0067 103.311 32.7004 104.568C33.4576 105.958 35.5592 107.348 36.2942 107.834L36.2949 107.835C36.4398 107.931 36.5315 107.991 36.5489 108.009C37.9984 108.984 40.4229 110.018 41.8808 109.818C42.7889 109.651 43.2554 108.151 43.547 107.109L44.2384 104.209L44.4056 104.291L44.4064 104.286ZM30.8415 93.3075C28.8832 90.9558 27.1761 88.415 25.7429 85.7283C20.2369 86.96 19.7709 87.66 19.9208 89.1175C20.0528 90.4017 21.6176 92.8017 22.0361 93.4442C22.0931 93.5317 22.1288 93.5858 22.1368 93.6008L22.1149 93.615C23.0328 94.8908 25.0957 97.0775 26.3689 97.3108C27.5186 97.4108 28.2767 96.4775 28.9765 95.5858C29.6763 94.6942 30.2261 93.8775 30.6426 93.0858L30.837 93.315L30.8415 93.3075ZM69.7222 109.209L69.6566 109.216L69.6562 109.217L69.7222 109.209ZM78.6076 107.394C75.7661 108.283 72.8506 108.882 69.9049 109.191C68.9395 114.762 69.4146 115.378 70.8137 115.852C72.0976 116.288 75.0848 115.609 75.7052 115.468C75.761 115.456 75.7978 115.448 75.8122 115.444L75.9084 115.802L75.9482 115.794L75.8539 115.408C77.3867 115.05 80.1442 114.083 80.8523 112.908C81.2689 112.242 80.8523 110.992 80.2859 110.017C80.0866 109.628 79.8715 109.249 79.6413 108.879C79.3529 108.448 79.0576 108.022 78.7559 107.6C78.7109 107.542 78.6655 107.482 78.6197 107.425L78.6279 107.422L78.6076 107.394ZM86.334 25.127C88.8857 26.489 91.31 28.1013 93.571 29.948L93.5843 29.94L93.4985 29.8674C97.9888 26.6174 98.497 25.5424 97.8055 24.2424C97.1891 23.083 94.8098 21.5259 94.225 21.1436C94.1666 21.1053 94.1258 21.0787 94.1075 21.0656L94.0983 21.0776L94.0867 21.0703C93.9192 20.9626 93.6376 20.7815 93.2794 20.5769C92.5696 20.2135 91.8282 19.8802 91.1434 19.62C90.377 19.3868 89.5772 19.2853 88.8832 19.4943C87.8169 19.911 87.4004 21.161 87.0838 22.186L86.334 25.127ZM86.2241 25.0682L86.2832 25.0998L86.2241 25.0672V25.0682ZM116.135 74.3699L116.551 74.4268L116.552 74.4177L116.135 74.3699ZM112.549 67.2837C115.204 64.864 117.67 62.242 119.921 59.4411L119.92 59.4398C117.668 62.2414 115.202 64.864 112.545 67.2841L112.549 67.2837ZM28.5182 74.7607C28.5182 77.6523 27.2936 77.9607 24.6694 78.2607V79.3607H34.608V78.2607C31.359 77.9107 30.4426 77.0857 30.4426 73.9357V56.4357H30.5259L49.9867 80.144H51.2113V54.3773C51.2113 52.2773 51.4779 51.2773 54.6186 50.8773V49.7857H45.2215V50.8773C46.2908 50.8727 47.3364 51.1922 48.2206 51.794C49.1036 52.519 49.2869 53.6607 49.2869 55.2107V68.469H49.2036L34.0249 49.7857H24.8027V50.8773C25.1776 50.8773 25.6191 50.9357 26.5855 51.869C27.2747 52.5469 27.9202 53.2677 28.5182 54.0273V74.7607ZM66.9066 50.4857C72.0633 50.4857 74.6876 55.519 75.4706 58.5773H76.6953V49.069H75.3873C75.1624 49.9023 74.9458 50.5607 73.9461 50.5607C73.4663 50.5607 72.8769 50.3564 72.1416 50.1017C70.9234 49.6797 69.3051 49.119 67.1232 49.119C58.809 49.119 57.4594 55.0607 57.4594 57.7273C57.3504 59.4998 57.8794 61.2528 58.9507 62.669C60.017 64.0857 61.8331 65.6023 64.9322 67.094L67.8729 68.4523C70.7138 69.8107 72.7715 70.8523 72.7715 73.7857C72.7715 74.3523 72.5549 78.6857 67.3065 78.6857C65.4396 78.7212 63.6249 78.0687 62.208 76.8523C61.1585 75.9214 60.3083 74.7875 59.7088 73.519C59.069 72.1967 58.6068 70.7957 58.3342 69.3523H57.0679V80.1857H58.3342C58.5091 79.4857 58.7257 78.7023 59.6421 78.7023C60.1436 78.7023 60.7228 78.8998 61.4585 79.1507C62.7392 79.5873 64.4942 80.1857 67.1398 80.1857C75.1624 80.1857 77.9699 74.869 77.9699 71.019C77.9765 69.3658 77.5314 67.7421 76.6828 66.3233C75.8341 64.9047 74.6142 63.7447 73.1547 62.969L66.7316 59.7773C65.3815 59.2107 64.1473 58.3999 63.0911 57.3857C62.8152 57.0729 62.6004 56.7111 62.4579 56.319C62.2909 55.7797 62.2122 55.2168 62.2247 54.6523C62.2247 51.8023 64.6323 50.4857 66.9066 50.4857ZM105.295 49.7857H80.5441V50.8773C81.4139 50.8735 82.2773 51.0259 83.0933 51.3273C83.8764 51.7023 84.3846 52.444 84.3846 53.9857V75.1523C84.3846 77.8637 83.0485 78.0018 80.5587 78.2592L80.5441 78.2607V79.3607H96.2477V78.2607C93.1903 78.1273 91.4408 78.044 91.4408 75.1523V64.969C96.9225 64.969 97.6223 68.1607 98.1055 71.744H99.1968V56.9607H98.1055C97.514 60.4607 96.8558 63.569 91.4408 63.4773V53.3273C91.4408 51.4523 92.2239 51.2773 94.5815 51.2773C102.104 51.2773 103.287 54.0273 104.254 58.5773H105.295V49.7857Z" fill="white"/>
</g>
<defs>
<clipPath id="clip0_4151_32162">
<rect width="129.128" height="130" fill="white" transform="translate(0.843262)"/>
</clipPath>
</defs>
</svg>
