<svg width="121" height="124" viewBox="0 0 121 124" fill="none" xmlns="http://www.w3.org/2000/svg">
<path d="M27.471 102.63C24.4562 102.642 22.363 103.776 20.6158 105.601C19.9839 106.26 19.6284 106.198 19.0567 105.567C17.8041 104.179 17.7929 104.218 18.9382 102.804C21.2327 99.9718 21.9906 96.9156 20.3393 93.4266C19.4366 91.5159 18.6034 89.615 17.1083 88.0579C14.4696 85.3068 11.4059 84.7968 7.97361 85.954C6.06844 86.5954 6.11358 86.636 5.42524 84.6674C5.16194 83.9159 5.35189 83.6106 6.05152 83.3073C8.72026 82.1501 10.8229 80.311 11.3627 77.2779C11.7557 75.0756 11.6692 72.7689 11.1426 70.5743C10.7646 68.9998 10.2361 67.433 9.12837 66.1638C7.31536 64.0851 5.00019 63.2331 2.35966 63.1442C0.982976 63.0979 0.870133 62.98 1.01307 61.5678C1.15788 60.1208 1.15976 60.1324 2.53833 59.9933C4.55634 59.7905 6.49537 59.3655 8.0921 57.9359C8.47576 57.5939 8.84627 57.2442 9.10016 56.8038C10.8191 53.8132 11.9363 50.6217 11.5921 47.1038C11.2498 43.5916 9.12837 41.3854 6.13615 39.9461C4.92685 39.3646 4.91932 39.382 5.44028 38.1591C5.49106 38.0413 5.54372 37.9254 5.5945 37.8075C6.12298 36.6117 6.12862 36.5943 7.31536 37.0193C8.74659 37.5313 10.2098 37.8616 11.7275 37.7187C13.3261 37.568 14.7818 37.0058 15.9159 35.7829C17.396 34.1872 19.036 32.7441 19.9801 30.6673C21.5242 27.271 21.1161 23.6912 18.7294 20.861C17.2531 19.1088 17.2719 19.132 18.9984 17.6406C19.4968 17.2097 19.7996 17.3141 20.1757 17.7236C20.9788 18.5988 21.921 19.2943 22.9629 19.8255C24.8963 20.8127 26.9087 21.0851 28.9436 20.2042C30.8958 19.3599 32.8555 18.5814 34.5181 17.1074C37.4708 14.4877 38.4977 11.1881 37.3147 7.33201C36.6847 5.28034 36.7035 5.32091 38.5692 4.42452C39.312 4.06712 39.5471 4.35303 39.818 4.9809C40.5721 6.73698 41.5407 8.33465 43.1525 9.41651C44.3298 10.2067 45.5824 10.6877 47.0249 10.6549C49.2723 10.6027 51.5066 10.7109 53.6939 9.88403C57.0529 8.61478 59.2364 5.72468 59.3699 2.03284C59.4489 -0.152126 59.069 0.0507218 61.5704 0.00435655C62.1496 -0.00723477 62.428 0.203341 62.4656 0.823477C62.5126 1.62328 62.5803 2.42888 62.7289 3.21515C63.3533 6.52834 65.36 8.49114 68.3936 9.67538C70.6956 10.5756 73.0183 10.7959 75.3974 10.6027C77.8141 10.4056 79.5425 8.92581 80.906 6.97461C81.4157 6.24628 81.8746 5.46967 82.1605 4.60998C82.358 4.01689 82.6814 3.93768 83.2438 4.14826C85.2261 4.8901 85.2317 4.87078 84.5998 6.96301C83.8851 9.33151 83.9058 11.6401 85.0906 13.8734C85.5984 14.8297 86.3883 15.5232 87.1425 16.2361C88.4703 17.4899 89.783 18.7205 91.47 19.5609C94.8441 21.2416 98.4626 20.1713 100.78 17.9883C102.171 16.6785 102.136 16.6959 103.535 18.0385C104.154 18.6335 104.187 19.0141 103.563 19.6536C102.587 20.6524 101.763 21.7941 101.286 23.1542C100.633 25.0049 100.528 26.8421 101.312 28.6929C102.233 30.8701 103.099 33.0261 104.744 34.8286C107.449 37.7882 111.148 38.2654 114.637 36.7276C115.461 36.3644 115.761 36.4881 116.074 37.3072C116.775 39.1386 116.809 39.1231 115.103 40.0079C113.076 41.0608 111.502 42.5484 110.738 44.8126C110.697 44.9343 110.64 45.054 110.627 45.1796C110.242 48.798 110.176 52.3778 112.088 55.6485C113.497 58.0556 115.675 59.2438 118.321 59.6185C118.876 59.6977 119.451 59.8079 119.997 59.7422C120.721 59.6533 120.99 59.9218 120.963 60.6231C120.956 60.8163 120.969 61.0095 120.965 61.2008C120.948 62.866 120.924 62.8757 119.282 62.9491C116.805 63.0592 114.548 63.8049 113.004 65.8914C111.645 67.7286 110.949 69.9271 110.535 72.1777C110.341 73.2383 110.315 74.3627 110.403 75.4407C110.702 79.1364 112.833 81.4605 116.01 82.8649C116.839 83.232 117.029 83.5624 116.666 84.4201C115.927 86.1627 115.97 86.1704 114.236 85.6217C111.746 84.8316 109.237 84.6732 107.018 86.267C105.333 87.4764 103.851 89.0161 102.807 90.8707C102.077 92.1689 101.37 93.5077 101.107 95.0281C100.586 98.0303 101.592 100.526 103.501 102.717C104.586 103.961 104.603 103.948 103.418 105.149C103.396 105.172 103.373 105.194 103.351 105.217C102.448 106.133 102.461 106.117 101.534 105.257C99.7433 103.6 97.7516 102.418 95.2296 102.485C94.3964 102.506 93.6291 102.734 92.8749 103.061C90.9171 103.907 88.9894 104.742 87.3494 106.241C84.1954 109.125 83.8249 112.865 85.0794 116.431C85.164 116.673 85.305 116.903 85.3445 117.152C85.5589 118.481 84.3083 118.135 83.744 118.553C83.3547 118.841 82.7661 119.154 82.452 118.325C82.0853 117.365 81.6245 116.453 81.0095 115.63C79.4297 113.51 77.406 112.276 74.7486 112.361C72.535 112.431 70.3514 112.504 68.2187 113.395C65.266 114.629 63.6072 116.799 63.0129 119.934C62.8624 120.722 62.7533 121.52 62.7891 122.328C62.8135 122.888 62.569 123.114 62.0123 123.153C59.9134 123.301 59.8627 123.323 59.6426 121.174C59.368 118.489 58.548 116.062 56.1859 114.664C53.2425 112.921 50.0528 111.849 46.5829 112.367C43.3199 112.854 41.3207 115.041 40.0643 117.991C39.6637 118.931 39.2594 119.175 38.4187 118.671C38.2852 118.589 38.131 118.547 37.988 118.481C36.7656 117.919 36.7486 117.911 37.2226 116.659C38.2419 113.961 38.3849 111.239 36.7449 108.81C35.5224 107.002 33.9163 105.435 32.0543 104.282C30.5291 103.339 28.9023 102.535 27.4729 102.63H27.471ZM30.2865 75.7884C30.2996 75.6687 30.3109 75.5489 30.3241 75.4291C30.1868 75.3789 30.0514 75.3209 29.9103 75.2803C27.5369 74.5926 26.5269 73.2615 26.525 70.7752C26.5194 65.6653 26.525 60.5536 26.5175 55.4437C26.5175 54.7907 26.6285 54.1822 26.8316 53.5621C27.0761 52.8241 27.3808 52.884 27.9356 53.2394C28.5825 53.6548 28.8853 54.3252 29.3348 54.8893C34.725 61.6393 40.1264 68.3816 45.5278 75.1239C45.7403 75.3905 45.9265 75.8078 46.3196 75.686C46.7409 75.5547 46.6111 75.091 46.6055 74.7607C46.4832 68.7525 46.8537 62.7482 46.7954 56.74C46.7747 54.6845 46.7691 52.6328 46.6544 50.5773C46.5491 48.6763 47.2374 47.9074 49.0391 47.4979C49.3175 47.4341 49.6466 47.4747 49.955 47.0477C47.2675 46.8604 44.7172 46.9415 42.1595 47.0999C42.6184 47.5964 43.2089 47.4844 43.7317 47.5906C44.6138 47.7683 45.1592 48.2011 45.4883 49.0898C45.9115 50.2296 46.0319 51.3984 46.0394 52.5865C46.0582 56.4754 46.0544 60.3642 46.0337 64.2531C46.0319 64.7284 46.3027 65.4277 45.7065 65.6171C45.1517 65.7928 44.9091 65.1051 44.61 64.7264C40.1452 59.0969 35.6879 53.4616 31.2456 47.8108C30.7698 47.2062 30.2357 46.9241 29.4815 46.9318C27.3845 46.955 25.2894 46.9318 23.1924 46.9434C22.9009 46.9434 22.4495 46.8024 22.3762 47.1868C22.2991 47.5867 22.7749 47.6003 23.0438 47.7142C24.5352 48.344 25.7878 50.216 25.7897 51.8523C25.7916 54.7444 25.7897 57.6384 25.7897 60.5304C25.7897 64.2261 25.801 67.9237 25.784 71.6194C25.7727 73.9763 25.1164 74.7858 22.9065 75.2977C22.6602 75.3538 22.3254 75.3016 22.2069 75.8831C24.9321 75.2263 27.6008 74.8051 30.2921 75.7826L30.2865 75.7884ZM90.5109 75.8406C90.5222 75.7343 90.5334 75.6281 90.5429 75.5199C90.1441 75.4639 89.7473 75.3808 89.3467 75.3557C88.0678 75.2726 87.1387 74.6409 86.3771 73.5919C85.8147 72.8191 85.8486 71.9556 85.7978 71.1094C85.6229 68.2579 85.5571 65.4026 85.8523 62.5511C85.9125 61.9716 86.1044 61.4944 86.6911 61.28C88.6678 60.5632 91.1842 61.6547 92.1452 63.575C92.7414 64.7651 93.1251 66.0285 93.5708 67.2997C93.142 62.9762 93.236 58.6816 93.7589 54.3773C93.3132 54.6768 93.3508 55.1192 93.2624 55.4998C92.4236 59.1027 90.7535 60.5478 87.1782 60.7332C86.8924 60.7487 86.5426 60.797 86.4391 60.4763C86.2605 59.9315 85.8693 59.493 85.8241 58.8786C85.5947 55.7992 85.5853 52.7236 85.8523 49.6481C85.9633 48.3769 86.3846 47.8746 87.607 47.6486C89.7605 47.2525 91.9101 47.5674 94.0523 47.7722C95.8089 47.9403 97.0219 48.8908 97.8513 50.5213C98.4513 51.6997 98.9045 52.9303 99.3973 54.1668C99.6098 53.2491 99.3145 52.3875 99.2863 51.5104C99.2449 50.2759 98.8876 48.9932 99.5233 47.8379C99.8882 47.1733 99.6211 47.0593 99.0888 46.9917C98.8726 46.9647 98.6525 46.9454 98.4344 46.9454C91.4287 46.9454 84.4211 46.9434 77.4154 46.9512C77.1427 46.9512 76.7948 46.8391 76.6255 47.2178C76.8719 47.5249 77.1766 47.4206 77.4399 47.4496C79.3375 47.664 80.0691 48.402 80.0748 50.3687C80.0973 57.7581 80.0917 65.1495 80.0691 72.539C80.0635 74.0903 79.3639 74.8862 77.8875 75.2321C77.4813 75.3267 77.0374 75.3093 76.7064 75.7691C81.3123 74.6196 85.9106 74.9693 90.5109 75.8406ZM71.399 54.1841C71.399 52.5073 71.4028 50.8284 71.399 49.1516C71.399 48.4735 71.399 47.805 71.7244 47.1791C71.8447 46.9454 72.0648 46.6131 71.6811 46.4373C71.3313 46.2769 71.1921 46.6189 71.0661 46.87C70.6336 47.7297 69.9226 47.9248 69.0838 47.7085C68.3579 47.5211 67.6451 47.2699 66.9342 47.0284C64.4573 46.1861 61.9521 46.1301 59.4451 46.8179C55.5126 47.8958 53.1353 52.2658 54.1058 56.5662C54.3183 57.5108 54.6042 58.4246 55.3339 59.1124C56.7463 60.4435 58.2641 61.6219 59.983 62.5028C61.6061 63.3336 63.2442 64.1314 64.8654 64.9641C65.8189 65.4528 66.7179 66.0208 67.4457 66.8515C70.1164 69.9039 68.8149 74.7742 65.0008 75.7343C61.8299 76.5322 59.0935 75.5972 57.0002 73.0316C55.6311 71.3548 54.4932 69.5001 54.2468 67.2302C54.2224 67.008 54.1603 66.7472 53.8857 66.7414C53.5735 66.7356 53.5811 67.0235 53.5811 67.2379C53.5754 70.0005 53.5754 72.765 53.5811 75.5276C53.5811 75.6803 53.5472 75.8947 53.7296 75.943C54.0005 76.0145 54.1302 75.7672 54.2055 75.574C54.5045 74.809 55.1063 74.6795 55.8078 74.6737C56.3815 74.6699 56.9193 74.78 57.4497 75.006C58.8095 75.5875 60.188 76.1265 61.6588 76.3197C65.3186 76.7988 68.3598 75.5508 70.8009 72.7399C72.2171 71.1075 72.5049 69.1408 72.5745 67.0119C72.6835 63.6485 71.1357 61.4751 68.3654 60.0262C66.1631 58.8748 63.9401 57.7659 61.7359 56.6183C60.2727 55.8572 58.9505 54.9395 58.012 53.4809C56.7237 51.4834 57.2823 48.8502 59.3304 47.664C62.4242 45.8712 67.5341 46.9608 69.2418 50.3126C69.902 51.6109 70.6336 52.8743 71.4046 54.1861L71.399 54.1841ZM41.1006 22.0646C40.8975 21.0561 40.6417 20.0593 40.1414 19.1571C39.5189 18.0385 38.6143 17.6869 37.4332 18.1873C36.57 18.5543 35.7274 18.9987 34.9262 19.4913C33.3351 20.4727 31.8757 21.6222 30.8206 23.2353C30.2583 24.095 30.136 24.945 30.7717 25.8202C31.3641 26.6374 32.1747 27.186 32.9891 27.7289C33.322 27.951 33.5759 27.783 33.8316 27.5705C35.9568 25.8144 38.2175 24.2631 40.5966 22.8953C40.9163 22.7118 41.1683 22.4915 41.0987 22.0607L41.1006 22.0646ZM91.4832 23.8786C91.4795 23.4884 91.4569 23.0981 91.1729 22.8006C89.0928 20.6215 86.8284 18.7495 83.8212 18.0965C83.0331 17.9245 82.4181 18.1699 81.9254 18.8171C81.3461 19.5763 81.1881 20.492 80.9493 21.3884C80.7311 22.2037 80.9117 22.6712 81.6753 23.0827C83.3623 23.9887 84.9552 25.0648 86.488 26.2297C88.6847 27.8969 87.9907 28.1423 90.4582 26.0501C91.1071 25.4995 91.5189 24.7905 91.4832 23.8806V23.8786ZM53.1899 110.748C57.4647 110.771 58.3506 109.631 57.5908 106.25C57.461 105.669 57.2409 105.391 56.6165 105.331C54.497 105.128 52.4019 104.751 50.3387 104.201C47.8505 103.536 47.7922 103.567 46.8368 106.055C46.7446 106.293 46.6675 106.54 46.6111 106.789C46.3441 107.962 46.7014 108.824 47.7734 109.316C49.7651 110.23 51.8621 110.709 53.188 110.75L53.1899 110.748ZM68.5234 12.4167C64.7902 12.4013 63.9626 13.4059 64.5607 16.7017C64.698 17.4628 65.0177 17.8086 65.7606 17.8782C68.2281 18.11 70.6392 18.6529 73.0127 19.3793C73.511 19.5319 73.8552 19.4121 74.1317 18.9697C74.6564 18.1274 75.1266 17.2522 75.4049 16.294C75.7642 15.0653 75.2733 14.0975 74.1373 13.5585C72.2453 12.6582 70.2179 12.5365 68.5234 12.4148V12.4167ZM13.2058 54.0103C13.2302 54.7135 13.1757 55.4186 13.3412 56.116C13.6346 57.3621 14.2251 57.9281 15.4626 58.0498C16.2808 58.131 17.0744 57.9243 17.8681 57.7504C18.2198 57.6731 18.389 57.4413 18.4229 57.0742C18.6636 54.3194 19.1977 51.6225 19.9933 48.9796C20.1231 48.5488 20.0478 48.2281 19.6755 47.9866C18.8291 47.4399 17.9884 46.8777 16.9992 46.6382C15.7278 46.333 14.8834 46.7715 14.3906 48.0156C13.6308 49.9359 13.1888 51.9238 13.2077 54.0083L13.2058 54.0103ZM103.146 84.5341C103.238 83.516 102.751 82.8727 101.906 82.467C101.223 82.1405 100.503 81.9415 99.7659 81.7696C99.2656 81.6536 99.0211 81.8352 98.8011 82.2641C97.5354 84.7466 96.0346 87.0707 94.3137 89.244C94.0353 89.5956 93.9695 89.9028 94.2309 90.2776C94.8328 91.1411 95.4308 92.0047 96.3035 92.6132C97.1987 93.2372 98.1617 93.1464 98.944 92.4065C99.8016 91.5951 100.55 90.6756 101.139 89.6594C102.062 88.0656 102.993 86.4505 103.146 84.536V84.5341ZM25.2744 92.9822C25.6148 92.9629 26.0793 92.7079 26.4912 92.3466C27.0667 91.8405 27.503 91.2146 27.9205 90.5693C28.1876 90.1578 28.1725 89.8255 27.866 89.443C26.1207 87.2484 24.6142 84.8838 23.2582 82.4187C23.0589 82.0535 22.8125 81.9222 22.4175 82.0091C21.4659 82.2197 20.5218 82.4631 19.6867 82.9924C18.9119 83.4831 18.3627 84.2462 18.673 85.1697C19.6736 88.1448 21.2835 90.7084 23.8337 92.5553C24.1911 92.8142 24.5954 93.0054 25.2725 92.9822H25.2744ZM103.304 38.0046C103.253 37.8249 103.198 37.539 103.091 37.2763C102.273 35.2806 101.223 33.4202 99.7772 31.8361C97.4583 29.2956 95.933 29.4676 94.1049 32.3847C93.7871 32.8928 93.7702 33.2637 94.1614 33.7525C95.4703 35.3907 96.6571 37.1217 97.7253 38.9377C99.1227 41.3158 99.4556 41.4066 101.932 40.147C102.307 39.9558 102.61 39.6853 102.865 39.3608C103.151 39.0014 103.275 38.5726 103.305 38.0065L103.304 38.0046ZM64.6679 107.73H64.6472C64.6472 107.923 64.6453 108.115 64.6472 108.308C64.6698 110.193 65.3882 110.957 67.2069 110.935C69.6198 110.906 71.9162 110.336 74.0602 109.191C75.7623 108.283 76.067 107.313 75.2507 105.567C75.0344 105.105 74.7486 104.678 74.5304 104.216C74.2408 103.61 73.8308 103.515 73.2233 103.72C71.0793 104.44 68.877 104.919 66.6351 105.172C64.856 105.373 64.7413 105.47 64.6679 107.344C64.6623 107.471 64.6679 107.601 64.6679 107.728V107.73ZM57.5193 15.3455C57.5193 15.1214 57.5231 14.8953 57.5193 14.6712C57.4817 12.9383 56.7764 12.1772 55.095 12.239C53.0601 12.3143 51.0402 12.5597 49.1426 13.3943C46.1522 14.708 45.7817 16.0564 47.6117 18.7978C48.0047 19.3889 48.4317 19.5628 49.1181 19.3445C51.0929 18.7185 53.1146 18.2897 55.1609 17.9922C57.2917 17.6831 57.4629 18.2568 57.5212 15.3455H57.5193ZM16.0193 65.0124C15.583 65.0336 15.141 65.0201 14.7104 65.0858C13.7926 65.2268 13.0591 65.988 13.044 66.8805C12.9989 69.4422 13.3186 71.942 14.4076 74.2835C15.4946 76.6191 16.7133 76.9959 18.8987 75.688C19.1413 75.5431 19.352 75.3441 19.5927 75.1973C20.046 74.921 20.1268 74.5598 19.9613 74.0536C19.2354 71.8551 18.8874 69.5697 18.5282 67.2881C18.2988 65.8238 17.4625 65.0645 16.0193 65.0104V65.0124ZM91.5866 98.6137C91.5641 98.4939 91.5547 98.3625 91.5152 98.2447C91.045 96.8769 89.9673 96.1196 88.8163 95.4454C88.5624 95.2966 88.3349 95.4686 88.1374 95.6347C86.1062 97.3522 83.919 98.8281 81.6301 100.157C81.2991 100.349 80.9662 100.563 81.0772 101.048C81.3048 102.047 81.491 103.065 82.0439 103.946C82.7191 105.024 83.6613 105.371 84.7785 104.902C86.9469 103.994 88.854 102.676 90.4394 100.899C91.013 100.256 91.4531 99.5159 91.5866 98.6137ZM18.8517 38.2886C18.7727 39.0729 19.068 39.6718 19.7018 40.093C20.5613 40.6648 21.5392 40.887 22.5247 41.0744C22.9122 41.1478 23.1811 40.9642 23.3654 40.6146C24.6105 38.2712 26.0473 36.0572 27.6629 33.965C27.9356 33.6134 27.9563 33.285 27.6892 32.9218C27.1419 32.1799 26.6228 31.411 25.9157 30.816C24.838 29.908 23.8412 29.9525 22.8426 30.9455C21.6653 32.1162 20.7136 33.4724 19.9124 34.9252C19.3426 35.9568 18.9401 37.0792 18.8517 38.2866V38.2886ZM41.1495 101.179C41.2003 100.725 40.9671 100.461 40.6041 100.262C38.2814 98.9865 36.128 97.4526 34.063 95.7815C33.7696 95.5439 33.495 95.3971 33.1395 95.654C32.2951 96.2684 31.4676 96.9098 30.8827 97.8004C30.2357 98.7856 30.3429 99.7226 31.1591 100.573C32.6411 102.118 34.2943 103.447 36.269 104.243C39.1484 105.404 40.2468 105.416 41.0893 101.556C41.1157 101.43 41.1288 101.303 41.1495 101.175V101.179ZM108.936 54.6613C108.844 54.0122 108.733 52.828 108.489 51.6727C108.304 50.8014 107.998 49.9475 107.661 49.1226C106.473 46.1977 105.128 45.8191 102.538 47.5848C101.981 47.9654 101.814 48.3382 102.027 49.0163C102.687 51.126 103.104 53.2955 103.416 55.4882C103.749 57.8335 103.815 57.8721 106.168 57.8992C106.23 57.8992 106.292 57.8992 106.356 57.8992C108.186 57.8934 108.961 57.082 108.936 54.6613ZM108.76 68.8105C108.776 65.4065 107.84 64.483 104.934 64.9158C103.986 65.0568 103.589 65.5011 103.542 66.4613C103.445 68.4569 102.995 70.3985 102.538 72.3304C101.942 74.8495 101.987 74.9964 104.361 75.9507C104.564 76.0319 104.772 76.1072 104.985 76.1555C106.365 76.4743 107.174 75.9951 107.695 74.639C108.415 72.7631 108.731 70.8158 108.763 68.8105H108.76Z" fill="white"/>
</svg>
