<svg width="130" height="130" viewBox="0 0 130 130" fill="none" xmlns="http://www.w3.org/2000/svg">
<g clip-path="url(#clip0_4151_32162)">
<path fill-rule="evenodd" clip-rule="evenodd" d="M54.329 11.0977L54.2816 10.8917C55.5057 10.6202 56.7043 10.2439 57.8638 9.76667C62.7707 7.56667 63.0373 2.55 62.9123 0.391667V0.0598629L62.8956 0.0423177H62.9123V0L62.9502 0.0423177H66.8445V0.425651C66.7362 3.75898 66.9278 6.79232 70.1185 8.89233C71.7565 9.9435 73.5851 10.6627 75.5002 11.009L75.4996 11.0117C76.7691 11.2439 78.0586 11.3497 79.349 11.3276C84.714 11.1692 86.7884 6.32761 87.4965 4.28594L87.6298 3.91927L88.1463 4.13594L90.9288 5.30261L91.2704 5.45261L91.1204 5.79427C89.7458 8.82758 88.7628 11.7109 90.9038 14.8692C92.0776 16.3999 93.5064 17.7164 95.1275 18.7609L95.0276 18.8987L95.0517 18.916L95.1275 18.8113C96.1772 19.6373 97.3277 20.3261 98.5515 20.8613C103.55 22.7697 107.266 19.1447 108.698 17.528L108.965 17.2363L108.95 17.7677L108.976 17.7387L108.99 17.2363L109.382 17.6363L111.506 19.778L111.764 20.0447L111.489 20.303C109.065 22.5863 107.057 24.8697 107.824 28.6363C108.344 30.5162 109.142 32.308 110.19 33.953L110.183 33.9568C110.899 35.1569 111.757 36.2657 112.739 37.2591C116.646 40.9424 121.395 39.0174 123.336 38.0924L123.686 37.9174L123.546 38.2646L123.548 38.2682L123.686 37.9264L123.902 38.4514L125.043 41.2431L125.185 41.5931L124.827 41.7181C121.711 42.8931 118.904 44.2181 118.162 47.9431C117.879 49.9562 117.958 52.0037 118.395 53.9888L118.42 53.9843C118.655 55.1327 119.019 56.2509 119.503 57.3177C121.728 62.2094 126.826 62.3177 128.984 62.2178H129.376L128.767 62.7592L128.781 62.7586L129.376 62.2266V66.1849H128.984C125.652 66.0932 122.603 66.3849 120.52 69.5766C119.27 71.6307 119.017 73.1599 118.655 75.3416L118.605 75.6429L118.612 75.6442C118.456 76.8402 118.398 78.0469 118.437 79.2525C118.62 84.6275 123.127 86.4525 125.168 87.1525L125.532 87.2767L125.535 87.275L125.534 87.2775L125.318 87.8L124.169 90.5833L124.019 90.925L123.677 90.775C120.636 89.4167 117.754 88.45 114.597 90.6C112.681 92.0033 111.862 93.3175 110.708 95.1692L110.703 95.1775L110.699 95.1833C110.635 95.285 110.571 95.3875 110.506 95.4917L110.155 95.2875L110.154 95.2892L110.506 95.4942C109.802 96.5708 109.197 97.7083 108.698 98.8942C106.816 103.894 110.198 107.486 111.814 108.894L112.106 109.152L111.475 109.123L111.467 109.132L112.106 109.167L111.714 109.567L109.581 111.7L109.315 111.967L109.057 111.692C106.766 109.275 104.475 107.275 100.726 108.058C98.6648 108.535 96.7354 109.462 95.0751 110.772L95.0776 110.775C94.0795 111.45 93.1382 112.206 92.2617 113.033C88.5962 116.958 90.404 121.517 91.3537 123.45L91.5203 123.808L90.973 123.557L90.9563 123.564L91.4953 123.812L90.9788 124.028L88.1963 125.178L87.8464 125.32L87.7131 124.97C86.5218 121.862 85.3139 119.137 81.5567 118.437C79.4819 118.059 77.3512 118.129 75.3064 118.641L75.3085 118.65C74.1386 118.887 73.0024 119.267 71.9262 119.783C67.0361 122.008 66.7695 126.908 66.9278 129.058V129.45L66.5721 129.094H66.5486L66.9111 129.45H62.9623V129.075C63.0539 125.742 62.8457 122.708 59.63 120.617C57.8474 119.528 55.8644 118.807 53.7984 118.5L53.8008 118.487C52.5839 118.263 51.3526 118.127 50.1162 118.078C44.7428 118.262 42.9767 122.77 42.2769 124.812L42.1436 125.178L41.9074 124.591L41.8889 124.641L42.1103 125.175L41.5938 124.967L38.8113 123.808L38.4614 123.658L38.6113 123.317C39.9693 120.275 40.869 117.642 38.7196 114.483C37.4604 112.712 35.8742 111.197 34.0465 110.022L34.0377 110.033C33.0385 109.267 31.9504 108.623 30.797 108.117C25.7986 106.233 22.3663 109.9 20.9334 111.517L20.6751 111.808L20.2752 111.417C19.958 111.099 19.6633 110.791 19.3559 110.469C19.0741 110.174 18.7815 109.868 18.4508 109.533L18.1842 109.267L18.4185 109.246L18.3927 109.22L18.1842 109.233L18.4591 108.975C20.875 106.683 22.6828 103.733 21.7914 100.025C21.2972 98.1125 20.4247 96.3192 19.2255 94.75L19.5813 94.5008L19.5789 94.4983L19.2172 94.7508C18.4643 93.7083 17.6104 92.7425 16.668 91.8675C12.7442 88.2008 8.3372 89.9842 6.42945 90.9342L6.07122 91.1092L5.85462 90.5842L4.70497 87.8008L4.56335 87.4508L5.24204 87.6942L5.25 87.6908L4.57169 87.4517L4.92158 87.3183C8.02897 86.1267 10.7531 84.8183 11.4612 81.0182C11.8444 78.5182 11.2363 74.7016 10.4949 72.2766L10.5261 72.2687C10.1212 70.9454 9.37486 69.7521 8.36221 68.8091C6.08697 67.0769 3.26963 66.2113 0.41462 66.3674V62.7159L0.372925 62.6771H0.41462V62.6757L0.415926 62.6771H0.747811C4.08013 62.7604 7.11255 62.5521 9.19525 59.3438C10.2998 57.6016 11.0105 55.6392 11.278 53.5938L11.2904 53.5963C11.5139 52.449 11.6489 51.2862 11.6945 50.1181C11.5112 44.7514 6.69603 42.6931 4.62165 41.9931L4.24677 41.8681L5.05654 41.5838L5.00774 41.565L4.24677 41.8335L4.46337 41.3085L5.61302 38.5252L5.76297 38.1835L6.10454 38.3335C9.14527 39.6918 12.0527 40.5418 15.1268 38.2752C16.6969 37.0337 18.0606 35.5515 19.1672 33.8835L19.1873 33.8981C19.9092 32.9152 20.5068 31.8468 20.9667 30.7171C22.8578 25.7171 19.4505 22.2921 17.826 20.8671L17.5344 20.6087L18.2106 20.6417L18.1752 20.6086L17.5344 20.5683L17.9343 20.1683L20.067 18.035L20.3335 17.7767L20.5918 18.0433C22.8828 20.46 25.2154 22.3433 28.9226 21.56C30.9423 21.0087 32.8527 20.1152 34.5709 18.9183L34.825 19.2922L34.8587 19.2696L34.6209 18.9197C35.7372 18.1877 36.7981 17.3743 37.7949 16.4863C41.4605 12.553 39.3195 8.06966 38.3697 6.13632L38.1781 5.77799L38.3937 5.88044L38.1781 5.77591L38.703 5.55924L41.4855 4.40924L41.8354 4.26757L41.9687 4.61757C43.16 7.72591 44.5096 10.4509 48.2667 11.1592C50.2725 11.4305 52.3099 11.3544 54.2899 10.9342L54.3276 11.098L54.329 11.0977ZM17.7443 67.5498C15.0747 65.1366 12.5931 62.5228 10.3216 59.7312L10.3277 59.7201C12.6099 62.5182 15.103 65.137 17.7852 67.5536L17.7443 67.5498ZM87.8531 4.40119L87.634 3.92829L87.8539 4.39839L87.8531 4.40119ZM13.8688 74.8595C13.7605 74.4262 13.219 71.1928 13.5023 70.0095C13.8436 68.5854 14.6425 67.9686 20.2062 68.9326C20.3493 70.4199 20.5671 71.9037 20.8603 73.3783C21.1572 74.8719 21.5291 76.3447 21.9733 77.7914L21.9439 77.8126L21.9081 77.71C21.1096 78.2956 20.2748 78.83 19.4088 79.31C18.4424 79.86 17.4761 80.3267 16.4264 79.86C15.2351 79.0267 14.2604 76.4262 13.8688 74.8595ZM20.2084 60.3285C20.4967 57.3468 21.0841 54.3942 21.966 51.5161L21.9553 51.5083L21.9414 51.5516C17.1678 48.5349 16.6097 48.7183 15.6683 49.8849C14.8314 50.9221 14.3763 53.731 14.2622 54.4353C14.2501 54.5107 14.2417 54.5619 14.2373 54.5844L14.2687 54.5924C14.2502 54.7044 14.2257 54.8404 14.1978 54.9956C13.9617 56.3067 13.4792 58.9867 14.2687 60.1341C14.8852 60.9674 16.3014 60.8507 17.3928 60.7424L20.2084 60.3285ZM25.3365 43.436C26.6863 40.9239 28.2697 38.5524 30.0621 36.3516L30.0102 36.2676C26.8596 32.0697 25.8151 31.6383 24.524 32.3172C23.3752 32.9212 22.0246 35.0619 21.6691 35.6255C21.6346 35.6802 21.6095 35.7199 21.5948 35.7421L21.6082 35.7522C20.5585 37.4856 19.7254 39.6939 20.0086 40.8939C20.2003 41.9522 21.4499 42.3439 22.5079 42.6606L25.3365 43.436ZM39.9062 27.3956C41.15 26.5645 42.4307 25.7988 43.743 25.1003L43.6771 24.6927L43.6763 24.6878L43.6276 24.3858C43.1605 22.521 42.7357 21.3055 42.3118 20.5242C42.0311 20.087 41.7169 19.6967 41.3837 19.4322C40.9751 19.1852 40.5422 19.1749 40.0526 19.2333C38.5863 19.4083 36.1787 21.0917 35.9788 21.2583L35.9626 21.2334C34.5295 22.3755 32.3292 24.2132 31.98 25.7604C31.8471 26.7066 32.7705 27.462 33.5869 28.1299C33.6406 28.1737 33.6937 28.2172 33.7461 28.2604L36.1704 30.1771L36.0544 30.2752L36.0578 30.2773C37.2841 29.2518 38.5684 28.2895 39.9062 27.3956ZM51.6196 21.828C54.5144 20.9377 57.4994 20.3412 60.529 20.0523L60.5295 20.0505L60.2465 20.0762C61.1295 14.6012 60.6713 13.6429 59.2717 13.2096C57.915 12.7895 54.9689 13.4423 54.5471 13.5358L54.5149 13.5429L54.4991 13.4824L54.4824 13.4864L54.4899 13.5189C53.1319 13.7939 50.4661 14.7606 49.5747 15.9272C48.9915 16.7606 49.8829 19.2606 51.7907 21.7606L51.6117 21.8172L51.6196 21.828ZM69.1751 20.0666C72.1073 20.3558 74.9896 20.9327 77.7826 21.7807L77.7879 21.7732L77.7079 21.7528C80.607 17.0278 80.6987 15.8612 79.574 14.9195C78.4886 14.0107 75.541 13.6143 74.8423 13.5203L74.7785 13.5116L74.7755 13.5275C74.0257 13.4275 70.2852 13.0692 69.3438 14.0108C68.1488 15.2062 68.8353 18.4509 69.1042 19.7222L69.1043 19.7232C69.134 19.8633 69.1587 19.9799 69.1751 20.0666ZM99.2971 36.1102C101.189 38.4004 102.839 40.8619 104.231 43.4546L104.245 43.4522L104.166 43.3083C109.565 42.0167 109.931 41.1833 109.798 39.725C109.666 38.2843 108.169 35.8435 107.939 35.5675L107.915 35.5839C107.232 34.5173 105.491 32.3672 103.575 32.1839C102.65 32.1339 101.801 33.0173 101.076 33.7756C100.574 34.2999 100.109 34.9637 99.7237 35.5135C99.567 35.7366 99.4237 35.9416 99.2971 36.1102ZM107.59 51.5134C108.451 54.3215 109.038 57.2205 109.333 60.1703L109.353 60.1752L109.332 59.985C114.555 60.76 115.53 60.285 115.996 58.885C116.404 57.6612 115.971 55.5521 115.806 54.7457C115.782 54.6299 115.764 54.5405 115.755 54.485L115.922 54.4388L115.92 54.4256L115.705 54.4847C115.673 54.3603 115.636 54.1908 115.593 53.9885C115.315 52.7005 114.751 50.086 113.347 49.3514C112.297 48.8847 111.164 49.4514 110.19 49.9681L107.59 51.5134ZM109.371 68.7178C109.101 71.6712 108.539 74.583 107.698 77.4113L107.719 77.4268L107.732 77.3852C112.506 80.4102 113.097 80.3602 114.105 79.3018C115.113 78.2438 115.655 74.5959 115.655 74.3687C115.913 72.8103 115.93 70.3103 115.271 69.0687C114.63 68.1687 113.514 68.1603 112.414 68.2353L109.371 68.7178ZM102.014 89.5217C101.199 90.7408 100.328 91.915 99.4054 93.0417L99.4079 93.0467L99.6262 92.7767C102.775 96.8183 103.6 97.4517 104.9 96.7683C106.046 96.1658 107.581 93.7142 107.984 93.0708L107.985 93.07C108.039 92.9842 108.072 92.9308 108.082 92.9183L108.098 92.9308C108.932 91.5617 110.38 89.0567 110.073 87.9433C109.777 86.87 108.55 86.505 107.516 86.1975L107.391 86.16C106.332 85.8433 105.391 85.66 104.45 85.51L104.525 85.3683L104.478 85.36C103.735 86.7858 102.913 88.1758 102.014 89.5217ZM93.3706 99.1133C91.0796 101.014 88.6003 102.687 85.9661 104.102L85.967 104.106L86.0303 104.076C87.2716 109.592 87.9381 109.984 89.3626 109.859C90.7872 109.734 93.528 107.842 93.8113 107.626L94.1387 107.988L94.1562 107.976L93.8279 107.627C95.1109 106.71 97.4019 104.293 97.5185 103.46C97.6351 102.627 96.7604 101.585 95.9106 100.885C95.6491 100.659 95.3808 100.442 95.105 100.233C94.5344 99.8483 93.9562 99.475 93.3706 99.1133ZM56.0446 108.573C54.6053 108.287 53.1854 107.931 51.7895 107.507L51.7871 107.511L51.8407 107.527C48.8249 112.302 49.0332 112.96 50.1745 113.893C51.315 114.826 54.4603 115.501 54.8638 115.56L54.8731 115.493C56.4309 115.752 59.5383 115.735 60.4131 114.977C61.0212 114.535 61.1795 113.31 61.0712 112.218C60.9468 111.205 60.7385 110.203 60.4487 109.223C58.9753 109.081 57.5055 108.864 56.0446 108.573ZM43.9361 104.286C41.2924 102.895 38.7883 101.24 36.4637 99.3417L36.2302 99.4858L36.1834 99.5142C31.8259 102.597 31.5364 103.311 32.23 104.568C32.9873 105.958 35.0889 107.348 35.8238 107.834L35.8246 107.835C35.9695 107.931 36.0612 107.991 36.0785 108.009C37.5281 108.984 39.9526 110.018 41.4105 109.818C42.3185 109.651 42.7851 108.151 43.0766 107.109L43.7681 104.209L43.9352 104.291L43.9361 104.286ZM30.3712 93.3075C28.4128 90.9558 26.7058 88.415 25.2725 85.7283C19.7665 86.96 19.3006 87.66 19.4505 89.1175C19.5824 90.4017 21.1473 92.8017 21.5658 93.4442C21.6227 93.5317 21.6585 93.5858 21.6665 93.6008L21.6446 93.615C22.5625 94.8908 24.6253 97.0775 25.8986 97.3108C27.0483 97.4108 27.8064 96.4775 28.5061 95.5858C29.2059 94.6942 29.7558 93.8775 30.1723 93.0858L30.3667 93.315L30.3712 93.3075ZM69.2519 109.209L69.1862 109.216L69.1858 109.217L69.2519 109.209ZM78.1373 107.394C75.2958 108.283 72.3803 108.882 69.4346 109.191C68.4692 114.762 68.9442 115.378 70.3434 115.852C71.6273 116.288 74.6144 115.609 75.2348 115.468C75.2906 115.456 75.3275 115.448 75.3419 115.444L75.4381 115.802L75.4778 115.794L75.3835 115.408C76.9164 115.05 79.6739 114.083 80.382 112.908C80.7986 112.242 80.382 110.992 79.8155 110.017C79.6162 109.628 79.4011 109.249 79.171 108.879C78.8826 108.448 78.5873 108.022 78.2856 107.6C78.2406 107.542 78.1952 107.482 78.1494 107.425L78.1575 107.422L78.1373 107.394ZM85.8637 25.127C88.4154 26.489 90.8397 28.1013 93.1007 29.948L93.114 29.94L93.0282 29.8674C97.5185 26.6174 98.0267 25.5424 97.3352 24.2424C96.7187 23.083 94.3395 21.5259 93.7546 21.1436C93.6963 21.1053 93.6555 21.0787 93.6372 21.0656L93.628 21.0776L93.6163 21.0703C93.4489 20.9626 93.1673 20.7815 92.8091 20.5769C92.0993 20.2135 91.3578 19.8802 90.6731 19.62C89.9066 19.3868 89.1069 19.2853 88.4129 19.4943C87.3466 19.911 86.93 21.161 86.6135 22.186L85.8637 25.127ZM85.7537 25.0682L85.8129 25.0998L85.7537 25.0672V25.0682ZM115.665 74.3699L116.08 74.4268L116.081 74.4177L115.665 74.3699ZM112.078 67.2837C114.734 64.864 117.199 62.242 119.45 59.4411L119.449 59.4398C117.198 62.2414 114.732 64.864 112.075 67.2841L112.078 67.2837ZM28.0479 74.7607C28.0479 77.6523 26.8232 77.9607 24.199 78.2607V79.3607H34.1377V78.2607C30.8887 77.9107 29.9723 77.0857 29.9723 73.9357V56.4357H30.0556L49.5164 80.144H50.741V54.3773C50.741 52.2773 51.0076 51.2773 54.1483 50.8773V49.7857H44.7511V50.8773C45.8205 50.8727 46.8661 51.1922 47.7502 51.794C48.6333 52.519 48.8166 53.6607 48.8166 55.2107V68.469H48.7333L33.5545 49.7857H24.3323V50.8773C24.7072 50.8773 25.1488 50.9357 26.1151 51.869C26.8043 52.5469 27.4499 53.2677 28.0479 54.0273V74.7607ZM66.4362 50.4857C71.593 50.4857 74.2172 55.519 75.0003 58.5773H76.2249V49.069H74.917C74.6921 49.9023 74.4755 50.5607 73.4758 50.5607C72.996 50.5607 72.4065 50.3564 71.6712 50.1017C70.453 49.6797 68.8348 49.119 66.6528 49.119C58.3387 49.119 56.9891 55.0607 56.9891 57.7273C56.8801 59.4998 57.4091 61.2528 58.4803 62.669C59.5467 64.0857 61.3628 65.6023 64.4618 67.094L67.4026 68.4523C70.2434 69.8107 72.3011 70.8523 72.3011 73.7857C72.3011 74.3523 72.0845 78.6857 66.8361 78.6857C64.9693 78.7212 63.1546 78.0687 61.7377 76.8523C60.6882 75.9214 59.838 74.7875 59.2384 73.519C58.5986 72.1967 58.1364 70.7957 57.8638 69.3523H56.5976V80.1857H57.8638C58.0388 79.4857 58.2554 78.7023 59.1718 78.7023C59.6733 78.7023 60.2524 78.8998 60.9881 79.1507C62.2688 79.5873 64.0239 80.1857 66.6695 80.1857C74.6921 80.1857 77.4996 74.869 77.4996 71.019C77.5061 69.3658 77.061 67.7421 76.2124 66.3233C75.3638 64.9047 74.1438 63.7447 72.6843 62.969L66.2613 59.7773C64.9111 59.2107 63.677 58.3999 62.6207 57.3857C62.3448 57.0729 62.13 56.7111 61.9876 56.319C61.8206 55.7797 61.7418 55.2168 61.7543 54.6523C61.7543 51.8023 64.1619 50.4857 66.4362 50.4857ZM104.825 49.7857H80.0738V50.8773C80.9436 50.8735 81.807 51.0259 82.623 51.3273C83.4061 51.7023 83.9143 52.444 83.9143 53.9857V75.1523C83.9143 77.8637 82.5782 78.0018 80.0884 78.2592L80.0738 78.2607V79.3607H95.7773V78.2607C92.7199 78.1273 90.9705 78.044 90.9705 75.1523V64.969C96.4521 64.969 97.1519 68.1607 97.6351 71.744H98.7265V56.9607H97.6351C97.0436 60.4607 96.3855 63.569 90.9705 63.4773V53.3273C90.9705 51.4523 91.7536 51.2773 94.1112 51.2773C101.634 51.2773 102.817 54.0273 103.783 58.5773H104.825V49.7857Z" fill="white"/>
</g>
<defs>
<clipPath id="clip0_4151_32162">
<rect width="129.128" height="130" fill="white" transform="translate(0.372925)"/>
</clipPath>
</defs>
</svg>
