<svg width="300" height="23" viewBox="0 0 300 23" fill="none" xmlns="http://www.w3.org/2000/svg">
<path d="M7.93049 22.1942C6.34439 22.1942 4.8193 21.9366 3.35521 21.4215C1.91145 20.9064 0.793049 20.2265 0 19.3817L0.884555 17.6201C1.65727 18.4031 2.68417 19.0418 3.96525 19.5363C5.24632 20.0102 6.56807 20.2471 7.93049 20.2471C9.84194 20.2471 11.2755 19.8968 12.2313 19.1963C13.187 18.4752 13.6648 17.548 13.6648 16.4148C13.6648 15.5494 13.4005 14.8592 12.8718 14.3441C12.3634 13.829 11.7331 13.4376 10.9807 13.1697C10.2283 12.8813 9.18107 12.5722 7.83898 12.2425C6.23255 11.8305 4.95147 11.439 3.99575 11.0681C3.04002 10.6767 2.21647 10.0894 1.52509 9.30651C0.854053 8.52356 0.518532 7.46247 0.518532 6.12322C0.518532 5.03122 0.803216 4.04224 1.37258 3.15628C1.94195 2.24972 2.81634 1.52859 3.99575 0.992887C5.17515 0.457189 6.63924 0.18934 8.38802 0.18934C9.60809 0.18934 10.7977 0.364472 11.9567 0.714736C13.1361 1.0444 14.1529 1.50798 15.0069 2.10549L14.2444 3.92892C13.3497 3.33141 12.3939 2.88843 11.3772 2.59998C10.3605 2.29092 9.36408 2.1364 8.38802 2.1364C6.51724 2.1364 5.10398 2.50726 4.14826 3.249C3.21287 3.97013 2.74517 4.9076 2.74517 6.06141C2.74517 6.92677 2.99935 7.6273 3.50772 8.163C4.03642 8.67809 4.68712 9.07987 5.45984 9.36832C6.25289 9.63617 7.31028 9.93492 8.63203 10.2646C10.1978 10.6561 11.4585 11.0475 12.4143 11.439C13.3903 11.8099 14.2139 12.3868 14.8849 13.1697C15.556 13.9321 15.8915 14.9725 15.8915 16.2912C15.8915 17.3832 15.5966 18.3825 15.0069 19.289C14.4376 20.175 13.553 20.8858 12.3533 21.4215C11.1535 21.9366 9.67926 22.1942 7.93049 22.1942ZM30.082 22.1942C27.9672 22.1942 26.0557 21.7203 24.3476 20.7725C22.6598 19.8247 21.3279 18.5164 20.3519 16.8475C19.3961 15.158 18.9183 13.2727 18.9183 11.1918C18.9183 9.11077 19.3961 7.23583 20.3519 5.56692C21.3279 3.87741 22.67 2.55877 24.3781 1.611C26.0862 0.663226 27.9977 0.18934 30.1125 0.18934C31.6986 0.18934 33.1627 0.457189 34.5047 0.992887C35.8468 1.52859 36.9856 2.31153 37.921 3.34172L36.4874 4.79428C34.8199 3.08417 32.7153 2.22911 30.1735 2.22911C28.4857 2.22911 26.9504 2.62058 25.5677 3.40353C24.1849 4.18647 23.097 5.25787 22.304 6.61772C21.5313 7.97756 21.1449 9.50224 21.1449 11.1918C21.1449 12.8813 21.5313 14.4059 22.304 15.7658C23.097 17.1256 24.1849 18.197 25.5677 18.98C26.9504 19.7629 28.4857 20.1544 30.1735 20.1544C32.7356 20.1544 34.8403 19.289 36.4874 17.5583L37.921 19.0109C36.9856 20.0411 35.8367 20.8343 34.4742 21.3906C33.1322 21.9263 31.6681 22.1942 30.082 22.1942ZM60.5762 0.374774V22.0087H58.3496V12.0262H44.9898V22.0087H42.7326V0.374774H44.9898V10.0173H58.3496V0.374774H60.5762ZM89.7201 0.374774V22.0087H87.5545V4.70157L79.1665 19.2581H78.0989L69.7109 4.79428V22.0087H67.5453V0.374774H69.4059L78.6785 16.4148L87.8595 0.374774H89.7201ZM96.6769 0.374774H98.934V22.0087H96.6769V0.374774ZM105.881 0.374774H114.574C116.831 0.374774 118.824 0.838358 120.552 1.76553C122.281 2.67209 123.623 3.94953 124.579 5.59783C125.534 7.22553 126.012 9.09017 126.012 11.1918C126.012 13.2933 125.534 15.1683 124.579 16.8166C123.623 18.4443 122.281 19.7217 120.552 20.6489C118.824 21.5554 116.831 22.0087 114.574 22.0087H105.881V0.374774ZM114.452 20.0308C116.323 20.0308 117.96 19.6599 119.363 18.9182C120.766 18.1558 121.854 17.1153 122.627 15.7967C123.399 14.4574 123.786 12.9225 123.786 11.1918C123.786 9.46103 123.399 7.93636 122.627 6.61772C121.854 5.27847 120.766 4.23798 119.363 3.49624C117.96 2.7339 116.323 2.35274 114.452 2.35274H108.138V20.0308H114.452ZM134.931 2.35274H127.428V0.374774H144.692V2.35274H137.189V22.0087H134.931V2.35274ZM160.276 4.39251V10.1101H170.159V14.1278H160.276V22.0087H155.335V0.374774H171.47V4.39251H160.276ZM184.303 22.3796C181.252 22.3796 178.873 21.5245 177.165 19.8144C175.477 18.1043 174.633 15.6628 174.633 12.4898V0.374774H179.575V12.3044C179.575 16.1779 181.161 18.1146 184.333 18.1146C185.878 18.1146 187.058 17.651 187.871 16.7239C188.685 15.7761 189.09 14.3029 189.09 12.3044V0.374774H193.972V12.4898C193.972 15.6628 193.118 18.1043 191.409 19.8144C189.722 21.5245 187.353 22.3796 184.303 22.3796ZM202.919 4.45432H196.086V0.374774H214.693V4.45432H207.86V22.0087H202.919V4.45432ZM226.48 22.3796C223.43 22.3796 221.051 21.5245 219.343 19.8144C217.655 18.1043 216.811 15.6628 216.811 12.4898V0.374774H221.752V12.3044C221.752 16.1779 223.339 18.1146 226.511 18.1146C228.056 18.1146 229.236 17.651 230.049 16.7239C230.862 15.7761 231.269 14.3029 231.269 12.3044V0.374774H236.149V12.4898C236.149 15.6628 235.295 18.1043 233.587 19.8144C231.899 21.5245 229.53 22.3796 226.48 22.3796ZM254.636 22.0087L250.518 15.9821H250.274H245.974V22.0087H241.032V0.374774H250.274C252.165 0.374774 253.802 0.694133 255.185 1.33285C256.588 1.97157 257.666 2.87813 258.418 4.05255C259.171 5.22696 259.547 6.61771 259.547 8.22481C259.547 9.8319 259.161 11.2227 258.388 12.3971C257.635 13.5509 256.558 14.4368 255.155 15.055L259.943 22.0087H254.636ZM254.545 8.22481C254.545 7.00919 254.158 6.08202 253.385 5.4433C252.613 4.78398 251.484 4.45432 250 4.45432H245.974V11.9953H250C251.484 11.9953 252.613 11.6656 253.385 11.0063C254.158 10.347 254.545 9.41983 254.545 8.22481ZM279.995 17.991V22.0087H263.463V0.374774H279.598V4.39251H268.373V9.09017H278.286V12.9843H268.373V17.991H279.995ZM290.941 22.3796C289.253 22.3796 287.616 22.153 286.03 21.6997C284.464 21.2258 283.204 20.618 282.248 19.8762L283.926 16.1058C284.841 16.7857 285.928 17.3317 287.189 17.7437C288.45 18.1558 289.711 18.3619 290.971 18.3619C292.375 18.3619 293.412 18.1558 294.083 17.7437C294.754 17.3111 295.089 16.7445 295.089 16.0439C295.089 15.5288 294.886 15.1065 294.479 14.7768C294.093 14.4265 293.584 14.1484 292.954 13.9424C292.344 13.7363 291.51 13.5097 290.453 13.2624C288.826 12.871 287.494 12.4795 286.457 12.088C285.42 11.6965 284.525 11.0681 283.773 10.2028C283.041 9.33741 282.675 8.1836 282.675 6.74134C282.675 5.48451 283.01 4.3513 283.681 3.34172C284.353 2.31153 285.359 1.49768 286.701 0.90017C288.064 0.30266 289.721 0.00390625 291.673 0.00390625C293.035 0.00390625 294.367 0.168736 295.669 0.498396C296.97 0.828056 298.109 1.30194 299.085 1.92006L297.56 5.72145C295.587 4.58824 293.615 4.02164 291.642 4.02164C290.26 4.02164 289.233 4.24828 288.562 4.70157C287.911 5.15485 287.586 5.75236 287.586 6.49409C287.586 7.23583 287.962 7.79213 288.714 8.163C289.487 8.51326 290.656 8.86353 292.222 9.21379C293.849 9.60526 295.181 9.99673 296.218 10.3882C297.255 10.7797 298.139 11.3978 298.871 12.2425C299.624 13.0873 300 14.2308 300 15.6731C300 16.9093 299.654 18.0425 298.963 19.0727C298.292 20.0823 297.275 20.8858 295.913 21.4833C294.55 22.0808 292.893 22.3796 290.941 22.3796Z" fill="white"/>
</svg>
