<svg width="300" height="130" viewBox="0 0 300 130" fill="none" xmlns="http://www.w3.org/2000/svg">
<path d="M7.93049 76.1903C6.34439 76.1903 4.8193 75.9327 3.35521 75.4176C1.91145 74.9025 0.793049 74.2226 0 73.3778L0.884555 71.6162C1.65727 72.3992 2.68417 73.0379 3.96525 73.5324C5.24632 74.0063 6.56807 74.2432 7.93049 74.2432C9.84194 74.2432 11.2755 73.8929 12.2313 73.1924C13.187 72.4713 13.6648 71.5441 13.6648 70.4109C13.6648 69.5455 13.4005 68.8553 12.8718 68.3402C12.3634 67.8251 11.7331 67.4337 10.9807 67.1658C10.2283 66.8774 9.18107 66.5683 7.83898 66.2386C6.23255 65.8266 4.95147 65.4351 3.99575 65.0642C3.04002 64.6728 2.21647 64.0855 1.52509 63.3026C0.854053 62.5197 0.518532 61.4586 0.518532 60.1193C0.518532 59.0273 0.803216 58.0383 1.37258 57.1524C1.94195 56.2458 2.81634 55.5247 3.99575 54.989C5.17515 54.4533 6.63924 54.1854 8.38802 54.1854C9.60809 54.1854 10.7977 54.3606 11.9567 54.7108C13.1361 55.0405 14.1529 55.5041 15.0069 56.1016L14.2444 57.925C13.3497 57.3275 12.3939 56.8845 11.3772 56.5961C10.3605 56.287 9.36408 56.1325 8.38802 56.1325C6.51724 56.1325 5.10398 56.5034 4.14826 57.2451C3.21287 57.9662 2.74517 58.9037 2.74517 60.0575C2.74517 60.9229 2.99935 61.6234 3.50772 62.1591C4.03642 62.6742 4.68712 63.076 5.45984 63.3644C6.25289 63.6323 7.31028 63.931 8.63203 64.2607C10.1978 64.6521 11.4585 65.0436 12.4143 65.4351C13.3903 65.806 14.2139 66.3829 14.8849 67.1658C15.556 67.9281 15.8915 68.9686 15.8915 70.2873C15.8915 71.3793 15.5966 72.3786 15.0069 73.2851C14.4376 74.1711 13.553 74.8819 12.3533 75.4176C11.1535 75.9327 9.67926 76.1903 7.93049 76.1903ZM30.082 76.1903C27.9672 76.1903 26.0557 75.7164 24.3476 74.7686C22.6598 73.8208 21.3279 72.5125 20.3519 70.8436C19.3961 69.1541 18.9183 67.2688 18.9183 65.1878C18.9183 63.1069 19.3961 61.2319 20.3519 59.563C21.3279 57.8735 22.67 56.5549 24.3781 55.6071C26.0862 54.6593 27.9977 54.1854 30.1125 54.1854C31.6986 54.1854 33.1627 54.4533 34.5047 54.989C35.8468 55.5247 36.9856 56.3076 37.921 57.3378L36.4874 58.7904C34.8199 57.0803 32.7153 56.2252 30.1735 56.2252C28.4857 56.2252 26.9504 56.6167 25.5677 57.3996C24.1849 58.1826 23.097 59.254 22.304 60.6138C21.5313 61.9737 21.1449 63.4983 21.1449 65.1878C21.1449 66.8774 21.5313 68.402 22.304 69.7619C23.097 71.1217 24.1849 72.1931 25.5677 72.9761C26.9504 73.759 28.4857 74.1505 30.1735 74.1505C32.7356 74.1505 34.8403 73.2851 36.4874 71.5544L37.921 73.007C36.9856 74.0372 35.8367 74.8304 34.4742 75.3867C33.1322 75.9224 31.6681 76.1903 30.082 76.1903ZM60.5762 54.3709V76.0048H58.3496V66.0223H44.9898V76.0048H42.7326V54.3709H44.9898V64.0134H58.3496V54.3709H60.5762ZM89.7201 54.3709V76.0048H87.5545V58.6977L79.1665 73.2542H78.0989L69.7109 58.7904V76.0048H67.5453V54.3709H69.4059L78.6785 70.4109L87.8595 54.3709H89.7201ZM96.6769 54.3709H98.934V76.0048H96.6769V54.3709ZM105.881 54.3709H114.574C116.831 54.3709 118.824 54.8345 120.552 55.7616C122.281 56.6682 123.623 57.9456 124.579 59.5939C125.534 61.2216 126.012 63.0863 126.012 65.1878C126.012 67.2894 125.534 69.1644 124.579 70.8127C123.623 72.4404 122.281 73.7178 120.552 74.645C118.824 75.5515 116.831 76.0048 114.574 76.0048H105.881V54.3709ZM114.452 74.0269C116.323 74.0269 117.96 73.656 119.363 72.9143C120.766 72.1519 121.854 71.1114 122.627 69.7928C123.399 68.4535 123.786 66.9186 123.786 65.1878C123.786 63.4571 123.399 61.9325 122.627 60.6138C121.854 59.2746 120.766 58.2341 119.363 57.4923C117.96 56.73 116.323 56.3488 114.452 56.3488H108.138V74.0269H114.452ZM134.931 56.3488H127.428V54.3709H144.692V56.3488H137.189V76.0048H134.931V56.3488ZM160.276 58.3886V64.1061H170.159V68.1239H160.276V76.0048H155.335V54.3709H171.47V58.3886H160.276ZM184.303 76.3757C181.252 76.3757 178.873 75.5206 177.165 73.8105C175.477 72.1004 174.633 69.6589 174.633 66.4859V54.3709H179.575V66.3004C179.575 70.174 181.161 72.1107 184.333 72.1107C185.878 72.1107 187.058 71.6471 187.871 70.72C188.685 69.7722 189.09 68.299 189.09 66.3004V54.3709H193.972V66.4859C193.972 69.6589 193.118 72.1004 191.409 73.8105C189.722 75.5206 187.353 76.3757 184.303 76.3757ZM202.919 58.4504H196.086V54.3709H214.693V58.4504H207.86V76.0048H202.919V58.4504ZM226.48 76.3757C223.43 76.3757 221.051 75.5206 219.343 73.8105C217.655 72.1004 216.811 69.6589 216.811 66.4859V54.3709H221.752V66.3004C221.752 70.174 223.339 72.1107 226.511 72.1107C228.056 72.1107 229.236 71.6471 230.049 70.72C230.862 69.7722 231.269 68.299 231.269 66.3004V54.3709H236.149V66.4859C236.149 69.6589 235.295 72.1004 233.587 73.8105C231.899 75.5206 229.53 76.3757 226.48 76.3757ZM254.636 76.0048L250.518 69.9782H250.274H245.974V76.0048H241.032V54.3709H250.274C252.165 54.3709 253.802 54.6902 255.185 55.3289C256.588 55.9677 257.666 56.8742 258.418 58.0486C259.171 59.2231 259.547 60.6138 259.547 62.2209C259.547 63.828 259.161 65.2188 258.388 66.3932C257.635 67.547 256.558 68.4329 255.155 69.0511L259.943 76.0048H254.636ZM254.545 62.2209C254.545 61.0053 254.158 60.0781 253.385 59.4394C252.613 58.7801 251.484 58.4504 250 58.4504H245.974V65.9914H250C251.484 65.9914 252.613 65.6617 253.385 65.0024C254.158 64.3431 254.545 63.4159 254.545 62.2209ZM279.995 71.9871V76.0048H263.463V54.3709H279.598V58.3886H268.373V63.0863H278.286V66.9804H268.373V71.9871H279.995ZM290.941 76.3757C289.253 76.3757 287.616 76.149 286.03 75.6958C284.464 75.2219 283.204 74.6141 282.248 73.8723L283.926 70.1018C284.841 70.7818 285.928 71.3278 287.189 71.7398C288.45 72.1519 289.711 72.358 290.971 72.358C292.375 72.358 293.412 72.1519 294.083 71.7398C294.754 71.3072 295.089 70.7406 295.089 70.04C295.089 69.5249 294.886 69.1026 294.479 68.7729C294.093 68.4226 293.584 68.1445 292.954 67.9384C292.344 67.7324 291.51 67.5058 290.453 67.2585C288.826 66.8671 287.494 66.4756 286.457 66.0841C285.42 65.6926 284.525 65.0642 283.773 64.1989C283.041 63.3335 282.675 62.1797 282.675 60.7374C282.675 59.4806 283.01 58.3474 283.681 57.3378C284.353 56.3076 285.359 55.4938 286.701 54.8963C288.064 54.2988 289.721 54 291.673 54C293.035 54 294.367 54.1648 295.669 54.4945C296.97 54.8241 298.109 55.298 299.085 55.9161L297.56 59.7175C295.587 58.5843 293.615 58.0177 291.642 58.0177C290.26 58.0177 289.233 58.2444 288.562 58.6977C287.911 59.1509 287.586 59.7485 287.586 60.4902C287.586 61.2319 287.962 61.7882 288.714 62.1591C289.487 62.5094 290.656 62.8596 292.222 63.2099C293.849 63.6014 295.181 63.9928 296.218 64.3843C297.255 64.7758 298.139 65.3939 298.871 66.2386C299.624 67.0834 300 68.2269 300 69.6692C300 70.9054 299.654 72.0386 298.963 73.0688C298.292 74.0784 297.275 74.8819 295.913 75.4794C294.55 76.0769 292.893 76.3757 290.941 76.3757Z" fill="white"/>
</svg>
