<svg width="300" height="23" viewBox="0 0 300 23" fill="none" xmlns="http://www.w3.org/2000/svg">
<path d="M7.93049 22.5028C6.34439 22.5028 4.8193 22.2452 3.35521 21.7301C1.91145 21.215 0.793049 20.5351 0 19.6903L0.884555 17.9287C1.65727 18.7117 2.68417 19.3504 3.96525 19.8449C5.24632 20.3188 6.56807 20.5557 7.93049 20.5557C9.84194 20.5557 11.2755 20.2054 12.2313 19.5049C13.187 18.7838 13.6648 17.8566 13.6648 16.7234C13.6648 15.858 13.4005 15.1678 12.8718 14.6527C12.3634 14.1376 11.7331 13.7462 10.9807 13.4783C10.2283 13.1899 9.18107 12.8808 7.83898 12.5511C6.23255 12.1391 4.95147 11.7476 3.99575 11.3767C3.04002 10.9853 2.21647 10.398 1.52509 9.6151C0.854053 8.83216 0.518532 7.77106 0.518532 6.43182C0.518532 5.33982 0.803216 4.35084 1.37258 3.46488C1.94195 2.55831 2.81634 1.83718 3.99575 1.30148C5.17515 0.765783 6.63924 0.497933 8.38802 0.497933C9.60809 0.497933 10.7977 0.673065 11.9567 1.02333C13.1361 1.35299 14.1529 1.81657 15.0069 2.41408L14.2444 4.23752C13.3497 3.64001 12.3939 3.19703 11.3772 2.90858C10.3605 2.59952 9.36408 2.44499 8.38802 2.44499C6.51724 2.44499 5.10398 2.81586 4.14826 3.55759C3.21287 4.27873 2.74517 5.2162 2.74517 6.37001C2.74517 7.23537 2.99935 7.93589 3.50772 8.47159C4.03642 8.98669 4.68712 9.38846 5.45984 9.67691C6.25289 9.94476 7.31028 10.2435 8.63203 10.5732C10.1978 10.9646 11.4585 11.3561 12.4143 11.7476C13.3903 12.1185 14.2139 12.6954 14.8849 13.4783C15.556 14.2406 15.8915 15.2811 15.8915 16.5998C15.8915 17.6918 15.5966 18.6911 15.0069 19.5976C14.4376 20.4836 13.553 21.1944 12.3533 21.7301C11.1535 22.2452 9.67926 22.5028 7.93049 22.5028ZM30.082 22.5028C27.9672 22.5028 26.0557 22.0289 24.3476 21.0811C22.6598 20.1333 21.3279 18.825 20.3519 17.1561C19.3961 15.4666 18.9183 13.5813 18.9183 11.5003C18.9183 9.41936 19.3961 7.54442 20.3519 5.87552C21.3279 4.18601 22.67 2.86737 24.3781 1.91959C26.0862 0.97182 27.9977 0.497933 30.1125 0.497933C31.6986 0.497933 33.1627 0.765783 34.5047 1.30148C35.8468 1.83718 36.9856 2.62012 37.921 3.65031L36.4874 5.10288C34.8199 3.39276 32.7153 2.53771 30.1735 2.53771C28.4857 2.53771 26.9504 2.92918 25.5677 3.71212C24.1849 4.49506 23.097 5.56646 22.304 6.92631C21.5313 8.28616 21.1449 9.81084 21.1449 11.5003C21.1449 13.1899 21.5313 14.7145 22.304 16.0744C23.097 17.4342 24.1849 18.5056 25.5677 19.2886C26.9504 20.0715 28.4857 20.463 30.1735 20.463C32.7356 20.463 34.8403 19.5976 36.4874 17.8669L37.921 19.3195C36.9856 20.3497 35.8367 21.1429 34.4742 21.6992C33.1322 22.2349 31.6681 22.5028 30.082 22.5028ZM60.5762 0.683367V22.3173H58.3496V12.3348H44.9898V22.3173H42.7326V0.683367H44.9898V10.3259H58.3496V0.683367H60.5762ZM89.7201 0.683367V22.3173H87.5545V5.01016L79.1665 19.5667H78.0989L69.7109 5.10288V22.3173H67.5453V0.683367H69.4059L78.6785 16.7234L87.8595 0.683367H89.7201ZM96.6769 0.683367H98.934V22.3173H96.6769V0.683367ZM105.881 0.683367H114.574C116.831 0.683367 118.824 1.14695 120.552 2.07412C122.281 2.98069 123.623 4.25812 124.579 5.90642C125.534 7.53412 126.012 9.39876 126.012 11.5003C126.012 13.6019 125.534 15.4769 124.579 17.1252C123.623 18.7529 122.281 20.0303 120.552 20.9575C118.824 21.864 116.831 22.3173 114.574 22.3173H105.881V0.683367ZM114.452 20.3394C116.323 20.3394 117.96 19.9685 119.363 19.2268C120.766 18.4644 121.854 17.4239 122.627 16.1053C123.399 14.766 123.786 13.2311 123.786 11.5003C123.786 9.76963 123.399 8.24495 122.627 6.92631C121.854 5.58706 120.766 4.54657 119.363 3.80484C117.96 3.0425 116.323 2.66133 114.452 2.66133H108.138V20.3394H114.452ZM134.931 2.66133H127.428V0.683367H144.692V2.66133H137.189V22.3173H134.931V2.66133ZM160.276 4.7011V10.4186H170.159V14.4364H160.276V22.3173H155.335V0.683367H171.47V4.7011H160.276ZM184.303 22.6882C181.252 22.6882 178.873 21.8331 177.165 20.123C175.477 18.4129 174.633 15.9714 174.633 12.7984V0.683367H179.575V12.6129C179.575 16.4865 181.161 18.4232 184.333 18.4232C185.878 18.4232 187.058 17.9596 187.871 17.0325C188.685 16.0847 189.09 14.6115 189.09 12.6129V0.683367H193.972V12.7984C193.972 15.9714 193.118 18.4129 191.409 20.123C189.722 21.8331 187.353 22.6882 184.303 22.6882ZM202.919 4.76291H196.086V0.683367H214.693V4.76291H207.86V22.3173H202.919V4.76291ZM226.48 22.6882C223.43 22.6882 221.051 21.8331 219.343 20.123C217.655 18.4129 216.811 15.9714 216.811 12.7984V0.683367H221.752V12.6129C221.752 16.4865 223.339 18.4232 226.511 18.4232C228.056 18.4232 229.236 17.9596 230.049 17.0325C230.862 16.0847 231.269 14.6115 231.269 12.6129V0.683367H236.149V12.7984C236.149 15.9714 235.295 18.4129 233.587 20.123C231.899 21.8331 229.53 22.6882 226.48 22.6882ZM254.636 22.3173L250.518 16.2907H250.274H245.974V22.3173H241.032V0.683367H250.274C252.165 0.683367 253.802 1.00273 255.185 1.64144C256.588 2.28016 257.666 3.18672 258.418 4.36114C259.171 5.53555 259.547 6.92631 259.547 8.5334C259.547 10.1405 259.161 11.5312 258.388 12.7057C257.635 13.8595 256.558 14.7454 255.155 15.3636L259.943 22.3173H254.636ZM254.545 8.5334C254.545 7.31778 254.158 6.39061 253.385 5.75189C252.613 5.09257 251.484 4.76291 250 4.76291H245.974V12.3039H250C251.484 12.3039 252.613 11.9742 253.385 11.3149C254.158 10.6556 254.545 9.72842 254.545 8.5334ZM279.995 18.2996V22.3173H263.463V0.683367H279.598V4.7011H268.373V9.39876H278.286V13.2929H268.373V18.2996H279.995ZM290.941 22.6882C289.253 22.6882 287.616 22.4615 286.03 22.0083C284.464 21.5344 283.204 20.9266 282.248 20.1848L283.926 16.4143C284.841 17.0943 285.928 17.6403 287.189 18.0523C288.45 18.4644 289.711 18.6705 290.971 18.6705C292.375 18.6705 293.412 18.4644 294.083 18.0523C294.754 17.6197 295.089 17.0531 295.089 16.3525C295.089 15.8374 294.886 15.4151 294.479 15.0854C294.093 14.7351 293.584 14.457 292.954 14.2509C292.344 14.0449 291.51 13.8183 290.453 13.571C288.826 13.1796 287.494 12.7881 286.457 12.3966C285.42 12.0051 284.525 11.3767 283.773 10.5114C283.041 9.64601 282.675 8.4922 282.675 7.04993C282.675 5.7931 283.01 4.65989 283.681 3.65031C284.353 2.62012 285.359 1.80627 286.701 1.20876C288.064 0.611254 289.721 0.3125 291.673 0.3125C293.035 0.3125 294.367 0.477329 295.669 0.80699C296.97 1.13665 298.109 1.61054 299.085 2.22865L297.56 6.03005C295.587 4.89684 293.615 4.33023 291.642 4.33023C290.26 4.33023 289.233 4.55688 288.562 5.01016C287.911 5.46344 287.586 6.06095 287.586 6.80269C287.586 7.54442 287.962 8.10072 288.714 8.47159C289.487 8.82186 290.656 9.17212 292.222 9.52238C293.849 9.91386 295.181 10.3053 296.218 10.6968C297.255 11.0883 298.139 11.7064 298.871 12.5511C299.624 13.3959 300 14.5394 300 15.9817C300 17.2179 299.654 18.3511 298.963 19.3813C298.292 20.3909 297.275 21.1944 295.913 21.7919C294.55 22.3894 292.893 22.6882 290.941 22.6882Z" fill="white"/>
</svg>
