<?xml version="1.0" encoding="iso-8859-1"?>
<!-- Generator: Adobe Illustrator 21.0.0, SVG Export Plug-In . SVG Version: 6.00 Build 0)  -->
<svg version="1.1" id="Capa_1" xmlns="http://www.w3.org/2000/svg" xmlns:xlink="http://www.w3.org/1999/xlink" x="0px" y="0px"
	 viewBox="0 0 512 512" style="enable-background:new 0 0 512 512;" xml:space="preserve">
<rect x="45.35" y="303.75" style="fill:#404C6B;" width="140.44" height="198.25"/>
<rect x="185.78" y="248.89" style="fill:#8897BD;" width="140.44" height="253.11"/>
<rect x="326.22" y="358.62" style="fill:#5A6B96;" width="140.44" height="143.38"/>
<path d="M466.652,348.617H336.217v-99.726c0-5.522-4.478-10-10-10H185.782c-5.522,0-10,4.478-10,10v44.862H45.348
	c-5.522,0-10,4.478-10,10V502c0,5.522,4.478,10,10,10h421.305c5.522,0,10-4.478,10-10V358.617
	C476.652,353.095,472.174,348.617,466.652,348.617z M55.348,313.754h120.435V492H55.348V313.754z M195.782,258.892h120.436V492
	H195.782V258.892z M456.652,492H336.217V368.617h120.435L456.652,492L456.652,492z"/>
<path d="M256,312.06c-0.65,0-1.311-0.069-1.95-0.2c-0.64-0.13-1.27-0.319-1.87-0.569c-0.61-0.25-1.189-0.561-1.729-0.92
	c-0.551-0.36-1.061-0.78-1.521-1.24s-0.88-0.98-1.24-1.521c-0.359-0.55-0.67-1.13-0.92-1.729s-0.45-1.23-0.569-1.87
	c-0.131-0.65-0.2-1.3-0.2-1.95c0-0.66,0.069-1.31,0.2-1.96c0.119-0.64,0.319-1.27,0.569-1.87s0.55-1.18,0.92-1.729
	c0.36-0.54,0.78-1.05,1.24-1.51c0.46-0.471,0.97-0.881,1.521-1.25c0.54-0.36,1.119-0.671,1.729-0.921
	c0.601-0.25,1.23-0.439,1.87-0.569c1.29-0.26,2.61-0.26,3.9,0c0.64,0.13,1.27,0.319,1.88,0.569c0.6,0.25,1.18,0.561,1.72,0.921
	c0.55,0.369,1.06,0.779,1.52,1.25c0.461,0.46,0.881,0.97,1.24,1.51c0.36,0.55,0.67,1.13,0.92,1.729c0.25,0.601,0.45,1.23,0.58,1.87
	c0.13,0.65,0.19,1.3,0.19,1.96c0,0.65-0.061,1.3-0.2,1.95c-0.12,0.64-0.32,1.271-0.57,1.87s-0.56,1.18-0.92,1.729
	c-0.359,0.54-0.779,1.061-1.24,1.521c-0.46,0.46-0.97,0.88-1.52,1.24c-0.54,0.359-1.12,0.67-1.72,0.92
	c-0.61,0.25-1.24,0.439-1.88,0.569C257.31,311.99,256.648,312.06,256,312.06z"/>
<path d="M256,452.096c-5.522,0-10-4.478-10-10V339.381c0-5.522,4.478-10,10-10s10,4.478,10,10v102.715
	C266,447.618,261.522,452.096,256,452.096z"/>
<path d="M97.196,452.096c-5.522,0-10-4.478-10-10v-40.73c0-5.522,4.478-10,10-10s10,4.478,10,10v40.73
	C107.196,447.618,102.719,452.096,97.196,452.096z"/>
<path d="M131.538,452.096c-5.522,0-10-4.478-10-10v-40.73c0-5.522,4.478-10,10-10s10,4.478,10,10v40.73
	C141.538,447.618,137.061,452.096,131.538,452.096z"/>
<path d="M362.492,452.096c-5.522,0-10-4.478-10-10v-40.73c0-5.522,4.478-10,10-10s10,4.478,10,10v40.73
	C372.492,447.618,368.015,452.096,362.492,452.096z"/>
<path d="M396.435,452.096c-5.522,0-10-4.478-10-10v-40.73c0-5.522,4.478-10,10-10s10,4.478,10,10v40.73
	C406.435,447.618,401.957,452.096,396.435,452.096z"/>
<path d="M430.377,452.096c-5.522,0-10-4.478-10-10v-40.73c0-5.522,4.478-10,10-10s10,4.478,10,10v40.73
	C440.377,447.618,435.898,452.096,430.377,452.096z"/>
<polygon style="fill:#FAD574;" points="404.189,145.9 423.658,177.684 459.902,186.378 435.69,214.715 438.621,251.872 
	404.189,237.602 369.756,251.872 372.688,214.715 348.476,186.378 384.72,177.684 "/>
<path d="M438.62,261.872c-1.294,0-2.595-0.251-3.827-0.762l-30.604-12.683l-30.604,12.683c-3.213,1.332-6.891,0.899-9.706-1.148
	c-2.815-2.045-4.364-5.407-4.091-8.876l2.604-33.025l-21.52-25.187c-2.261-2.646-2.983-6.276-1.908-9.586s3.794-5.822,7.178-6.635
	l32.216-7.728l17.303-28.249c1.817-2.967,5.047-4.776,8.527-4.776c3.479,0,6.71,1.809,8.527,4.776l17.304,28.249l32.216,7.728
	c3.384,0.813,6.103,3.325,7.178,6.635s0.353,6.94-1.908,9.586l-21.521,25.187l2.605,33.025c0.274,3.469-1.275,6.831-4.091,8.876
	C442.764,261.224,440.7,261.872,438.62,261.872z M404.188,227.603c1.302,0,2.603,0.254,3.828,0.762l19.352,8.02l-1.647-20.882
	c-0.209-2.645,0.643-5.265,2.366-7.282l13.607-15.926l-20.37-4.886c-2.58-0.619-4.809-2.238-6.194-4.501l-10.941-17.862
	l-10.94,17.862c-1.386,2.263-3.614,3.882-6.194,4.501l-20.37,4.886l13.606,15.926c1.724,2.018,2.575,4.638,2.366,7.282
	l-1.646,20.882l19.351-8.02C401.586,227.856,402.887,227.603,404.188,227.603z"/>
<polygon style="fill:#FBDF97;" points="107.811,145.9 127.28,177.684 163.524,186.378 139.312,214.715 142.244,251.872 
	107.811,237.602 73.379,251.872 76.31,214.715 52.098,186.378 88.342,177.684 "/>
<path d="M73.38,261.872c-2.08,0-4.143-0.648-5.879-1.91c-2.815-2.045-4.365-5.407-4.091-8.876l2.605-33.025l-21.521-25.187
	c-2.261-2.646-2.983-6.276-1.908-9.586s3.794-5.822,7.178-6.635l32.216-7.728l17.304-28.249c1.817-2.967,5.048-4.776,8.527-4.776
	l0,0c3.48,0,6.71,1.81,8.527,4.776l17.303,28.249l32.216,7.728c3.384,0.813,6.103,3.325,7.178,6.635s0.353,6.94-1.908,9.586
	l-21.52,25.187l2.604,33.025c0.273,3.469-1.275,6.831-4.091,8.876c-2.814,2.048-6.492,2.48-9.706,1.148l-30.604-12.683
	L77.207,261.11C75.975,261.621,74.674,261.872,73.38,261.872z M70.306,192.294l13.607,15.926c1.724,2.018,2.575,4.638,2.366,7.282
	l-1.647,20.882l19.352-8.02c2.451-1.017,5.205-1.016,7.656,0l19.351,8.02l-1.646-20.882c-0.209-2.645,0.643-5.265,2.366-7.282
	l13.606-15.926l-20.37-4.886c-2.58-0.619-4.809-2.238-6.194-4.501l-10.94-17.862L96.87,182.907
	c-1.386,2.263-3.614,3.882-6.194,4.501L70.306,192.294z"/>
<polyline style="fill:#FBDF97;" points="236.601,156.66 229.64,204.808 282.359,204.808 275.405,156.701 "/>
<path style="fill:#FFCD50;" d="M256.061,10.001L256.061,10.001L187.051,10l10.587,95.709c3.305,29.781,28.421,52.24,58.422,52.24
	v0.001c30.001,0,55.117-22.458,58.424-52.251l10.464-95.698L256.061,10.001L256.061,10.001z"/>
<path d="M362.799,34.767c-1.896-2.118-4.605-3.329-7.449-3.329h-22.686l2.225-20.35c0.31-2.824-0.598-5.647-2.495-7.763
	c-1.896-2.115-4.604-3.324-7.445-3.324L187.052,0c-2.844,0-5.553,1.211-7.449,3.329c-1.897,2.118-2.803,4.944-2.49,7.771
	l2.25,20.338H156.65c-2.844,0-5.553,1.211-7.449,3.329c-1.897,2.118-2.803,4.944-2.49,7.771l3.95,35.711
	c1.288,11.605,6.544,22.568,14.8,30.872c7.152,7.191,16.312,12.144,26.17,14.221c6.205,16.611,18.583,30.029,34.238,37.664
	l-4.886,33.804h-3.154c-5.522,0-10,4.478-10,10s4.478,10,10,10h76.344c5.522,0,10-4.478,10-10s-4.478-10-10-10h-3.154l-4.878-33.75
	c15.712-7.629,28.137-21.08,34.357-37.745c9.809-2.092,18.921-7.034,26.043-14.195c8.256-8.303,13.512-19.266,14.801-30.875
	l3.949-35.707C365.602,39.711,364.696,36.885,362.799,34.767z M170.539,76.045l-2.722-24.607h13.757l5.431,49.102
	c-2.691-1.469-5.178-3.326-7.363-5.522C174.563,89.909,171.33,83.17,170.539,76.045z M270.81,194.809h-29.62l4.006-27.711
	c3.543,0.561,7.172,0.852,10.864,0.852c3.651,0,7.241-0.285,10.746-0.834L270.81,194.809z M256.061,147.948
	c-24.897,0-45.741-18.633-48.482-43.339L198.219,20l115.576,0.001l0,0l-9.25,84.594
	C301.802,129.312,280.958,147.949,256.061,147.948z M341.462,76.041c-0.792,7.129-4.025,13.868-9.104,18.976
	c-2.152,2.164-4.597,3.998-7.242,5.457l5.362-49.036h13.706L341.462,76.041z"/>
<g>
</g>
<g>
</g>
<g>
</g>
<g>
</g>
<g>
</g>
<g>
</g>
<g>
</g>
<g>
</g>
<g>
</g>
<g>
</g>
<g>
</g>
<g>
</g>
<g>
</g>
<g>
</g>
<g>
</g>
</svg>
