<?xml version="1.0" encoding="UTF-8" standalone="no"?><!DOCTYPE svg PUBLIC "-//W3C//DTD SVG 1.1//EN" "http://www.w3.org/Graphics/SVG/1.1/DTD/svg11.dtd"><svg width="100%" height="100%" viewBox="0 0 1834 422" version="1.1" xmlns="http://www.w3.org/2000/svg" xmlns:xlink="http://www.w3.org/1999/xlink" xml:space="preserve" xmlns:serif="http://www.serif.com/" style="fill-rule:evenodd;clip-rule:evenodd;stroke-linecap:round;stroke-linejoin:round;stroke-miterlimit:1.5;"><path d="M2.509,207.708c0,0 -2.36,-202.007 70.219,-202.007c72.579,0 84.001,412.833 151.645,412.833c67.645,0 84.548,-412.433 155.239,-412.433c70.691,0 79.721,412.433 154.245,412.433c74.525,0 80.002,-411.233 157.135,-411.233c77.134,0 79.125,411.233 149.601,411.233c70.476,0 83.292,-416.034 152.787,-416.034c69.495,0 83.206,416.034 153.442,416.034c70.236,0 82.759,-415.634 153.442,-415.634c70.684,0 84.262,415.634 153.442,415.634c69.18,0 82.449,-414.434 153.442,-414.434c70.994,0 82.502,414.434 152.25,414.434c69.748,0 66.974,-210.522 71.412,-210.522" style="fill:none;stroke:#ca336a;stroke-opacity:0.152941;stroke-width:5px;"/></svg>