<svg width="210" height="67" viewBox="0 0 210 67" fill="none" xmlns="http://www.w3.org/2000/svg">
<path d="M99.5412 9.57331V1H65.5105V43.216H99.5412V34.6465H76.4825V26.3965H90.4836V17.8232H76.4825V9.57331H99.5412Z" fill="white"/>
<path d="M118.328 32.1986V1H107.356V43.216H144.041V32.1986H118.328Z" fill="white"/>
<path d="M180.493 30.247C187.628 30.247 193.409 36.0528 193.409 43.216H208.84L180.29 1L152.149 43.216H167.58C167.58 36.0528 173.361 30.247 180.493 30.247Z" fill="white"/>
<path d="M42.2603 1C42.2603 8.16698 36.4796 13.9728 29.3477 13.9728C22.2119 13.9728 16.4313 8.16698 16.4313 1.00376V1H1L29.5504 43.216L57.6916 1H42.2603Z" fill="white"/>
<path d="M3.6088 64.6561H9.0929V65.5848H2.56903V55.2969H8.92023V56.2294H3.6088V59.7565H8.57114V60.689H3.6088V64.6561Z" fill="white"/>
<path d="M19.2615 64.6561H21.3298C22.0993 64.6561 22.775 64.532 23.3493 64.2913C23.9198 64.0469 24.3965 63.7311 24.7719 63.34C25.1473 62.9489 25.4288 62.4977 25.6165 61.9938C25.8079 61.4937 25.9018 60.9748 25.9018 60.4409C25.9018 59.9069 25.8079 59.388 25.6165 58.8879C25.4288 58.384 25.1473 57.9366 24.7719 57.5417C24.3965 57.1507 23.9198 56.8348 23.3493 56.5904C22.775 56.3497 22.0993 56.2294 21.3298 56.2294H19.2615V64.6561ZM18.218 55.2969H21.6188C22.257 55.2969 22.8951 55.4059 23.537 55.6165C24.1751 55.8308 24.7569 56.1542 25.2711 56.5829C25.7854 57.0153 26.2058 57.553 26.5211 58.196C26.8402 58.839 27.0016 59.5873 27.0016 60.4409C27.0016 61.302 26.8402 62.054 26.5211 62.6932C26.2058 63.3325 25.7854 63.8664 25.2711 64.2988C24.7569 64.7313 24.1751 65.0509 23.537 65.2652C22.8951 65.4758 22.257 65.5848 21.6188 65.5848H18.218V55.2969Z" fill="white"/>
<path d="M38.1574 65.8443C37.3879 65.8443 36.7573 65.7127 36.2618 65.4457C35.7701 65.1787 35.3797 64.8441 35.0907 64.438C34.8017 64.0281 34.6027 63.5882 34.4901 63.1069C34.3813 62.6255 34.325 62.1743 34.325 61.7494V55.2969H35.3685V61.6328C35.3685 62.0502 35.4135 62.4526 35.5111 62.8474C35.6087 63.2385 35.7664 63.5882 35.9803 63.8927C36.198 64.1973 36.4871 64.4455 36.8437 64.6335C37.2003 64.8215 37.6394 64.9155 38.1574 64.9155C38.6792 64.9155 39.1184 64.8215 39.475 64.6335C39.8316 64.4455 40.1169 64.1973 40.3346 63.8927C40.5523 63.5882 40.7099 63.2385 40.8038 62.8474C40.9014 62.4526 40.9502 62.0502 40.9502 61.6328V55.2969H41.9899V61.7494C41.9899 62.1743 41.9374 62.6255 41.8248 63.1069C41.7159 63.5882 41.5132 64.0281 41.2242 64.438C40.9351 64.8441 40.5448 65.1787 40.0455 65.4457C39.55 65.7127 38.9194 65.8443 38.1574 65.8443Z" fill="white"/>
<path d="M58.9077 63.9169C58.7351 64.1764 58.5249 64.4246 58.2771 64.6577C58.0331 64.8871 57.7479 65.0939 57.425 65.2706C57.1022 65.4474 56.7456 65.5902 56.3553 65.6918C55.9649 65.7971 55.537 65.8459 55.0753 65.8459C54.302 65.8459 53.5888 65.7106 52.9319 65.4398C52.2788 65.1691 51.712 64.7931 51.2428 64.3155C50.7698 63.8342 50.3982 63.2664 50.1354 62.6084C49.8689 61.9504 49.7375 61.2284 49.7375 60.4425C49.7375 59.6566 49.8727 58.9384 50.1429 58.2766C50.4132 57.6186 50.7848 57.0508 51.2615 56.5695C51.742 56.0919 52.3051 55.7159 52.9544 55.4452C53.6076 55.1744 54.3133 55.0391 55.0753 55.0391C55.4506 55.0391 55.8185 55.0767 56.1826 55.1556C56.5429 55.2346 56.8845 55.3436 57.1998 55.4865C57.5189 55.6294 57.8079 55.8024 58.0669 56.0017C58.3297 56.201 58.5474 56.4266 58.7201 56.6785L57.853 57.3178C57.7441 57.1523 57.6052 56.9906 57.425 56.8252C57.2486 56.6597 57.0384 56.5168 56.7944 56.389C56.5542 56.2611 56.2914 56.1634 56.0062 56.0844C55.7246 56.0054 55.4168 55.9678 55.0903 55.9678C54.4221 55.9678 53.829 56.0882 53.3035 56.3288C52.778 56.5732 52.3313 56.8966 51.9635 57.3065C51.5994 57.7163 51.3178 58.1939 51.1264 58.7316C50.9312 59.2731 50.8374 59.8446 50.8374 60.4425C50.8374 61.0404 50.935 61.6119 51.1339 62.1534C51.3291 62.6911 51.6144 63.1687 51.9785 63.5785C52.3463 63.9884 52.793 64.3155 53.3185 64.5562C53.8441 64.7968 54.4334 64.9172 55.0903 64.9172C55.6758 64.9172 56.2351 64.7968 56.7682 64.5524C57.2974 64.3118 57.7404 63.9245 58.097 63.3905L58.9077 63.9169Z" fill="white"/>
<path d="M68.2169 61.9224H72.7288L70.4728 56.4588L68.2169 61.9224ZM66.7116 65.5848H65.5668L69.9961 55.2969H71.0058L75.4051 65.5848H74.249L73.1191 62.8812H67.8265L66.7116 65.5848Z" fill="white"/>
<path d="M85.9416 65.5848H84.898V56.2294H81.4709V55.2969H89.3687V56.2294H85.9416V65.5848Z" fill="white"/>
<path d="M97.7994 65.5848H96.7596V55.2969H97.7994V65.5848Z" fill="white"/>
<path d="M114.608 60.45C114.608 59.8521 114.511 59.2806 114.319 58.7391C114.124 58.1976 113.846 57.7201 113.479 57.3102C113.111 56.9004 112.668 56.5732 112.142 56.3288C111.617 56.0882 111.024 55.9678 110.371 55.9678C109.714 55.9678 109.121 56.0882 108.595 56.3288C108.07 56.5732 107.627 56.9004 107.259 57.3102C106.891 57.7201 106.613 58.1976 106.418 58.7391C106.226 59.2806 106.129 59.8521 106.129 60.45C106.129 61.0479 106.226 61.6195 106.418 62.1609C106.613 62.7024 106.891 63.1762 107.259 63.5823C107.627 63.9884 108.07 64.3118 108.595 64.5562C109.121 64.7968 109.714 64.9172 110.371 64.9172C111.024 64.9172 111.617 64.7968 112.142 64.5562C112.668 64.3118 113.111 63.9884 113.479 63.5823C113.846 63.1762 114.124 62.7024 114.319 62.1609C114.511 61.6195 114.608 61.0479 114.608 60.45ZM115.704 60.4425C115.704 61.2284 115.569 61.9504 115.303 62.6084C115.033 63.2664 114.657 63.8342 114.18 64.3155C113.704 64.7931 113.141 65.1691 112.488 65.4398C111.838 65.7106 111.129 65.8459 110.371 65.8459C109.605 65.8459 108.899 65.7106 108.25 65.4398C107.597 65.1691 107.034 64.7931 106.557 64.3155C106.08 63.8342 105.705 63.2664 105.434 62.6084C105.164 61.9504 105.029 61.2284 105.029 60.4425C105.029 59.6566 105.164 58.9384 105.434 58.2766C105.705 57.6186 106.08 57.0508 106.557 56.5695C107.034 56.0919 107.597 55.7159 108.25 55.4452C108.899 55.1744 109.605 55.0391 110.371 55.0391C111.129 55.0391 111.838 55.1744 112.488 55.4452C113.141 55.7159 113.704 56.0919 114.18 56.5695C114.657 57.0508 115.033 57.6186 115.303 58.2766C115.569 58.9384 115.704 59.6566 115.704 60.4425Z" fill="white"/>
<path d="M128.399 64.0582H128.426V55.2969H129.469V65.5848H128.167L122.206 56.737H122.176V65.5848H121.136V55.2969H122.439L128.399 64.0582Z" fill="white"/>
<path d="M154.442 65.5848H153.402V55.2969H159.577V56.2294H154.442V59.7866H159.217V60.7191H154.442V65.5848Z" fill="white"/>
<path d="M171.386 65.8443C170.617 65.8443 169.982 65.7127 169.491 65.4457C169.003 65.1787 168.608 64.8441 168.319 64.438C168.03 64.0281 167.831 63.5882 167.719 63.1069C167.61 62.6255 167.554 62.1743 167.554 61.7494V55.2969H168.593V61.6328C168.593 62.0502 168.642 62.4526 168.74 62.8474C168.837 63.2385 168.991 63.5882 169.209 63.8927C169.427 64.1973 169.712 64.4455 170.069 64.6335C170.429 64.8215 170.868 64.9155 171.386 64.9155C171.908 64.9155 172.347 64.8215 172.704 64.6335C173.06 64.4455 173.346 64.1973 173.563 63.8927C173.781 63.5882 173.939 63.2385 174.033 62.8474C174.13 62.4526 174.179 62.0502 174.179 61.6328V55.2969H175.222V61.7494C175.222 62.1743 175.166 62.6255 175.054 63.1069C174.945 63.5882 174.742 64.0281 174.453 64.438C174.164 64.8441 173.77 65.1787 173.274 65.4457C172.779 65.7127 172.148 65.8443 171.386 65.8443Z" fill="white"/>
<path d="M190.305 64.0582H190.331V55.2969H191.375V65.5848H190.072L184.111 56.737H184.081V65.5848H183.041V55.2969H184.344L190.305 64.0582Z" fill="white"/>
<path d="M201.524 64.6561H203.593C204.366 64.6561 205.038 64.532 205.612 64.2913C206.186 64.0469 206.659 63.7311 207.035 63.34C207.414 62.9489 207.695 62.4977 207.883 61.9938C208.071 61.4937 208.165 60.9748 208.165 60.4409C208.165 59.9069 208.071 59.388 207.883 58.8879C207.695 58.384 207.414 57.9366 207.035 57.5417C206.659 57.1507 206.186 56.8348 205.612 56.5904C205.038 56.3497 204.366 56.2294 203.593 56.2294H201.524V64.6561ZM200.485 55.2969H203.882C204.52 55.2969 205.158 55.4059 205.8 55.6165C206.442 55.8308 207.02 56.1542 207.534 56.5829C208.052 57.0153 208.469 57.553 208.788 58.196C209.103 58.839 209.264 59.5873 209.264 60.4409C209.264 61.302 209.103 62.054 208.788 62.6932C208.469 63.3325 208.052 63.8664 207.534 64.2988C207.02 64.7313 206.442 65.0509 205.8 65.2652C205.158 65.4758 204.52 65.5848 203.882 65.5848H200.485V55.2969Z" fill="white"/>
</svg>
