<svg width="287" height="121" viewBox="0 0 287 121" fill="none" xmlns="http://www.w3.org/2000/svg">
<path d="M137.034 30.0782V20.0898H97.3867V69.2735H137.034V59.2896H110.17V49.678H126.482V39.6897H110.17V30.0782H137.034Z" fill="white"/>
<path d="M158.922 56.4377V20.0898H146.139V69.2735H188.878V56.4377H158.922Z" fill="white"/>
<path d="M231.346 54.164C239.66 54.164 246.395 60.928 246.395 69.2735H264.373L231.11 20.0898L198.324 69.2735H216.303C216.303 60.928 223.037 54.164 231.346 54.164Z" fill="white"/>
<path d="M70.2991 20.0898C70.2991 28.4397 63.5644 35.2037 55.2553 35.2037C46.9419 35.2037 40.2072 28.4397 40.2072 20.0942V20.0898H22.2289L55.4915 69.2735L88.2774 20.0898H70.2991Z" fill="white"/>
<path d="M25.2683 94.2516H31.6576V95.3336H24.0569V83.3477H31.4564V84.4341H25.2683V88.5433H31.0497V89.6298H25.2683V94.2516Z" fill="white"/>
<path d="M43.5046 94.2516H45.9142C46.8107 94.2516 47.5979 94.107 48.267 93.8266C48.9317 93.5419 49.4871 93.1739 49.9244 92.7183C50.3617 92.2627 50.6897 91.737 50.9084 91.1499C51.1314 90.5673 51.2408 89.9627 51.2408 89.3406C51.2408 88.7186 51.1314 88.114 50.9084 87.5314C50.6897 86.9443 50.3617 86.423 49.9244 85.963C49.4871 85.5074 48.9317 85.1394 48.267 84.8547C47.5979 84.5743 46.8107 84.4341 45.9142 84.4341H43.5046V94.2516ZM42.2888 83.3477H46.2509C46.9944 83.3477 47.7378 83.4747 48.4856 83.72C49.2291 83.9697 49.9069 84.3465 50.5061 84.8459C51.1052 85.3497 51.595 85.9762 51.9623 86.7253C52.3341 87.4744 52.5221 88.3462 52.5221 89.3406C52.5221 90.3439 52.3341 91.22 51.9623 91.9648C51.595 92.7095 51.1052 93.3316 50.5061 93.8354C49.9069 94.3392 49.2291 94.7116 48.4856 94.9613C47.7378 95.2066 46.9944 95.3336 46.2509 95.3336H42.2888V83.3477Z" fill="white"/>
<path d="M65.5192 95.6359C64.6227 95.6359 63.888 95.4826 63.3108 95.1715C62.7379 94.8605 62.2831 94.4706 61.9463 93.9975C61.6096 93.52 61.3778 93.0074 61.2466 92.4467C61.1198 91.8859 61.0542 91.3602 61.0542 90.8652V83.3477H62.2699V90.7294C62.2699 91.2156 62.3224 91.6844 62.4361 92.1444C62.5498 92.6 62.7335 93.0074 62.9828 93.3623C63.2364 93.7171 63.5732 94.0062 63.9886 94.2253C64.4041 94.4443 64.9157 94.5538 65.5192 94.5538C66.1271 94.5538 66.6388 94.4443 67.0542 94.2253C67.4697 94.0062 67.802 93.7171 68.0557 93.3623C68.3093 93.0074 68.493 92.6 68.6023 92.1444C68.716 91.6844 68.7729 91.2156 68.7729 90.7294V83.3477H69.9843V90.8652C69.9843 91.3602 69.923 91.8859 69.7918 92.4467C69.665 93.0074 69.4289 93.52 69.0921 93.9975C68.7554 94.4706 68.3006 94.8605 67.719 95.1715C67.1417 95.4826 66.407 95.6359 65.5192 95.6359Z" fill="white"/>
<path d="M89.6942 93.39C89.4931 93.6923 89.2482 93.9815 88.9595 94.2531C88.6753 94.5203 88.3429 94.7612 87.9668 94.9671C87.5907 95.173 87.1753 95.3395 86.7204 95.4578C86.2656 95.5805 85.7671 95.6374 85.2292 95.6374C84.3283 95.6374 83.4974 95.4797 82.7321 95.1643C81.9712 94.8489 81.3108 94.4108 80.7642 93.8544C80.2131 93.2937 79.7802 92.6322 79.4741 91.8655C79.1636 91.0989 79.0105 90.2577 79.0105 89.3421C79.0105 88.4265 79.1679 87.5898 79.4828 86.8188C79.7977 86.0521 80.2306 85.3906 80.786 84.8299C81.3458 84.2735 82.0018 83.8354 82.7583 83.52C83.5193 83.2046 84.3414 83.0469 85.2292 83.0469C85.6665 83.0469 86.0951 83.0907 86.5193 83.1827C86.9391 83.2747 87.3371 83.4017 87.7044 83.5682C88.0761 83.7347 88.4129 83.9362 88.7146 84.1684C89.0207 84.4006 89.2744 84.6634 89.4756 84.9569L88.4654 85.7017C88.3385 85.5089 88.1767 85.3205 87.9668 85.1278C87.7613 84.935 87.5164 84.7685 87.2321 84.6196C86.9522 84.4706 86.6461 84.3567 86.3137 84.2647C85.9858 84.1728 85.6271 84.1289 85.2467 84.1289C84.4683 84.1289 83.7773 84.2691 83.165 84.5495C82.5528 84.8343 82.0324 85.211 81.6038 85.6885C81.1796 86.166 80.8516 86.7224 80.6286 87.3489C80.4012 87.9797 80.2918 88.6456 80.2918 89.3421C80.2918 90.0387 80.4055 90.7046 80.6373 91.3354C80.8647 91.9619 81.1971 92.5183 81.6213 92.9958C82.0499 93.4733 82.5703 93.8544 83.1825 94.1348C83.7948 94.4152 84.4814 94.5553 85.2467 94.5553C85.9289 94.5553 86.5805 94.4152 87.2015 94.1304C87.8181 93.85 88.3342 93.3988 88.7496 92.7767L89.6942 93.39Z" fill="white"/>
<path d="M100.54 91.0667H105.796L103.168 84.7013L100.54 91.0667ZM98.7862 95.3336H97.4524L102.613 83.3477H103.789L108.915 95.3336H107.568L106.251 92.1838H100.085L98.7862 95.3336Z" fill="white"/>
<path d="M121.19 95.3336H119.974V84.4341H115.982V83.3477H125.183V84.4341H121.19V95.3336Z" fill="white"/>
<path d="M135.005 95.3336H133.794V83.3477H135.005V95.3336Z" fill="white"/>
<path d="M154.588 89.3509C154.588 88.6544 154.474 87.9885 154.251 87.3576C154.024 86.7268 153.7 86.1704 153.272 85.6929C152.843 85.2154 152.327 84.8343 151.715 84.5495C151.103 84.2691 150.412 84.1289 149.651 84.1289C148.885 84.1289 148.195 84.2691 147.582 84.5495C146.97 84.8343 146.454 85.2154 146.025 85.6929C145.597 86.1704 145.273 86.7268 145.046 87.3576C144.823 87.9885 144.709 88.6544 144.709 89.3509C144.709 90.0475 144.823 90.7133 145.046 91.3442C145.273 91.975 145.597 92.527 146.025 93.0001C146.454 93.4733 146.97 93.85 147.582 94.1348C148.195 94.4152 148.885 94.5553 149.651 94.5553C150.412 94.5553 151.103 94.4152 151.715 94.1348C152.327 93.85 152.843 93.4733 153.272 93.0001C153.7 92.527 154.024 91.975 154.251 91.3442C154.474 90.7133 154.588 90.0475 154.588 89.3509ZM155.865 89.3421C155.865 90.2577 155.708 91.0989 155.397 91.8655C155.082 92.6322 154.645 93.2937 154.09 93.8544C153.534 94.4108 152.878 94.8489 152.117 95.1643C151.361 95.4797 150.534 95.6374 149.651 95.6374C148.759 95.6374 147.937 95.4797 147.18 95.1643C146.419 94.8489 145.763 94.4108 145.208 93.8544C144.652 93.2937 144.215 92.6322 143.9 91.8655C143.585 91.0989 143.428 90.2577 143.428 89.3421C143.428 88.4265 143.585 87.5898 143.9 86.8188C144.215 86.0521 144.652 85.3906 145.208 84.8299C145.763 84.2735 146.419 83.8354 147.18 83.52C147.937 83.2046 148.759 83.0469 149.651 83.0469C150.534 83.0469 151.361 83.2046 152.117 83.52C152.878 83.8354 153.534 84.2735 154.09 84.8299C154.645 85.3906 155.082 86.0521 155.397 86.8188C155.708 87.5898 155.865 88.4265 155.865 89.3421Z" fill="white"/>
<path d="M170.655 93.555H170.686V83.3477H171.902V95.3336H170.384L163.439 85.0255H163.404V95.3336H162.193V83.3477H163.711L170.655 93.555Z" fill="white"/>
<path d="M200.997 95.3336H199.785V83.3477H206.979V84.4341H200.997V88.5784H206.559V89.6648H200.997V95.3336Z" fill="white"/>
<path d="M220.737 95.6359C219.841 95.6359 219.102 95.4826 218.529 95.1715C217.96 94.8605 217.501 94.4706 217.164 93.9975C216.827 93.52 216.596 93.0074 216.465 92.4467C216.338 91.8859 216.272 91.3602 216.272 90.8652V83.3477H217.483V90.7294C217.483 91.2156 217.54 91.6844 217.654 92.1444C217.768 92.6 217.947 93.0074 218.201 93.3623C218.454 93.7171 218.787 94.0062 219.202 94.2253C219.622 94.4443 220.134 94.5538 220.737 94.5538C221.345 94.5538 221.857 94.4443 222.272 94.2253C222.688 94.0062 223.02 93.7171 223.274 93.3623C223.527 93.0074 223.711 92.6 223.82 92.1444C223.934 91.6844 223.991 91.2156 223.991 90.7294V83.3477H225.207V90.8652C225.207 91.3602 225.141 91.8859 225.01 92.4467C224.883 93.0074 224.647 93.52 224.31 93.9975C223.973 94.4706 223.514 94.8605 222.937 95.1715C222.36 95.4826 221.625 95.6359 220.737 95.6359Z" fill="white"/>
<path d="M242.778 93.555H242.809V83.3477H244.024V95.3336H242.507L235.562 85.0255H235.527V95.3336H234.316V83.3477H235.833L242.778 93.555Z" fill="white"/>
<path d="M255.85 94.2516H258.259C259.16 94.2516 259.943 94.107 260.612 93.8266C261.281 93.5419 261.832 93.1739 262.269 92.7183C262.711 92.2627 263.039 91.737 263.258 91.1499C263.476 90.5673 263.586 89.9627 263.586 89.3406C263.586 88.7186 263.476 88.114 263.258 87.5314C263.039 86.9443 262.711 86.423 262.269 85.963C261.832 85.5074 261.281 85.1394 260.612 84.8547C259.943 84.5743 259.16 84.4341 258.259 84.4341H255.85V94.2516ZM254.638 83.3477H258.596C259.339 83.3477 260.083 83.4747 260.831 83.72C261.578 83.9697 262.252 84.3465 262.851 84.8459C263.455 85.3497 263.94 85.9762 264.312 86.7253C264.679 87.4744 264.867 88.3462 264.867 89.3406C264.867 90.3439 264.679 91.22 264.312 91.9648C263.94 92.7095 263.455 93.3316 262.851 93.8354C262.252 94.3392 261.578 94.7116 260.831 94.9613C260.083 95.2066 259.339 95.3336 258.596 95.3336H254.638V83.3477Z" fill="white"/>
</svg>
