<svg width="210" height="130" viewBox="0 0 210 130" fill="none" xmlns="http://www.w3.org/2000/svg">
<path d="M99.5412 41.0733V32.5H65.5105V74.716H99.5412V66.1465H76.4825V57.8965H90.4836V49.3232H76.4825V41.0733H99.5412Z" fill="white"/>
<path d="M118.328 63.6986V32.5H107.356V74.716H144.041V63.6986H118.328Z" fill="white"/>
<path d="M180.493 61.747C187.628 61.747 193.409 67.5528 193.409 74.716H208.84L180.29 32.5L152.149 74.716H167.58C167.58 67.5528 173.361 61.747 180.493 61.747Z" fill="white"/>
<path d="M42.2603 32.5C42.2603 39.667 36.4796 45.4728 29.3477 45.4728C22.2119 45.4728 16.4313 39.667 16.4313 32.5038V32.5H1L29.5504 74.716L57.6916 32.5H42.2603Z" fill="white"/>
<path d="M3.6088 96.1561H9.0929V97.0848H2.56903V86.7969H8.92023V87.7294H3.6088V91.2565H8.57114V92.189H3.6088V96.1561Z" fill="white"/>
<path d="M19.2615 96.1561H21.3298C22.0993 96.1561 22.775 96.032 23.3493 95.7913C23.9198 95.5469 24.3965 95.2311 24.7719 94.84C25.1473 94.4489 25.4288 93.9977 25.6165 93.4938C25.8079 92.9937 25.9018 92.4748 25.9018 91.9409C25.9018 91.4069 25.8079 90.888 25.6165 90.3879C25.4288 89.884 25.1473 89.4366 24.7719 89.0417C24.3965 88.6507 23.9198 88.3348 23.3493 88.0904C22.775 87.8497 22.0993 87.7294 21.3298 87.7294H19.2615V96.1561ZM18.218 86.7969H21.6188C22.257 86.7969 22.8951 86.9059 23.537 87.1165C24.1751 87.3308 24.7569 87.6542 25.2711 88.0829C25.7854 88.5153 26.2058 89.053 26.5211 89.696C26.8402 90.339 27.0016 91.0873 27.0016 91.9409C27.0016 92.802 26.8402 93.554 26.5211 94.1932C26.2058 94.8325 25.7854 95.3664 25.2711 95.7988C24.7569 96.2313 24.1751 96.5509 23.537 96.7652C22.8951 96.9758 22.257 97.0848 21.6188 97.0848H18.218V86.7969Z" fill="white"/>
<path d="M38.1574 97.3443C37.3879 97.3443 36.7573 97.2127 36.2618 96.9457C35.7701 96.6787 35.3797 96.3441 35.0907 95.938C34.8017 95.5281 34.6027 95.0882 34.4901 94.6069C34.3813 94.1255 34.325 93.6743 34.325 93.2494V86.7969H35.3685V93.1328C35.3685 93.5502 35.4135 93.9526 35.5111 94.3474C35.6087 94.7385 35.7664 95.0882 35.9803 95.3927C36.198 95.6973 36.4871 95.9455 36.8437 96.1335C37.2003 96.3215 37.6394 96.4155 38.1574 96.4155C38.6792 96.4155 39.1184 96.3215 39.475 96.1335C39.8316 95.9455 40.1169 95.6973 40.3346 95.3927C40.5523 95.0882 40.7099 94.7385 40.8038 94.3474C40.9014 93.9526 40.9502 93.5502 40.9502 93.1328V86.7969H41.9899V93.2494C41.9899 93.6743 41.9374 94.1255 41.8248 94.6069C41.7159 95.0882 41.5132 95.5281 41.2242 95.938C40.9351 96.3441 40.5448 96.6787 40.0455 96.9457C39.55 97.2127 38.9194 97.3443 38.1574 97.3443Z" fill="white"/>
<path d="M58.9077 95.4169C58.7351 95.6764 58.5249 95.9246 58.2771 96.1577C58.0331 96.3871 57.7479 96.5939 57.425 96.7706C57.1022 96.9474 56.7456 97.0902 56.3553 97.1918C55.9649 97.2971 55.537 97.3459 55.0753 97.3459C54.302 97.3459 53.5888 97.2106 52.9319 96.9398C52.2788 96.6691 51.712 96.2931 51.2428 95.8155C50.7698 95.3342 50.3982 94.7664 50.1354 94.1084C49.8689 93.4504 49.7375 92.7284 49.7375 91.9425C49.7375 91.1566 49.8727 90.4384 50.1429 89.7766C50.4132 89.1186 50.7848 88.5508 51.2615 88.0695C51.742 87.5919 52.3051 87.2159 52.9544 86.9452C53.6076 86.6744 54.3133 86.5391 55.0753 86.5391C55.4506 86.5391 55.8185 86.5767 56.1826 86.6556C56.5429 86.7346 56.8845 86.8436 57.1998 86.9865C57.5189 87.1294 57.8079 87.3024 58.0669 87.5017C58.3297 87.701 58.5474 87.9266 58.7201 88.1785L57.853 88.8178C57.7441 88.6523 57.6052 88.4906 57.425 88.3252C57.2486 88.1597 57.0384 88.0168 56.7944 87.889C56.5542 87.7611 56.2914 87.6634 56.0062 87.5844C55.7246 87.5054 55.4168 87.4678 55.0903 87.4678C54.4221 87.4678 53.829 87.5882 53.3035 87.8288C52.778 88.0732 52.3313 88.3966 51.9635 88.8065C51.5994 89.2163 51.3178 89.6939 51.1264 90.2316C50.9312 90.7731 50.8374 91.3446 50.8374 91.9425C50.8374 92.5404 50.935 93.1119 51.1339 93.6534C51.3291 94.1911 51.6144 94.6687 51.9785 95.0785C52.3463 95.4884 52.793 95.8155 53.3185 96.0562C53.8441 96.2968 54.4334 96.4172 55.0903 96.4172C55.6758 96.4172 56.2351 96.2968 56.7682 96.0524C57.2974 95.8118 57.7404 95.4245 58.097 94.8905L58.9077 95.4169Z" fill="white"/>
<path d="M68.2169 93.4224H72.7288L70.4728 87.9588L68.2169 93.4224ZM66.7116 97.0848H65.5668L69.9961 86.7969H71.0058L75.4051 97.0848H74.249L73.1191 94.3812H67.8265L66.7116 97.0848Z" fill="white"/>
<path d="M85.9416 97.0848H84.898V87.7294H81.4709V86.7969H89.3687V87.7294H85.9416V97.0848Z" fill="white"/>
<path d="M97.7994 97.0848H96.7596V86.7969H97.7994V97.0848Z" fill="white"/>
<path d="M114.608 91.95C114.608 91.3521 114.511 90.7806 114.319 90.2391C114.124 89.6976 113.846 89.2201 113.479 88.8102C113.111 88.4004 112.668 88.0732 112.142 87.8288C111.617 87.5882 111.024 87.4678 110.371 87.4678C109.714 87.4678 109.121 87.5882 108.595 87.8288C108.07 88.0732 107.627 88.4004 107.259 88.8102C106.891 89.2201 106.613 89.6976 106.418 90.2391C106.226 90.7806 106.129 91.3521 106.129 91.95C106.129 92.5479 106.226 93.1195 106.418 93.6609C106.613 94.2024 106.891 94.6762 107.259 95.0823C107.627 95.4884 108.07 95.8118 108.595 96.0562C109.121 96.2968 109.714 96.4172 110.371 96.4172C111.024 96.4172 111.617 96.2968 112.142 96.0562C112.668 95.8118 113.111 95.4884 113.479 95.0823C113.846 94.6762 114.124 94.2024 114.319 93.6609C114.511 93.1195 114.608 92.5479 114.608 91.95ZM115.704 91.9425C115.704 92.7284 115.569 93.4504 115.303 94.1084C115.033 94.7664 114.657 95.3342 114.18 95.8155C113.704 96.2931 113.141 96.6691 112.488 96.9398C111.838 97.2106 111.129 97.3459 110.371 97.3459C109.605 97.3459 108.899 97.2106 108.25 96.9398C107.597 96.6691 107.034 96.2931 106.557 95.8155C106.08 95.3342 105.705 94.7664 105.434 94.1084C105.164 93.4504 105.029 92.7284 105.029 91.9425C105.029 91.1566 105.164 90.4384 105.434 89.7766C105.705 89.1186 106.08 88.5508 106.557 88.0695C107.034 87.5919 107.597 87.2159 108.25 86.9452C108.899 86.6744 109.605 86.5391 110.371 86.5391C111.129 86.5391 111.838 86.6744 112.488 86.9452C113.141 87.2159 113.704 87.5919 114.18 88.0695C114.657 88.5508 115.033 89.1186 115.303 89.7766C115.569 90.4384 115.704 91.1566 115.704 91.9425Z" fill="white"/>
<path d="M128.399 95.5582H128.426V86.7969H129.469V97.0848H128.167L122.206 88.237H122.176V97.0848H121.136V86.7969H122.439L128.399 95.5582Z" fill="white"/>
<path d="M154.442 97.0848H153.402V86.7969H159.577V87.7294H154.442V91.2866H159.217V92.2191H154.442V97.0848Z" fill="white"/>
<path d="M171.386 97.3443C170.617 97.3443 169.982 97.2127 169.491 96.9457C169.003 96.6787 168.608 96.3441 168.319 95.938C168.03 95.5281 167.831 95.0882 167.719 94.6069C167.61 94.1255 167.554 93.6743 167.554 93.2494V86.7969H168.593V93.1328C168.593 93.5502 168.642 93.9526 168.74 94.3474C168.837 94.7385 168.991 95.0882 169.209 95.3927C169.427 95.6973 169.712 95.9455 170.069 96.1335C170.429 96.3215 170.868 96.4155 171.386 96.4155C171.908 96.4155 172.347 96.3215 172.704 96.1335C173.06 95.9455 173.346 95.6973 173.563 95.3927C173.781 95.0882 173.939 94.7385 174.033 94.3474C174.13 93.9526 174.179 93.5502 174.179 93.1328V86.7969H175.222V93.2494C175.222 93.6743 175.166 94.1255 175.054 94.6069C174.945 95.0882 174.742 95.5281 174.453 95.938C174.164 96.3441 173.77 96.6787 173.274 96.9457C172.779 97.2127 172.148 97.3443 171.386 97.3443Z" fill="white"/>
<path d="M190.305 95.5582H190.331V86.7969H191.375V97.0848H190.072L184.111 88.237H184.081V97.0848H183.041V86.7969H184.344L190.305 95.5582Z" fill="white"/>
<path d="M201.524 96.1561H203.593C204.366 96.1561 205.038 96.032 205.612 95.7913C206.186 95.5469 206.659 95.2311 207.035 94.84C207.414 94.4489 207.695 93.9977 207.883 93.4938C208.071 92.9937 208.165 92.4748 208.165 91.9409C208.165 91.4069 208.071 90.888 207.883 90.3879C207.695 89.884 207.414 89.4366 207.035 89.0417C206.659 88.6507 206.186 88.3348 205.612 88.0904C205.038 87.8497 204.366 87.7294 203.593 87.7294H201.524V96.1561ZM200.485 86.7969H203.882C204.52 86.7969 205.158 86.9059 205.8 87.1165C206.442 87.3308 207.02 87.6542 207.534 88.0829C208.052 88.5153 208.469 89.053 208.788 89.696C209.103 90.339 209.264 91.0873 209.264 91.9409C209.264 92.802 209.103 93.554 208.788 94.1932C208.469 94.8325 208.052 95.3664 207.534 95.7988C207.02 96.2313 206.442 96.5509 205.8 96.7652C205.158 96.9758 204.52 97.0848 203.882 97.0848H200.485V86.7969Z" fill="white"/>
</svg>
