<svg width="300" height="83" viewBox="0 0 300 83" fill="none" xmlns="http://www.w3.org/2000/svg">
<g clip-path="url(#clip0_4244_31849)">
<path fill-rule="evenodd" clip-rule="evenodd" d="M3.85083 82.5312H96.2941V74.8281H3.85221L3.85083 82.5312Z" fill="white"/>
<path fill-rule="evenodd" clip-rule="evenodd" d="M103.999 82.5312H196.442V74.8281H103.999V82.5312Z" fill="white"/>
<path fill-rule="evenodd" clip-rule="evenodd" d="M203.183 82.5312H295.625V74.8281H203.181L203.183 82.5312Z" fill="white"/>
<path fill-rule="evenodd" clip-rule="evenodd" d="M2.58516 3.35787C2.26771 2.29924 1.92679 1.62983 1.55827 1.3455C1.16767 1.17988 0.79915 1.09706 0.447193 1.09706C0.168387 1.11639 0.0193231 1.02943 0 0.844482C0.0193231 0.681615 0.220836 0.601562 0.608679 0.601562C2.26909 0.620886 3.34152 0.64711 3.83012 0.684376C3.97505 0.684376 4.327 0.666433 4.88737 0.629167C5.41876 0.611224 6.09093 0.601562 6.90388 0.601562C7.29172 0.601562 7.48358 0.681616 7.48358 0.843102C7.46977 1.02943 7.30139 1.11639 6.98531 1.09706C6.7493 1.09706 6.52018 1.13433 6.29382 1.20748C6.07023 1.3179 5.96395 1.52217 5.98327 1.82858C5.98327 1.90173 6.01364 2.01491 6.07989 2.17088C6.09369 2.33926 6.13234 2.53526 6.18478 2.76437C6.29382 3.21433 6.43322 3.7678 6.60713 4.41926C7.77066 8.56684 8.95351 12.5709 10.1543 16.4341H10.2344L15.6076 1.72783C15.7787 1.33308 15.9085 1.05704 15.9982 0.901071C16.1086 0.77271 16.2066 0.70784 16.2963 0.70784C16.4523 0.70784 16.5917 0.812737 16.7159 1.02667C16.8236 1.24751 16.9547 1.58014 17.1093 2.03009L22.8745 16.2257H22.9573C24.1558 12.0018 25.3828 7.78603 26.6383 3.57871C26.7474 3.23917 26.8316 2.92724 26.8964 2.64153C26.9144 2.36411 26.924 2.13085 26.924 1.93762C26.9252 1.82203 26.9029 1.7074 26.8586 1.60065C26.8142 1.4939 26.7487 1.39725 26.6659 1.31652C26.4865 1.17021 26.1235 1.09706 25.5838 1.09706C25.2664 1.09706 25.109 1.01149 25.109 0.843102C25.109 0.681616 25.3257 0.601562 25.7577 0.601562C27.3312 0.620886 28.2891 0.64711 28.6424 0.684376C28.786 0.684376 29.0896 0.666433 29.5492 0.629167C29.9923 0.611224 30.4546 0.601562 30.9432 0.601562C31.2497 0.601562 31.4111 0.671954 31.4291 0.815497C31.4291 1.00321 31.3049 1.09706 31.0509 1.09706C30.7334 1.09706 30.4119 1.14261 30.0765 1.23509C29.759 1.3455 29.5023 1.66572 29.3035 2.19848C29.0229 2.86596 28.761 3.54115 28.5182 4.22327C26.6087 9.79303 24.7637 15.3847 22.9835 20.9971C22.8455 21.4664 22.7254 21.799 22.6177 22.0006C22.5115 22.2145 22.3624 22.318 22.1705 22.318C22.0463 22.318 21.929 22.2145 21.82 22.0006C21.6819 21.7839 21.5191 21.4264 21.3203 20.9267L15.551 6.79325H15.4999C14.0369 10.898 12.2357 15.5715 10.0977 20.8163C9.93232 21.2112 9.74666 21.5972 9.54149 21.973C9.40899 22.2035 9.25992 22.318 9.09568 22.318C8.85276 22.318 8.64158 21.9771 8.45939 21.2884L2.58516 3.35787Z" fill="white"/>
<path fill-rule="evenodd" clip-rule="evenodd" d="M45.4728 13.1808C45.6012 13.1808 45.6468 13.1256 45.6109 13.0152L43.1044 6.0492C43.0864 5.90289 43.0423 5.82008 42.9677 5.80076C42.8973 5.82008 42.8408 5.90289 42.8062 6.0492L40.2625 12.989C40.2156 13.1173 40.2528 13.1822 40.3715 13.1822H45.4715L45.4728 13.1808ZM39.8167 14.5817C39.6842 14.5817 39.5958 14.6549 39.56 14.8053L38.0735 18.8494C37.7947 19.6044 37.6539 20.1799 37.6539 20.5747C37.6539 20.8121 37.7353 21.0108 37.8968 21.1682C38.0666 21.3504 38.3592 21.4456 38.7622 21.4456H39.1804C39.473 21.4456 39.6055 21.5188 39.5876 21.672C39.5876 21.85 39.4357 21.9383 39.128 21.9383C38.1259 21.9011 37.1418 21.8776 36.1812 21.8583C35.665 21.8776 34.5801 21.9011 32.9197 21.9383C32.5664 21.9383 32.3925 21.85 32.3925 21.672C32.3925 21.5201 32.5029 21.4428 32.7306 21.4428C33.0191 21.4428 33.3006 21.4249 33.5808 21.3876C34.213 21.2952 34.703 21.026 35.0577 20.5774C35.2523 20.3469 35.4165 20.0778 35.5449 19.7783C35.6774 19.5022 35.8071 19.1945 35.9355 18.8549L42.8891 1.14388C43.1872 0.373717 43.4439 -0.00170409 43.662 0.0162388C43.8842 0.0162388 44.1202 0.312987 44.3631 0.909244C46.6335 6.6997 48.9201 12.4838 51.2229 18.2614C51.7667 19.4815 52.2373 20.2931 52.6445 20.6865C53.0503 21.0633 53.3926 21.2772 53.6714 21.3324C54.0965 21.4056 54.4843 21.4456 54.8349 21.4456C55.0695 21.4456 55.1882 21.5188 55.1882 21.672C55.1882 21.7796 55.1137 21.8403 54.9715 21.8583C54.7825 21.9135 54.4277 21.9411 53.9157 21.9411C52.7866 21.9411 51.0434 21.9204 48.6791 21.8859C48.1477 21.8859 47.8717 21.8127 47.8537 21.672C47.8537 21.5201 47.9807 21.4332 48.2319 21.4152C48.4955 21.3421 48.5797 21.1281 48.49 20.7665L46.2706 14.7764C46.2182 14.6466 46.1215 14.5817 45.989 14.5817H39.8167Z" fill="white"/>
<path fill-rule="evenodd" clip-rule="evenodd" d="M64.0921 13.7398C64.0741 15.5479 64.1017 16.9391 64.1721 17.9122C64.2411 18.9308 64.4109 19.5629 64.6676 19.8114C64.8816 19.9977 65.2294 20.144 65.7097 20.253C66.1831 20.3745 66.9381 20.4325 67.9802 20.4325C68.7117 20.4325 69.3493 20.3828 69.8945 20.2793C70.419 20.2089 70.8469 19.9922 71.1754 19.6333C71.5605 19.1475 71.7965 18.5816 71.8834 17.9398C71.8834 17.6831 71.9883 17.545 72.1926 17.5257C72.3334 17.5257 72.4065 17.6831 72.4065 17.995C72.4065 18.2048 72.3707 18.6796 72.2961 19.4139C72.2078 20.1481 72.1139 20.7568 72.0035 21.2427C71.9511 21.5463 71.8324 21.7451 71.6447 21.8362C71.4224 21.9466 70.967 22.0018 70.2824 22.0018C67.632 21.9642 64.9819 21.9099 62.3323 21.8389C61.4144 21.8541 60.2688 21.8817 58.89 21.919C58.5256 21.919 58.3421 21.8334 58.3421 21.6498C58.3241 21.4994 58.4677 21.4235 58.7672 21.4235C59.1923 21.4235 59.5194 21.3862 59.7513 21.3131C59.8844 21.279 60.0068 21.2117 60.1069 21.1176C60.2071 21.0235 60.2818 20.9055 60.3241 20.7748C60.4531 20.4495 60.529 20.1055 60.549 19.7562C60.6387 18.4588 60.6815 16.456 60.6815 13.7425V8.7751C60.6815 5.08024 60.6664 3.08582 60.6346 2.79183C60.6208 2.29495 60.5339 1.92643 60.382 1.68765C60.2219 1.42126 59.9169 1.25012 59.4614 1.17697C59.1636 1.1161 58.8599 1.08832 58.556 1.09415C58.2454 1.11347 58.0895 1.0279 58.0895 0.840191C58.0895 0.681465 58.291 0.598651 58.6885 0.598651C60.2164 0.617974 61.4669 0.645579 62.433 0.681465C63.4724 0.663522 64.7104 0.635917 66.1376 0.598651C66.5226 0.598651 66.7117 0.681465 66.7117 0.840191C66.7117 1.0279 66.5503 1.11347 66.2287 1.09415C65.8836 1.09415 65.5247 1.12176 65.1617 1.17697C64.8139 1.23217 64.5627 1.384 64.4137 1.63244C64.2508 1.89054 64.1625 2.27562 64.1445 2.79183C64.1293 3.16863 64.1197 3.74418 64.1197 4.51435C64.1017 5.28727 64.0921 6.70752 64.0921 8.7751V13.7398ZM83.0067 2.17073L78.9309 2.28114C78.1676 2.29909 77.5838 2.3543 77.1835 2.44677C76.7832 2.57375 76.4768 2.79183 76.2753 3.09134C76.0241 3.52611 75.875 3.85598 75.8198 4.0851C75.7826 4.30593 75.6818 4.41635 75.5107 4.41635C75.334 4.41635 75.2539 4.26867 75.2719 3.97468C75.2719 3.83666 75.3092 3.61444 75.3795 3.30251C75.4348 2.98506 75.49 2.63586 75.5452 2.26182C75.7163 1.43921 75.8198 0.931285 75.8557 0.739434C75.9303 0.380576 76.0338 0.201147 76.1773 0.201147C76.2933 0.201147 76.4396 0.252215 76.6176 0.352971C76.7763 0.445446 77.0206 0.508937 77.3505 0.546203C78.2131 0.637298 79.1241 0.684225 80.0833 0.684225H90.8988C92.5316 0.629016 93.408 0.536541 93.524 0.40818C93.6648 0.40818 93.7379 0.604172 93.7379 0.998916C93.72 2.00648 93.6924 3.09134 93.6592 4.25349C93.6399 4.55713 93.5543 4.7062 93.4025 4.7062C93.2065 4.7269 93.1058 4.53781 93.1058 4.14307L93.0809 3.82562C93.0809 3.43087 92.8463 3.07615 92.3756 2.76284C91.8953 2.46057 91.0547 2.28943 89.8567 2.25216L86.4172 2.16935V13.7411C86.3993 16.4547 86.442 18.4739 86.5483 19.7976C86.5952 20.1923 86.6863 20.5194 86.8299 20.7775C86.9555 21.0619 87.2177 21.2413 87.6194 21.3158C88.0825 21.3872 88.5504 21.4227 89.0189 21.4221C89.3115 21.4221 89.4592 21.4994 89.4592 21.6512C89.4344 21.8293 89.2605 21.9204 88.9389 21.9204C86.9831 21.8845 85.5518 21.8569 84.6464 21.8375C83.7396 21.8569 82.594 21.8845 81.2096 21.9204C80.8425 21.9204 80.6617 21.8293 80.6617 21.6512C80.6437 21.5021 80.79 21.4249 81.102 21.4249C81.5174 21.4249 81.8473 21.389 82.0861 21.3144C82.2202 21.276 82.3438 21.2075 82.4475 21.1143C82.5513 21.021 82.6325 20.9054 82.6851 20.7761C82.7927 20.5194 82.8535 20.1799 82.8714 19.7589C82.9597 18.4643 83.0067 16.4643 83.0067 13.7549V2.17073ZM111.621 20.9142C112.129 20.9142 112.728 20.8134 113.423 20.6105C114.131 20.4007 114.835 19.9936 115.528 19.3973C116.219 18.7707 116.793 17.8501 117.246 16.6258C117.699 15.4209 117.933 13.8115 117.953 11.7964C117.918 8.59705 117.155 6.09194 115.66 4.28385C114.15 2.4799 112.248 1.56757 109.956 1.54963C109.191 1.54963 108.418 1.66833 107.637 1.90848C106.838 2.17349 106.107 2.6469 105.45 3.33012C104.794 3.96226 104.263 4.85664 103.863 6.00361C103.449 7.15334 103.237 8.61499 103.237 10.39C103.237 13.3961 103.982 15.8805 105.478 17.8377C106.936 19.8528 108.984 20.8769 111.621 20.9142ZM110.476 22.3192C106.599 22.2447 103.785 21.0246 102.029 18.6547C100.305 16.3594 99.4493 13.8944 99.4714 11.2567C99.4493 8.67986 100.315 6.22997 102.057 3.90429C103.79 1.5096 106.682 0.274299 110.735 0.203907C117.946 0.355732 121.625 3.8753 121.777 10.7502C121.758 14.0489 120.746 16.7735 118.738 18.9294C116.739 21.135 113.984 22.264 110.476 22.3192ZM132.874 18.1068C132.907 19.1709 133.008 19.9425 133.168 20.4187C133.327 20.8714 133.546 21.1405 133.821 21.233C134.311 21.3793 134.784 21.4442 135.247 21.4262C135.557 21.4262 135.713 21.5021 135.713 21.6512C135.69 21.8293 135.476 21.9204 135.076 21.9204C133.946 21.899 132.817 21.8714 131.689 21.8375C131.288 21.8569 130.307 21.8845 128.742 21.9204C128.344 21.9397 128.143 21.8513 128.143 21.6512C128.143 21.5021 128.289 21.4249 128.583 21.4249C128.986 21.4249 129.392 21.3793 129.811 21.2868C130.159 21.1957 130.395 20.8838 130.521 20.3483C130.637 19.8252 130.687 18.9681 130.667 17.7852L130.909 1.06931C130.891 0.455108 131.009 0.136276 131.269 0.121094C131.428 0.121094 131.584 0.197006 131.734 0.352971C131.896 0.518598 132.074 0.735294 132.268 1.00168C133.272 2.14864 136.09 5.16857 140.726 10.0532C141.766 11.127 142.953 12.3775 144.284 13.8005C145.09 14.7077 145.908 15.604 146.737 16.4892H146.868L146.602 3.80077C146.602 2.95331 146.534 2.34187 146.4 1.96507C146.242 1.6076 145.997 1.37158 145.669 1.26116C145.195 1.1343 144.705 1.07848 144.214 1.09553C143.912 1.09553 143.772 1.01134 143.79 0.842951C143.79 0.735294 143.859 0.663522 144 0.629016C144.144 0.611073 144.309 0.601412 144.497 0.601412C146.025 0.619355 147.125 0.646959 147.8 0.684225C147.959 0.684225 148.275 0.664902 148.745 0.629016C149.224 0.611073 149.8 0.601412 150.465 0.601412C150.863 0.583469 151.074 0.662142 151.089 0.842951C151.089 1.01134 150.93 1.09691 150.61 1.09691C150.369 1.09691 150.09 1.12452 149.778 1.17973C149.602 1.21399 149.439 1.29484 149.305 1.41381C149.171 1.53279 149.072 1.68552 149.017 1.85604C148.864 2.21351 148.778 2.78769 148.761 3.57718L148.467 21.3973C148.467 21.9769 148.348 22.264 148.108 22.264C147.966 22.264 147.822 22.1867 147.68 22.0308C147.506 21.9152 147.341 21.7855 147.188 21.6429C144.491 18.894 141.809 16.1298 139.143 13.3505C135.741 9.71365 133.577 7.34243 132.642 6.24239H132.559L132.874 18.1068Z" fill="white"/>
<path fill-rule="evenodd" clip-rule="evenodd" d="M176.389 13.7464C176.371 16.5137 176.412 18.5178 176.522 19.76C176.558 20.1823 176.649 20.5246 176.801 20.7814C176.923 21.0657 177.184 21.2465 177.585 21.3196C178.034 21.39 178.487 21.4273 178.939 21.4273C179.248 21.4273 179.404 21.5032 179.404 21.6564C179.404 21.8331 179.207 21.9228 178.808 21.9228C177.435 21.8984 176.061 21.8717 174.688 21.8428C173.707 21.8607 172.563 21.8883 171.243 21.9228C170.864 21.9228 170.676 21.8331 170.676 21.6564C170.658 21.5032 170.788 21.4301 171.071 21.4301C171.493 21.4301 171.817 21.3928 172.048 21.3196C172.18 21.2852 172.302 21.2177 172.401 21.1236C172.501 21.0295 172.575 20.9118 172.616 20.7814C172.728 20.5246 172.804 20.1851 172.841 19.76C172.93 18.5178 172.971 16.5137 172.971 13.7464V8.78169C172.971 5.08683 172.957 3.08965 172.926 2.79566C172.912 2.30016 172.826 1.93302 172.674 1.69148C172.516 1.4251 172.212 1.25671 171.759 1.18356C171.41 1.12087 171.055 1.09221 170.699 1.09799C170.393 1.09799 170.238 1.02483 170.238 0.871628C170.238 0.69496 170.445 0.605245 170.861 0.605245C172.473 0.624568 173.78 0.652173 174.779 0.688059C177.373 0.688059 179.766 0.679777 181.961 0.660454C182.446 0.642511 182.816 0.605245 183.076 0.550036C183.206 0.469282 183.35 0.413143 183.501 0.384409C183.635 0.403732 183.698 0.486546 183.698 0.63285C183.683 0.776393 183.607 1.19874 183.47 1.89299C183.437 2.62451 183.392 3.38364 183.337 4.17174C183.337 4.43813 183.248 4.56925 183.07 4.56925C182.902 4.56925 182.808 4.41742 182.79 4.11653V3.63346C182.772 3.42763 182.717 3.22668 182.629 3.03996C182.56 2.83845 182.368 2.64246 182.059 2.4506C181.763 2.30292 181.357 2.22011 180.834 2.20216L176.629 2.11935C176.467 2.11935 176.389 2.24771 176.389 2.50581V9.5698C176.371 9.74371 176.43 9.83204 176.574 9.83204L180.048 9.80444C180.51 9.80444 180.917 9.79616 181.269 9.77683C181.782 9.77683 182.177 9.60569 182.45 9.26615C182.557 9.07292 182.671 8.9763 182.796 8.9763C182.902 8.9763 182.954 9.06464 182.954 9.23855C182.954 9.31308 182.936 9.50907 182.902 9.82928C182.884 9.95764 182.856 10.1233 182.82 10.3262C182.807 10.536 182.779 10.7568 182.742 10.9859C182.673 11.8486 182.638 12.5331 182.638 13.0383C182.638 13.1667 182.629 13.2826 182.611 13.3834C182.593 13.5117 182.507 13.5766 182.359 13.5766C182.219 13.5586 182.147 13.4248 182.147 13.1763C182.147 12.9555 182.094 12.6656 181.988 12.3068C181.933 12.0956 181.798 11.8913 181.578 11.6898C181.462 11.5652 181.321 11.4665 181.164 11.4C180.979 11.3396 180.788 11.3026 180.594 11.2896C180.161 11.2344 179.476 11.2067 178.538 11.2067H176.574C176.449 11.2067 176.389 11.2896 176.389 11.4538V13.745V13.7464ZM199.393 13.1653C199.517 13.1653 199.563 13.1101 199.527 12.9997L197.075 6.03229C197.057 5.88598 197.015 5.80317 196.941 5.78385C196.872 5.80317 196.82 5.88598 196.784 6.03229L194.293 12.9721C194.247 13.1018 194.285 13.1653 194.399 13.1653H199.393ZM193.857 14.5662C193.726 14.5662 193.64 14.6394 193.608 14.7898L192.149 18.8339C191.876 19.5888 191.739 20.1644 191.739 20.5591C191.736 20.6691 191.755 20.7785 191.796 20.8806C191.837 20.9827 191.899 21.0753 191.977 21.1526C192.142 21.3348 192.428 21.4273 192.823 21.4273H193.233C193.519 21.4273 193.65 21.5032 193.632 21.6564C193.632 21.8345 193.483 21.9228 193.182 21.9228C192.202 21.8855 191.241 21.8621 190.297 21.8428C189.792 21.8621 188.729 21.8855 187.105 21.9228C186.76 21.9228 186.588 21.8345 186.588 21.6564C186.588 21.5046 186.699 21.4273 186.92 21.4273C187.203 21.4273 187.479 21.4094 187.752 21.3721C188.372 21.2796 188.851 21.0105 189.197 20.5619C189.392 20.3314 189.549 20.0623 189.675 19.7628C189.804 19.4867 189.933 19.1789 190.057 18.8394L196.861 1.12973C197.154 0.358185 197.407 -0.0186162 197.619 0.000706964C197.837 0.000706964 198.068 0.297455 198.305 0.893712C200.003 5.32009 202.239 11.1032 205.02 18.2459C205.551 19.466 206.014 20.2776 206.411 20.6709C206.809 21.0477 207.143 21.2617 207.416 21.3169C207.833 21.39 208.212 21.4273 208.555 21.4273C208.785 21.4273 208.901 21.5032 208.901 21.6564C208.901 21.7641 208.828 21.8248 208.689 21.8428C208.504 21.898 208.16 21.9256 207.656 21.9256C206.551 21.9256 204.843 21.9049 202.53 21.8704C202.01 21.8704 201.741 21.7972 201.725 21.6564C201.725 21.5046 201.847 21.4176 202.092 21.3997C202.351 21.3266 202.432 21.1126 202.345 20.751L200.173 14.7608C200.122 14.6311 200.028 14.5662 199.897 14.5662H193.857Z" fill="white"/>
<path fill-rule="evenodd" clip-rule="evenodd" d="M217.719 0.731519C217.805 0.2443 217.954 0 218.169 0C218.295 0.00274831 218.416 0.051902 218.507 0.138022C218.615 0.266383 218.753 0.510683 218.921 0.869541L226.397 16.7739L233.85 0.67631C234.029 0.226357 234.231 0 234.452 0C234.71 0 234.88 0.289847 234.946 0.869541L237.437 18.3032C237.603 20.0105 238.053 20.9615 238.771 21.1547C239.557 21.3562 240.127 21.4473 240.474 21.4307C240.75 21.4307 240.897 21.497 240.915 21.6309C240.915 21.7206 240.855 21.791 240.728 21.842C240.576 21.8973 240.403 21.9249 240.203 21.9249C238.348 21.9 236.493 21.8462 234.639 21.7634C234.078 21.7109 233.811 21.6074 233.851 21.457C233.851 21.3286 233.948 21.2278 234.141 21.1533C234.243 21.1174 234.305 21.0015 234.344 20.8083C234.363 20.6247 234.344 20.3376 234.289 19.9387L232.642 7.53326H232.535L226.557 20.3155C226.028 21.4238 225.691 21.9525 225.538 21.8973C225.433 21.8973 225.308 21.7661 225.164 21.4998C224.956 21.174 224.763 20.8382 224.587 20.4936C224.204 19.7041 223.649 18.5668 222.912 17.083C222.401 16.0964 221.907 15.1012 221.431 14.0976C220.851 12.7588 219.899 10.6719 218.578 7.83691H218.47L217.037 19.0623C216.989 19.5302 216.962 19.9732 216.962 20.3956C216.98 20.9035 217.256 21.2002 217.786 21.2927C218.28 21.3838 218.663 21.4307 218.939 21.4307C219.188 21.4307 219.323 21.497 219.341 21.6309C219.323 21.8269 219.106 21.9249 218.685 21.9249L215.815 21.842C215.09 21.8614 214.191 21.889 213.118 21.9249C212.807 21.9249 212.646 21.8282 212.624 21.6309C212.624 21.497 212.771 21.4294 213.053 21.4294C213.24 21.4473 213.514 21.4211 213.881 21.3465C214.247 21.2361 214.516 20.9559 214.697 20.5046C214.862 20.0933 214.967 19.6309 215.004 19.1175L217.719 0.731519Z" fill="white"/>
<path fill-rule="evenodd" clip-rule="evenodd" d="M249.086 8.77225C249.086 5.08154 249.071 3.08987 249.039 2.79588C249.006 1.85043 248.694 1.32181 248.105 1.21139C247.779 1.13934 247.445 1.10369 247.111 1.10511C246.828 1.12305 246.683 1.02782 246.683 0.819403C246.683 0.680001 246.901 0.605469 247.34 0.605469C248.647 0.627552 249.839 0.655157 250.899 0.688282C251.825 0.670339 252.941 0.642735 254.243 0.605469C254.61 0.605469 254.8 0.680001 254.82 0.819403C254.82 1.02782 254.672 1.12029 254.378 1.10097C254.135 1.10097 253.859 1.12857 253.555 1.18378C253.206 1.23899 252.958 1.39082 252.803 1.63926C252.642 1.89736 252.552 2.28244 252.534 2.79865C252.515 3.17545 252.509 3.751 252.509 4.52393C252.484 5.94403 252.474 7.36436 252.479 8.78468V13.7493C252.464 16.5733 252.497 18.6381 252.589 19.9438C252.642 20.3192 252.736 20.616 252.883 20.8409C253.019 21.1059 253.289 21.2647 253.691 21.3199C254.145 21.393 254.61 21.4303 255.085 21.4303C255.38 21.4303 255.528 21.5034 255.528 21.6566C255.513 21.8361 255.337 21.9258 255.006 21.9258C253.052 21.8885 251.631 21.8651 250.74 21.8457C249.819 21.8651 248.669 21.8885 247.289 21.9258C246.921 21.9258 246.74 21.8375 246.74 21.6594C246.721 21.5076 246.859 21.4331 247.165 21.4331C247.593 21.4331 247.92 21.393 248.153 21.3199C248.647 21.2095 248.917 20.7416 248.954 19.9162C249.044 18.6326 249.086 16.5788 249.086 13.7618V8.77225ZM268.803 13.7466C268.785 15.5547 268.812 16.9459 268.883 17.919C268.956 18.9376 269.122 19.5697 269.38 19.8182C269.595 20.0045 269.944 20.1508 270.426 20.2599C270.905 20.3813 271.663 20.4393 272.705 20.4393C273.442 20.4393 274.082 20.3896 274.626 20.2861C275.153 20.2157 275.582 19.999 275.91 19.6401C276.296 19.1543 276.536 18.5884 276.622 17.9466C276.622 17.6899 276.727 17.5519 276.932 17.5325C277.073 17.5325 277.15 17.6899 277.15 18.0018C277.15 18.2116 277.109 18.6864 277.04 19.4207C276.948 20.155 276.852 20.7636 276.742 21.2495C276.689 21.5531 276.571 21.7519 276.386 21.843C276.159 21.9534 275.703 22.0086 275.015 22.0086C271.482 21.9534 268.822 21.8982 267.038 21.8457C266.116 21.8609 264.966 21.8885 263.583 21.9258C263.22 21.9258 263.033 21.8402 263.033 21.6566C263.014 21.5062 263.158 21.4303 263.46 21.4303C263.886 21.4303 264.218 21.393 264.447 21.3199C264.58 21.2855 264.703 21.2182 264.804 21.1241C264.905 21.0301 264.98 20.9123 265.024 20.7816C265.141 20.5249 265.211 20.1853 265.247 19.763C265.337 18.4656 265.38 16.4629 265.38 13.7493V8.78192C265.38 5.08706 265.365 3.09263 265.334 2.79865C265.318 2.30176 265.232 1.93324 265.079 1.69447C264.92 1.42808 264.612 1.25693 264.158 1.18378C263.859 1.12299 263.553 1.09522 263.247 1.10097C262.935 1.12029 262.778 1.03472 262.778 0.847008C262.778 0.688282 262.985 0.605469 263.38 0.605469C264.913 0.624792 266.171 0.652396 267.141 0.688282C268.183 0.670339 269.423 0.642735 270.858 0.605469C271.242 0.605469 271.432 0.688282 271.432 0.847008C271.432 1.03472 271.276 1.12029 270.95 1.10097C270.601 1.10097 270.245 1.12857 269.879 1.18378C269.527 1.23899 269.279 1.39082 269.126 1.63926C268.963 1.89736 268.873 2.28244 268.861 2.79865C268.843 3.17545 268.83 3.751 268.83 4.52116C268.807 5.94129 268.798 7.36161 268.803 8.78192V13.7466Z" fill="white"/>
<path fill-rule="evenodd" clip-rule="evenodd" d="M287.692 14.626C287.692 13.8931 287.641 13.3079 287.534 12.8731C287.43 12.4512 287.272 12.0444 287.064 11.6627C287.027 11.5067 286.809 11.0816 286.407 10.3929C285.933 9.57213 285.446 8.75862 284.947 7.95264C284.072 6.46054 283.171 4.98349 282.245 3.52212C281.527 2.46763 280.892 1.77613 280.343 1.45592C279.991 1.25037 279.597 1.12764 279.19 1.09706C278.938 1.11639 278.807 1.03081 278.789 0.844482C278.807 0.681615 278.976 0.601562 279.313 0.601562C280.254 0.620886 281.404 0.64849 282.764 0.684376C283.065 0.684376 283.484 0.666433 284.021 0.629167C284.53 0.611224 285.084 0.601562 285.692 0.601562C285.963 0.601562 286.094 0.681615 286.094 0.844482C286.094 0.978364 285.893 1.07912 285.491 1.15227C285.238 1.2268 285.117 1.39381 285.117 1.66295C285.117 1.88379 285.223 2.20124 285.438 2.61531C285.574 2.84443 285.865 3.35511 286.322 4.1446C286.758 4.93685 287.242 5.83261 287.764 6.83603L290.091 11.0692C290.193 10.858 290.442 10.3846 290.843 9.64755C291.227 8.95882 291.654 8.15691 292.128 7.24872C292.837 5.94069 293.533 4.62526 294.214 3.30266C294.462 2.6788 294.589 2.18606 294.589 1.82858C294.587 1.67078 294.55 1.51542 294.482 1.37311C294.411 1.26269 294.258 1.17988 294.018 1.12467C293.702 1.08878 293.536 0.993546 293.518 0.844482C293.518 0.681615 293.674 0.601562 293.99 0.601562C294.852 0.618117 295.713 0.645723 296.574 0.684376C297.589 0.666433 298.564 0.638829 299.503 0.601562C299.812 0.601562 299.978 0.671954 300 0.816877C299.978 1.00321 299.804 1.09706 299.475 1.09706C299.144 1.09706 298.745 1.20748 298.27 1.42832C297.787 1.65743 297.295 2.12257 296.785 2.81958C296.224 3.61183 295.308 5.08591 294.046 7.2501C293.514 8.16551 292.997 9.08899 292.494 10.0202C292.011 10.8677 291.702 11.4612 291.561 11.8007C291.469 12.0491 291.398 12.281 291.343 12.5046C291.282 12.7517 291.233 12.9877 291.2 13.2085C291.158 13.6847 291.144 14.1581 291.144 14.626V16.9448C291.125 17.5052 291.15 18.4437 291.223 19.7563C291.242 20.1814 291.343 20.521 291.531 20.7777C291.674 21.062 291.948 21.2428 292.349 21.316C292.806 21.3864 293.267 21.4236 293.724 21.4236C294.018 21.4236 294.159 21.4995 294.159 21.6527C294.138 21.8294 293.938 21.9219 293.574 21.9219L289.386 21.8391C288.42 21.857 287.278 21.8846 285.963 21.9219C285.561 21.9219 285.358 21.8294 285.358 21.6527C285.358 21.5023 285.506 21.4264 285.803 21.4264C286.187 21.4264 286.507 21.3891 286.766 21.316C287.037 21.2428 287.245 21.062 287.398 20.7777C287.521 20.521 287.599 20.1814 287.616 19.7591C287.665 18.4479 287.692 17.5107 287.692 16.9517V14.626Z" fill="white"/>
<path fill-rule="evenodd" clip-rule="evenodd" d="M7.28067 45.9647C7.26963 47.806 7.29999 49.1392 7.37038 49.966C7.39523 50.2462 7.45596 50.4725 7.55671 50.6451C7.64367 50.8342 7.81896 50.9529 8.08534 51.0026C8.38899 51.0509 8.69264 51.0716 8.99629 51.0716C9.20332 51.0716 9.30822 51.124 9.30822 51.2262C9.30822 51.3449 9.17434 51.4028 8.90795 51.4028C7.64367 51.3821 6.7203 51.3628 6.1406 51.3504L3.82459 51.4028C3.56925 51.4028 3.44365 51.3449 3.44365 51.2262C3.43122 51.124 3.5168 51.0757 3.70727 51.0757C3.99298 51.0757 4.21105 51.0509 4.36426 51.0026C4.45337 50.9801 4.53534 50.9354 4.60245 50.8727C4.66957 50.8099 4.71963 50.7311 4.74796 50.6437C4.82387 50.4725 4.87218 50.2462 4.8984 49.966C4.95637 49.1392 4.98674 47.806 4.98674 45.9634V42.6605C4.98674 40.2023 4.97431 38.8787 4.95637 38.6813C4.94257 38.3487 4.88736 38.1071 4.78798 37.947C4.68033 37.7703 4.47467 37.6572 4.17378 37.6047C3.93837 37.5665 3.70006 37.5489 3.46159 37.5523C3.25455 37.5523 3.14966 37.5012 3.14966 37.4004C3.14966 37.2804 3.28768 37.2224 3.56925 37.2224C4.44588 37.2303 5.32238 37.2487 6.19857 37.2776C7.94318 37.2776 9.55114 37.2721 11.0266 37.2597C11.3523 37.2459 11.6035 37.2224 11.7747 37.1865C11.8624 37.1326 11.9592 37.0952 12.0604 37.0761C12.1487 37.0885 12.1956 37.1437 12.1956 37.2417C12.1818 37.3383 12.1308 37.6171 12.0424 38.0795C12.0176 38.5654 11.9872 39.0705 11.95 39.5936C11.95 39.7703 11.892 39.8586 11.7719 39.8586C11.6587 39.8586 11.5939 39.7579 11.5814 39.5564V39.2389C11.5699 39.102 11.5339 38.9683 11.4752 38.8442C11.4282 38.7089 11.2999 38.5778 11.0915 38.4494C10.8941 38.3514 10.6181 38.2962 10.2689 38.2838L7.44354 38.2286C7.33588 38.2286 7.28067 38.3142 7.28067 38.4853V43.1877C7.26963 43.3037 7.31241 43.3616 7.40765 43.3616L9.74023 43.3437C10.0508 43.3437 10.3241 43.3368 10.5601 43.3244C10.9065 43.3244 11.1715 43.2112 11.3551 42.9848C11.4255 42.8565 11.5028 42.7916 11.5883 42.7916C11.6574 42.7916 11.6919 42.8509 11.6919 42.9669C11.6819 43.2104 11.6524 43.4527 11.6035 43.6915C11.5939 43.8295 11.5759 43.9758 11.5511 44.129C11.509 44.5829 11.4855 45.0383 11.4807 45.4941C11.4816 45.5708 11.4755 45.6475 11.4627 45.7232C11.4489 45.8088 11.3937 45.8516 11.293 45.8516C11.1991 45.8391 11.1522 45.7508 11.1522 45.5852C11.1522 45.4389 11.1163 45.2484 11.0445 45.0069C10.9934 44.8467 10.8976 44.7045 10.7685 44.5969C10.6902 44.5136 10.5952 44.4477 10.4897 44.4037C10.3667 44.3636 10.2392 44.339 10.1101 44.3305C9.65007 44.2862 9.18789 44.2678 8.72576 44.2753H7.40765C7.32484 44.2753 7.28067 44.3306 7.28067 44.441V45.9647ZM38.8643 50.7362C39.2011 50.7362 39.6041 50.6685 40.0665 50.5347C40.5385 50.3939 41.0078 50.1247 41.4716 49.7272C41.9353 49.3104 42.3177 48.6962 42.6185 47.8819C42.9222 47.0813 43.0795 46.0103 43.092 44.6701C43.0671 42.5418 42.5578 40.8745 41.5599 39.6695C40.5524 38.4701 39.2825 37.8656 37.7533 37.8532C37.2426 37.8532 36.7264 37.9318 36.2046 38.0919C35.6483 38.2832 35.1471 38.6072 34.7444 39.036C34.3055 39.4584 33.9535 40.0519 33.6857 40.8165C33.4069 41.5811 33.2689 42.5542 33.2689 43.7343C33.2689 45.7356 33.7658 47.3864 34.7623 48.6893C35.7354 50.0295 37.1032 50.7113 38.8643 50.7362ZM38.1011 51.6692C35.5118 51.6209 33.6305 50.8066 32.4629 49.2317C31.309 47.7052 30.7376 46.0655 30.7514 44.3126C30.7376 42.597 31.3145 40.9669 32.4767 39.4225C33.636 37.8256 35.567 37.0057 38.2722 36.956C43.0851 37.0609 45.5419 39.4004 45.6426 43.9731C45.6316 46.1676 44.9566 47.9799 43.6164 49.4153C42.2818 50.8797 40.4419 51.6319 38.1011 51.6692ZM65.4709 42.6619C65.4709 40.2037 65.4585 38.8759 65.4378 38.6799C65.4281 38.3487 65.3702 38.1044 65.2694 37.9456C65.1617 37.7676 64.9589 37.6558 64.6552 37.6061C64.4206 37.5651 64.1825 37.5467 63.9444 37.5509C63.7346 37.5633 63.6311 37.5095 63.6311 37.3825C63.6311 37.2762 63.7663 37.2238 64.0327 37.2238C65.1245 37.2362 66.012 37.2541 66.6924 37.2762C67.3397 37.2666 68.0878 37.2486 68.9353 37.2238C69.2017 37.2238 69.3355 37.2762 69.3355 37.3825C69.3355 37.5081 69.2389 37.5633 69.0416 37.5509C68.8704 37.5509 68.6965 37.5688 68.5171 37.6061C68.2838 37.6434 68.1182 37.7441 68.0174 37.9097C67.9098 38.0809 67.8518 38.3376 67.8394 38.6799C67.827 38.9311 67.8214 39.3134 67.8214 39.8255C67.8076 40.3403 67.8021 41.2858 67.8021 42.6619V45.2953C67.8021 46.6231 67.9374 47.6293 68.2051 48.3153C68.4467 49.0302 68.7904 49.563 69.2293 49.9122C69.4473 50.0778 69.6585 50.2089 69.8614 50.3055C70.0684 50.4229 70.2658 50.5043 70.4494 50.554C70.6468 50.6023 70.8331 50.634 71.0111 50.6451C71.1961 50.6699 71.3617 50.6823 71.5108 50.6823C71.9193 50.6823 72.3486 50.6023 72.8027 50.4436C73.254 50.2917 73.6584 50.0336 74.02 49.6734C74.521 49.1475 74.8344 48.4767 74.9558 47.6638C75.0524 46.8633 75.0938 45.9785 75.0814 45.011V42.6619C75.0814 40.2037 75.0704 38.8759 75.0455 38.6799C75.0359 38.3487 74.9765 38.1044 74.8758 37.9456C74.7695 37.7676 74.5666 37.6558 74.2629 37.6061C74.0452 37.5675 73.8243 37.5491 73.6032 37.5509C73.3948 37.5633 73.2899 37.5095 73.2899 37.3825C73.2899 37.2762 73.4196 37.2238 73.6736 37.2238C74.3746 37.2235 75.0755 37.241 75.7757 37.2762C75.904 37.2762 76.1953 37.2666 76.6452 37.2417C77.0731 37.2293 77.4733 37.2238 77.8488 37.2238C78.1041 37.2238 78.2297 37.2762 78.2297 37.3825C78.2297 37.5081 78.1221 37.5633 77.9012 37.5509C77.7356 37.5509 77.5575 37.5688 77.374 37.6061C77.1435 37.6434 76.9778 37.7441 76.8826 37.9097C76.7694 38.0809 76.7073 38.3376 76.6949 38.6799C76.6839 38.9311 76.677 39.3134 76.677 39.8241C76.6646 40.7691 76.6595 41.7141 76.6618 42.6591V44.6659C76.6742 45.7177 76.5817 46.7432 76.3857 47.7466C76.1764 48.7303 75.67 49.6259 74.9351 50.3124C74.2864 50.8631 73.6432 51.2275 73.0028 51.4042C72.3679 51.5822 71.7468 51.6706 71.1436 51.6706C70.6426 51.683 70.0174 51.6181 69.2624 51.4774C68.5115 51.331 67.7856 50.9639 67.0913 50.3801C66.6275 49.9632 66.2438 49.3615 65.9443 48.5747C65.6269 47.8018 65.4709 46.7432 65.4709 45.4057V42.6619ZM99.6149 48.866C99.6384 49.5754 99.7032 50.0875 99.8109 50.4049C99.9186 50.7044 100.062 50.8852 100.246 50.946C100.574 51.044 100.89 51.0867 101.201 51.0743C101.405 51.0743 101.51 51.124 101.51 51.2248C101.492 51.3435 101.35 51.4014 101.083 51.4014C99.9213 51.3807 99.1663 51.3628 98.8227 51.3504C98.1677 51.3736 97.5125 51.3906 96.8572 51.4014C96.5895 51.4152 96.4542 51.3559 96.4542 51.2248C96.4542 51.124 96.5522 51.0743 96.7496 51.0743C97.0187 51.0743 97.292 51.044 97.5708 50.9832C97.8054 50.9225 97.9614 50.7141 98.0442 50.3594C98.1201 50.0102 98.1546 49.4415 98.1408 48.652L98.3009 37.5343C98.2885 37.1244 98.3699 36.9132 98.5439 36.8994C98.6474 36.8994 98.7523 36.9519 98.853 37.0568C98.9607 37.1672 99.078 37.3107 99.2091 37.4874C99.8785 38.252 101.763 40.2589 104.857 43.5107C105.55 44.2229 106.341 45.0552 107.231 46.0034C108.102 46.9668 108.648 47.563 108.869 47.7894H108.958L108.778 39.3479C108.778 38.7848 108.734 38.3818 108.646 38.1264C108.603 38.018 108.537 37.9201 108.452 37.8394C108.368 37.7586 108.267 37.697 108.157 37.6585C107.84 37.5754 107.513 37.5396 107.185 37.5523C106.983 37.5523 106.887 37.4943 106.9 37.3811C106.9 37.3107 106.949 37.2638 107.043 37.2403C107.14 37.2265 107.246 37.221 107.372 37.221C108.393 37.2348 109.126 37.2528 109.577 37.2762C109.685 37.2762 109.896 37.2638 110.21 37.2403C110.531 37.2265 110.912 37.221 111.356 37.221C111.624 37.21 111.765 37.2624 111.777 37.3811C111.777 37.4943 111.67 37.5523 111.454 37.5523C111.293 37.5523 111.109 37.5702 110.9 37.6033C110.782 37.6256 110.673 37.6792 110.583 37.7584C110.494 37.8376 110.427 37.9394 110.39 38.0533C110.29 38.2921 110.232 38.6744 110.222 39.2003L110.026 51.0564C110.026 51.4387 109.943 51.6319 109.783 51.6319C109.688 51.6319 109.593 51.5795 109.501 51.476C109.385 51.3997 109.274 51.3148 109.17 51.222C107.371 49.3915 105.58 47.5521 103.798 45.7039C101.528 43.2816 100.084 41.7054 99.4603 40.9711H99.4051L99.6149 48.866ZM134.795 44.7294C134.795 46.8094 134.806 48.0723 134.831 48.5251C134.841 48.7638 134.866 49.0275 134.902 49.3145C134.916 49.614 134.954 49.8252 135.026 49.9481C135.15 50.1247 135.405 50.2904 135.792 50.4436C136.172 50.6147 136.715 50.7003 137.421 50.7003C139.209 50.7251 140.609 50.2752 141.616 49.3518C142.185 48.8135 142.587 48.1372 142.82 47.3229C143.046 46.4584 143.156 45.5677 143.147 44.6742C143.136 43.4693 142.946 42.4811 142.577 41.704C142.425 41.3437 142.237 40.9996 142.015 40.6771C141.81 40.4011 141.601 40.1692 141.394 39.9787C140.544 39.1782 139.651 38.6578 138.713 38.4218C137.774 38.1955 136.946 38.0892 136.218 38.1016C136.025 38.1016 135.804 38.1071 135.561 38.1195C135.379 38.1386 135.198 38.1785 135.025 38.2382C134.873 38.3004 134.801 38.426 134.813 38.615C134.801 39.4377 134.795 40.6881 134.795 42.3651V44.7294ZM132.518 42.6619C132.518 40.2023 132.507 38.8745 132.488 38.6785C132.475 38.3487 132.419 38.1044 132.319 37.9456C132.212 37.7676 132.006 37.6544 131.702 37.6061C131.468 37.565 131.23 37.5465 130.992 37.5509C130.783 37.5633 130.681 37.504 130.681 37.3825C130.681 37.2748 130.813 37.2196 131.081 37.2196C132.185 37.2334 133.059 37.2514 133.706 37.2748L136.51 37.2196C137.773 37.2001 139.035 37.2892 140.283 37.486C141.617 37.7069 142.798 38.3307 143.826 39.3548C144.296 39.8324 144.71 40.4659 145.064 41.2513C145.402 42.0408 145.578 42.9986 145.589 44.1304C145.578 45.3008 145.382 46.3319 144.995 47.2166C144.602 48.0972 144.14 48.8094 143.605 49.3601C143.408 49.574 143.136 49.8073 142.786 50.0571C142.382 50.3404 141.953 50.5853 141.503 50.7886C140.525 51.2855 139.19 51.5477 137.501 51.5781C136.799 51.5646 136.098 51.5246 135.399 51.458C134.807 51.3944 134.213 51.3589 133.618 51.3518C133.007 51.3642 132.239 51.3794 131.323 51.4042C131.077 51.4042 130.957 51.3421 130.957 51.2262C130.945 51.1254 131.037 51.0743 131.24 51.0743C131.524 51.0743 131.742 51.0495 131.896 50.9998C131.984 50.9769 132.066 50.9321 132.133 50.8693C132.2 50.8066 132.251 50.7281 132.279 50.6409C132.357 50.4712 132.405 50.2448 132.431 49.9632C132.488 49.1034 132.519 47.7673 132.519 45.9647L132.518 42.6619ZM170.945 45.5783C171.028 45.5783 171.058 45.541 171.033 45.4679L169.387 40.8303C169.377 40.7351 169.347 40.6799 169.297 40.6688C169.251 40.6799 169.214 40.7351 169.193 40.8303L167.518 45.4485C167.487 45.5341 167.512 45.5783 167.592 45.5783H170.945ZM167.227 46.5099C167.138 46.5099 167.08 46.5596 167.055 46.6576L166.075 49.349C165.893 49.8501 165.799 50.2324 165.799 50.496C165.799 50.6547 165.855 50.7859 165.964 50.8908C166.074 51.0136 166.263 51.0743 166.53 51.0743H166.806C166.997 51.0743 167.086 51.1268 167.073 51.2262C167.073 51.3435 166.973 51.4056 166.772 51.4056C166.126 51.3814 165.479 51.363 164.832 51.3504C164.494 51.3614 163.779 51.3807 162.687 51.4056C162.457 51.4056 162.341 51.3435 162.341 51.2262C162.341 51.1226 162.414 51.0743 162.564 51.0743C162.755 51.0743 162.941 51.0619 163.123 51.0371C163.54 50.9763 163.862 50.7955 164.095 50.496C164.229 50.338 164.336 50.1595 164.414 49.9674C164.503 49.7838 164.589 49.5782 164.672 49.3518L169.246 37.5702C169.442 37.0595 169.61 36.8083 169.751 36.8208C169.903 36.8208 170.055 37.0195 170.215 37.4142C171.708 41.2661 173.213 45.1137 174.728 48.9571C175.083 49.7714 175.393 50.3097 175.66 50.5692C175.926 50.8204 176.154 50.9639 176.337 51.0012C176.616 51.0495 176.872 51.0743 177.101 51.0743C177.258 51.0743 177.335 51.1268 177.335 51.2262C177.335 51.2979 177.286 51.3366 177.19 51.3504C177.068 51.3863 176.834 51.4056 176.498 51.4056C175.755 51.4056 174.607 51.3918 173.052 51.3683C172.702 51.3683 172.521 51.3214 172.509 51.2248C172.509 51.1268 172.591 51.0674 172.761 51.0564C172.932 51.0067 172.988 50.8632 172.93 50.6244L171.469 46.6397C171.457 46.6004 171.431 46.5664 171.397 46.543C171.364 46.5195 171.323 46.5079 171.282 46.5099H167.227ZM196.9 38.2658L194.18 38.339C193.788 38.3392 193.398 38.3762 193.013 38.4494C192.767 38.518 192.552 38.6703 192.406 38.88C192.24 39.1671 192.14 39.3852 192.102 39.5384C192.079 39.6847 192.011 39.7592 191.897 39.7592C191.778 39.7592 191.726 39.6599 191.738 39.468C191.738 39.3755 191.763 39.2251 191.808 39.0181C191.846 38.8069 191.882 38.5736 191.919 38.3266C192.035 37.7786 192.102 37.4391 192.127 37.3135C192.177 37.0761 192.247 36.956 192.343 36.956C192.418 36.956 192.516 36.9891 192.636 37.0568C192.789 37.1309 192.954 37.1745 193.124 37.1851C193.701 37.2472 194.308 37.2776 194.95 37.2776H202.168C203.259 37.2403 203.845 37.1796 203.921 37.094C204.018 37.094 204.066 37.2252 204.066 37.4846C204.054 38.1554 204.036 38.8773 204.011 39.6516C203.998 39.8531 203.943 39.9539 203.843 39.9539C203.71 39.9663 203.642 39.8407 203.642 39.5771L203.629 39.3659C203.629 39.1036 203.468 38.869 203.155 38.6592C202.834 38.4577 202.275 38.3445 201.474 38.3197L199.176 38.2645V45.9647C199.165 47.7687 199.195 49.1116 199.266 49.9922C199.296 50.2545 199.358 50.4725 199.452 50.6437C199.535 50.8342 199.714 50.9529 199.981 51.0026C200.28 51.0481 200.593 51.0716 200.916 51.0716C201.112 51.0716 201.21 51.124 201.21 51.2248C201.193 51.3449 201.075 51.4028 200.861 51.4028C199.557 51.3807 198.603 51.3628 197.996 51.3504L195.701 51.4028C195.456 51.4028 195.336 51.3449 195.336 51.2248C195.324 51.124 195.422 51.0757 195.627 51.0757C195.85 51.0827 196.072 51.0581 196.287 51.0026C196.377 50.9769 196.459 50.9313 196.528 50.8691C196.597 50.8069 196.651 50.7298 196.686 50.6437C196.759 50.4725 196.799 50.2462 196.81 49.9646C196.87 49.1061 196.9 47.7714 196.9 45.9703V38.2658ZM254.439 50.7362C254.773 50.7362 255.179 50.6685 255.641 50.5347C256.114 50.3939 256.584 50.1247 257.046 49.7272C257.51 49.3104 257.893 48.6962 258.194 47.8819C258.498 47.0813 258.654 46.0103 258.666 44.6701C258.642 42.5418 258.132 40.8745 257.134 39.6695C256.127 38.4701 254.857 37.8656 253.329 37.8532C252.817 37.8532 252.301 37.9318 251.779 38.0919C251.223 38.2832 250.722 38.6072 250.319 39.036C249.881 39.4584 249.525 40.0519 249.262 40.8165C248.981 41.5811 248.843 42.5542 248.843 43.7343C248.843 45.7356 249.34 47.3864 250.338 48.6893C251.307 50.0295 252.678 50.7113 254.439 50.7362ZM253.676 51.6692C251.086 51.6209 249.206 50.8066 248.037 49.2317C246.883 47.7052 246.316 46.0655 246.326 44.3126C246.316 42.597 246.89 40.9669 248.052 39.4225C249.212 37.8256 251.141 37.0057 253.847 36.956C258.66 37.0609 261.118 39.4004 261.217 43.9731C261.206 46.1676 260.527 47.9799 259.191 49.4153C257.852 50.8797 256.016 51.6319 253.676 51.6692ZM282.921 48.866C282.949 49.5754 283.011 50.0875 283.118 50.4049C283.229 50.7044 283.37 50.8852 283.553 50.946C283.882 51.044 284.198 51.0867 284.511 51.0743C284.713 51.0743 284.818 51.124 284.818 51.2248C284.8 51.3435 284.657 51.4014 284.391 51.4014C283.232 51.3807 282.474 51.3628 282.13 51.3504C281.864 51.3628 281.207 51.3807 280.168 51.4014C279.9 51.4152 279.766 51.3559 279.766 51.2248C279.766 51.124 279.86 51.0743 280.056 51.0743C280.326 51.0743 280.6 51.044 280.878 50.9832C281.113 50.9225 281.269 50.7141 281.352 50.3594C281.43 50.0102 281.462 49.4415 281.453 48.652L281.609 37.5343C281.596 37.1244 281.679 36.9132 281.851 36.8994C281.959 36.8994 282.063 36.9519 282.161 37.0568C282.268 37.1672 282.386 37.3107 282.517 37.4874C283.186 38.252 285.07 40.2589 288.165 43.5107C288.86 44.2229 289.648 45.0552 290.539 46.0034C291.412 46.9668 291.956 47.563 292.18 47.7894H292.265L292.087 39.3479C292.087 38.7848 292.046 38.3818 291.952 38.1264C291.909 38.0178 291.843 37.9197 291.758 37.8389C291.673 37.7582 291.572 37.6966 291.462 37.6585C291.147 37.5751 290.821 37.5393 290.496 37.5523C290.289 37.5523 290.195 37.4943 290.206 37.3811C290.206 37.3107 290.26 37.2638 290.351 37.2403C290.447 37.2265 290.558 37.221 290.679 37.221C291.701 37.2348 292.438 37.2528 292.885 37.2762C292.993 37.2762 293.207 37.2638 293.517 37.2403C293.843 37.2265 294.222 37.221 294.664 37.221C294.93 37.21 295.073 37.2624 295.085 37.3811C295.085 37.4943 294.98 37.5523 294.762 37.5523C294.603 37.5523 294.417 37.5702 294.21 37.6033C294.092 37.6251 293.983 37.6784 293.893 37.7577C293.803 37.837 293.737 37.9391 293.701 38.0533C293.597 38.2921 293.538 38.6744 293.529 39.2003L293.336 51.0564C293.336 51.4387 293.251 51.6319 293.091 51.6319C292.995 51.6319 292.9 51.5795 292.812 51.476C292.694 51.3997 292.583 51.3148 292.478 51.222C290.678 49.3915 288.887 47.5521 287.106 45.7039C284.835 43.2816 283.39 41.7054 282.768 40.9711H282.717L282.921 48.866ZM223.812 42.626C223.812 40.1761 223.802 38.8552 223.781 38.6592C223.756 38.0326 223.551 37.6834 223.159 37.6102C222.943 37.5605 222.723 37.536 222.502 37.5371C222.311 37.5495 222.216 37.4874 222.216 37.3508C222.216 37.2541 222.364 37.2058 222.652 37.2058C223.44 37.2154 224.227 37.2347 225.014 37.2638C225.631 37.2528 226.371 37.2334 227.236 37.2058C227.477 37.2058 227.606 37.2555 227.616 37.3508C227.616 37.4888 227.518 37.5495 227.322 37.5371C227.139 37.5393 226.957 37.5578 226.778 37.5923C226.544 37.6282 226.379 37.7303 226.278 37.8918C226.17 38.063 226.112 38.3197 226.1 38.662C226.088 38.9132 226.082 39.2927 226.082 39.8076C226.068 40.3196 226.063 41.2623 226.063 42.6356V45.9302C226.049 47.8018 226.077 49.1724 226.137 50.0378C226.17 50.289 226.238 50.4877 226.333 50.634C226.422 50.8121 226.6 50.9184 226.867 50.9556C227.171 51.0012 227.477 51.0246 227.792 51.0246C227.99 51.0246 228.088 51.0785 228.088 51.1765C228.075 51.2952 227.959 51.3559 227.741 51.3559C226.441 51.3324 225.502 51.3145 224.906 51.3007L222.618 51.3559C222.376 51.3559 222.253 51.2952 222.253 51.1792C222.241 51.0785 222.336 51.0288 222.535 51.0288C222.821 51.0288 223.039 51.0012 223.192 50.9556C223.523 50.8825 223.698 50.5692 223.723 50.0226C223.781 49.1696 223.812 47.8087 223.812 45.9371V42.626Z" fill="white"/>
</g>
<defs>
<clipPath id="clip0_4244_31849">
<rect width="300" height="83" fill="white"/>
</clipPath>
</defs>
</svg>
