<svg width="300" height="114" viewBox="0 0 300 114" fill="none" xmlns="http://www.w3.org/2000/svg">
<g clip-path="url(#clip0_4157_32165)">
<path fill-rule="evenodd" clip-rule="evenodd" d="M2.85083 100.535H95.2941V92.832H2.85221L2.85083 100.535Z" fill="white"/>
<path fill-rule="evenodd" clip-rule="evenodd" d="M102.999 100.535H195.442V92.832H102.999V100.535Z" fill="white"/>
<path fill-rule="evenodd" clip-rule="evenodd" d="M202.183 100.535H294.625V92.832H202.181L202.183 100.535Z" fill="white"/>
<path fill-rule="evenodd" clip-rule="evenodd" d="M1.58516 21.3618C1.26771 20.3031 0.926793 19.6337 0.558273 19.3494C0.16767 19.1838 -0.20085 19.101 -0.552807 19.101C-0.831613 19.1203 -0.980677 19.0333 -1 18.8484C-0.980677 18.6855 -0.779164 18.6055 -0.391321 18.6055C1.26909 18.6248 2.34152 18.651 2.83012 18.6883C2.97505 18.6883 3.327 18.6703 3.88737 18.6331C4.41876 18.6151 5.09093 18.6055 5.90388 18.6055C6.29172 18.6055 6.48357 18.6855 6.48357 18.847C6.46977 19.0333 6.30139 19.1203 5.98531 19.101C5.7493 19.101 5.52018 19.1382 5.29382 19.2114C5.07023 19.3218 4.96395 19.5261 4.98327 19.8325C4.98327 19.9056 5.01364 20.0188 5.07989 20.1748C5.09369 20.3432 5.13234 20.5392 5.18478 20.7683C5.29382 21.2182 5.43322 21.7717 5.60713 22.4232C6.77066 26.5707 7.95351 30.5748 9.15431 34.438H9.23436L14.6076 19.7317C14.7787 19.337 14.9085 19.0609 14.9982 18.905C15.1086 18.7766 15.2066 18.7117 15.2963 18.7117C15.4523 18.7117 15.5917 18.8166 15.7159 19.0306C15.8236 19.2514 15.9547 19.584 16.1093 20.034L21.8745 34.2296H21.9573C23.1558 30.0057 24.3828 25.7899 25.6383 21.5826C25.7474 21.2431 25.8316 20.9311 25.8964 20.6454C25.9144 20.368 25.924 20.1348 25.924 19.9415C25.9252 19.8259 25.9029 19.7113 25.8586 19.6046C25.8142 19.4978 25.7487 19.4012 25.6659 19.3204C25.4865 19.1741 25.1235 19.101 24.5838 19.101C24.2664 19.101 24.109 19.0154 24.109 18.847C24.109 18.6855 24.3257 18.6055 24.7577 18.6055C26.3312 18.6248 27.2891 18.651 27.6424 18.6883C27.786 18.6883 28.0896 18.6703 28.5492 18.6331C28.9923 18.6151 29.4546 18.6055 29.9432 18.6055C30.2497 18.6055 30.4111 18.6759 30.4291 18.8194C30.4291 19.0071 30.3049 19.101 30.0509 19.101C29.7334 19.101 29.4119 19.1465 29.0765 19.239C28.759 19.3494 28.5023 19.6696 28.3035 20.2024C28.0229 20.8699 27.761 21.5451 27.5182 22.2272C25.6087 27.7969 23.7637 33.3886 21.9835 39.001C21.8455 39.4703 21.7254 39.803 21.6177 40.0045C21.5115 40.2184 21.3624 40.3219 21.1705 40.3219C21.0463 40.3219 20.929 40.2184 20.82 40.0045C20.6819 39.7878 20.5191 39.4303 20.3203 38.9306L14.551 24.7972H14.4999C13.0369 28.9019 11.2357 33.5754 9.09772 38.8202C8.93232 39.2151 8.74666 39.6011 8.54149 39.9769C8.40899 40.2074 8.25992 40.3219 8.09568 40.3219C7.85276 40.3219 7.64158 39.981 7.45939 39.2923L1.58516 21.3618Z" fill="white"/>
<path fill-rule="evenodd" clip-rule="evenodd" d="M44.4728 31.1847C44.6012 31.1847 44.6468 31.1295 44.6109 31.0191L42.1044 24.0531C42.0864 23.9068 42.0423 23.824 41.9677 23.8047C41.8973 23.824 41.8408 23.9068 41.8062 24.0531L39.2625 30.9929C39.2156 31.1212 39.2528 31.1861 39.3715 31.1861H44.4715L44.4728 31.1847ZM38.8167 32.5857C38.6842 32.5857 38.5958 32.6588 38.56 32.8092L37.0735 36.8533C36.7947 37.6083 36.6539 38.1838 36.6539 38.5786C36.6539 38.816 36.7353 39.0147 36.8968 39.1721C37.0666 39.3543 37.3592 39.4495 37.7622 39.4495H38.1804C38.473 39.4495 38.6055 39.5227 38.5876 39.6759C38.5876 39.8539 38.4357 39.9422 38.128 39.9422C37.1259 39.905 36.1418 39.8815 35.1812 39.8622C34.665 39.8815 33.5801 39.905 31.9197 39.9422C31.5664 39.9422 31.3925 39.8539 31.3925 39.6759C31.3925 39.524 31.5029 39.4467 31.7306 39.4467C32.0191 39.4467 32.3006 39.4288 32.5808 39.3915C33.213 39.2991 33.703 39.0299 34.0577 38.5813C34.2523 38.3508 34.4165 38.0817 34.5449 37.7822C34.6774 37.5061 34.8071 37.1984 34.9355 36.8588L41.8891 19.1478C42.1872 18.3776 42.4439 18.0022 42.662 18.0201C42.8842 18.0201 43.1202 18.3169 43.3631 18.9132C45.6335 24.7036 47.9201 30.4877 50.2229 36.2653C50.7667 37.4854 51.2373 38.297 51.6445 38.6904C52.0503 39.0672 52.3926 39.2811 52.6714 39.3363C53.0965 39.4095 53.4843 39.4495 53.8349 39.4495C54.0695 39.4495 54.1882 39.5227 54.1882 39.6759C54.1882 39.7835 54.1137 39.8442 53.9715 39.8622C53.7824 39.9174 53.4277 39.945 52.9157 39.945C51.7866 39.945 50.0434 39.9243 47.6791 39.8898C47.1477 39.8898 46.8717 39.8166 46.8537 39.6759C46.8537 39.524 46.9807 39.4371 47.2319 39.4191C47.4955 39.346 47.5797 39.1321 47.49 38.7704L45.2706 32.7803C45.2182 32.6505 45.1215 32.5857 44.989 32.5857H38.8167Z" fill="white"/>
<path fill-rule="evenodd" clip-rule="evenodd" d="M63.0921 31.7437C63.0741 33.5518 63.1017 34.943 63.1721 35.9161C63.2411 36.9347 63.4109 37.5668 63.6676 37.8153C63.8816 38.0016 64.2294 38.1479 64.7097 38.257C65.1831 38.3784 65.9381 38.4364 66.9802 38.4364C67.7117 38.4364 68.3493 38.3867 68.8945 38.2832C69.419 38.2128 69.8469 37.9961 70.1754 37.6372C70.5605 37.1514 70.7965 36.5855 70.8834 35.9437C70.8834 35.687 70.9883 35.549 71.1926 35.5296C71.3334 35.5296 71.4065 35.687 71.4065 35.9989C71.4065 36.2087 71.3707 36.6835 71.2961 37.4178C71.2078 38.1521 71.1139 38.7607 71.0035 39.2466C70.9511 39.5502 70.8324 39.749 70.6447 39.8401C70.4224 39.9505 69.967 40.0057 69.2824 40.0057C66.632 39.9681 63.9819 39.9138 61.3323 39.8428C60.4144 39.858 59.2688 39.8856 57.89 39.9229C57.5256 39.9229 57.3421 39.8373 57.3421 39.6537C57.3241 39.5033 57.4677 39.4274 57.7672 39.4274C58.1923 39.4274 58.5194 39.3901 58.7513 39.317C58.8844 39.2829 59.0068 39.2156 59.1069 39.1215C59.2071 39.0274 59.2818 38.9094 59.3241 38.7787C59.4531 38.4534 59.529 38.1095 59.549 37.7601C59.6387 36.4627 59.6815 34.46 59.6815 31.7464V26.779C59.6815 23.0841 59.6664 21.0897 59.6346 20.7957C59.6208 20.2989 59.5339 19.9303 59.382 19.6916C59.2219 19.4252 58.9169 19.254 58.4614 19.1809C58.1636 19.12 57.8599 19.0922 57.556 19.0981C57.2454 19.1174 57.0895 19.0318 57.0895 18.8441C57.0895 18.6854 57.291 18.6026 57.6885 18.6026C59.2164 18.6219 60.4669 18.6495 61.433 18.6854C62.4724 18.6674 63.7104 18.6398 65.1376 18.6026C65.5226 18.6026 65.7117 18.6854 65.7117 18.8441C65.7117 19.0318 65.5503 19.1174 65.2287 19.0981C64.8836 19.0981 64.5247 19.1257 64.1617 19.1809C63.8139 19.2361 63.5627 19.3879 63.4137 19.6363C63.2508 19.8944 63.1625 20.2795 63.1445 20.7957C63.1293 21.1725 63.1197 21.7481 63.1197 22.5183C63.1017 23.2912 63.0921 24.7114 63.0921 26.779V31.7437ZM82.0067 20.1746L77.9309 20.2851C77.1676 20.303 76.5838 20.3582 76.1835 20.4507C75.7832 20.5777 75.4768 20.7957 75.2753 21.0952C75.0241 21.53 74.875 21.8599 74.8198 22.089C74.7826 22.3098 74.6818 22.4203 74.5107 22.4203C74.334 22.4203 74.2539 22.2726 74.2719 21.9786C74.2719 21.8406 74.3092 21.6183 74.3795 21.3064C74.4348 20.989 74.49 20.6398 74.5452 20.2657C74.7163 19.4431 74.8198 18.9352 74.8557 18.7433C74.9303 18.3845 75.0338 18.2051 75.1773 18.2051C75.2933 18.2051 75.4396 18.2561 75.6176 18.3569C75.7763 18.4494 76.0206 18.5128 76.3505 18.5501C77.2131 18.6412 78.1241 18.6881 79.0833 18.6881H89.8988C91.5316 18.6329 92.408 18.5404 92.524 18.4121C92.6648 18.4121 92.7379 18.6081 92.7379 19.0028C92.72 20.0104 92.6924 21.0952 92.6592 22.2574C92.6399 22.561 92.5543 22.7101 92.4025 22.7101C92.2065 22.7308 92.1058 22.5417 92.1058 22.147L92.0809 21.8295C92.0809 21.4348 91.8463 21.0801 91.3756 20.7667C90.8953 20.4645 90.0547 20.2933 88.8567 20.2561L85.4172 20.1733V31.7451C85.3993 34.4586 85.442 36.4778 85.5483 37.8015C85.5952 38.1962 85.6863 38.5233 85.8299 38.7814C85.9555 39.0658 86.2177 39.2452 86.6194 39.3197C87.0825 39.3911 87.5504 39.4266 88.0189 39.426C88.3115 39.426 88.4592 39.5033 88.4592 39.6551C88.4344 39.8332 88.2605 39.9243 87.9389 39.9243C85.9831 39.8884 84.5518 39.8608 83.6464 39.8414C82.7396 39.8608 81.594 39.8884 80.2096 39.9243C79.8425 39.9243 79.6617 39.8332 79.6617 39.6551C79.6437 39.5061 79.79 39.4288 80.102 39.4288C80.5174 39.4288 80.8473 39.3929 81.0861 39.3183C81.2202 39.2799 81.3438 39.2114 81.4475 39.1182C81.5513 39.0249 81.6325 38.9093 81.6851 38.7801C81.7927 38.5233 81.8535 38.1838 81.8714 37.7628C81.9597 36.4682 82.0067 34.4682 82.0067 31.7589V20.1746ZM110.621 38.9181C111.129 38.9181 111.728 38.8173 112.423 38.6144C113.131 38.4046 113.835 37.9975 114.528 37.4012C115.219 36.7746 115.793 35.854 116.246 34.6297C116.699 33.4248 116.933 31.8154 116.953 29.8003C116.918 26.601 116.155 24.0958 114.66 22.2878C113.15 20.4838 111.248 19.5715 108.956 19.5535C108.191 19.5535 107.418 19.6722 106.637 19.9124C105.838 20.1774 105.107 20.6508 104.45 21.334C103.794 21.9662 103.263 22.8605 102.863 24.0075C102.449 25.1572 102.237 26.6189 102.237 28.3939C102.237 31.4 102.982 33.8844 104.478 35.8416C105.936 37.8567 107.984 38.8808 110.621 38.9181ZM109.476 40.3231C105.599 40.2486 102.785 39.0285 101.029 36.6587C99.305 34.3633 98.4493 31.8983 98.4714 29.2606C98.4493 26.6838 99.3147 24.2339 101.057 21.9082C102.79 19.5135 105.682 18.2782 109.735 18.2078C116.946 18.3596 120.625 21.8792 120.777 28.7541C120.758 32.0528 119.746 34.7774 117.738 36.9333C115.739 39.1389 112.984 40.2679 109.476 40.3231ZM131.874 36.1107C131.907 37.1749 132.008 37.9464 132.168 38.4226C132.327 38.8753 132.546 39.1444 132.821 39.2369C133.311 39.3832 133.784 39.4481 134.247 39.4301C134.557 39.4301 134.713 39.5061 134.713 39.6551C134.69 39.8332 134.476 39.9243 134.076 39.9243C132.946 39.9029 131.817 39.8753 130.689 39.8414C130.288 39.8608 129.307 39.8884 127.742 39.9243C127.344 39.9436 127.143 39.8552 127.143 39.6551C127.143 39.5061 127.289 39.4288 127.583 39.4288C127.986 39.4288 128.392 39.3832 128.811 39.2907C129.159 39.1996 129.395 38.8877 129.521 38.3522C129.637 37.8291 129.687 36.972 129.667 35.7891L129.909 19.0732C129.891 18.459 130.009 18.1402 130.269 18.125C130.428 18.125 130.584 18.2009 130.734 18.3569C130.896 18.5225 131.074 18.7392 131.268 19.0056C132.272 20.1525 135.09 23.1725 139.726 28.0571C140.766 29.1309 141.953 30.3814 143.284 31.8044C144.09 32.7116 144.908 33.6079 145.737 34.4931H145.868L145.602 21.8047C145.602 20.9572 145.534 20.3458 145.4 19.969C145.242 19.6115 144.997 19.3755 144.669 19.2651C144.195 19.1382 143.705 19.0824 143.214 19.0994C142.912 19.0994 142.772 19.0152 142.79 18.8469C142.79 18.7392 142.859 18.6674 143 18.6329C143.144 18.615 143.309 18.6053 143.497 18.6053C145.025 18.6233 146.125 18.6509 146.8 18.6881C146.959 18.6881 147.275 18.6688 147.745 18.6329C148.224 18.615 148.8 18.6053 149.465 18.6053C149.863 18.5874 150.074 18.666 150.089 18.8469C150.089 19.0152 149.93 19.1008 149.61 19.1008C149.369 19.1008 149.09 19.1284 148.778 19.1836C148.602 19.2179 148.439 19.2987 148.305 19.4177C148.171 19.5367 148.072 19.6894 148.017 19.8599C147.864 20.2174 147.778 20.7916 147.761 21.5811L147.467 39.4012C147.467 39.9809 147.348 40.2679 147.108 40.2679C146.966 40.2679 146.822 40.1906 146.68 40.0347C146.506 39.9191 146.341 39.7894 146.188 39.6468C143.491 36.8979 140.809 34.1337 138.143 31.3544C134.741 27.7176 132.577 25.3463 131.642 24.2463H131.559L131.874 36.1107Z" fill="white"/>
<path fill-rule="evenodd" clip-rule="evenodd" d="M175.389 31.7503C175.371 34.5176 175.412 36.5217 175.522 37.7639C175.558 38.1863 175.649 38.5285 175.801 38.7853C175.923 39.0696 176.184 39.2504 176.585 39.3236C177.034 39.3939 177.487 39.4312 177.939 39.4312C178.248 39.4312 178.404 39.5071 178.404 39.6603C178.404 39.837 178.207 39.9267 177.808 39.9267C176.435 39.9023 175.061 39.8756 173.688 39.8467C172.707 39.8646 171.563 39.8922 170.243 39.9267C169.864 39.9267 169.676 39.837 169.676 39.6603C169.658 39.5071 169.788 39.434 170.071 39.434C170.493 39.434 170.817 39.3967 171.048 39.3236C171.18 39.2891 171.302 39.2216 171.401 39.1275C171.501 39.0334 171.575 38.9157 171.616 38.7853C171.728 38.5285 171.804 38.189 171.841 37.7639C171.93 36.5217 171.971 34.5176 171.971 31.7503V26.7856C171.971 23.0907 171.957 21.0936 171.926 20.7996C171.912 20.3041 171.826 19.9369 171.674 19.6954C171.516 19.429 171.212 19.2606 170.759 19.1875C170.41 19.1248 170.055 19.0961 169.699 19.1019C169.393 19.1019 169.238 19.0287 169.238 18.8755C169.238 18.6989 169.445 18.6092 169.861 18.6092C171.473 18.6285 172.78 18.6561 173.779 18.692C176.373 18.692 178.766 18.6837 180.961 18.6644C181.446 18.6464 181.816 18.6092 182.076 18.5539C182.206 18.4732 182.35 18.417 182.501 18.3883C182.635 18.4076 182.698 18.4905 182.698 18.6368C182.683 18.7803 182.607 19.2026 182.47 19.8969C182.437 20.6284 182.392 21.3875 182.337 22.1757C182.337 22.442 182.248 22.5732 182.07 22.5732C181.902 22.5732 181.808 22.4213 181.79 22.1204V21.6374C181.772 21.4315 181.717 21.2306 181.629 21.0439C181.56 20.8424 181.368 20.6464 181.059 20.4545C180.763 20.3068 180.357 20.224 179.834 20.2061L175.629 20.1233C175.467 20.1233 175.389 20.2516 175.389 20.5097V27.5737C175.371 27.7476 175.43 27.8359 175.574 27.8359L179.048 27.8083C179.51 27.8083 179.917 27.8001 180.269 27.7807C180.782 27.7807 181.177 27.6096 181.45 27.2701C181.557 27.0768 181.671 26.9802 181.796 26.9802C181.902 26.9802 181.954 27.0685 181.954 27.2425C181.954 27.317 181.936 27.513 181.902 27.8332C181.884 27.9615 181.856 28.1272 181.82 28.3301C181.807 28.5399 181.779 28.7607 181.742 28.9898C181.673 29.8525 181.638 30.537 181.638 31.0422C181.638 31.1706 181.629 31.2865 181.611 31.3873C181.593 31.5156 181.507 31.5805 181.359 31.5805C181.219 31.5626 181.147 31.4287 181.147 31.1802C181.147 30.9594 181.094 30.6695 180.988 30.3107C180.933 30.0995 180.798 29.8952 180.578 29.6937C180.462 29.5691 180.321 29.4704 180.164 29.4039C179.979 29.3435 179.788 29.3065 179.594 29.2935C179.161 29.2383 178.476 29.2107 177.538 29.2107H175.574C175.449 29.2107 175.389 29.2935 175.389 29.4577V31.7489V31.7503ZM198.393 31.1692C198.517 31.1692 198.563 31.114 198.527 31.0036L196.075 24.0362C196.057 23.8899 196.015 23.8071 195.941 23.7878C195.872 23.8071 195.82 23.8899 195.784 24.0362L193.293 30.976C193.247 31.1057 193.285 31.1692 193.399 31.1692H198.393ZM192.857 32.5701C192.726 32.5701 192.64 32.6433 192.608 32.7937L191.149 36.8378C190.876 37.5928 190.739 38.1683 190.739 38.5631C190.736 38.673 190.755 38.7824 190.796 38.8845C190.837 38.9866 190.899 39.0792 190.977 39.1565C191.142 39.3387 191.428 39.4312 191.823 39.4312H192.233C192.519 39.4312 192.65 39.5071 192.632 39.6603C192.632 39.8384 192.483 39.9267 192.182 39.9267C191.202 39.8894 190.241 39.866 189.297 39.8467C188.792 39.866 187.729 39.8894 186.105 39.9267C185.76 39.9267 185.588 39.8384 185.588 39.6603C185.588 39.5085 185.699 39.4312 185.92 39.4312C186.203 39.4312 186.479 39.4133 186.752 39.376C187.372 39.2835 187.851 39.0144 188.197 38.5658C188.392 38.3353 188.549 38.0662 188.675 37.7667C188.804 37.4906 188.933 37.1828 189.057 36.8433L195.861 19.1336C196.154 18.3621 196.407 17.9853 196.619 18.0046C196.837 18.0046 197.068 18.3014 197.305 18.8976C199.003 23.324 201.239 29.1071 204.02 36.2498C204.551 37.4699 205.014 38.2815 205.411 38.6748C205.809 39.0517 206.143 39.2656 206.416 39.3208C206.833 39.3939 207.212 39.4312 207.555 39.4312C207.785 39.4312 207.901 39.5071 207.901 39.6603C207.901 39.768 207.828 39.8287 207.689 39.8467C207.504 39.9019 207.16 39.9295 206.656 39.9295C205.551 39.9295 203.843 39.9088 201.53 39.8743C201.01 39.8743 200.741 39.8011 200.725 39.6603C200.725 39.5085 200.847 39.4216 201.092 39.4036C201.351 39.3305 201.432 39.1165 201.345 38.7549L199.173 32.7647C199.122 32.635 199.028 32.5701 198.897 32.5701H192.857Z" fill="white"/>
<path fill-rule="evenodd" clip-rule="evenodd" d="M216.719 18.7354C216.805 18.2482 216.954 18.0039 217.169 18.0039C217.295 18.0067 217.416 18.0558 217.507 18.1419C217.615 18.2703 217.753 18.5146 217.921 18.8734L225.397 34.7778L232.85 18.6802C233.029 18.2303 233.231 18.0039 233.452 18.0039C233.71 18.0039 233.88 18.2938 233.946 18.8734L236.437 36.3071C236.603 38.0144 237.053 38.9654 237.771 39.1586C238.557 39.3601 239.127 39.4512 239.474 39.4346C239.75 39.4346 239.897 39.5009 239.915 39.6348C239.915 39.7245 239.855 39.7949 239.728 39.846C239.576 39.9012 239.403 39.9288 239.203 39.9288C237.348 39.9039 235.493 39.8501 233.639 39.7673C233.078 39.7148 232.811 39.6113 232.851 39.4609C232.851 39.3325 232.948 39.2318 233.141 39.1572C233.243 39.1213 233.305 39.0054 233.344 38.8122C233.363 38.6286 233.344 38.3415 233.289 37.9426L231.642 25.5372H231.535L225.557 38.3194C225.028 39.4277 224.691 39.9564 224.538 39.9012C224.433 39.9012 224.308 39.77 224.164 39.5037C223.956 39.1779 223.763 38.8421 223.587 38.4975C223.204 37.708 222.649 36.5707 221.912 35.0869C221.401 34.1004 220.907 33.1051 220.431 32.1015C219.851 30.7627 218.899 28.6758 217.578 25.8408H217.47L216.037 37.0662C215.989 37.5341 215.962 37.9771 215.962 38.3995C215.98 38.9074 216.256 39.2042 216.786 39.2966C217.28 39.3877 217.663 39.4346 217.939 39.4346C218.188 39.4346 218.323 39.5009 218.341 39.6348C218.323 39.8308 218.106 39.9288 217.685 39.9288L214.815 39.846C214.09 39.8653 213.191 39.8929 212.118 39.9288C211.807 39.9288 211.646 39.8322 211.624 39.6348C211.624 39.5009 211.771 39.4333 212.053 39.4333C212.24 39.4512 212.514 39.425 212.881 39.3505C213.247 39.24 213.516 38.9599 213.697 38.5085C213.862 38.0972 213.967 37.6348 214.004 37.1214L216.719 18.7354Z" fill="white"/>
<path fill-rule="evenodd" clip-rule="evenodd" d="M248.086 26.7762C248.086 23.0854 248.071 21.0938 248.039 20.7998C248.006 19.8543 247.694 19.3257 247.105 19.2153C246.779 19.1432 246.445 19.1076 246.111 19.109C245.828 19.127 245.683 19.0317 245.683 18.8233C245.683 18.6839 245.901 18.6094 246.34 18.6094C247.647 18.6315 248.839 18.6591 249.899 18.6922C250.825 18.6742 251.941 18.6466 253.243 18.6094C253.61 18.6094 253.8 18.6839 253.82 18.8233C253.82 19.0317 253.672 19.1242 253.378 19.1049C253.135 19.1049 252.859 19.1325 252.555 19.1877C252.206 19.2429 251.958 19.3947 251.803 19.6432C251.642 19.9013 251.552 20.2863 251.534 20.8026C251.515 21.1794 251.509 21.7549 251.509 22.5278C251.484 23.9479 251.474 25.3683 251.479 26.7886V31.7533C251.464 34.5772 251.497 36.642 251.589 37.9477C251.642 38.3231 251.736 38.6199 251.883 38.8448C252.019 39.1098 252.289 39.2686 252.691 39.3238C253.145 39.3969 253.61 39.4342 254.085 39.4342C254.38 39.4342 254.528 39.5073 254.528 39.6606C254.513 39.84 254.337 39.9297 254.006 39.9297C252.052 39.8924 250.631 39.869 249.74 39.8496C248.819 39.869 247.669 39.8924 246.289 39.9297C245.921 39.9297 245.74 39.8414 245.74 39.6633C245.721 39.5115 245.859 39.437 246.165 39.437C246.593 39.437 246.92 39.3969 247.153 39.3238C247.647 39.2134 247.917 38.7455 247.954 37.9201C248.044 36.6365 248.086 34.5827 248.086 31.7657V26.7762ZM267.803 31.7505C267.785 33.5586 267.812 34.9498 267.883 35.9229C267.956 36.9415 268.122 37.5737 268.38 37.8221C268.595 38.0084 268.944 38.1547 269.426 38.2638C269.905 38.3852 270.663 38.4432 271.705 38.4432C272.442 38.4432 273.082 38.3935 273.626 38.29C274.153 38.2196 274.582 38.0029 274.91 37.644C275.296 37.1582 275.536 36.5923 275.622 35.9505C275.622 35.6938 275.727 35.5558 275.932 35.5364C276.073 35.5364 276.15 35.6938 276.15 36.0057C276.15 36.2155 276.109 36.6903 276.04 37.4246C275.948 38.1589 275.852 38.7675 275.742 39.2534C275.689 39.557 275.571 39.7558 275.386 39.8469C275.159 39.9573 274.703 40.0125 274.015 40.0125C270.482 39.9573 267.822 39.9021 266.038 39.8496C265.116 39.8648 263.966 39.8924 262.583 39.9297C262.22 39.9297 262.033 39.8441 262.033 39.6606C262.014 39.5101 262.158 39.4342 262.46 39.4342C262.886 39.4342 263.218 39.3969 263.447 39.3238C263.58 39.2894 263.703 39.2221 263.804 39.128C263.905 39.034 263.98 38.9163 264.024 38.7855C264.141 38.5288 264.211 38.1892 264.247 37.7669C264.337 36.4695 264.38 34.4668 264.38 31.7533V26.7858C264.38 23.091 264.365 21.0965 264.334 20.8026C264.318 20.3057 264.232 19.9372 264.079 19.6984C263.92 19.432 263.612 19.2608 263.158 19.1877C262.859 19.1269 262.553 19.0991 262.247 19.1049C261.935 19.1242 261.778 19.0386 261.778 18.8509C261.778 18.6922 261.985 18.6094 262.38 18.6094C263.913 18.6287 265.171 18.6563 266.141 18.6922C267.183 18.6742 268.423 18.6466 269.858 18.6094C270.242 18.6094 270.432 18.6922 270.432 18.8509C270.432 19.0386 270.276 19.1242 269.95 19.1049C269.601 19.1049 269.245 19.1325 268.879 19.1877C268.527 19.2429 268.279 19.3947 268.126 19.6432C267.963 19.9013 267.873 20.2863 267.861 20.8026C267.843 21.1794 267.83 21.7549 267.83 22.5251C267.807 23.9452 267.798 25.3655 267.803 26.7858V31.7505Z" fill="white"/>
<path fill-rule="evenodd" clip-rule="evenodd" d="M286.692 32.6299C286.692 31.897 286.641 31.3118 286.534 30.877C286.43 30.4551 286.272 30.0483 286.064 29.6666C286.027 29.5106 285.809 29.0855 285.407 28.3968C284.933 27.576 284.446 26.7625 283.947 25.9565C283.072 24.4644 282.171 22.9874 281.245 21.526C280.527 20.4715 279.892 19.78 279.343 19.4598C278.991 19.2543 278.597 19.1316 278.19 19.101C277.938 19.1203 277.807 19.0347 277.789 18.8484C277.807 18.6855 277.976 18.6055 278.313 18.6055C279.254 18.6248 280.404 18.6524 281.764 18.6883C282.065 18.6883 282.484 18.6703 283.021 18.6331C283.53 18.6151 284.084 18.6055 284.692 18.6055C284.963 18.6055 285.094 18.6855 285.094 18.8484C285.094 18.9823 284.893 19.083 284.491 19.1562C284.238 19.2307 284.117 19.3977 284.117 19.6669C284.117 19.8877 284.223 20.2051 284.438 20.6192C284.574 20.8483 284.865 21.359 285.322 22.1485C285.758 22.9408 286.242 23.8365 286.764 24.8399L289.091 29.0731C289.193 28.8619 289.442 28.3885 289.843 27.6515C290.227 26.9627 290.654 26.1608 291.128 25.2526C291.837 23.9446 292.533 22.6292 293.214 21.3066C293.462 20.6827 293.589 20.19 293.589 19.8325C293.587 19.6747 293.55 19.5193 293.482 19.377C293.411 19.2666 293.258 19.1838 293.018 19.1286C292.702 19.0927 292.536 18.9975 292.518 18.8484C292.518 18.6855 292.674 18.6055 292.99 18.6055C293.852 18.622 294.713 18.6496 295.574 18.6883C296.589 18.6703 297.564 18.6427 298.503 18.6055C298.812 18.6055 298.978 18.6759 299 18.8208C298.978 19.0071 298.804 19.101 298.475 19.101C298.144 19.101 297.745 19.2114 297.27 19.4322C296.787 19.6613 296.295 20.1265 295.785 20.8235C295.224 21.6157 294.308 23.0898 293.046 25.254C292.514 26.1694 291.997 27.0929 291.494 28.0241C291.011 28.8716 290.702 29.4651 290.561 29.8046C290.469 30.053 290.398 30.2849 290.343 30.5085C290.282 30.7556 290.233 30.9916 290.2 31.2124C290.158 31.6886 290.144 32.162 290.144 32.6299V34.9487C290.125 35.5091 290.15 36.4476 290.223 37.7602C290.242 38.1853 290.343 38.5249 290.531 38.7816C290.674 39.0659 290.948 39.2467 291.349 39.3199C291.806 39.3903 292.267 39.4275 292.724 39.4275C293.018 39.4275 293.159 39.5034 293.159 39.6566C293.138 39.8333 292.938 39.9258 292.574 39.9258L288.386 39.843C287.42 39.8609 286.278 39.8885 284.963 39.9258C284.561 39.9258 284.358 39.8333 284.358 39.6566C284.358 39.5062 284.506 39.4303 284.803 39.4303C285.187 39.4303 285.507 39.393 285.766 39.3199C286.037 39.2467 286.245 39.0659 286.398 38.7816C286.521 38.5249 286.599 38.1853 286.616 37.763C286.665 36.4518 286.692 35.5146 286.692 34.9556V32.6299Z" fill="white"/>
<path fill-rule="evenodd" clip-rule="evenodd" d="M6.28067 63.9686C6.26963 65.8099 6.29999 67.1432 6.37038 67.9699C6.39523 68.2501 6.45596 68.4765 6.55671 68.649C6.64367 68.8381 6.81896 68.9568 7.08534 69.0065C7.38899 69.0548 7.69264 69.0755 7.99629 69.0755C8.20332 69.0755 8.30822 69.1279 8.30822 69.2301C8.30822 69.3488 8.17434 69.4067 7.90795 69.4067C6.64367 69.386 5.7203 69.3667 5.1406 69.3543L2.82459 69.4067C2.56925 69.4067 2.44365 69.3488 2.44365 69.2301C2.43122 69.1279 2.5168 69.0796 2.70727 69.0796C2.99298 69.0796 3.21105 69.0548 3.36426 69.0065C3.45337 68.984 3.53534 68.9394 3.60245 68.8766C3.66957 68.8138 3.71963 68.735 3.74796 68.6476C3.82387 68.4765 3.87218 68.2501 3.8984 67.9699C3.95637 67.1432 3.98674 65.8099 3.98674 63.9673V60.6644C3.98674 58.2062 3.97431 56.8826 3.95637 56.6852C3.94257 56.3526 3.88736 56.111 3.78798 55.9509C3.68033 55.7743 3.47467 55.6611 3.17378 55.6086C2.93837 55.5704 2.70006 55.5528 2.46159 55.5562C2.25455 55.5562 2.14966 55.5051 2.14966 55.4044C2.14966 55.2843 2.28768 55.2263 2.56925 55.2263C3.44588 55.2342 4.32238 55.2526 5.19857 55.2815C6.94318 55.2815 8.55114 55.276 10.0266 55.2636C10.3523 55.2498 10.6035 55.2263 10.7747 55.1904C10.8624 55.1365 10.9592 55.0991 11.0604 55.08C11.1487 55.0924 11.1956 55.1476 11.1956 55.2456C11.1818 55.3422 11.1308 55.621 11.0424 56.0834C11.0176 56.5693 10.9872 57.0744 10.95 57.5975C10.95 57.7742 10.892 57.8625 10.7719 57.8625C10.6587 57.8625 10.5939 57.7618 10.5814 57.5603V57.2428C10.5699 57.1059 10.5339 56.9722 10.4752 56.8481C10.4282 56.7128 10.2999 56.5817 10.0915 56.4533C9.8941 56.3553 9.61805 56.3001 9.26885 56.2877L6.44354 56.2325C6.33588 56.2325 6.28067 56.3181 6.28067 56.4892V61.1916C6.26963 61.3076 6.31241 61.3655 6.40765 61.3655L8.74023 61.3476C9.05078 61.3476 9.32406 61.3407 9.56008 61.3283C9.90652 61.3283 10.1715 61.2151 10.3551 60.9887C10.4255 60.8604 10.5028 60.7955 10.5883 60.7955C10.6574 60.7955 10.6919 60.8549 10.6919 60.9708C10.6819 61.2143 10.6524 61.4566 10.6035 61.6954C10.5939 61.8334 10.5759 61.9797 10.5511 62.1329C10.509 62.5868 10.4855 63.0422 10.4807 63.498C10.4816 63.5747 10.4755 63.6514 10.4627 63.7271C10.4489 63.8127 10.3937 63.8555 10.293 63.8555C10.1991 63.843 10.1522 63.7547 10.1522 63.5891C10.1522 63.4428 10.1163 63.2523 10.0445 63.0108C9.9934 62.8506 9.89764 62.7084 9.7685 62.6008C9.69024 62.5175 9.59522 62.4516 9.48969 62.4076C9.36671 62.3675 9.2392 62.3429 9.11013 62.3345C8.65007 62.2902 8.18789 62.2717 7.72576 62.2792H6.40765C6.32484 62.2792 6.28067 62.3345 6.28067 62.4449V63.9686ZM37.8643 68.7401C38.2011 68.7401 38.6041 68.6724 39.0665 68.5386C39.5385 68.3978 40.0078 68.1286 40.4716 67.7311C40.9353 67.3143 41.3177 66.7001 41.6185 65.8858C41.9222 65.0852 42.0795 64.0142 42.092 62.674C42.0671 60.5457 41.5578 58.8784 40.5599 57.6734C39.5524 56.474 38.2825 55.8695 36.7533 55.8571C36.2426 55.8571 35.7264 55.9357 35.2046 56.0958C34.6483 56.2871 34.1471 56.6111 33.7444 57.0399C33.3055 57.4623 32.9535 58.0558 32.6857 58.8204C32.4069 59.585 32.2689 60.5581 32.2689 61.7382C32.2689 63.7395 32.7658 65.3903 33.7623 66.6932C34.7354 68.0334 36.1032 68.7152 37.8643 68.7401ZM37.1011 69.6731C34.5118 69.6248 32.6305 68.8105 31.4629 67.2356C30.309 65.7091 29.7376 64.0694 29.7514 62.3165C29.7376 60.6009 30.3145 58.9709 31.4767 57.4264C32.636 55.8295 34.567 55.0096 37.2722 54.9599C42.0851 55.0648 44.5419 57.4043 44.6426 61.977C44.6316 64.1715 43.9566 65.9838 42.6164 67.4192C41.2818 68.8836 39.4419 69.6358 37.1011 69.6731ZM64.4709 60.6658C64.4709 58.2076 64.4585 56.8798 64.4378 56.6838C64.4281 56.3526 64.3702 56.1083 64.2694 55.9495C64.1617 55.7715 63.9589 55.6597 63.6552 55.61C63.4206 55.5691 63.1825 55.5506 62.9444 55.5548C62.7346 55.5672 62.6311 55.5134 62.6311 55.3864C62.6311 55.2801 62.7663 55.2277 63.0327 55.2277C64.1245 55.2401 65.012 55.258 65.6924 55.2801C66.3397 55.2705 67.0878 55.2525 67.9353 55.2277C68.2017 55.2277 68.3355 55.2801 68.3355 55.3864C68.3355 55.512 68.2389 55.5672 68.0416 55.5548C67.8704 55.5548 67.6965 55.5727 67.5171 55.61C67.2838 55.6473 67.1182 55.748 67.0174 55.9137C66.9098 56.0848 66.8518 56.3415 66.8394 56.6838C66.827 56.935 66.8214 57.3173 66.8214 57.8294C66.8076 58.3442 66.8021 59.2897 66.8021 60.6658V63.2992C66.8021 64.627 66.9374 65.6332 67.2051 66.3192C67.4467 67.0341 67.7904 67.5669 68.2293 67.9161C68.4473 68.0817 68.6585 68.2128 68.8614 68.3094C69.0684 68.4268 69.2658 68.5082 69.4494 68.5579C69.6468 68.6062 69.8331 68.6379 70.0111 68.649C70.1961 68.6738 70.3617 68.6862 70.5108 68.6862C70.9193 68.6862 71.3486 68.6062 71.8027 68.4475C72.254 68.2956 72.6584 68.0375 73.02 67.6773C73.521 67.1514 73.8344 66.4806 73.9558 65.6677C74.0524 64.8672 74.0938 63.9824 74.0814 63.0149V60.6658C74.0814 58.2076 74.0704 56.8798 74.0455 56.6838C74.0359 56.3526 73.9765 56.1083 73.8758 55.9495C73.7695 55.7715 73.5666 55.6597 73.2629 55.61C73.0452 55.5714 72.8243 55.553 72.6032 55.5548C72.3948 55.5672 72.2899 55.5134 72.2899 55.3864C72.2899 55.2801 72.4196 55.2277 72.6736 55.2277C73.3746 55.2274 74.0755 55.2449 74.7757 55.2801C74.904 55.2801 75.1953 55.2705 75.6452 55.2456C76.0731 55.2332 76.4733 55.2277 76.8488 55.2277C77.1041 55.2277 77.2297 55.2801 77.2297 55.3864C77.2297 55.512 77.1221 55.5672 76.9012 55.5548C76.7356 55.5548 76.5575 55.5727 76.374 55.61C76.1435 55.6473 75.9778 55.748 75.8826 55.9137C75.7694 56.0848 75.7073 56.3415 75.6949 56.6838C75.6839 56.935 75.677 57.3173 75.677 57.828C75.6646 58.773 75.6595 59.718 75.6618 60.663V62.6698C75.6742 63.7216 75.5817 64.7471 75.3857 65.7505C75.1764 66.7342 74.67 67.6298 73.9351 68.3163C73.2864 68.8671 72.6432 69.2314 72.0028 69.4081C71.3679 69.5862 70.7468 69.6745 70.1436 69.6745C69.6426 69.6869 69.0174 69.622 68.2624 69.4813C67.5116 69.335 66.7856 68.9678 66.0913 68.384C65.6275 67.9672 65.2438 67.3654 64.9443 66.5786C64.6269 65.8057 64.4709 64.7471 64.4709 63.4097V60.6658ZM98.6149 66.8699C98.6384 67.5793 98.7032 68.0914 98.8109 68.4088C98.9186 68.7083 99.0621 68.8891 99.2457 68.9499C99.5742 69.0479 99.8902 69.0907 100.201 69.0782C100.405 69.0782 100.51 69.1279 100.51 69.2287C100.492 69.3474 100.35 69.4053 100.083 69.4053C98.9213 69.3846 98.1663 69.3667 97.8227 69.3543C97.1677 69.3775 96.5125 69.3945 95.8572 69.4053C95.5895 69.4191 95.4542 69.3598 95.4542 69.2287C95.4542 69.1279 95.5522 69.0782 95.7496 69.0782C96.0187 69.0782 96.292 69.0479 96.5708 68.9871C96.8054 68.9264 96.9614 68.718 97.0442 68.3633C97.1201 68.0141 97.1546 67.4454 97.1408 66.6559L97.3009 55.5382C97.2885 55.1283 97.3699 54.9171 97.5439 54.9033C97.6474 54.9033 97.7523 54.9558 97.853 55.0607C97.9607 55.1711 98.078 55.3146 98.2091 55.4913C98.8785 56.2559 100.763 58.2628 103.857 61.5146C104.55 62.2268 105.341 63.0591 106.231 64.0073C107.102 64.9707 107.648 65.5669 107.869 65.7933H107.958L107.778 57.3518C107.778 56.7887 107.734 56.3857 107.646 56.1303C107.603 56.0219 107.537 55.924 107.452 55.8433C107.368 55.7625 107.267 55.7009 107.157 55.6625C106.84 55.5793 106.513 55.5435 106.185 55.5562C105.983 55.5562 105.887 55.4982 105.9 55.385C105.9 55.3146 105.949 55.2677 106.043 55.2442C106.14 55.2304 106.246 55.2249 106.372 55.2249C107.393 55.2387 108.126 55.2567 108.577 55.2801C108.685 55.2801 108.896 55.2677 109.21 55.2442C109.531 55.2304 109.912 55.2249 110.356 55.2249C110.624 55.2139 110.765 55.2663 110.777 55.385C110.777 55.4982 110.67 55.5562 110.454 55.5562C110.293 55.5562 110.109 55.5741 109.9 55.6072C109.782 55.6295 109.673 55.6831 109.583 55.7623C109.494 55.8415 109.427 55.9433 109.39 56.0572C109.29 56.296 109.232 56.6783 109.222 57.2042L109.026 69.0603C109.026 69.4426 108.943 69.6358 108.783 69.6358C108.688 69.6358 108.593 69.5834 108.501 69.4799C108.385 69.4036 108.274 69.3187 108.17 69.2259C106.371 67.3954 104.58 65.556 102.798 63.7078C100.528 61.2855 99.0842 59.7093 98.4603 58.975H98.4051L98.6149 66.8699ZM133.795 62.7333C133.795 64.8133 133.806 66.0762 133.831 66.529C133.841 66.7677 133.866 67.0314 133.902 67.3184C133.916 67.618 133.954 67.8291 134.026 67.952C134.15 68.1286 134.406 68.2943 134.792 68.4475C135.172 68.6186 135.715 68.7042 136.421 68.7042C138.209 68.729 139.609 68.2791 140.617 67.3557C141.185 66.8174 141.587 66.1411 141.82 65.3268C142.046 64.4624 142.156 63.5716 142.147 62.6781C142.136 61.4732 141.946 60.485 141.577 59.7079C141.425 59.3476 141.237 59.0035 141.015 58.681C140.81 58.405 140.601 58.1731 140.394 57.9826C139.544 57.1821 138.651 56.6617 137.713 56.4257C136.774 56.1994 135.946 56.0931 135.218 56.1055C135.025 56.1055 134.804 56.111 134.561 56.1234C134.379 56.1425 134.198 56.1824 134.025 56.2421C133.873 56.3043 133.801 56.4299 133.813 56.6189C133.801 57.4416 133.795 58.692 133.795 60.369V62.7333ZM131.518 60.6658C131.518 58.2062 131.507 56.8784 131.488 56.6824C131.475 56.3526 131.419 56.1083 131.319 55.9495C131.212 55.7715 131.006 55.6583 130.702 55.61C130.468 55.5689 130.23 55.5504 129.992 55.5548C129.783 55.5672 129.681 55.5079 129.681 55.3864C129.681 55.2788 129.813 55.2235 130.081 55.2235C131.185 55.2373 132.059 55.2553 132.706 55.2787L135.51 55.2235C136.773 55.204 138.035 55.2931 139.283 55.4899C140.617 55.7108 141.798 56.3346 142.826 57.3587C143.296 57.8363 143.71 58.4698 144.064 59.2552C144.402 60.0447 144.578 61.0025 144.589 62.1343C144.578 63.3048 144.382 64.3358 143.995 65.2205C143.602 66.1011 143.14 66.8133 142.605 67.364C142.408 67.5779 142.136 67.8112 141.786 68.061C141.382 68.3443 140.953 68.5892 140.503 68.7925C139.525 69.2894 138.19 69.5517 136.501 69.582C135.799 69.5685 135.098 69.5285 134.399 69.4619C133.807 69.3983 133.213 69.3629 132.618 69.3557C132.007 69.3681 131.239 69.3833 130.323 69.4081C130.077 69.4081 129.957 69.346 129.957 69.2301C129.945 69.1293 130.037 69.0782 130.24 69.0782C130.524 69.0782 130.742 69.0534 130.896 69.0037C130.984 68.9808 131.066 68.936 131.133 68.8733C131.2 68.8106 131.251 68.732 131.279 68.6448C131.357 68.4751 131.405 68.2487 131.431 67.9672C131.488 67.1073 131.519 65.7712 131.519 63.9686L131.518 60.6658ZM169.945 63.5822C170.028 63.5822 170.058 63.5449 170.033 63.4718L168.387 58.8342C168.377 58.739 168.347 58.6838 168.297 58.6727C168.251 58.6838 168.214 58.739 168.193 58.8342L166.518 63.4524C166.487 63.538 166.512 63.5822 166.592 63.5822H169.945ZM166.227 64.5138C166.138 64.5138 166.08 64.5635 166.055 64.6615L165.075 67.353C164.893 67.854 164.799 68.2363 164.799 68.4999C164.799 68.6586 164.855 68.7898 164.964 68.8947C165.074 69.0175 165.263 69.0782 165.53 69.0782H165.806C165.997 69.0782 166.086 69.1307 166.073 69.2301C166.073 69.3474 165.973 69.4095 165.772 69.4095C165.126 69.3853 164.479 69.3669 163.832 69.3543C163.494 69.3653 162.779 69.3846 161.687 69.4095C161.457 69.4095 161.341 69.3474 161.341 69.2301C161.341 69.1265 161.414 69.0782 161.564 69.0782C161.755 69.0782 161.941 69.0658 162.123 69.041C162.54 68.9802 162.862 68.7994 163.095 68.4999C163.229 68.3419 163.336 68.1634 163.414 67.9713C163.503 67.7877 163.589 67.5821 163.672 67.3557L168.246 55.5741C168.442 55.0634 168.61 54.8122 168.751 54.8247C168.903 54.8247 169.055 55.0234 169.215 55.4182C170.708 59.27 172.213 63.1176 173.728 66.961C174.083 67.7753 174.393 68.3136 174.66 68.5731C174.926 68.8243 175.154 68.9678 175.337 69.0051C175.616 69.0534 175.872 69.0782 176.101 69.0782C176.258 69.0782 176.335 69.1307 176.335 69.2301C176.335 69.3018 176.286 69.3405 176.19 69.3543C176.068 69.3902 175.834 69.4095 175.498 69.4095C174.755 69.4095 173.607 69.3957 172.052 69.3722C171.702 69.3722 171.521 69.3253 171.509 69.2287C171.509 69.1307 171.591 69.0713 171.761 69.0603C171.932 69.0106 171.988 68.8671 171.93 68.6283L170.469 64.6436C170.457 64.6043 170.431 64.5704 170.397 64.5469C170.364 64.5235 170.323 64.5118 170.282 64.5138H166.227ZM195.9 56.2698L193.18 56.3429C192.788 56.3432 192.398 56.3801 192.013 56.4533C191.767 56.5219 191.552 56.6742 191.406 56.884C191.24 57.171 191.14 57.3891 191.102 57.5423C191.079 57.6886 191.011 57.7632 190.897 57.7632C190.778 57.7632 190.726 57.6638 190.738 57.4719C190.738 57.3795 190.763 57.229 190.808 57.022C190.846 56.8108 190.882 56.5775 190.919 56.3305C191.035 55.7825 191.102 55.443 191.127 55.3174C191.177 55.08 191.247 54.9599 191.342 54.9599C191.418 54.9599 191.516 54.993 191.636 55.0607C191.789 55.1348 191.954 55.1784 192.124 55.189C192.701 55.2511 193.308 55.2815 193.95 55.2815H201.168C202.259 55.2442 202.845 55.1835 202.921 55.0979C203.018 55.0979 203.066 55.2291 203.066 55.4885C203.054 56.1593 203.036 56.8812 203.011 57.6555C202.998 57.857 202.943 57.9578 202.843 57.9578C202.71 57.9702 202.642 57.8446 202.642 57.581L202.629 57.3698C202.629 57.1075 202.468 56.8729 202.155 56.6631C201.834 56.4616 201.275 56.3484 200.474 56.3236L198.176 56.2684V63.9686C198.165 65.7726 198.195 67.1156 198.266 67.9961C198.296 68.2584 198.358 68.4765 198.452 68.6476C198.535 68.8381 198.714 68.9568 198.981 69.0065C199.28 69.052 199.593 69.0755 199.916 69.0755C200.112 69.0755 200.21 69.1279 200.21 69.2287C200.193 69.3488 200.075 69.4067 199.861 69.4067C198.557 69.3846 197.603 69.3667 196.996 69.3543L194.701 69.4067C194.456 69.4067 194.336 69.3488 194.336 69.2287C194.324 69.1279 194.422 69.0796 194.627 69.0796C194.85 69.0866 195.072 69.062 195.287 69.0065C195.377 68.9808 195.459 68.9352 195.528 68.873C195.597 68.8108 195.651 68.7338 195.686 68.6476C195.759 68.4765 195.799 68.2501 195.81 67.9685C195.87 67.11 195.9 65.7754 195.9 63.9742V56.2698ZM253.439 68.7401C253.773 68.7401 254.179 68.6724 254.641 68.5386C255.114 68.3978 255.584 68.1286 256.046 67.7311C256.51 67.3143 256.893 66.7001 257.194 65.8858C257.498 65.0852 257.654 64.0142 257.666 62.674C257.642 60.5457 257.132 58.8784 256.134 57.6734C255.127 56.474 253.857 55.8695 252.329 55.8571C251.817 55.8571 251.301 55.9357 250.779 56.0958C250.223 56.2871 249.722 56.6111 249.319 57.0399C248.881 57.4623 248.525 58.0558 248.262 58.8204C247.981 59.585 247.843 60.5581 247.843 61.7382C247.843 63.7395 248.34 65.3903 249.338 66.6932C250.307 68.0334 251.678 68.7152 253.439 68.7401ZM252.676 69.6731C250.086 69.6248 248.206 68.8105 247.037 67.2356C245.883 65.7091 245.316 64.0694 245.326 62.3165C245.316 60.6009 245.89 58.9709 247.052 57.4264C248.212 55.8295 250.141 55.0096 252.847 54.9599C257.66 55.0648 260.118 57.4043 260.217 61.977C260.206 64.1715 259.527 65.9838 258.191 67.4192C256.852 68.8836 255.016 69.6358 252.676 69.6731ZM281.921 66.8699C281.949 67.5793 282.011 68.0914 282.118 68.4088C282.229 68.7083 282.37 68.8891 282.553 68.9499C282.882 69.0479 283.198 69.0907 283.511 69.0782C283.713 69.0782 283.818 69.1279 283.818 69.2287C283.8 69.3474 283.657 69.4053 283.391 69.4053C282.232 69.3846 281.474 69.3667 281.13 69.3543C280.864 69.3667 280.207 69.3846 279.168 69.4053C278.9 69.4191 278.766 69.3598 278.766 69.2287C278.766 69.1279 278.86 69.0782 279.056 69.0782C279.326 69.0782 279.6 69.0479 279.878 68.9871C280.113 68.9264 280.269 68.718 280.352 68.3633C280.43 68.0141 280.462 67.4454 280.453 66.6559L280.608 55.5382C280.596 55.1283 280.679 54.9171 280.851 54.9033C280.959 54.9033 281.063 54.9558 281.161 55.0607C281.268 55.1711 281.386 55.3146 281.517 55.4913C282.186 56.2559 284.07 58.2628 287.165 61.5146C287.86 62.2268 288.648 63.0591 289.539 64.0073C290.412 64.9707 290.956 65.5669 291.18 65.7933H291.265L291.087 57.3518C291.087 56.7887 291.046 56.3857 290.952 56.1303C290.909 56.0217 290.843 55.9236 290.758 55.8428C290.673 55.7621 290.572 55.7005 290.462 55.6625C290.147 55.5791 289.821 55.5432 289.496 55.5562C289.289 55.5562 289.195 55.4982 289.206 55.385C289.206 55.3146 289.26 55.2677 289.351 55.2442C289.447 55.2304 289.558 55.2249 289.679 55.2249C290.701 55.2387 291.438 55.2567 291.885 55.2801C291.993 55.2801 292.207 55.2677 292.517 55.2442C292.843 55.2304 293.222 55.2249 293.664 55.2249C293.93 55.2139 294.073 55.2663 294.085 55.385C294.085 55.4982 293.98 55.5562 293.762 55.5562C293.603 55.5562 293.417 55.5741 293.21 55.6072C293.092 55.629 292.983 55.6823 292.893 55.7616C292.803 55.8409 292.737 55.943 292.701 56.0572C292.597 56.296 292.538 56.6783 292.529 57.2042L292.336 69.0603C292.336 69.4426 292.251 69.6358 292.091 69.6358C291.995 69.6358 291.9 69.5834 291.812 69.4799C291.694 69.4036 291.583 69.3187 291.478 69.2259C289.678 67.3954 287.887 65.556 286.106 63.7078C283.835 61.2855 282.39 59.7093 281.768 58.975H281.717L281.921 66.8699ZM222.812 60.6299C222.812 58.18 222.802 56.8591 222.781 56.6631C222.756 56.0365 222.551 55.6873 222.159 55.6141C221.943 55.5644 221.723 55.5399 221.502 55.541C221.311 55.5534 221.216 55.4913 221.216 55.3547C221.216 55.258 221.364 55.2097 221.652 55.2097C222.44 55.2193 223.227 55.2386 224.014 55.2677C224.631 55.2567 225.371 55.2373 226.236 55.2097C226.477 55.2097 226.606 55.2594 226.616 55.3547C226.616 55.4927 226.518 55.5534 226.322 55.541C226.139 55.5432 225.957 55.5617 225.778 55.5962C225.544 55.6321 225.379 55.7342 225.278 55.8957C225.17 56.0669 225.112 56.3236 225.1 56.6659C225.088 56.9171 225.082 57.2966 225.082 57.8115C225.068 58.3235 225.063 59.2662 225.063 60.6395V63.9341C225.049 65.8057 225.077 67.1763 225.137 68.0417C225.17 68.2929 225.238 68.4916 225.333 68.6379C225.422 68.816 225.6 68.9223 225.867 68.9595C226.171 69.0051 226.477 69.0285 226.792 69.0285C226.99 69.0285 227.088 69.0824 227.088 69.1804C227.075 69.2991 226.959 69.3598 226.741 69.3598C225.441 69.3363 224.502 69.3184 223.906 69.3046L221.618 69.3598C221.376 69.3598 221.253 69.2991 221.253 69.1831C221.241 69.0824 221.336 69.0327 221.535 69.0327C221.821 69.0327 222.039 69.0051 222.192 68.9595C222.523 68.8864 222.698 68.5731 222.723 68.0265C222.781 67.1735 222.812 65.8126 222.812 63.941V60.6299Z" fill="white"/>
</g>
<defs>
<clipPath id="clip0_4157_32165">
<rect width="300" height="113" fill="white" transform="translate(0 0.00390625)"/>
</clipPath>
</defs>
</svg>
