<?xml version="1.0" encoding="UTF-8" standalone="no"?><!DOCTYPE svg PUBLIC "-//W3C//DTD SVG 1.1//EN" "http://www.w3.org/Graphics/SVG/1.1/DTD/svg11.dtd"><svg width="100%" height="100%" viewBox="0 0 181 182" version="1.1" xmlns="http://www.w3.org/2000/svg" xmlns:xlink="http://www.w3.org/1999/xlink" xml:space="preserve" xmlns:serif="http://www.serif.com/" style="fill-rule:evenodd;clip-rule:evenodd;stroke-linejoin:round;stroke-miterlimit:1.41421;"><path d="M85.949,64.874l39.063,-56.71c2.886,-4.305 6.868,-6.921 11.945,-7.848c4.975,-0.908 9.573,0.141 13.795,3.147c4.203,2.905 6.758,6.845 7.667,11.82c0.945,5.179 -0.034,9.869 -2.939,14.072l-39.091,56.558l56.558,39.091c4.222,3.006 6.796,7.048 7.723,12.124c0.909,4.976 -0.08,9.616 -2.967,13.92c-2.904,4.203 -6.844,6.758 -11.82,7.667c-5.077,0.927 -9.717,-0.062 -13.919,-2.967l-56.614,-39.395l-39.339,56.918c-2.905,4.203 -6.845,6.759 -11.821,7.667c-5.077,0.927 -9.716,-0.061 -13.919,-2.966c-4.222,-3.007 -6.787,-6.997 -7.695,-11.973c-0.927,-5.077 0.052,-9.767 2.939,-14.072l39.09,-56.557l-56.558,-39.091c-4.202,-2.905 -6.777,-6.947 -7.722,-12.125c-0.909,-4.975 0.089,-9.564 2.994,-13.767c2.886,-4.305 6.868,-6.92 11.945,-7.847c4.975,-0.909 9.574,0.14 13.795,3.146l56.89,39.188Zm66.595,-54.184c-2.458,-3.118 -5.636,-5.004 -9.532,-5.656c-1.837,-0.294 -3.568,-0.293 -5.193,0.004c-1.422,0.259 -2.695,0.754 -3.821,1.484c-0.941,0.592 -1.9,1.659 -2.878,3.202c-0.258,0.886 -0.35,1.532 -0.275,1.939c0.092,0.507 0.646,0.668 1.662,0.483l0.304,-0.056c1.837,-0.86 3.517,-1.429 5.04,-1.707c4.874,-0.89 8.923,0.889 12.149,5.336c0.24,0.166 0.461,0.23 0.664,0.193c0.508,-0.092 1.002,-0.55 1.481,-1.372c0.747,-1.08 1.065,-1.925 0.954,-2.535l-0.028,-0.152c-0.056,-0.305 -0.231,-0.692 -0.527,-1.163Zm-147.695,28.074c-0.111,0.544 -0.138,0.969 -0.082,1.274l0.028,0.152c0.111,0.609 0.707,1.287 1.788,2.034c0.739,0.6 1.362,0.853 1.87,0.761c0.203,-0.038 0.387,-0.176 0.553,-0.416c1.446,-5.301 4.605,-8.396 9.479,-9.286c1.523,-0.278 3.295,-0.339 5.317,-0.184l0.305,-0.056c1.015,-0.185 1.477,-0.532 1.384,-1.039c-0.074,-0.406 -0.389,-0.979 -0.943,-1.717c-1.46,-1.097 -2.734,-1.756 -3.824,-1.977c-1.311,-0.285 -2.677,-0.298 -4.099,-0.038c-1.624,0.296 -3.244,0.907 -4.859,1.831c-3.414,1.988 -5.72,4.875 -6.917,8.661Z" style="fill:#ca336a;fill-rule:nonzero;"/></svg>