<svg width="2799" height="2448" viewBox="0 0 2799 2448" fill="none" xmlns="http://www.w3.org/2000/svg">
<g filter="url(#filter0_d_502_8837)">
<circle cx="1406.99" cy="1130.69" r="1077.69" fill="#32285A"/>
</g>
<path d="M689.94 1276.13L720.303 1425.3C722.33 1435.24 720.565 1444.41 715.017 1452.78C709.47 1461.16 701.819 1466.34 692.067 1468.32C682.116 1470.35 672.949 1468.59 664.565 1463.04C656.181 1457.5 650.98 1449.75 648.958 1439.81L576.135 1082.1C574.271 1071.91 576.051 1062.85 581.485 1054.92C587.072 1046.73 594.802 1041.44 604.673 1039.02L828.272 993.556C876.32 985.237 915.076 997.45 944.541 1030.19C959.812 1047.18 969.718 1066.81 974.25 1089.08C975.95 1097.44 976.877 1106.05 977.026 1114.93C977.735 1148.96 967.67 1177.42 946.837 1200.29C930.486 1217.7 908.913 1229.85 882.131 1236.75L985.4 1353.08C989.56 1358.23 992.267 1363.9 993.521 1370.07C994.131 1373.05 994.458 1376.19 994.508 1379.49C993.868 1389.57 989.654 1397.88 981.865 1404.44C976.981 1408.95 971.552 1411.81 965.583 1413.03C962.4 1413.68 959.014 1413.85 955.429 1413.54C945.389 1413.09 937.109 1409.08 930.595 1401.5L799.799 1253.8L689.94 1276.13ZM675.364 1204.53L863.439 1166.29C887.282 1161.24 900.718 1147.84 903.752 1126.09C904.645 1119.29 904.427 1112.6 903.088 1106.04C901.511 1098.28 898.318 1090.75 893.514 1083.44C883.905 1068.82 871.357 1062.16 855.868 1063.44L842.849 1065.16L654.773 1103.4L675.364 1204.53ZM922.865 1033.66C899.206 1009.06 868.566 1000.59 830.949 1008.24C826.373 1009.17 821.738 1010.32 817.042 1011.69C813.582 1013.01 812.03 1014.57 812.397 1016.36C812.883 1018.75 815.015 1019.55 818.798 1018.79C849.091 1013.87 882.453 1020.96 918.884 1040.07C921.155 1041.06 922.89 1041.43 924.085 1041.19C924.481 1041.11 924.918 1040.71 925.394 1039.99C925.711 1039.51 925.79 1038.87 925.627 1038.07C925.384 1036.88 924.462 1035.41 922.865 1033.66Z" fill="white"/>
<path d="M1103.8 1223.68C1105.79 1233.43 1104.01 1242.49 1098.46 1250.87C1092.95 1259.44 1085.22 1264.74 1075.27 1266.77C1065.52 1268.75 1056.43 1266.87 1048.01 1261.13C1039.62 1255.58 1034.44 1247.93 1032.45 1238.19L983.804 999.22C981.821 989.475 983.606 980.412 989.154 972.034C994.662 963.457 1002.29 958.181 1012.04 956.199C1022 954.172 1031.18 956.035 1039.61 961.778C1047.99 967.322 1053.17 974.967 1055.15 984.713L1103.8 1223.68ZM1041.27 977.593C1036.31 971.563 1029.99 967.981 1022.29 966.851C1018.67 966.346 1015.26 966.415 1012.08 967.064C1009.29 967.629 1006.8 968.655 1004.62 970.131C1002.79 971.335 1001.94 972.232 1002.06 972.827C1001.12 976.335 1000.79 978.782 1001.07 980.175C1001.23 980.972 1001.71 981.289 1002.51 981.126C1006.09 979.362 1009.37 978.178 1012.35 977.573C1021.91 975.631 1029.94 978.966 1036.46 987.582C1037.42 988.216 1038.1 988.494 1038.5 988.409C1040.83 983.588 1042.08 981.056 1042.24 980.819C1042.4 980.576 1042.43 980.259 1042.35 979.862C1042.23 979.263 1041.87 978.51 1041.27 977.593Z" fill="white"/>
<path d="M1186.12 1207.25C1181.21 1204.52 1176.22 1201.4 1171.15 1197.87C1136.66 1174.02 1115.18 1141.31 1106.72 1099.74L1106.29 1097.65C1097.99 1054.81 1105.58 1015.78 1129.09 980.553C1146.64 953.788 1170.44 934.241 1200.47 921.924C1210.45 918.029 1220.52 915.052 1230.67 912.986C1250.77 908.898 1271.27 908.774 1292.15 912.604C1323.04 918.753 1349.91 933.171 1372.77 955.864C1395.23 978.641 1409.7 1005.42 1416.17 1036.21C1422.33 1066.44 1419.6 1096.3 1407.99 1125.8C1396.37 1155.29 1378.07 1178.9 1353.07 1196.61C1334.91 1209.21 1314.83 1217.95 1292.82 1222.84C1271.37 1230.52 1256.82 1238.45 1249.16 1246.63C1236.89 1258.65 1229.1 1273.29 1225.77 1290.54C1223.89 1301.68 1224.05 1312.63 1226.24 1323.37C1227.37 1328.94 1229 1334.41 1231.13 1339.78C1238.8 1358.1 1251.77 1371.93 1270.04 1381.26C1287.96 1390.88 1306.87 1393.66 1326.77 1389.62C1336.52 1387.63 1345.59 1389.41 1353.97 1394.96C1362.59 1400.66 1367.89 1408.38 1369.88 1418.13C1371.87 1427.88 1370 1437.06 1364.29 1445.67C1358.75 1454.05 1351.1 1459.23 1341.34 1461.22C1310.26 1467.33 1279.82 1464.4 1250.02 1452.44C1219.75 1440.16 1195.97 1421.07 1178.67 1395.18C1166.83 1377.71 1158.88 1359.02 1154.83 1339.13C1152.68 1328.59 1151.63 1317.83 1151.68 1306.84C1151.53 1274.56 1160.18 1245.25 1177.61 1218.92C1180.31 1214.86 1183.15 1210.97 1186.12 1207.25ZM1278.24 1151.24C1301.05 1146.19 1318.87 1133.97 1331.72 1114.58C1344.91 1094.92 1349.18 1073.65 1344.53 1050.77C1340.56 1031.28 1330.73 1015.05 1315.03 1002.09C1299.14 989.164 1281.23 982.659 1261.31 982.565C1255.1 982.585 1249.11 983.179 1243.34 984.353C1227.61 987.549 1213.54 995.279 1201.11 1007.54C1184.24 1024.44 1175.78 1044.48 1175.74 1067.69C1175.76 1073.9 1176.34 1079.79 1177.47 1085.36C1181.32 1104.25 1191.29 1120.14 1207.38 1133.02C1228.23 1149.92 1251.85 1155.99 1278.24 1151.24ZM1335.23 950.136C1322.88 937.323 1306.35 929.396 1285.62 926.358C1272.55 924.253 1260.14 924.391 1248.4 926.78C1243.03 927.875 1237.76 929.46 1232.59 931.551C1229.13 932.874 1227.55 934.331 1227.88 935.921L1227.94 936.223C1228.39 938.408 1230.44 939.34 1234.1 939.008C1269.22 935.391 1301.59 941.133 1331.19 956.24C1333.51 957.429 1335.26 957.9 1336.45 957.657C1336.85 957.573 1337.31 957.276 1337.82 956.756C1338.1 956.077 1338.16 955.344 1338 954.546C1337.75 953.352 1336.83 951.885 1335.23 950.136ZM1355.45 1409.88C1350.5 1403.85 1344.17 1400.26 1336.48 1399.13C1332.85 1398.63 1329.44 1398.7 1326.26 1399.35C1323.48 1399.92 1320.99 1400.94 1318.81 1402.42C1316.98 1403.62 1315.27 1405.93 1313.69 1409.36C1312.93 1410.76 1312.64 1411.85 1312.81 1412.65C1313 1413.64 1314.1 1413.94 1316.09 1413.53L1316.69 1413.41C1320.27 1411.65 1323.55 1410.46 1326.53 1409.86C1336.09 1407.91 1344.13 1411.25 1350.65 1419.87C1351.13 1420.18 1351.57 1420.3 1351.96 1420.22C1352.96 1420.02 1353.91 1419.1 1354.82 1417.47C1356.25 1415.31 1356.84 1413.64 1356.6 1412.44L1356.54 1412.14C1356.42 1411.55 1356.05 1410.79 1355.45 1409.88Z" fill="white"/>
<path d="M1394.03 792.16C1392.05 782.414 1393.83 773.357 1399.38 764.978C1405.09 756.362 1412.81 751.06 1422.57 749.078C1432.32 747.097 1441.51 748.955 1450.13 754.657C1458.51 760.207 1463.7 767.852 1465.68 777.598L1487.72 885.893C1510.6 863.845 1536.46 849.887 1565.32 844.021C1575.87 841.875 1586.73 840.805 1597.93 840.805C1629.39 840.622 1658.36 849.545 1684.83 867.566C1710.1 884.798 1729.53 907.981 1743.13 937.115L1752.73 967.473L1777.03 1086.81C1779.05 1096.75 1777.29 1105.91 1771.74 1114.29C1766 1122.71 1758.25 1127.91 1748.49 1129.89C1738.74 1131.88 1729.57 1130.11 1720.99 1124.61C1712.61 1119.06 1707.41 1111.32 1705.38 1101.37L1681.08 982.04C1670.29 944.26 1648.14 922.043 1614.67 915.384C1603.43 913.114 1592.43 913.07 1581.69 915.255C1575.92 916.429 1570.36 918.178 1565.03 920.507C1549 927.285 1536.21 937.759 1526.66 951.92C1520.52 961.453 1516.35 971.516 1514.16 982.114C1513.21 986.653 1513.23 997.939 1514.2 1015.97L1538.5 1135.3C1540.53 1145.25 1538.76 1154.41 1533.21 1162.78C1527.47 1171.2 1519.72 1176.4 1509.97 1178.39C1500.21 1180.37 1491.05 1178.61 1482.46 1173.1C1474.08 1167.56 1468.87 1159.82 1466.85 1149.87L1394.03 792.16ZM1451.08 770.002C1446.12 763.967 1439.79 760.385 1432.1 759.255C1428.48 758.75 1425.07 758.824 1421.89 759.469C1419.1 760.038 1416.61 761.059 1414.43 762.54C1412.6 763.739 1410.9 766.053 1409.31 769.482C1408.56 770.879 1408.26 771.974 1408.43 772.767C1408.63 773.763 1409.73 774.06 1411.71 773.654L1412.31 773.53C1415.89 771.771 1419.18 770.582 1422.16 769.977C1431.71 768.035 1439.75 771.37 1446.27 779.986C1446.75 780.303 1447.19 780.422 1447.58 780.343C1448.58 780.14 1449.53 779.223 1450.45 777.588C1451.87 775.433 1452.46 773.758 1452.22 772.564L1452.16 772.267C1452.04 771.672 1451.68 770.914 1451.08 770.002ZM1671.07 879.373C1658.72 866.56 1642.18 858.632 1621.46 855.595C1608.39 853.489 1595.98 853.628 1584.24 856.016C1578.87 857.111 1573.59 858.702 1568.42 860.788C1564.96 862.111 1563.39 863.572 1563.72 865.163L1563.77 865.46C1564.22 867.645 1566.28 868.576 1569.94 868.245C1605.06 864.628 1637.42 870.37 1667.02 885.477C1669.34 886.666 1671.09 887.137 1672.29 886.894C1672.69 886.815 1673.14 886.513 1673.66 885.992C1673.94 885.318 1674 884.58 1673.83 883.783C1673.59 882.593 1672.67 881.122 1671.07 879.373Z" fill="white"/>
<path d="M1980.62 1082.7C1948.78 1089.17 1917.24 1085.96 1886.01 1073.04C1852.39 1059.58 1829.73 1038.4 1818.04 1009.5L1798.08 934.332L1786.05 873.711L1780.08 874.925C1770.33 876.906 1761.28 875.222 1752.94 869.876C1744.36 864.371 1739.03 856.548 1736.97 846.405C1734.99 836.659 1736.87 827.577 1742.62 819.159C1748.12 810.583 1755.76 805.306 1765.5 803.324L1771.47 802.11L1754.53 718.871C1752.55 709.125 1754.31 699.963 1759.82 691.387C1765.36 683.013 1773.11 677.811 1783.06 675.789C1793.02 673.763 1802.11 675.646 1810.33 681.428C1818.91 686.933 1824.2 694.558 1826.18 704.304L1842.83 787.603L1892.09 777.589C1901.83 775.602 1910.92 777.485 1919.35 783.228C1927.93 788.732 1933.21 796.358 1935.19 806.103C1937.26 816.246 1935.42 825.531 1929.67 833.944C1924.08 842.124 1916.41 847.208 1906.66 849.19L1857.4 859.203L1869.73 919.765C1870.18 921.955 1871.53 929.134 1873.81 941.308C1874.54 945.921 1875.26 950.018 1875.99 953.601C1876.76 957.376 1877.55 960.74 1878.36 963.683C1883.27 980.703 1891.38 992.515 1902.67 999.13C1922.83 1011.6 1943.95 1015.59 1966.05 1011.1C1975.99 1009.07 1985.14 1010.74 1993.49 1016.08C2001.91 1021.83 2007.14 1029.67 2009.16 1039.61C2011.18 1049.56 2009.42 1058.72 2003.87 1067.1C1998.32 1075.48 1990.58 1080.67 1980.62 1082.7ZM1811.87 696.649C1806.91 690.614 1800.59 687.037 1792.9 685.907C1789.27 685.401 1785.87 685.471 1782.68 686.12C1779.9 686.685 1777.41 687.71 1775.22 689.187C1773.4 690.386 1771.55 692.521 1769.69 695.593C1769.21 697.347 1769.06 698.621 1769.22 699.418C1769.43 700.414 1770.53 700.707 1772.51 700.3L1773.11 700.181C1776.69 698.418 1779.97 697.233 1782.96 696.624C1792.51 694.682 1800.55 698.021 1807.07 706.637C1807.54 706.955 1807.99 707.073 1808.38 706.989C1809.38 706.786 1810.33 705.869 1811.24 704.234C1812.67 702.079 1813.26 700.404 1813.02 699.215L1812.96 698.913C1812.84 698.318 1812.47 697.565 1811.87 696.649ZM1920.59 796.957C1915.63 790.922 1909.3 787.34 1901.61 786.215C1897.99 785.71 1894.58 785.779 1891.39 786.428L1877.06 789.342C1875.83 791.452 1875.38 793.305 1875.71 794.896C1875.79 795.292 1875.99 795.773 1876.31 796.328C1877.51 798.156 1879.62 798.865 1882.65 798.458C1885.68 798.047 1888.68 797.542 1891.67 796.932C1901.22 794.99 1909.25 798.33 1915.78 806.946C1916.26 807.263 1916.7 807.382 1917.09 807.298C1918.09 807.094 1919.05 806.178 1919.95 804.543C1921.38 802.387 1921.97 800.713 1921.73 799.524L1921.66 799.221C1921.55 798.627 1921.19 797.874 1920.59 796.957Z" fill="white"/>
<path d="M1555.2 1240.2C1518.39 1245.96 1488.64 1264 1465.95 1294.33C1443.53 1325.19 1435.08 1359.37 1440.59 1396.85C1445.28 1428.8 1459.7 1456.04 1483.85 1478.55C1508.03 1501.26 1536.01 1513.4 1567.78 1514.97C1577.42 1515.51 1586.73 1515.12 1595.71 1513.81C1621.35 1510.07 1644.74 1498.78 1665.87 1479.96C1694.23 1454.44 1709.29 1422.9 1711.03 1385.34C1711.53 1375.74 1711.11 1366.38 1709.77 1357.25C1706.63 1335.94 1698.52 1315.85 1685.42 1296.97C1666.57 1270.18 1641.89 1252.51 1611.39 1243.94C1593.24 1238.82 1574.51 1237.57 1555.2 1240.2ZM1545.7 1171.63C1602.92 1164.25 1653.77 1177.91 1698.26 1212.6C1725.2 1233.35 1745.87 1259.48 1760.25 1291C1768.72 1309.58 1774.39 1328.67 1777.27 1348.26C1779.26 1361.77 1779.84 1375.48 1779.02 1389.4C1777 1430.3 1763.64 1467.52 1738.94 1501.06C1714.45 1534.75 1683.24 1558.45 1645.29 1572.15C1632.43 1576.94 1619.35 1580.31 1606.06 1582.25C1586.6 1585.09 1566.59 1584.91 1546.04 1581.69C1511.87 1576.77 1481.09 1563.77 1453.71 1542.71C1420.64 1518 1397.15 1485.67 1383.25 1445.73C1378.59 1432.23 1375.25 1418.63 1373.24 1404.93C1369.38 1378.68 1370.65 1352.26 1377.07 1325.67C1386.85 1285.57 1407.07 1251.43 1437.72 1223.25C1468.05 1195.5 1503.39 1178.39 1543.73 1171.92L1545.7 1171.63ZM1685.96 1222.56C1674.82 1209.22 1655.36 1198.46 1627.59 1190.28C1605.41 1183.8 1587.31 1181.59 1573.27 1183.63C1570.09 1184.1 1567.12 1184.73 1564.37 1185.52C1561.11 1186.77 1559.58 1188.06 1559.78 1189.4C1560.12 1191.68 1562.08 1192.66 1565.66 1192.32C1601.03 1191.05 1639.86 1202.87 1682.14 1227.79C1684.07 1229.25 1685.6 1229.9 1686.72 1229.74C1687.28 1229.65 1687.71 1229.3 1688 1228.68C1688.32 1228.24 1688.41 1227.55 1688.27 1226.6C1688.1 1225.46 1687.33 1224.11 1685.96 1222.56Z" fill="#FF3A6A"/>
<path d="M1788.29 1274.71C1786.41 1265.47 1788.14 1256.88 1793.47 1248.94C1798.58 1240.83 1805.67 1235.85 1814.75 1234.01C1831.43 1230.62 1843.74 1236.55 1851.67 1251.81C1872.39 1231.32 1897.19 1218.03 1926.07 1211.97C1955.17 1206.05 1983.3 1208.67 2010.47 1219.83C2045.42 1234.11 2071.91 1259.92 2089.94 1297.27C2094.22 1306.01 2097.64 1316.6 2100.16 1329.03L2123.18 1442.09C2125.1 1451.51 2123.49 1460.17 2118.34 1468.09C2113.38 1475.97 2106.17 1480.87 2096.72 1482.78C2087.64 1484.63 2079.19 1482.92 2071.35 1477.64C2063.34 1472.4 2058.37 1465.07 2056.45 1455.65L2033.44 1342.6C2030.22 1326.77 2022.89 1313.05 2011.46 1301.45C1999.8 1289.69 1986.33 1282.32 1971.06 1279.35C1960.39 1277.2 1950.15 1277.12 1940.32 1279.12C1931.05 1281 1922.08 1284.79 1913.39 1290.48C1895.61 1301.75 1884.17 1317.61 1879.07 1338.08C1876.13 1349.27 1875.79 1361.31 1878.03 1374.2L1901.05 1487.25C1902.96 1496.67 1901.35 1505.34 1896.2 1513.25C1891.06 1521.16 1883.85 1526.06 1874.59 1527.95C1865.5 1529.79 1857.05 1528.08 1849.22 1522.8C1841.2 1517.57 1836.24 1510.24 1834.32 1500.81L1788.29 1274.71ZM2026.41 1246.9C2015.23 1234.65 1999.98 1227.06 1980.66 1224.12C1968.29 1222.12 1956.73 1222.21 1945.98 1224.4C1940.79 1225.46 1935.88 1226.95 1931.25 1228.87C1928.03 1230.11 1926.57 1231.48 1926.88 1233L1926.93 1233.28C1927.36 1235.35 1929.27 1236.24 1932.69 1235.93C1965.22 1232.65 1995.4 1238.19 2023.22 1252.55C2025.19 1253.72 2026.74 1254.19 2027.85 1253.96C2028.4 1253.86 2028.83 1253.57 2029.12 1253.12C2029.56 1252.44 2029.73 1251.82 2029.61 1251.25C2029.34 1249.94 2028.27 1248.48 2026.41 1246.9ZM1841.31 1252.16C1836.67 1246.43 1830.76 1243.02 1823.6 1241.92C1820.22 1241.43 1817.04 1241.49 1814.08 1242.09C1811.48 1242.62 1809.17 1243.58 1807.14 1244.98C1805.44 1246.11 1803.86 1248.29 1802.39 1251.53C1801.69 1252.85 1801.43 1253.89 1801.58 1254.64C1801.77 1255.58 1802.79 1255.87 1804.64 1255.49L1805.2 1255.38C1808.53 1253.72 1811.59 1252.61 1814.37 1252.04C1823.26 1250.23 1830.76 1253.42 1836.87 1261.59C1837.32 1261.9 1837.72 1262.01 1838.1 1261.94C1839.02 1261.75 1839.91 1260.88 1840.74 1259.34C1842.07 1257.3 1842.62 1255.72 1842.38 1254.58L1842.33 1254.3C1842.22 1253.74 1841.88 1253.02 1841.31 1252.16Z" fill="#FF3A6A"/>
<path d="M2207.17 1310.98C2209.03 1320.13 2207.6 1328.63 2202.87 1336.45C2198.06 1343.91 2191.32 1348.52 2182.65 1350.29C2174.15 1352.02 2166.23 1350.39 2158.89 1345.39C2151.48 1340.04 2146.84 1332.78 2144.98 1323.62L2100.36 1104.43C2098.53 1095.46 2100 1087.15 2104.76 1079.51C2109.49 1071.68 2116.11 1066.9 2124.62 1065.17C2133.28 1063.41 2141.33 1065.21 2148.74 1070.56C2156.12 1075.74 2160.72 1082.82 2162.54 1091.79L2207.17 1310.98ZM2205.07 1460.43C2196.58 1462.16 2188.64 1460.44 2181.26 1455.26C2173.85 1449.91 2169.23 1442.74 2167.4 1433.77C2165.57 1424.8 2167.05 1416.49 2171.81 1408.84C2176.54 1401.01 2183.15 1396.24 2191.65 1394.52C2200.33 1392.75 2208.37 1394.54 2215.78 1399.9C2223.16 1405.08 2227.76 1412.15 2229.59 1421.13C2231.42 1430.1 2229.96 1438.5 2225.24 1446.33C2220.47 1453.97 2213.75 1458.67 2205.07 1460.43ZM2150.12 1084.02C2145.73 1078.42 2140.15 1074.98 2133.39 1073.69C2130.21 1073.19 2127.33 1073.21 2124.72 1073.73C2122.12 1074.26 2119.88 1075.2 2117.98 1076.53C2116.74 1077.55 2116.18 1078.33 2116.29 1078.88L2116.46 1079.71C2116.64 1080.62 2117.43 1080.93 2118.82 1080.65C2129.58 1078.47 2139.57 1080.53 2148.81 1086.86C2149.61 1087.27 2150.19 1087.44 2150.54 1087.37C2150.71 1087.33 2150.87 1087.2 2151 1086.98C2151.31 1086.73 2151.44 1086.51 2151.41 1086.33C2151.26 1085.6 2150.83 1084.82 2150.12 1084.02ZM2219.58 1410.57C2215.19 1404.98 2209.63 1401.63 2202.9 1400.52C2199.73 1400.02 2196.76 1400.05 2193.98 1400.62C2191.56 1401.11 2189.39 1402.03 2187.5 1403.37C2185.91 1404.45 2184.44 1406.56 2183.1 1409.7C2182.45 1410.97 2182.2 1411.97 2182.35 1412.71C2182.54 1413.62 2183.5 1413.91 2185.23 1413.55L2185.75 1413.45C2188.87 1411.86 2191.72 1410.81 2194.32 1410.27C2202.65 1408.58 2209.7 1411.72 2215.48 1419.7C2215.9 1420 2216.28 1420.11 2216.63 1420.04C2217.5 1419.86 2218.32 1419.03 2219.1 1417.53C2220.33 1415.57 2220.83 1414.04 2220.61 1412.94L2220.55 1412.66C2220.44 1412.11 2220.12 1411.42 2219.58 1410.57Z" fill="#FF3A6A"/>
<path d="M982.582 818.683L1021.04 757.457C1023.87 752.815 1027.93 749.892 1033.22 748.693C1038.4 747.518 1043.27 748.41 1047.83 751.373C1052.37 754.232 1055.24 758.25 1056.41 763.428C1057.64 768.819 1056.82 773.778 1053.96 778.317L1015.47 839.389L1076.58 877.847C1081.15 880.815 1084.03 884.937 1085.23 890.219C1086.41 895.397 1085.58 900.307 1082.74 904.95C1079.88 909.488 1075.86 912.347 1070.68 913.521C1065.39 914.72 1060.48 913.893 1055.94 911.034L994.759 872.253L956.022 933.712C953.161 938.25 949.14 941.109 943.964 942.283C938.674 943.483 933.761 942.655 929.219 939.796C924.658 936.833 921.787 932.76 920.607 927.583C919.407 922.301 920.225 917.336 923.061 912.694L961.55 851.627L900.438 813.163C895.897 810.304 893.016 806.182 891.792 800.791C890.617 795.614 891.454 790.758 894.315 786.22C897.151 781.577 901.212 778.654 906.502 777.455C911.683 776.28 916.552 777.172 921.118 780.135L982.582 818.683ZM1050.04 758.874C1047.32 755.713 1043.9 753.88 1039.78 753.37C1037.84 753.142 1036.02 753.221 1034.33 753.608C1032.86 753.94 1031.54 754.519 1030.39 755.332C1029.43 755.996 1028.47 757.16 1027.52 758.82C1027.28 759.761 1027.21 760.445 1027.31 760.866C1027.43 761.396 1028.02 761.54 1029.08 761.297L1029.39 761.228C1031.28 760.242 1033.02 759.568 1034.61 759.211C1039.68 758.057 1044.01 759.742 1047.6 764.26C1047.85 764.424 1048.09 764.483 1048.3 764.434C1048.83 764.315 1049.33 763.814 1049.8 762.927C1050.53 761.763 1050.83 760.861 1050.68 760.227L1050.64 760.069C1050.58 759.751 1050.37 759.355 1050.04 758.874ZM896.298 794.935C896.204 795.515 896.199 795.961 896.269 796.278L896.303 796.436C896.447 797.07 897.106 797.754 898.272 798.487C899.075 799.082 899.739 799.32 900.27 799.201C900.483 799.151 900.666 798.998 900.83 798.74C902.109 793.117 905.287 789.728 910.364 788.578C911.951 788.216 913.805 788.073 915.937 788.147L916.254 788.073C917.31 787.835 917.776 787.448 917.657 786.923C917.563 786.497 917.206 785.912 916.591 785.164C915.01 784.079 913.641 783.445 912.491 783.262C911.103 783.019 909.665 783.068 908.188 783.405C906.497 783.787 904.821 784.5 903.17 785.546C899.675 787.78 897.384 790.912 896.298 794.935Z" fill="#FF3A6A"/>
<path d="M2246.71 1053.68C2255.72 1051.93 2264.21 1052.46 2272.17 1055.27C2280.11 1057.92 2286.8 1062.5 2292.26 1069.02C2297.69 1075.39 2301.28 1083.07 2303.03 1092.09C2304.78 1101.1 2304.35 1109.65 2301.73 1117.74C2299.11 1125.83 2294.63 1132.66 2288.29 1138.25C2281.93 1143.68 2274.24 1147.27 2265.23 1149.02C2256.06 1150.8 2247.51 1150.36 2239.58 1147.71C2231.61 1144.9 2224.9 1140.24 2219.44 1133.72C2213.98 1127.2 2210.38 1119.44 2208.63 1110.43C2206.88 1101.41 2207.33 1092.94 2209.98 1085.01C2212.6 1076.92 2217.09 1070.16 2223.46 1064.73C2229.79 1059.15 2237.54 1055.46 2246.71 1053.68ZM2263.42 1139.69C2274.61 1137.52 2282.93 1132.2 2288.37 1123.72C2293.98 1115.21 2295.68 1105.29 2293.48 1093.94C2291.27 1082.6 2285.98 1074.03 2277.6 1068.24C2269.37 1062.42 2259.66 1060.6 2248.48 1062.77C2237.13 1064.98 2228.74 1070.32 2223.29 1078.79C2217.99 1087.24 2216.45 1097.13 2218.65 1108.48C2220.86 1119.82 2225.99 1128.42 2234.06 1134.27C2242.29 1140.09 2252.07 1141.9 2263.42 1139.69ZM2275.02 1087.37C2275.75 1091.1 2275.36 1094.48 2273.85 1097.51C2272.47 1100.36 2270.17 1102.66 2266.97 1104.41L2283.78 1121.23L2269.14 1124.31L2254.33 1107.84L2250.36 1108.61L2253.99 1127.25L2241.87 1129.61L2232.13 1079.49L2254.51 1075.15C2259.79 1074.12 2264.26 1074.7 2267.91 1076.9C2271.72 1079.06 2274.09 1082.55 2275.02 1087.37ZM2248.42 1098.58L2257.97 1096.73C2259.68 1096.4 2260.99 1095.66 2261.9 1094.51C2262.96 1093.34 2263.33 1091.9 2262.99 1090.19C2262.66 1088.48 2261.8 1087.36 2260.4 1086.82C2259.14 1086.1 2257.65 1085.91 2255.94 1086.24L2246.38 1088.09L2248.42 1098.58Z" fill="white"/>
<path d="M330.109 1448.91L324.925 1427.86L209.547 1456.15L214.731 1477.19L330.109 1448.91Z" fill="white"/>
<path d="M228.538 1527.4L235.086 1547.18L275.86 1533.74C292.943 1528.11 304.734 1534.57 308.567 1546.15C311.815 1555.95 306.371 1564.34 292.188 1569.02L247.224 1583.84L253.772 1603.61L298.898 1588.74C322.428 1580.99 333.846 1566.35 327.138 1546.09C323.305 1534.51 315.276 1526.46 302.935 1524.82L316.634 1520.3L310.086 1500.53L228.538 1527.4Z" fill="white"/>
<path d="M283.794 1622.82C270.619 1633.82 271.562 1650.56 277.067 1663.31C284.116 1679.64 298.777 1690.49 314.366 1683.79C321.225 1680.85 329.948 1673.23 328.31 1654.02L327.484 1640.55C327.163 1635.52 327.667 1630.7 332.032 1628.82C337.488 1626.48 342.577 1630.56 344.725 1635.54C346.538 1639.74 347.307 1646.23 341.788 1651L354.046 1663.98C366.016 1652.76 364.075 1638.84 359.779 1628.89C352.73 1612.56 338.163 1604.07 323.509 1610.36C316.338 1613.44 309.198 1621.3 310.054 1639.56L310.657 1652.94C310.711 1658.63 309.984 1663.37 305.931 1665.11C299.696 1667.79 294.984 1662.44 292.567 1656.84C289.479 1649.69 289.775 1640.53 296.697 1635.16L283.794 1622.82Z" fill="white"/>
<path d="M285.418 1765.77L330.783 1741.25C325.443 1752.03 326.359 1763.67 331.858 1773.79C344.391 1796.87 369.75 1801.26 391.09 1789.73C413.176 1777.79 422.86 1753.68 410.731 1731.35C404.747 1720.33 394.878 1713.53 383.759 1712.61L395.101 1706.48L385.155 1688.17L275.472 1747.46L285.418 1765.77ZM381.212 1771.19C368.23 1778.2 353.05 1776.2 345.53 1762.36C338.172 1748.81 343.076 1734.03 357.7 1726.12C372.623 1718.05 386.547 1723.43 393.339 1735.93C400.778 1749.63 394.643 1763.93 381.212 1771.19Z" fill="white"/>
<path d="M382.364 1852.77L454.451 1806.19L443.103 1788.71L371.016 1835.29L382.364 1852.77ZM462.812 1772.35C456.544 1776.4 454.979 1784.27 459.223 1790.81C463.467 1797.34 471.49 1799.42 477.758 1795.37C484.026 1791.32 485.549 1783.08 481.305 1776.54C477.061 1770 469.08 1768.3 462.812 1772.35Z" fill="white"/>
<path d="M491.85 1858.99L479.608 1842.54L410.65 1893.61L423.094 1910.33L454.984 1886.71C474.063 1872.58 485.058 1880.26 489.611 1886.37C491.229 1888.55 493.147 1891.98 494.116 1895.27L510.606 1883.06C509.633 1880.61 509.03 1878.95 507.31 1876.64C501.847 1869.3 490.026 1863.92 476.586 1870.29L491.85 1858.99Z" fill="white"/>
<path d="M478.407 1979L543.954 1923.64L530.465 1907.75L464.917 1963.11L478.407 1979ZM547.922 1889.01C542.223 1893.82 541.676 1901.83 546.721 1907.77C551.766 1913.72 559.989 1914.76 565.688 1909.95C571.388 1905.13 571.845 1896.76 566.8 1890.82C561.755 1884.87 553.622 1884.2 547.922 1889.01Z" fill="white"/>
<path d="M511.859 2016.5L526.515 2031.33L557.095 2001.25C569.908 1988.65 583.346 1989.23 591.925 1997.91C599.193 2005.26 598.042 2015.19 587.405 2025.66L553.683 2058.82L568.339 2073.65L602.183 2040.37C619.83 2023.01 623.56 2004.84 608.547 1989.65C599.968 1980.96 589.192 1977.3 577.402 1981.28L587.676 1971.18L573.02 1956.35L511.859 2016.5Z" fill="white"/>
<path d="M635.913 2075.23C645.375 2063.92 660.22 2060.18 672.339 2070.27C684.197 2080.15 685.119 2095.69 674.461 2108.43C663.586 2121.43 648.656 2121.57 637.71 2112.46C625.722 2102.48 626.125 2086.93 635.913 2075.23ZM579.854 2121.63C581.91 2132.38 587.53 2143.9 601.864 2155.83C622.713 2173.19 646.269 2173.84 668.999 2146.67L718.048 2088.04L702.021 2074.7L693.864 2084.45C694.829 2072.46 689.665 2061.98 680.804 2054.6C660.607 2037.79 635.416 2043.06 619.864 2061.65C603.768 2080.89 603.705 2106.86 623.251 2123.13C632.503 2130.84 644.822 2133.82 655.147 2130.72L648.73 2138.39C636.876 2152.56 622.883 2149.74 611.546 2140.3C603.597 2133.68 598.085 2123.35 596.68 2114.46C591.115 2116.89 585.549 2119.31 579.854 2121.63Z" fill="white"/>
<path d="M769.028 2225.09L834.271 2121.4L816.59 2110.33L751.346 2214.01L769.028 2225.09Z" fill="white"/>
<path d="M886.87 2260.24C877.327 2262.69 868.45 2262.42 858.989 2257.45C842.621 2248.85 837.844 2234.28 844.172 2222.3L907.243 2255.44C922.668 2226.23 910.099 2203.17 889.526 2192.35C865.499 2179.73 838.595 2188.17 826.888 2210.34C815.497 2231.92 822.531 2258.2 849.862 2272.56C861.575 2278.72 875.7 2282.12 891.923 2276.1L886.87 2260.24ZM881.774 2207.04C889.582 2211.14 898.204 2219.88 894.887 2233.07L851.639 2210.34C861.713 2200.7 873.665 2202.77 881.774 2207.04Z" fill="white"/>
<path d="M1011.19 2248.72L1006.37 2260.47C1003.65 2248.76 995.551 2240.33 984.867 2235.98C960.512 2226.05 938.105 2238.69 928.927 2261.1C919.428 2284.3 927.254 2309.08 950.822 2318.68C962.45 2323.42 974.403 2322.44 983.589 2316.12L978.711 2328.03L998.038 2335.91L1030.51 2256.59L1011.19 2248.72ZM948.347 2269.2C953.93 2255.56 966.943 2247.51 981.556 2253.47C995.854 2259.3 1001.45 2273.83 995.164 2289.19C988.746 2304.87 974.56 2309.51 961.361 2304.14C946.906 2298.24 942.57 2283.31 948.347 2269.2Z" fill="white"/>
<path d="M1077.91 2271L1058.3 2264.9L1032.71 2346.69L1052.64 2352.89L1064.47 2315.07C1071.55 2292.44 1084.97 2292.18 1092.26 2294.45C1094.85 2295.26 1098.43 2296.91 1101.15 2299L1107.27 2279.44C1105.04 2278.03 1103.58 2277.05 1100.82 2276.19C1092.07 2273.46 1079.35 2276.06 1072.24 2289.11L1077.91 2271Z" fill="white"/>
<path d="M1118.03 2371.45L1138.4 2375.99L1147.76 2334.18C1151.69 2316.66 1163.29 2309.88 1175.22 2312.53C1185.32 2314.78 1189.75 2323.75 1186.49 2338.29L1176.17 2384.4L1196.55 2388.94L1206.91 2342.67C1212.31 2318.54 1205.57 2301.25 1184.7 2296.6C1172.77 2293.94 1161.72 2296.69 1153.98 2306.41L1157.12 2292.37L1136.75 2287.83L1118.03 2371.45Z" fill="white"/>
<path d="M1253.67 2397L1266 2312.21L1245.33 2309.22L1233.01 2394.01L1253.67 2397ZM1245.96 2283.64C1244.89 2291.02 1249.8 2297.37 1257.53 2298.49C1265.25 2299.61 1272.1 2294.95 1273.18 2287.58C1274.25 2280.21 1269.03 2273.63 1261.3 2272.52C1253.57 2271.4 1247.04 2276.27 1245.96 2283.64Z" fill="white"/>
<path d="M1303.63 2402.97L1324.46 2404.39L1327.38 2361.65C1328.61 2343.74 1339.06 2335.29 1351.25 2336.12C1361.58 2336.82 1367.31 2345.02 1366.29 2359.89L1363.06 2407.02L1383.89 2408.44L1387.13 2361.14C1388.82 2336.47 1379.55 2320.4 1358.21 2318.94C1346.02 2318.11 1335.51 2322.49 1329.33 2333.27L1330.31 2318.91L1309.48 2317.49L1303.63 2402.97Z" fill="white"/>
<path d="M1435.55 2364.95C1435.13 2350.22 1443.76 2337.61 1459.54 2337.16C1474.98 2336.71 1485.99 2347.75 1486.47 2364.33C1486.96 2381.26 1475.87 2391.23 1461.62 2391.64C1446.01 2392.09 1435.99 2380.18 1435.55 2364.95ZM1424.38 2436.76C1433.07 2443.45 1444.92 2448.36 1463.59 2447.83C1490.73 2447.04 1508.8 2431.96 1507.78 2396.58L1505.58 2320.25L1484.71 2320.85L1485.07 2333.54C1477.83 2323.93 1467.01 2319.49 1455.47 2319.83C1429.18 2320.58 1413.81 2341.18 1414.51 2365.39C1415.23 2390.44 1432.44 2409.93 1457.89 2409.2C1469.93 2408.85 1481.14 2402.94 1486.82 2393.8L1487.1 2403.78C1487.64 2422.23 1475.28 2429.36 1460.52 2429.79C1450.17 2430.09 1439.18 2426 1432.23 2420.27C1429.67 2425.76 1427.11 2431.26 1424.38 2436.76Z" fill="white"/>
<path d="M1697.51 2333.55C1693.05 2309.74 1673.65 2292.87 1647.79 2297.7C1636.44 2299.81 1626.81 2306.44 1621.78 2317.37L1612.66 2268.77L1592.14 2272.6L1614.72 2392.93L1635.24 2389.1L1632.87 2376.45C1640.59 2384.49 1652.1 2387.85 1664.45 2385.54C1689.47 2380.87 1702.13 2358.18 1697.51 2333.55ZM1676.86 2337.57C1679.67 2352.55 1672.41 2366.31 1657.06 2369.18C1643.04 2371.8 1630.25 2364.37 1627.13 2347.72C1624.07 2331.41 1632.32 2318.33 1647.5 2315.49C1663.02 2312.6 1674.14 2323.09 1676.86 2337.57Z" fill="white"/>
<path d="M1764.21 2331.17L1725.43 2281.15L1702.76 2287.64L1760.14 2355.06L1755.47 2402.03L1775.21 2396.37L1791.99 2262.07L1769.48 2268.52L1764.21 2331.17Z" fill="white"/>
<path d="M1961.35 2255.21C1957.47 2264.25 1951.84 2271.1 1942.11 2275.53C1925.29 2283.21 1910.81 2278.08 1905.16 2265.77L1969.99 2236.19C1956.23 2206.16 1930.25 2202 1909.1 2211.65C1884.4 2222.92 1874.67 2249.32 1885.12 2272.12C1895.28 2294.29 1920.43 2304.79 1948.53 2291.97C1960.57 2286.48 1971.9 2277.4 1977.03 2260.91L1961.35 2255.21ZM1916.02 2226.74C1924.04 2223.08 1936.25 2221.61 1944.68 2232.28L1900.23 2252.56C1898.74 2238.72 1907.68 2230.54 1916.02 2226.74Z" fill="white"/>
<path d="M2063.44 2228.36L2081.17 2217.69L2058.48 2180.13C2049.19 2163.77 2053.41 2152.73 2061.56 2147.84C2070.13 2142.68 2079.25 2146.29 2086.96 2159.05L2111.41 2199.51L2129.29 2188.76L2104.75 2148.15C2091.96 2126.98 2075.7 2118.77 2056.66 2130.22C2048.66 2135.03 2039.57 2143.26 2040.85 2158.51C2029.92 2151.24 2018.72 2153.03 2009.56 2158.54C2000.11 2164.22 1994.81 2174.14 1996.31 2185.49L1988.87 2173.16L1970.99 2183.91L2015.32 2257.29L2033.2 2246.54L2010.51 2208.98C2001.22 2192.62 2005.45 2181.58 2013.59 2176.68C2022.16 2171.52 2031.28 2175.14 2038.99 2187.9L2063.44 2228.36Z" fill="white"/>
<path d="M2199.87 2078.59C2185.02 2059.44 2160.04 2053.24 2139.23 2069.3C2130.1 2076.35 2124.55 2086.63 2125.07 2098.64L2094.75 2059.54L2078.23 2072.28L2153.32 2169.11L2169.83 2156.36L2161.94 2146.19C2172.49 2149.82 2184.27 2147.58 2194.2 2139.91C2214.34 2124.37 2215.24 2098.41 2199.87 2078.59ZM2183.32 2091.57C2192.67 2103.63 2192.5 2119.18 2180.15 2128.71C2168.87 2137.41 2154.09 2136.62 2143.7 2123.22C2133.53 2110.1 2134.89 2094.7 2147.11 2085.27C2159.59 2075.64 2174.29 2079.92 2183.32 2091.57Z" fill="white"/>
<path d="M2205.74 2014.59L2190.62 2028.46L2248.77 2091.52L2264.13 2077.42L2237.24 2048.26C2221.16 2030.81 2227.65 2019.1 2233.27 2013.94C2235.27 2012.11 2238.49 2009.84 2241.67 2008.54L2227.77 1993.46C2225.43 1994.68 2223.84 1995.45 2221.71 1997.4C2214.97 2003.59 2210.85 2015.88 2218.61 2028.55L2205.74 2014.59Z" fill="white"/>
<path d="M2294.3 1923.9L2303.68 1932.48C2291.72 1930.96 2280.99 1935.62 2273.2 1944.11C2255.42 1963.45 2259.53 1988.8 2277.42 2005.16C2295.94 2022.1 2321.94 2023.37 2339.14 2004.64C2347.63 1995.41 2350.85 1983.88 2348.1 1973.09L2357.61 1981.79L2371.72 1966.44L2308.4 1908.54L2294.3 1923.9ZM2291.77 1989.8C2280.88 1979.85 2277.83 1964.88 2288.49 1953.27C2298.93 1941.91 2314.54 1941.71 2326.8 1952.93C2339.31 1964.37 2338.76 1979.25 2329.12 1989.74C2318.57 2001.22 2303.03 2000.1 2291.77 1989.8Z" fill="white"/>
<path d="M2356.8 1916.68C2376.67 1931.73 2403.27 1928.71 2421.33 1904.98C2426.36 1898.37 2431.86 1888.08 2432.03 1871.62L2414.42 1870.39C2414.76 1881.71 2409.03 1890.34 2407.08 1892.9C2397.02 1906.12 2381.29 1908.87 2369.12 1899.65C2356.82 1890.33 2355.39 1874.57 2365.45 1861.36C2367.4 1858.8 2374.07 1850.88 2385.22 1848.27L2379.18 1831.57C2363.47 1836.25 2355 1844.29 2349.97 1850.9C2331.59 1875.04 2336.52 1901.31 2356.8 1916.68Z" fill="white"/>
<path d="M2467.41 1834.66L2395.51 1787.81L2384.09 1805.25L2456 1852.1L2467.41 1834.66ZM2361.11 1793.91C2367.36 1797.98 2375.2 1796.22 2379.47 1789.7C2383.74 1783.18 2382.4 1775.02 2376.14 1770.94C2369.89 1766.87 2361.72 1768.82 2357.45 1775.35C2353.18 1781.87 2354.85 1789.84 2361.11 1793.91Z" fill="white"/>
<path d="M2493.88 1791.97L2503.94 1773.72L2466.31 1753.08C2450.55 1744.43 2447.26 1731.42 2453.15 1720.73C2458.14 1711.68 2468.01 1709.95 2481.09 1717.13L2522.59 1739.89L2532.65 1721.65L2491.01 1698.8C2469.29 1686.88 2450.77 1688.51 2440.46 1707.2C2434.57 1717.88 2434.13 1729.23 2441.33 1739.37L2428.69 1732.43L2418.62 1750.68L2493.88 1791.97Z" fill="white"/>
<path d="M2514.86 1656.59C2501.29 1650.78 2493.46 1637.65 2499.69 1623.18C2505.79 1609.02 2520.46 1603.7 2535.74 1610.25C2551.33 1616.94 2555.73 1631.17 2550.1 1644.24C2543.94 1658.55 2528.89 1662.61 2514.86 1656.59ZM2575.44 1696.93C2585.18 1691.89 2594.64 1683.23 2602.01 1666.12C2612.73 1641.23 2606.62 1618.52 2574.03 1604.55L2503.7 1574.4L2495.46 1593.54L2507.15 1598.55C2495.36 1601.06 2486.78 1608.98 2482.22 1619.56C2471.83 1643.68 2484.09 1666.26 2506.39 1675.81C2529.47 1685.71 2554.44 1678.35 2564.49 1655.01C2569.25 1643.97 2568.59 1631.34 2562.67 1622.35L2571.87 1626.29C2588.87 1633.58 2590.15 1647.76 2584.32 1661.3C2580.23 1670.79 2571.89 1679.01 2563.75 1682.89C2567.67 1687.52 2571.59 1692.15 2575.44 1696.93Z" fill="white"/>
<path d="M2629.63 1450.99L2634.41 1430.89L2591.64 1420.76C2573.43 1415.93 2568.48 1405.18 2570.68 1395.96C2572.99 1386.24 2581.96 1382.27 2596.49 1385.71L2642.57 1396.62L2647.39 1376.35L2601.15 1365.41C2577.04 1359.7 2559.77 1365.53 2554.64 1387.11C2552.48 1396.18 2552.01 1408.42 2563.82 1418.18C2550.97 1420.88 2544.41 1430.11 2541.94 1440.49C2539.39 1451.2 2542.78 1461.92 2551.96 1468.8L2537.92 1465.47L2533.1 1485.74L2616.66 1505.52L2621.48 1485.25L2578.71 1475.13C2560.5 1470.29 2555.55 1459.55 2557.75 1450.33C2560.06 1440.61 2569.03 1436.64 2583.56 1440.08L2629.63 1450.99Z" fill="white"/>
<path d="M2652.53 1325.26L2567.47 1313.44L2564.59 1334.07L2649.65 1345.88L2652.53 1325.26ZM2538.95 1333.59C2546.35 1334.62 2552.69 1329.68 2553.77 1321.97C2554.85 1314.25 2550.14 1307.45 2542.74 1306.42C2535.35 1305.39 2528.79 1310.64 2527.71 1318.35C2526.64 1326.06 2531.56 1332.56 2538.95 1333.59Z" fill="white"/>
<path d="M2637.18 1281.72C2653.95 1277.96 2660.81 1262.65 2661.77 1248.8C2663.01 1231.07 2654.97 1214.72 2638.04 1213.54C2630.59 1213.02 2619.34 1215.8 2611.96 1233.62L2606.51 1245.97C2604.48 1250.58 2601.82 1254.64 2597.08 1254.31C2591.15 1253.9 2588.5 1247.94 2588.88 1242.54C2589.2 1237.98 2591.5 1231.86 2598.6 1230.15L2593.67 1213C2577.87 1217.5 2573.2 1230.75 2572.45 1241.56C2571.21 1259.3 2580.25 1273.51 2596.17 1274.62C2603.95 1275.16 2613.91 1271.44 2621.54 1254.83L2627.15 1242.66C2629.72 1237.57 2632.55 1233.7 2636.95 1234C2643.72 1234.48 2645.45 1241.38 2645.02 1247.47C2644.48 1255.24 2640.01 1263.24 2631.39 1264.85L2637.18 1281.72Z" fill="white"/>
<path d="M2553.69 1151.26L2553.82 1167.35L2576.77 1170.88L2576.89 1185.27L2592.84 1185.14L2592.73 1171.76L2634.82 1171.41C2658.41 1171.21 2664.4 1157.1 2664.28 1142.88C2664.13 1124.43 2652.85 1115.88 2640.29 1115.99C2638.77 1116 2633.85 1116.38 2630.63 1117.93L2630.78 1135.03C2632.64 1134.17 2636.03 1133.81 2637.9 1133.79C2643.16 1133.75 2646.75 1137.1 2646.79 1142.18C2646.85 1148.28 2642.79 1150.51 2637.53 1150.56L2592.55 1150.94L2592.34 1125.37L2576.38 1125.5L2576.6 1151.07L2553.69 1151.26Z" fill="white"/>
<path d="M2568.26 1024.42L2580.93 1023.2C2571.8 1031.05 2568.09 1042.12 2569.2 1053.59C2571.72 1079.71 2593.36 1093.62 2617.52 1091.3C2642.52 1088.9 2660.86 1070.46 2658.42 1045.18C2657.22 1032.71 2650.79 1022.61 2640.91 1017.44L2653.75 1016.2L2651.75 995.471L2566.26 1003.69L2568.26 1024.42ZM2615.67 1070.38C2600.97 1071.8 2587.77 1064.05 2586.26 1048.37C2584.78 1033.04 2595.07 1021.33 2611.63 1019.74C2628.53 1018.12 2639.25 1028.48 2640.61 1042.64C2642.11 1058.15 2630.87 1068.92 2615.67 1070.38Z" fill="white"/>
<path d="M2591.89 948.622L2520.89 962.295L2524.85 982.745L2645.34 959.54L2641.38 939.09L2600.55 946.953L2624.6 924.732C2631.81 917.308 2637.43 908.811 2634.95 896.009C2634.14 891.853 2631.91 882.971 2623.72 877.304L2610.97 887.348C2614.12 890.191 2615.55 894.916 2615.9 896.745C2617.09 902.897 2614.61 906.135 2609.11 911.677L2591.89 928.1L2550.07 905.803L2547.57 906.285L2551.94 928.895L2591.89 948.622Z" fill="white"/>
<path d="M2576.74 790.051C2585.13 795.198 2591.11 801.752 2594.09 811.995C2599.26 829.718 2592.07 843.265 2579.03 847.048L2559.13 778.76C2527.35 787.98 2519.44 813.021 2525.94 835.296C2533.52 861.31 2558.3 874.754 2582.42 867.755C2605.89 860.946 2619.95 837.645 2611.33 808.053C2607.63 795.371 2600.27 782.869 2584.66 775.407L2576.74 790.051ZM2541.91 830.662C2539.44 822.207 2539.76 809.948 2551.57 803.171L2565.22 849.997C2551.28 849.458 2544.47 839.442 2541.91 830.662Z" fill="white"/>
<path d="M2569.89 752.858C2583.46 742.333 2583.12 725.569 2578.08 712.627C2571.63 696.055 2557.37 684.688 2541.54 690.821C2534.58 693.519 2525.59 700.82 2526.53 720.073L2526.87 733.566C2527.01 738.599 2526.33 743.403 2521.9 745.12C2516.37 747.266 2511.43 743.004 2509.46 737.953C2507.8 733.692 2507.27 727.178 2512.96 722.612L2501.18 709.194C2488.81 719.983 2490.24 733.959 2494.18 744.06C2500.63 760.632 2514.88 769.64 2529.76 763.876C2537.03 761.055 2544.45 753.456 2544.26 735.184L2544.14 721.788C2544.29 716.098 2545.19 711.39 2549.3 709.796C2555.63 707.343 2560.14 712.859 2562.36 718.541C2565.18 725.801 2564.56 734.945 2557.45 740.063L2569.89 752.858Z" fill="white"/>
<defs>
<filter id="filter0_d_502_8837" x="246.973" y="0.612289" width="2320.03" height="2320.03" filterUnits="userSpaceOnUse" color-interpolation-filters="sRGB">
<feFlood flood-opacity="0" result="BackgroundImageFix"/>
<feColorMatrix in="SourceAlpha" type="matrix" values="0 0 0 0 0 0 0 0 0 0 0 0 0 0 0 0 0 0 127 0" result="hardAlpha"/>
<feOffset dy="29.9358"/>
<feGaussianBlur stdDeviation="41.1618"/>
<feComposite in2="hardAlpha" operator="out"/>
<feColorMatrix type="matrix" values="0 0 0 0 0 0 0 0 0 0 0 0 0 0 0 0 0 0 0.25 0"/>
<feBlend mode="normal" in2="BackgroundImageFix" result="effect1_dropShadow_502_8837"/>
<feBlend mode="normal" in="SourceGraphic" in2="effect1_dropShadow_502_8837" result="shape"/>
</filter>
</defs>
</svg>
