<svg width="2797" height="1472" viewBox="0 0 2797 1472" fill="none" xmlns="http://www.w3.org/2000/svg">
<path d="M185.015 969.317L233.972 1209.84C237.242 1225.87 234.396 1240.64 225.451 1254.15C216.505 1267.66 204.17 1276.01 188.445 1279.21C172.4 1282.47 157.619 1279.63 144.1 1270.69C130.582 1261.75 122.196 1249.26 118.934 1233.23L1.51336 656.455C-1.49251 640.03 1.37746 625.418 10.1392 612.619C19.1488 599.429 31.612 590.889 47.5287 586.982L408.065 513.682C485.538 500.268 548.03 519.961 595.54 572.753C620.162 600.14 636.135 631.793 643.442 667.712C646.184 681.182 647.679 695.075 647.919 709.383C649.062 764.26 632.833 810.142 599.241 847.027C572.876 875.093 538.093 894.69 494.907 905.811L661.421 1093.38C668.128 1101.7 672.493 1110.83 674.516 1120.77C675.499 1125.58 676.027 1130.66 676.107 1135.98C675.076 1152.22 668.28 1165.62 655.721 1176.19C647.847 1183.47 639.093 1188.09 629.468 1190.05C624.336 1191.09 618.875 1191.37 613.095 1190.87C596.907 1190.15 583.556 1183.68 573.052 1171.46L362.154 933.302L185.015 969.317ZM161.512 853.866L464.769 792.206C503.213 784.057 524.878 762.455 529.771 727.391C531.21 716.414 530.858 705.636 528.699 695.051C526.157 682.54 521.009 670.396 513.262 658.612C497.769 635.044 477.536 624.299 452.561 626.368L431.568 629.133L128.311 690.792L161.512 853.866ZM560.589 578.354C522.44 538.688 473.035 525.019 412.382 537.354C405.003 538.856 397.528 540.709 389.958 542.914C384.378 545.047 381.876 547.564 382.467 550.448C383.251 554.299 386.688 555.601 392.788 554.363C441.633 546.437 495.427 557.87 554.169 588.676C557.831 590.274 560.629 590.873 562.555 590.481C563.195 590.353 563.898 589.706 564.666 588.548C565.177 587.773 565.305 586.75 565.042 585.464C564.65 583.539 563.163 581.174 560.589 578.354Z" fill="white"/>
<path d="M852.322 884.752C855.52 900.467 852.65 915.079 843.705 928.581C834.823 942.41 822.36 950.958 806.315 954.218C790.59 957.413 775.937 954.385 762.354 945.126C748.836 936.178 740.474 923.851 737.276 908.137L658.836 522.822C655.638 507.107 658.516 492.495 667.462 478.986C676.343 465.157 688.646 456.648 704.371 453.453C720.416 450.185 735.229 453.189 748.812 462.448C762.33 471.388 770.684 483.715 773.882 499.43L852.322 884.752ZM751.498 487.95C743.496 478.227 733.303 472.451 720.896 470.629C715.052 469.814 709.56 469.926 704.427 470.973C699.934 471.884 695.921 473.537 692.404 475.918C689.454 477.859 688.079 479.305 688.271 480.264C686.752 485.92 686.216 489.867 686.672 492.112C686.936 493.398 687.711 493.909 688.99 493.646C694.762 490.802 700.054 488.892 704.867 487.918C720.272 484.786 733.231 490.163 743.743 504.056C745.286 505.078 746.382 505.526 747.021 505.39C750.786 497.616 752.801 493.534 753.057 493.151C753.313 492.759 753.369 492.248 753.241 491.609C753.049 490.642 752.465 489.428 751.498 487.95Z" fill="white"/>
<path d="M985.078 858.25C977.164 853.848 969.113 848.807 960.943 843.119C905.327 804.667 870.695 751.931 857.049 684.903L856.361 681.531C842.971 612.458 855.218 549.511 893.119 492.717C921.427 449.56 959.792 418.043 1008.21 398.182C1024.31 391.902 1040.55 387.101 1056.91 383.769C1089.32 377.178 1122.37 376.979 1156.04 383.154C1205.85 393.069 1249.18 416.317 1286.04 452.907C1322.25 489.633 1345.58 532.814 1356.02 582.458C1365.94 631.2 1361.55 679.35 1342.82 726.909C1324.09 774.469 1294.59 812.529 1254.28 841.098C1225 861.406 1192.61 875.507 1157.12 883.392C1122.54 895.767 1099.08 908.55 1086.73 921.748C1066.95 941.129 1054.37 964.729 1049.01 992.539C1045.98 1010.51 1046.23 1028.17 1049.76 1045.48C1051.58 1054.46 1054.22 1063.28 1057.65 1071.93C1070.02 1101.48 1090.93 1123.78 1120.39 1138.83C1149.28 1154.33 1179.77 1158.82 1211.86 1152.3C1227.59 1149.1 1242.21 1151.97 1255.73 1160.91C1269.63 1170.11 1278.17 1182.56 1281.38 1198.27C1284.58 1213.99 1281.57 1228.79 1272.37 1242.69C1263.42 1256.2 1251.09 1264.55 1235.36 1267.75C1185.24 1277.61 1136.15 1272.88 1088.12 1253.6C1039.3 1233.8 1000.95 1203.02 973.07 1161.27C953.972 1133.1 941.149 1102.96 934.626 1070.9C931.164 1053.9 929.469 1036.54 929.541 1018.83C929.302 966.774 943.244 919.527 971.36 877.073C975.709 870.514 980.281 864.242 985.078 858.25ZM1133.62 767.942C1170.39 759.793 1199.13 740.091 1219.84 708.83C1241.12 677.121 1248 642.824 1240.5 605.938C1234.1 574.517 1218.25 548.345 1192.94 527.445C1167.31 506.602 1138.43 496.112 1106.32 495.96C1096.3 495.992 1086.64 496.951 1077.33 498.844C1051.98 503.997 1029.29 516.46 1009.25 536.234C982.048 563.476 968.41 595.8 968.338 633.221C968.37 643.232 969.305 652.731 971.128 661.71C977.331 692.173 993.408 717.794 1019.36 738.566C1052.97 765.8 1091.06 775.587 1133.62 767.942ZM1225.51 443.672C1205.59 423.012 1178.93 410.229 1145.52 405.332C1124.44 401.937 1104.43 402.16 1085.5 406.011C1076.84 407.777 1068.34 410.333 1060 413.705C1054.42 415.838 1051.89 418.186 1052.41 420.751L1052.51 421.238C1053.23 424.761 1056.54 426.263 1062.45 425.728C1119.07 419.896 1171.26 429.156 1218.99 453.514C1222.73 455.432 1225.55 456.191 1227.47 455.799C1228.12 455.663 1228.86 455.184 1229.69 454.345C1230.14 453.251 1230.22 452.068 1229.97 450.782C1229.58 448.857 1228.09 446.492 1225.51 443.672ZM1258.12 1184.97C1250.12 1175.24 1239.92 1169.47 1227.52 1167.64C1221.67 1166.83 1216.18 1166.95 1211.05 1167.99C1206.55 1168.91 1202.55 1170.55 1199.02 1172.94C1196.07 1174.87 1193.32 1178.61 1190.77 1184.13C1189.56 1186.39 1189.09 1188.15 1189.35 1189.44C1189.67 1191.04 1191.44 1191.52 1194.65 1190.86L1195.61 1190.67C1201.38 1187.82 1206.67 1185.92 1211.49 1184.93C1226.89 1181.8 1239.85 1187.19 1250.36 1201.08C1251.14 1201.58 1251.85 1201.77 1252.49 1201.65C1254.1 1201.32 1255.63 1199.84 1257.09 1197.2C1259.4 1193.73 1260.35 1191.03 1259.96 1189.1L1259.86 1188.62C1259.67 1187.67 1259.08 1186.44 1258.12 1184.97Z" fill="white"/>
<path d="M1320.3 188.959C1317.1 173.244 1319.97 158.64 1328.92 145.131C1338.12 131.238 1350.58 122.689 1366.31 119.494C1382.03 116.298 1396.84 119.294 1410.75 128.489C1424.27 137.437 1432.63 149.764 1435.82 165.479L1471.37 340.097C1508.25 304.545 1549.95 282.04 1596.48 272.581C1613.49 269.122 1631.01 267.396 1649.07 267.396C1699.8 267.1 1746.51 281.489 1789.18 310.545C1829.93 338.331 1861.27 375.712 1883.2 422.688L1898.67 471.637L1937.84 664.055C1941.11 680.089 1938.27 694.861 1929.32 708.371C1920.06 721.944 1907.56 730.325 1891.84 733.528C1876.11 736.724 1861.33 733.88 1847.49 725.004C1833.97 716.064 1825.59 703.577 1822.32 687.543L1783.15 495.125C1765.73 434.208 1730.03 398.385 1676.05 387.648C1657.93 383.989 1640.2 383.917 1622.88 387.44C1613.57 389.334 1604.62 392.154 1596.02 395.909C1570.18 406.838 1549.55 423.727 1534.15 446.56C1524.24 461.931 1517.53 478.157 1513.99 495.245C1512.47 502.563 1512.5 520.762 1514.07 549.835L1553.24 742.252C1556.51 758.287 1553.66 773.058 1544.72 786.56C1535.45 800.133 1522.96 808.522 1507.23 811.718C1491.51 814.913 1476.72 812.077 1462.89 803.201C1449.37 794.262 1440.97 781.775 1437.71 765.74L1320.3 188.959ZM1412.27 153.232C1404.28 143.501 1394.08 137.725 1381.68 135.903C1375.84 135.088 1370.34 135.208 1365.21 136.247C1360.72 137.166 1356.71 138.811 1353.18 141.2C1350.24 143.133 1347.49 146.864 1344.94 152.393C1343.72 154.646 1343.24 156.411 1343.51 157.69C1343.83 159.295 1345.6 159.775 1348.81 159.12L1349.77 158.92C1355.55 156.084 1360.84 154.166 1365.65 153.192C1381.06 150.06 1394.01 155.437 1404.53 169.33C1405.3 169.841 1406.01 170.033 1406.65 169.905C1408.25 169.577 1409.79 168.099 1411.26 165.463C1413.56 161.988 1414.51 159.287 1414.12 157.362L1414.02 156.883C1413.82 155.924 1413.24 154.702 1412.27 153.232ZM1767 329.583C1747.08 308.923 1720.42 296.141 1687.01 291.243C1665.93 287.848 1645.92 288.072 1626.99 291.923C1618.33 293.688 1609.82 296.253 1601.48 299.616C1595.9 301.749 1593.38 304.106 1593.9 306.67L1593.99 307.15C1594.71 310.673 1598.03 312.175 1603.93 311.64C1660.56 305.808 1712.74 315.067 1760.47 339.426C1764.21 341.343 1767.04 342.102 1768.96 341.711C1769.6 341.583 1770.34 341.095 1771.17 340.257C1771.62 339.17 1771.71 337.98 1771.45 336.693C1771.06 334.776 1769.57 332.403 1767 329.583Z" fill="white"/>
<path d="M2266.12 657.422C2214.78 667.856 2163.92 662.671 2113.57 641.843C2059.36 620.137 2022.82 585.983 2003.98 539.391L1971.8 418.188L1952.39 320.441L1942.77 322.399C1927.04 325.594 1912.46 322.878 1899.01 314.258C1885.17 305.382 1876.58 292.767 1873.25 276.413C1870.06 260.699 1873.09 246.055 1882.36 232.481C1891.24 218.652 1903.55 210.144 1919.27 206.948L1928.89 204.991L1901.57 70.7739C1898.38 55.0593 1901.22 40.2875 1910.1 26.4583C1919.04 12.9568 1931.54 4.56818 1947.58 1.30863C1963.63 -1.95892 1978.29 1.07695 1991.54 10.4002C2005.38 19.2761 2013.9 31.5713 2017.1 47.2859L2043.95 181.599L2123.37 165.453C2139.09 162.249 2153.74 165.285 2167.33 174.544C2181.17 183.42 2189.67 195.715 2192.87 211.43C2196.21 227.784 2193.24 242.755 2183.97 256.321C2174.96 269.511 2162.59 277.708 2146.87 280.903L2067.44 297.049L2087.32 394.7C2088.04 398.231 2090.22 409.807 2093.89 429.437C2095.08 436.875 2096.24 443.482 2097.42 449.258C2098.66 455.345 2099.93 460.77 2101.24 465.515C2109.16 492.958 2122.23 512.004 2140.44 522.67C2172.94 542.778 2207 549.209 2242.63 541.971C2258.67 538.704 2273.42 541.388 2286.87 550.008C2300.45 559.268 2308.88 571.914 2312.14 587.949C2315.4 603.983 2312.56 618.755 2303.61 632.264C2294.66 645.774 2282.18 654.154 2266.12 657.422ZM1994.03 34.9427C1986.03 25.212 1975.83 19.4439 1963.44 17.6224C1957.59 16.8075 1952.1 16.9193 1946.97 17.9659C1942.47 18.8767 1938.47 20.5304 1934.94 22.9112C1931.99 24.8445 1929.02 28.2878 1926.02 33.2411C1925.25 36.0692 1925.01 38.1224 1925.26 39.4086C1925.59 41.0145 1927.36 41.4858 1930.56 40.8307L1931.53 40.639C1937.3 37.7948 1942.59 35.8855 1947.41 34.9028C1962.81 31.7711 1975.77 37.1557 1986.29 51.0488C1987.05 51.5601 1987.77 51.7518 1988.4 51.616C1990.01 51.2884 1991.54 49.8105 1993.01 47.1741C1995.32 43.6988 1996.28 40.9985 1995.88 39.0811L1995.79 38.5938C1995.59 37.6351 1995 36.4207 1994.03 34.9427ZM2169.33 196.682C2161.33 186.951 2151.13 181.175 2138.73 179.362C2132.88 178.547 2127.39 178.659 2122.25 179.705L2099.15 184.403C2097.16 187.806 2096.44 190.794 2096.96 193.359C2097.09 193.998 2097.41 194.773 2097.93 195.668C2099.87 198.615 2103.27 199.758 2108.16 199.103C2113.04 198.44 2117.89 197.625 2122.7 196.642C2138.1 193.51 2151.05 198.895 2161.57 212.788C2162.35 213.299 2163.05 213.491 2163.69 213.355C2165.31 213.028 2166.84 211.55 2168.31 208.913C2170.6 205.438 2171.56 202.738 2171.18 200.82L2171.06 200.333C2170.87 199.374 2170.3 198.16 2169.33 196.682Z" fill="white"/>
<path d="M1580.2 911.383C1520.84 920.674 1472.86 949.771 1436.28 998.664C1400.13 1048.44 1386.5 1103.54 1395.38 1163.97C1402.95 1215.5 1426.21 1259.41 1465.15 1295.71C1504.13 1332.32 1549.24 1351.89 1600.48 1354.43C1616.01 1355.31 1631.02 1354.67 1645.51 1352.57C1686.86 1346.53 1724.57 1328.33 1758.63 1297.98C1804.37 1256.83 1828.64 1205.97 1831.46 1145.41C1832.27 1129.93 1831.59 1114.84 1829.42 1100.12C1824.37 1065.76 1811.29 1033.36 1790.17 1002.92C1759.77 959.733 1719.98 931.236 1670.79 917.423C1641.52 909.162 1611.33 907.149 1580.2 911.383ZM1564.87 800.822C1657.13 788.918 1739.13 810.944 1810.86 866.892C1854.31 900.342 1887.63 942.477 1910.82 993.295C1924.47 1023.26 1933.62 1054.04 1938.26 1085.63C1941.47 1107.41 1942.4 1129.52 1941.08 1151.96C1937.83 1217.92 1916.29 1277.93 1876.46 1332C1836.97 1386.33 1786.64 1424.54 1725.46 1446.64C1704.72 1454.36 1683.63 1459.8 1662.19 1462.92C1630.82 1467.5 1598.56 1467.2 1565.42 1462.02C1510.32 1454.08 1460.69 1433.13 1416.54 1399.16C1363.22 1359.32 1325.35 1307.2 1302.94 1242.79C1295.41 1221.02 1290.03 1199.09 1286.79 1177C1280.57 1134.67 1282.62 1092.07 1292.97 1049.2C1308.74 984.547 1341.34 929.494 1390.76 884.052C1439.67 839.313 1496.65 811.727 1561.7 801.285L1564.87 800.822ZM1791.02 882.95C1773.07 861.443 1741.7 844.091 1696.91 830.893C1661.16 820.451 1631.96 816.88 1609.33 820.179C1604.2 820.93 1599.41 821.945 1594.98 823.215C1589.73 825.237 1587.26 827.322 1587.58 829.471C1588.12 833.146 1591.28 834.728 1597.06 834.192C1654.09 832.131 1716.69 851.193 1784.87 891.37C1787.99 893.735 1790.46 894.782 1792.26 894.518C1793.17 894.382 1793.85 893.815 1794.32 892.808C1794.84 892.105 1794.98 890.987 1794.76 889.453C1794.48 887.615 1793.24 885.442 1791.02 882.95Z" fill="#FF3A6A"/>
<path d="M1956.04 967.027C1953.01 952.135 1955.79 938.282 1964.38 925.468C1972.62 912.398 1984.05 904.377 1998.7 901.405C2025.6 895.932 2045.44 905.503 2058.23 930.109C2091.64 897.059 2131.63 875.64 2178.19 865.861C2225.11 856.322 2270.48 860.54 2314.29 878.532C2370.64 901.556 2413.35 943.18 2442.41 1003.4C2449.33 1017.49 2454.83 1034.57 2458.91 1054.62L2496.02 1236.91C2499.11 1252.1 2496.51 1266.08 2488.21 1278.83C2480.22 1291.54 2468.59 1299.44 2453.36 1302.53C2438.71 1305.51 2425.08 1302.75 2412.45 1294.24C2399.53 1285.79 2391.52 1273.98 2388.43 1258.78L2351.32 1076.49C2346.12 1050.98 2334.31 1028.85 2315.87 1010.14C2297.08 991.186 2275.36 979.306 2250.73 974.505C2233.53 971.038 2217.01 970.918 2201.17 974.137C2186.23 977.173 2171.76 983.285 2157.75 992.456C2129.08 1010.62 2110.62 1036.2 2102.41 1069.2C2097.67 1087.25 2097.11 1106.66 2100.74 1127.44L2137.85 1309.73C2140.93 1324.92 2138.33 1338.9 2130.03 1351.65C2121.74 1364.41 2110.12 1372.31 2095.18 1375.35C2080.53 1378.33 2066.9 1375.57 2054.28 1367.06C2041.35 1358.61 2033.34 1346.8 2030.26 1331.6L1956.04 967.027ZM2339.98 922.184C2321.95 902.435 2297.36 890.196 2266.21 885.458C2246.26 882.231 2227.62 882.383 2210.29 885.914C2201.92 887.615 2194.01 890.012 2186.55 893.112C2181.35 895.117 2179 897.33 2179.5 899.767L2179.58 900.222C2180.27 903.562 2183.36 904.992 2188.87 904.504C2241.32 899.216 2289.98 908.147 2334.83 931.3C2338.02 933.185 2340.51 933.944 2342.3 933.577C2343.2 933.401 2343.88 932.946 2344.35 932.211C2345.07 931.116 2345.33 930.117 2345.15 929.207C2344.71 927.082 2342.99 924.741 2339.98 922.184ZM2041.53 930.661C2034.05 921.425 2024.52 915.929 2012.97 914.163C2007.51 913.372 2002.4 913.46 1997.62 914.435C1993.43 915.29 1989.7 916.84 1986.42 919.085C1983.68 920.906 1981.13 924.429 1978.77 929.654C1977.65 931.787 1977.22 933.457 1977.46 934.671C1977.77 936.189 1979.41 936.645 1982.4 936.037L1983.3 935.854C1988.67 933.177 1993.6 931.388 1998.08 930.477C2012.42 927.561 2024.52 932.698 2034.36 945.88C2035.09 946.367 2035.74 946.551 2036.34 946.431C2037.84 946.128 2039.26 944.73 2040.61 942.237C2042.75 938.953 2043.63 936.405 2043.26 934.575L2043.17 934.12C2042.98 933.209 2042.44 932.059 2041.53 930.661Z" fill="#FF3A6A"/>
<path d="M2631.42 1025.51C2634.43 1040.27 2632.12 1053.96 2624.49 1066.59C2616.75 1078.61 2605.88 1086.05 2591.9 1088.89C2578.19 1091.68 2565.42 1089.05 2553.59 1081C2541.64 1072.36 2534.16 1060.66 2531.15 1045.89L2459.2 692.464C2456.25 677.995 2458.63 664.606 2466.31 652.279C2473.94 639.656 2484.6 631.954 2498.32 629.166C2512.29 626.322 2525.27 629.222 2537.22 637.858C2549.11 646.207 2556.53 657.615 2559.48 672.076L2631.42 1025.51ZM2628.05 1266.49C2614.35 1269.28 2601.55 1266.5 2589.65 1258.16C2577.7 1249.52 2570.25 1237.96 2567.3 1223.5C2564.36 1209.03 2566.73 1195.63 2574.42 1183.31C2582.04 1170.68 2592.71 1162.98 2606.41 1160.21C2620.4 1157.36 2633.37 1160.25 2645.32 1168.89C2657.22 1177.23 2664.63 1188.64 2667.58 1203.11C2670.53 1217.58 2668.18 1231.12 2660.56 1243.74C2652.88 1256.06 2642.04 1263.65 2628.05 1266.49ZM2539.45 659.549C2532.37 650.529 2523.37 644.985 2512.46 642.891C2507.34 642.093 2502.69 642.116 2498.49 642.963C2494.3 643.818 2490.68 645.328 2487.62 647.485C2485.62 649.123 2484.71 650.377 2484.9 651.264L2485.17 652.598C2485.46 654.068 2486.74 654.579 2488.97 654.124C2506.32 650.601 2522.43 653.932 2537.32 664.134C2538.63 664.79 2539.55 665.061 2540.11 664.949C2540.39 664.893 2540.65 664.686 2540.86 664.334C2541.36 663.927 2541.58 663.575 2541.52 663.28C2541.29 662.097 2540.58 660.851 2539.45 659.549ZM2651.44 1186.09C2644.37 1177.08 2635.41 1171.67 2624.55 1169.88C2619.43 1169.08 2614.64 1169.13 2610.17 1170.04C2606.26 1170.84 2602.76 1172.31 2599.71 1174.48C2597.15 1176.23 2594.79 1179.62 2592.62 1184.68C2591.57 1186.74 2591.17 1188.36 2591.41 1189.54C2591.72 1191.02 2593.27 1191.47 2596.06 1190.9L2596.9 1190.73C2601.92 1188.17 2606.51 1186.47 2610.71 1185.62C2624.14 1182.88 2635.51 1187.95 2644.83 1200.82C2645.51 1201.29 2646.13 1201.47 2646.69 1201.36C2648.08 1201.07 2649.41 1199.73 2650.67 1197.32C2652.65 1194.16 2653.46 1191.68 2653.1 1189.91L2653.01 1189.47C2652.83 1188.58 2652.31 1187.46 2651.44 1186.09Z" fill="#FF3A6A"/>
<path d="M656.867 231.713L718.871 132.992C723.444 125.506 729.991 120.792 738.513 118.859C746.867 116.966 754.725 118.404 762.08 123.181C769.403 127.791 774.016 134.27 775.91 142.619C777.885 151.311 776.566 159.308 771.961 166.626L709.901 265.1L808.431 327.111C815.794 331.897 820.439 338.544 822.381 347.06C824.276 355.409 822.941 363.326 818.36 370.812C813.755 378.13 807.272 382.739 798.918 384.633C790.396 386.566 782.466 385.232 775.151 380.622L676.501 318.091L614.041 417.188C609.428 424.506 602.945 429.116 594.599 431.009C586.069 432.943 578.147 431.609 570.824 426.999C563.469 422.221 558.84 415.654 556.938 407.306C555.003 398.789 556.322 390.784 560.895 383.299L622.955 284.833L524.417 222.813C517.094 218.204 512.449 211.557 510.475 202.865C508.58 194.516 509.931 186.687 514.544 179.369C519.116 171.883 525.664 167.169 534.194 165.236C542.548 163.342 550.398 164.78 557.761 169.558L656.867 231.713ZM765.638 135.277C761.257 130.18 755.741 127.224 749.097 126.401C745.972 126.033 743.038 126.161 740.312 126.784C737.929 127.32 735.811 128.254 733.956 129.565C732.405 130.635 730.862 132.513 729.319 135.189C728.944 136.707 728.832 137.809 728.992 138.488C729.183 139.343 730.135 139.575 731.838 139.183L732.349 139.072C735.395 137.482 738.193 136.395 740.751 135.82C748.937 133.959 755.916 136.675 761.696 143.961C762.112 144.225 762.496 144.32 762.84 144.241C763.687 144.049 764.494 143.242 765.246 141.812C766.429 139.934 766.909 138.48 766.677 137.458L766.613 137.202C766.501 136.691 766.173 136.052 765.638 135.277ZM517.741 193.421C517.59 194.356 517.582 195.075 517.693 195.586L517.749 195.842C517.981 196.865 519.045 197.967 520.923 199.15C522.218 200.108 523.29 200.492 524.145 200.3C524.489 200.22 524.784 199.973 525.048 199.557C527.111 190.489 532.235 185.025 540.421 183.171C542.98 182.588 545.969 182.357 549.407 182.476L549.919 182.357C551.621 181.973 552.373 181.35 552.181 180.503C552.029 179.816 551.454 178.873 550.462 177.667C547.912 175.917 545.706 174.895 543.851 174.599C541.613 174.208 539.294 174.288 536.912 174.831C534.186 175.446 531.484 176.596 528.822 178.282C523.186 181.885 519.492 186.934 517.741 193.421Z" fill="#FF3A6A"/>
<path d="M2655.7 592.266C2670.23 589.443 2683.92 590.295 2696.76 594.821C2709.55 599.097 2720.34 606.491 2729.15 617.002C2737.9 627.262 2743.69 639.659 2746.51 654.192C2749.33 668.725 2748.63 682.512 2744.41 695.554C2740.18 708.597 2732.96 719.62 2722.75 728.624C2712.49 737.378 2700.09 743.166 2685.56 745.989C2670.77 748.861 2656.99 748.159 2644.19 743.883C2631.35 739.357 2620.53 731.838 2611.73 721.327C2602.93 710.816 2597.12 698.294 2594.29 683.761C2591.47 669.228 2592.2 655.566 2596.47 642.774C2600.7 629.732 2607.94 618.834 2618.2 610.08C2628.41 601.076 2640.91 595.138 2655.7 592.266ZM2682.64 730.955C2700.68 727.451 2714.09 718.865 2722.88 705.197C2731.91 691.481 2734.65 675.477 2731.1 657.185C2727.55 638.894 2719.01 625.08 2705.5 615.745C2692.24 606.36 2676.58 603.42 2658.54 606.925C2640.25 610.478 2626.71 619.088 2617.93 632.756C2609.39 646.375 2606.9 662.33 2610.45 680.622C2614.01 698.913 2622.29 712.775 2635.3 722.208C2648.57 731.593 2664.35 734.508 2682.64 730.955ZM2701.35 646.583C2702.52 652.597 2701.89 658.05 2699.46 662.942C2697.23 667.535 2693.53 671.244 2688.36 674.069L2715.46 701.176L2691.86 706.152L2667.98 679.588L2661.59 680.829L2667.43 710.897L2647.88 714.694L2632.19 633.886L2668.27 626.877C2676.79 625.222 2683.99 626.163 2689.88 629.7C2696.02 633.188 2699.84 638.816 2701.35 646.583ZM2658.45 664.668L2673.86 661.674C2676.62 661.139 2678.72 659.949 2680.19 658.105C2681.9 656.212 2682.49 653.888 2681.95 651.132C2681.42 648.375 2680.02 646.565 2677.78 645.702C2675.73 644.539 2673.33 644.226 2670.57 644.761L2655.16 647.754L2658.45 664.668Z" fill="white"/>
</svg>
