<svg width="1966" height="1718" viewBox="0 0 1966 1718" fill="none" xmlns="http://www.w3.org/2000/svg">
<g filter="url(#filter0_d_490_10057)">
<circle cx="989.253" cy="793.123" r="756.193" fill="#32285A"/>
</g>
<path d="M479.553 894.679L500.973 999.91C502.403 1006.93 501.158 1013.39 497.244 1019.3C493.33 1025.21 487.933 1028.86 481.054 1030.26C474.034 1031.69 467.567 1030.45 461.652 1026.53C455.738 1022.62 452.069 1017.16 450.642 1010.14L399.268 757.797C397.953 750.611 399.209 744.218 403.042 738.618C406.984 732.848 412.437 729.111 419.401 727.402L577.141 695.332C611.036 689.463 638.378 698.079 659.164 721.177C669.937 733.159 676.925 747.007 680.122 762.722C681.322 768.616 681.976 774.694 682.081 780.954C682.581 804.964 675.481 825.038 660.783 841.176C649.248 853.455 634.03 862.029 615.136 866.895L687.988 948.959C690.923 952.597 692.832 956.592 693.717 960.944C694.147 963.048 694.378 965.268 694.413 967.596C693.962 974.702 690.989 980.567 685.494 985.191C682.049 988.376 678.219 990.396 674.008 991.252C671.763 991.71 669.374 991.829 666.845 991.612C659.762 991.298 653.921 988.467 649.325 983.119L557.054 878.922L479.553 894.679ZM469.27 844.168L601.95 817.191C618.77 813.625 628.248 804.174 630.389 788.833C631.019 784.03 630.865 779.315 629.92 774.683C628.808 769.21 626.556 763.897 623.166 758.741C616.388 748.43 607.535 743.729 596.609 744.634L587.424 745.843L454.744 772.82L469.27 844.168ZM643.872 723.627C627.182 706.272 605.566 700.292 579.03 705.689C575.801 706.346 572.531 707.157 569.219 708.121C566.777 709.055 565.683 710.156 565.941 711.418C566.284 713.102 567.788 713.672 570.457 713.13C591.827 709.663 615.363 714.665 641.064 728.143C642.666 728.842 643.89 729.104 644.733 728.933C645.013 728.877 645.32 728.594 645.656 728.087C645.88 727.748 645.936 727.3 645.821 726.738C645.649 725.895 644.999 724.861 643.872 723.627Z" fill="white"/>
<path d="M771.516 857.678C772.915 864.553 771.66 870.947 767.746 876.854C763.86 882.904 758.407 886.644 751.387 888.07C744.508 889.468 738.096 888.144 732.154 884.093C726.239 880.178 722.581 874.784 721.182 867.909L686.863 699.328C685.464 692.453 686.723 686.06 690.637 680.149C694.523 674.098 699.906 670.376 706.785 668.978C713.805 667.548 720.286 668.862 726.229 672.913C732.143 676.825 735.798 682.218 737.197 689.093L771.516 857.678ZM727.404 684.071C723.903 679.817 719.443 677.29 714.015 676.493C711.458 676.136 709.055 676.185 706.81 676.643C704.844 677.041 703.088 677.765 701.549 678.807C700.259 679.656 699.657 680.289 699.741 680.708C699.077 683.183 698.842 684.91 699.042 685.892C699.157 686.454 699.496 686.678 700.056 686.563C702.581 685.318 704.897 684.483 707.002 684.057C713.742 682.686 719.412 685.039 724.011 691.117C724.686 691.565 725.166 691.76 725.445 691.701C727.093 688.3 727.974 686.514 728.086 686.346C728.198 686.175 728.223 685.951 728.167 685.672C728.083 685.249 727.827 684.717 727.404 684.071Z" fill="white"/>
<path d="M829.587 846.086C826.124 844.16 822.602 841.954 819.028 839.466C794.694 822.642 779.543 799.569 773.572 770.243L773.271 768.768C767.413 738.548 772.771 711.008 789.354 686.159C801.739 667.277 818.524 653.488 839.709 644.798C846.753 642.051 853.857 639.95 861.017 638.493C875.196 635.609 889.655 635.522 904.388 638.224C926.178 642.561 945.135 652.733 961.263 668.742C977.107 684.81 987.313 703.702 991.881 725.422C996.222 746.748 994.298 767.814 986.106 788.622C977.912 809.43 965.002 826.082 947.367 838.581C934.555 847.466 920.386 853.636 904.856 857.086C889.729 862.5 879.463 868.092 874.059 873.867C865.406 882.347 859.904 892.672 857.558 904.839C856.232 912.704 856.344 920.428 857.886 928.003C858.684 931.932 859.838 935.791 861.339 939.576C866.749 952.502 875.899 962.261 888.788 968.843C901.429 975.627 914.769 977.592 928.808 974.736C935.688 973.338 942.085 974.593 948 978.504C954.082 982.527 957.821 987.976 959.224 994.852C960.623 1001.73 959.308 1008.2 955.282 1014.28C951.368 1020.19 945.971 1023.85 939.091 1025.25C917.161 1029.56 895.685 1027.49 874.668 1019.06C853.311 1010.4 836.533 996.928 824.333 978.661C815.978 966.337 810.367 953.152 807.513 939.122C805.999 931.687 805.257 924.092 805.289 916.342C805.184 893.567 811.284 872.895 823.585 854.321C825.488 851.451 827.488 848.707 829.587 846.086ZM894.577 806.574C910.666 803.009 923.24 794.389 932.299 780.712C941.609 766.839 944.621 751.833 941.337 735.695C938.539 721.948 931.603 710.497 920.529 701.353C909.316 692.234 896.682 687.645 882.632 687.578C878.25 687.592 874.021 688.012 869.95 688.84C858.859 691.095 848.929 696.547 840.164 705.198C828.261 717.117 822.294 731.26 822.263 747.632C822.277 752.012 822.686 756.168 823.484 760.096C826.198 773.424 833.231 784.634 844.585 793.722C859.292 805.637 875.955 809.919 894.577 806.574ZM934.779 664.701C926.066 655.662 914.401 650.07 899.781 647.927C890.561 646.441 881.807 646.539 873.524 648.224C869.733 648.996 866.015 650.115 862.367 651.59C859.925 652.523 858.817 653.551 859.048 654.673L859.09 654.886C859.404 656.428 860.852 657.085 863.437 656.851C888.211 654.299 911.044 658.35 931.928 669.007C933.561 669.846 934.796 670.178 935.639 670.007C935.922 669.948 936.244 669.738 936.608 669.371C936.804 668.892 936.842 668.375 936.73 667.812C936.559 666.97 935.908 665.935 934.779 664.701ZM949.045 989.032C945.548 984.775 941.085 982.247 935.66 981.45C933.1 981.094 930.697 981.146 928.451 981.601C926.486 982.003 924.733 982.723 923.191 983.768C921.9 984.614 920.697 986.246 919.581 988.665C919.05 989.651 918.843 990.423 918.959 990.986C919.099 991.685 919.875 991.895 921.278 991.608L921.697 991.524C924.223 990.28 926.538 989.444 928.644 989.014C935.384 987.644 941.053 990 945.653 996.079C945.992 996.299 946.303 996.383 946.583 996.327C947.286 996.183 947.958 995.537 948.598 994.383C949.605 992.863 950.025 991.681 949.853 990.839L949.808 990.629C949.724 990.21 949.469 989.675 949.045 989.032Z" fill="white"/>
<path d="M976.264 553.255C974.865 546.38 976.12 539.99 980.034 534.08C984.06 528.001 989.513 524.261 996.393 522.863C1003.27 521.465 1009.75 522.776 1015.84 526.799C1021.75 530.714 1025.41 536.107 1026.81 542.982L1042.36 619.38C1058.49 603.826 1076.74 593.98 1097.1 589.841C1104.54 588.328 1112.21 587.573 1120.1 587.573C1142.3 587.443 1162.74 593.738 1181.41 606.451C1199.24 618.608 1212.95 634.963 1222.54 655.515L1229.31 676.931L1246.45 761.117C1247.88 768.132 1246.64 774.595 1242.72 780.506C1238.67 786.445 1233.2 790.111 1226.32 791.513C1219.44 792.911 1212.97 791.667 1206.92 787.783C1201 783.872 1197.34 778.409 1195.91 771.394L1178.77 687.208C1171.15 660.556 1155.53 644.882 1131.91 640.185C1123.98 638.584 1116.23 638.552 1108.65 640.094C1104.57 640.922 1100.66 642.156 1096.9 643.799C1085.59 648.581 1076.57 655.97 1069.83 665.959C1065.49 672.685 1062.55 679.784 1061 687.26C1060.34 690.462 1060.35 698.424 1061.04 711.144L1078.18 795.33C1079.61 802.345 1078.36 808.808 1074.45 814.715C1070.4 820.654 1064.93 824.324 1058.05 825.722C1051.17 827.12 1044.7 825.879 1038.65 821.996C1032.73 818.085 1029.06 812.621 1027.63 805.606L976.264 553.255ZM1016.5 537.624C1013.01 533.367 1008.54 530.839 1003.12 530.042C1000.56 529.686 998.159 529.738 995.914 530.193C993.948 530.595 992.192 531.315 990.65 532.36C989.363 533.206 988.159 534.838 987.044 537.257C986.512 538.243 986.302 539.015 986.418 539.574C986.561 540.277 987.334 540.487 988.736 540.2L989.16 540.113C991.685 538.872 994 538.033 996.106 537.606C1002.85 536.236 1008.52 538.589 1013.12 544.667C1013.45 544.891 1013.76 544.975 1014.04 544.919C1014.74 544.775 1015.42 544.129 1016.06 542.975C1017.07 541.455 1017.48 540.273 1017.31 539.431L1017.27 539.221C1017.18 538.802 1016.93 538.267 1016.5 537.624ZM1171.7 614.78C1162.99 605.741 1151.32 600.149 1136.7 598.006C1127.48 596.521 1118.73 596.619 1110.44 598.303C1106.66 599.076 1102.93 600.198 1099.29 601.669C1096.85 602.603 1095.74 603.634 1095.97 604.756L1096.01 604.965C1096.32 606.507 1097.78 607.164 1100.36 606.93C1125.13 604.378 1147.96 608.429 1168.85 619.087C1170.48 619.926 1171.72 620.258 1172.56 620.086C1172.84 620.03 1173.16 619.817 1173.53 619.45C1173.72 618.975 1173.77 618.454 1173.65 617.891C1173.48 617.052 1172.83 616.014 1171.7 614.78Z" fill="white"/>
<path d="M1390.08 758.22C1367.61 762.785 1345.36 760.517 1323.33 751.404C1299.61 741.907 1283.63 726.965 1275.38 706.58L1261.3 653.552L1252.81 610.786L1248.6 611.642C1241.72 613.041 1235.34 611.852 1229.46 608.081C1223.4 604.197 1219.65 598.678 1218.19 591.523C1216.79 584.648 1218.12 578.241 1222.17 572.302C1226.06 566.252 1231.44 562.529 1238.32 561.131L1242.53 560.275L1230.58 501.553C1229.18 494.677 1230.43 488.214 1234.31 482.164C1238.22 476.257 1243.69 472.587 1250.71 471.16C1257.73 469.731 1264.14 471.059 1269.94 475.138C1276 479.021 1279.72 484.401 1281.12 491.276L1292.87 550.04L1327.62 542.976C1334.49 541.574 1340.91 542.903 1346.85 546.954C1352.91 550.837 1356.63 556.216 1358.03 563.092C1359.48 570.247 1358.19 576.797 1354.13 582.732C1350.19 588.503 1344.78 592.089 1337.9 593.487L1303.15 600.552L1311.84 643.275C1312.16 644.82 1313.12 649.885 1314.72 658.473C1315.24 661.727 1315.75 664.618 1316.26 667.145C1316.81 669.809 1317.36 672.182 1317.94 674.258C1321.4 686.265 1327.12 694.598 1335.09 699.264C1349.31 708.062 1364.21 710.876 1379.8 707.709C1386.81 706.279 1393.27 707.454 1399.15 711.225C1405.09 715.276 1408.78 720.809 1410.21 727.825C1411.63 734.84 1410.39 741.303 1406.48 747.213C1402.56 753.124 1397.1 756.791 1390.08 758.22ZM1271.03 485.876C1267.53 481.619 1263.07 479.095 1257.65 478.298C1255.09 477.941 1252.68 477.99 1250.44 478.448C1248.47 478.847 1246.72 479.57 1245.17 480.612C1243.89 481.458 1242.59 482.964 1241.27 485.131C1240.94 486.369 1240.83 487.267 1240.94 487.83C1241.09 488.532 1241.86 488.739 1243.26 488.452L1243.68 488.368C1246.21 487.124 1248.52 486.288 1250.63 485.858C1257.37 484.488 1263.04 486.844 1267.64 492.923C1267.98 493.146 1268.29 493.23 1268.57 493.171C1269.27 493.027 1269.94 492.381 1270.59 491.227C1271.59 489.707 1272.01 488.525 1271.84 487.686L1271.8 487.473C1271.71 487.054 1271.45 486.523 1271.03 485.876ZM1347.73 556.639C1344.23 552.382 1339.76 549.855 1334.34 549.061C1331.78 548.705 1329.38 548.754 1327.13 549.212L1317.02 551.267C1316.15 552.756 1315.83 554.063 1316.07 555.185C1316.12 555.465 1316.26 555.804 1316.49 556.195C1317.33 557.485 1318.82 557.985 1320.96 557.698C1323.1 557.408 1325.22 557.052 1327.32 556.622C1334.06 555.252 1339.73 557.608 1344.33 563.686C1344.67 563.91 1344.98 563.994 1345.26 563.934C1345.97 563.791 1346.64 563.144 1347.28 561.991C1348.28 560.47 1348.7 559.289 1348.53 558.45L1348.48 558.237C1348.4 557.817 1348.15 557.286 1347.73 556.639Z" fill="white"/>
<path d="M1089.96 869.327C1063.99 873.392 1043 886.122 1027 907.514C1011.18 929.29 1005.22 953.397 1009.1 979.836C1012.41 1002.38 1022.59 1021.6 1039.63 1037.47C1056.68 1053.49 1076.42 1062.06 1098.83 1063.17C1105.63 1063.55 1112.2 1063.27 1118.54 1062.35C1136.63 1059.71 1153.12 1051.75 1168.03 1038.47C1188.04 1020.47 1198.66 998.215 1199.89 971.716C1200.25 964.946 1199.95 958.343 1199 951.901C1196.79 936.871 1191.07 922.694 1181.83 909.377C1168.53 890.481 1151.12 878.013 1129.6 871.969C1116.79 868.355 1103.58 867.474 1089.96 869.327ZM1083.26 820.954C1123.62 815.746 1159.5 825.383 1190.88 849.861C1209.89 864.496 1224.47 882.931 1234.61 905.165C1240.59 918.276 1244.59 931.74 1246.62 945.564C1248.02 955.092 1248.43 964.764 1247.85 974.582C1246.43 1003.44 1237.01 1029.7 1219.58 1053.35C1202.31 1077.12 1180.28 1093.84 1153.52 1103.51C1144.44 1106.89 1135.21 1109.27 1125.84 1110.63C1112.11 1112.64 1097.99 1112.51 1083.5 1110.24C1059.39 1106.77 1037.67 1097.6 1018.36 1082.74C995.031 1065.3 978.46 1042.5 968.656 1014.32C965.364 1004.8 963.01 995.202 961.59 985.537C958.869 967.018 959.768 948.381 964.294 929.625C971.195 901.337 985.458 877.251 1007.08 857.369C1028.48 837.795 1053.41 825.726 1081.87 821.157L1083.26 820.954ZM1182.2 856.887C1174.35 847.477 1160.62 839.885 1141.02 834.111C1125.38 829.543 1112.61 827.98 1102.71 829.424C1100.46 829.752 1098.37 830.196 1096.43 830.752C1094.13 831.636 1093.05 832.549 1093.19 833.489C1093.43 835.097 1094.81 835.789 1097.34 835.555C1122.29 834.653 1149.68 842.993 1179.51 860.571C1180.87 861.605 1181.95 862.063 1182.74 861.948C1183.14 861.889 1183.44 861.64 1183.65 861.2C1183.87 860.892 1183.93 860.403 1183.83 859.732C1183.72 858.928 1183.17 857.977 1182.2 856.887Z" fill="#FF3A6A"/>
<path d="M1254.4 893.675C1253.07 887.159 1254.29 881.098 1258.05 875.492C1261.65 869.773 1266.65 866.264 1273.06 864.964C1284.83 862.569 1293.51 866.757 1299.11 877.522C1313.72 863.062 1331.22 853.691 1351.59 849.413C1372.12 845.239 1391.97 847.085 1411.14 854.956C1435.79 865.03 1454.48 883.241 1467.19 909.589C1470.22 915.755 1472.63 923.224 1474.41 931.998L1490.65 1011.75C1492 1018.4 1490.86 1024.51 1487.23 1030.09C1483.73 1035.65 1478.65 1039.11 1471.98 1040.46C1465.57 1041.77 1459.61 1040.56 1454.08 1036.83C1448.43 1033.14 1444.93 1027.97 1443.57 1021.32L1427.34 941.568C1425.06 930.404 1419.9 920.725 1411.83 912.539C1403.61 904.245 1394.1 899.047 1383.33 896.946C1375.8 895.429 1368.58 895.377 1361.65 896.785C1355.11 898.114 1348.78 900.788 1342.65 904.8C1330.11 912.749 1322.03 923.941 1318.44 938.377C1316.36 946.273 1316.12 954.766 1317.7 963.858L1333.94 1043.61C1335.29 1050.26 1334.15 1056.37 1330.52 1061.96C1326.9 1067.54 1321.81 1070.99 1315.27 1072.32C1308.87 1073.63 1302.9 1072.42 1297.38 1068.69C1291.72 1065 1288.22 1059.83 1286.87 1053.18L1254.4 893.675ZM1422.38 874.055C1414.49 865.415 1403.73 860.06 1390.1 857.987C1381.38 856.575 1373.22 856.641 1365.64 858.186C1361.97 858.931 1358.51 859.979 1355.25 861.335C1352.97 862.213 1351.95 863.181 1352.16 864.247L1352.2 864.446C1352.5 865.907 1353.85 866.533 1356.26 866.32C1379.21 864.006 1400.5 867.914 1420.13 878.043C1421.52 878.868 1422.61 879.2 1423.39 879.039C1423.78 878.963 1424.09 878.763 1424.29 878.442C1424.6 877.963 1424.72 877.526 1424.64 877.128C1424.45 876.198 1423.69 875.174 1422.38 874.055ZM1291.8 877.764C1288.53 873.723 1284.36 871.318 1279.3 870.546C1276.92 870.2 1274.68 870.238 1272.59 870.665C1270.76 871.039 1269.13 871.717 1267.69 872.699C1266.49 873.496 1265.38 875.037 1264.34 877.323C1263.85 878.257 1263.66 878.987 1263.77 879.518C1263.9 880.182 1264.62 880.382 1265.93 880.116L1266.32 880.036C1268.67 878.865 1270.83 878.082 1272.79 877.683C1279.07 876.407 1284.36 878.655 1288.66 884.422C1288.98 884.636 1289.27 884.716 1289.53 884.664C1290.19 884.531 1290.81 883.919 1291.4 882.828C1292.34 881.392 1292.72 880.277 1292.56 879.476L1292.52 879.277C1292.44 878.879 1292.2 878.375 1291.8 877.764Z" fill="#FF3A6A"/>
<path d="M1549.9 919.26C1551.21 925.719 1550.2 931.71 1546.86 937.233C1543.47 942.494 1538.72 945.748 1532.6 946.992C1526.61 948.212 1521.02 947.062 1515.84 943.539C1510.61 939.76 1507.34 934.64 1506.03 928.18L1474.55 773.549C1473.26 767.219 1474.29 761.361 1477.66 755.967C1480.99 750.445 1485.66 747.075 1491.66 745.855C1497.77 744.611 1503.45 745.88 1508.68 749.658C1513.88 753.311 1517.13 758.302 1518.42 764.629L1549.9 919.26ZM1548.42 1024.69C1542.43 1025.91 1536.83 1024.7 1531.62 1021.05C1526.39 1017.27 1523.13 1012.21 1521.84 1005.89C1520.55 999.555 1521.59 993.694 1524.95 988.3C1528.29 982.778 1532.96 979.408 1538.95 978.195C1545.07 976.947 1550.75 978.213 1555.97 981.995C1561.18 985.644 1564.43 990.635 1565.72 996.965C1567.01 1003.3 1565.98 1009.22 1562.64 1014.74C1559.28 1020.13 1554.54 1023.45 1548.42 1024.69ZM1509.66 759.148C1506.56 755.202 1502.62 752.776 1497.85 751.86C1495.61 751.511 1493.57 751.521 1491.74 751.892C1489.9 752.266 1488.32 752.926 1486.98 753.87C1486.11 754.587 1485.71 755.135 1485.79 755.523L1485.91 756.107C1486.04 756.75 1486.59 756.974 1487.57 756.775C1495.16 755.233 1502.21 756.691 1508.73 761.154C1509.3 761.441 1509.7 761.56 1509.95 761.511C1510.07 761.486 1510.18 761.396 1510.27 761.242C1510.49 761.064 1510.59 760.91 1510.56 760.78C1510.46 760.263 1510.15 759.718 1509.66 759.148ZM1558.65 989.52C1555.56 985.577 1551.64 983.211 1546.89 982.428C1544.65 982.075 1542.55 982.099 1540.6 982.498C1538.89 982.848 1537.36 983.491 1536.02 984.438C1534.9 985.203 1533.87 986.689 1532.92 988.901C1532.46 989.803 1532.29 990.509 1532.39 991.027C1532.52 991.673 1533.2 991.873 1534.42 991.621L1534.79 991.547C1536.99 990.429 1539 989.684 1540.83 989.31C1546.71 988.115 1551.68 990.331 1555.76 995.962C1556.06 996.168 1556.33 996.249 1556.57 996.2C1557.19 996.074 1557.77 995.487 1558.32 994.431C1559.18 993.047 1559.54 991.963 1559.38 991.191L1559.34 990.995C1559.26 990.607 1559.03 990.118 1558.65 989.52Z" fill="#FF3A6A"/>
<path d="M686.001 571.966L713.129 528.774C715.13 525.499 717.994 523.436 721.723 522.591C725.378 521.762 728.816 522.391 732.034 524.482C735.238 526.498 737.256 529.333 738.085 532.986C738.949 536.789 738.372 540.288 736.357 543.489L709.205 586.573L752.313 613.704C755.535 615.798 757.567 618.706 758.417 622.432C759.246 626.085 758.661 629.549 756.657 632.824C754.643 636.025 751.806 638.042 748.151 638.871C744.423 639.717 740.953 639.133 737.753 637.116L694.592 609.758L667.265 653.114C665.246 656.316 662.41 658.333 658.758 659.161C655.026 660.007 651.56 659.423 648.356 657.407C645.138 655.316 643.113 652.443 642.281 648.79C641.434 645.064 642.012 641.562 644.012 638.287L671.164 595.207L628.052 568.072C624.849 566.055 622.817 563.147 621.953 559.344C621.124 555.692 621.715 552.266 623.733 549.064C625.734 545.789 628.598 543.727 632.33 542.881C635.985 542.053 639.42 542.682 642.641 544.772L686.001 571.966ZM733.59 529.774C731.674 527.544 729.26 526.25 726.354 525.89C724.986 525.729 723.703 525.785 722.51 526.058C721.468 526.292 720.541 526.701 719.729 527.274C719.051 527.743 718.376 528.564 717.701 529.735C717.536 530.399 717.487 530.882 717.557 531.179C717.641 531.553 718.057 531.654 718.802 531.483L719.026 531.434C720.359 530.738 721.583 530.263 722.702 530.011C726.284 529.197 729.337 530.385 731.866 533.573C732.048 533.688 732.216 533.73 732.366 533.695C732.737 533.611 733.09 533.258 733.419 532.633C733.937 531.811 734.147 531.175 734.045 530.728L734.017 530.616C733.968 530.392 733.825 530.113 733.59 529.774ZM625.132 555.213C625.065 555.622 625.062 555.936 625.111 556.16L625.135 556.272C625.237 556.719 625.702 557.202 626.524 557.719C627.091 558.138 627.559 558.306 627.934 558.222C628.084 558.187 628.213 558.079 628.329 557.897C629.231 553.93 631.473 551.539 635.055 550.728C636.174 550.473 637.482 550.372 638.986 550.424L639.21 550.372C639.955 550.204 640.284 549.931 640.2 549.561C640.133 549.26 639.882 548.848 639.448 548.32C638.332 547.554 637.367 547.107 636.555 546.978C635.576 546.806 634.562 546.841 633.519 547.079C632.327 547.348 631.144 547.852 629.98 548.589C627.514 550.165 625.898 552.375 625.132 555.213Z" fill="#FF3A6A"/>
<path d="M1572.11 739.122L1573.96 748.617L1561.07 751.122L1568.67 790.28L1556.82 792.582L1549.22 753.424L1536.32 755.928L1534.48 746.433L1572.11 739.122ZM1633.16 727.264L1642.61 775.917L1630.76 778.219L1625.09 749.041L1619.88 780.333L1610.31 782.191L1593.68 755.071L1599.36 784.318L1587.51 786.62L1578.06 737.967L1592.06 735.248L1612.26 766.278L1619.23 729.97L1633.16 727.264Z" fill="white"/>
<path d="M233.631 1016.41L229.994 1001.64L149.035 1021.49L152.673 1036.26L233.631 1016.41Z" fill="white"/>
<path d="M162.361 1071.49L166.955 1085.37L195.566 1075.94C207.553 1071.99 215.826 1076.52 218.516 1084.64C220.794 1091.52 216.974 1097.41 207.023 1100.69L175.472 1111.09L180.067 1124.96L211.731 1114.53C228.241 1109.09 236.253 1098.82 231.546 1084.6C228.857 1076.48 223.223 1070.83 214.564 1069.68L224.176 1066.51L219.581 1052.63L162.361 1071.49Z" fill="white"/>
<path d="M201.133 1138.44C191.889 1146.16 192.55 1157.91 196.413 1166.86C201.359 1178.31 211.646 1185.92 222.584 1181.23C227.397 1179.16 233.518 1173.81 232.369 1160.33L231.789 1150.88C231.564 1147.36 231.918 1143.97 234.981 1142.65C238.809 1141.01 242.38 1143.87 243.887 1147.37C245.159 1150.31 245.698 1154.87 241.826 1158.21L250.427 1167.32C258.826 1159.45 257.465 1149.68 254.45 1142.7C249.504 1131.24 239.282 1125.28 229 1129.7C223.968 1131.86 218.958 1137.38 219.559 1150.18L219.982 1159.58C220.02 1163.57 219.51 1166.89 216.666 1168.12C212.291 1169.99 208.984 1166.24 207.289 1162.31C205.122 1157.29 205.33 1150.86 210.187 1147.1L201.133 1138.44Z" fill="white"/>
<path d="M202.272 1238.75L234.104 1221.54C230.357 1229.11 231 1237.27 234.858 1244.38C243.653 1260.57 261.447 1263.65 276.42 1255.56C291.917 1247.18 298.713 1230.26 290.202 1214.59C286.003 1206.86 279.078 1202.09 271.276 1201.45L279.234 1197.14L272.255 1184.29L195.293 1225.9L202.272 1238.75ZM269.489 1242.55C260.379 1247.47 249.728 1246.07 244.452 1236.35C239.288 1226.85 242.73 1216.47 252.991 1210.92C263.462 1205.26 273.232 1209.04 277.998 1217.81C283.218 1227.42 278.913 1237.45 269.489 1242.55Z" fill="white"/>
<path d="M270.298 1299.79L320.879 1267.11L312.917 1254.84L262.335 1287.52L270.298 1299.79ZM326.746 1243.36C322.348 1246.2 321.25 1251.73 324.228 1256.31C327.206 1260.9 332.835 1262.36 337.233 1259.52C341.632 1256.68 342.7 1250.89 339.722 1246.3C336.744 1241.72 331.144 1240.52 326.746 1243.36Z" fill="white"/>
<path d="M347.121 1304.16L338.532 1292.61L290.145 1328.45L298.877 1340.18L321.253 1323.61C334.641 1313.69 342.355 1319.08 345.55 1323.37C346.686 1324.9 348.032 1327.3 348.711 1329.61L360.282 1321.04C359.599 1319.33 359.176 1318.16 357.97 1316.54C354.136 1311.39 345.842 1307.62 336.411 1312.09L347.121 1304.16Z" fill="white"/>
<path d="M337.688 1388.37L383.682 1349.52L374.217 1338.37L328.223 1377.21L337.688 1388.37ZM386.466 1325.22C382.467 1328.6 382.084 1334.22 385.623 1338.39C389.163 1342.56 394.933 1343.29 398.932 1339.91C402.932 1336.53 403.252 1330.66 399.712 1326.49C396.172 1322.32 390.466 1321.84 386.466 1325.22Z" fill="white"/>
<path d="M361.161 1414.68L371.445 1425.08L392.903 1403.98C401.893 1395.14 411.322 1395.54 417.342 1401.63C422.442 1406.79 421.634 1413.76 414.171 1421.1L390.508 1444.37L400.792 1454.78L424.539 1431.43C436.922 1419.25 439.54 1406.5 429.005 1395.84C422.985 1389.74 415.424 1387.17 407.151 1389.97L414.36 1382.88L404.076 1372.47L361.161 1414.68Z" fill="white"/>
<path d="M448.207 1455.89C454.847 1447.95 465.263 1445.33 473.767 1452.41C482.087 1459.34 482.735 1470.24 475.256 1479.18C467.625 1488.31 457.149 1488.4 449.468 1482.01C441.057 1475.01 441.339 1464.1 448.207 1455.89ZM408.872 1488.44C410.315 1495.99 414.258 1504.07 424.316 1512.45C438.945 1524.63 455.474 1525.08 471.423 1506.02L505.84 1464.88L494.594 1455.51L488.87 1462.35C489.548 1453.94 485.924 1446.59 479.707 1441.42C465.534 1429.61 447.859 1433.31 436.946 1446.36C425.652 1459.86 425.607 1478.08 439.323 1489.5C445.814 1494.91 454.459 1497 461.703 1494.83L457.201 1500.21C448.883 1510.15 439.064 1508.17 431.11 1501.54C425.532 1496.9 421.665 1489.66 420.678 1483.42C416.773 1485.12 412.868 1486.82 408.872 1488.44Z" fill="white"/>
<path d="M541.611 1561.04L587.391 1488.28L574.984 1480.51L529.204 1553.27L541.611 1561.04Z" fill="white"/>
<path d="M624.298 1585.7C617.603 1587.42 611.374 1587.24 604.736 1583.75C593.25 1577.71 589.898 1567.49 594.338 1559.08L638.594 1582.34C649.417 1561.84 640.598 1545.66 626.162 1538.07C609.303 1529.21 590.425 1535.14 582.21 1550.69C574.218 1565.83 579.153 1584.27 598.331 1594.35C606.55 1598.67 616.461 1601.06 627.844 1596.83L624.298 1585.7ZM620.723 1548.37C626.202 1551.25 632.251 1557.39 629.924 1566.64L599.577 1550.69C606.647 1543.93 615.033 1545.38 620.723 1548.37Z" fill="white"/>
<path d="M711.529 1577.62L708.151 1585.87C706.243 1577.65 700.558 1571.74 693.061 1568.68C675.972 1561.72 660.249 1570.58 653.809 1586.31C647.144 1602.59 652.635 1619.97 669.173 1626.71C677.331 1630.04 685.718 1629.35 692.164 1624.92L688.742 1633.27L702.303 1638.8L725.09 1583.14L711.529 1577.62ZM667.435 1591.99C671.353 1582.42 680.484 1576.78 690.738 1580.95C700.771 1585.04 704.699 1595.24 700.286 1606.02C695.783 1617.02 685.829 1620.28 676.568 1616.51C666.424 1612.37 663.382 1601.89 667.435 1591.99Z" fill="white"/>
<path d="M758.345 1593.26L744.589 1588.97L726.633 1646.36L740.616 1650.72L748.92 1624.18C753.888 1608.3 763.301 1608.12 768.417 1609.71C770.236 1610.28 772.744 1611.43 774.656 1612.9L778.95 1599.18C777.387 1598.19 776.356 1597.5 774.424 1596.9C768.285 1594.98 759.355 1596.81 754.37 1605.96L758.345 1593.26Z" fill="white"/>
<path d="M786.499 1663.74L800.795 1666.92L807.362 1637.59C810.114 1625.29 818.257 1620.53 826.626 1622.4C833.716 1623.98 836.823 1630.27 834.538 1640.47L827.296 1672.83L841.593 1676.01L848.861 1643.54C852.651 1626.61 847.922 1614.48 833.277 1611.22C824.909 1609.36 817.156 1611.28 811.723 1618.1L813.93 1608.25L799.633 1605.06L786.499 1663.74Z" fill="white"/>
<path d="M881.677 1681.67L890.323 1622.17L875.826 1620.07L867.18 1679.57L881.677 1681.67ZM876.268 1602.13C875.516 1607.3 878.959 1611.76 884.381 1612.55C889.803 1613.33 894.609 1610.06 895.361 1604.89C896.113 1599.72 892.451 1595.1 887.029 1594.32C881.608 1593.54 877.019 1596.95 876.268 1602.13Z" fill="white"/>
<path d="M916.73 1685.85L931.344 1686.85L933.398 1656.86C934.259 1644.3 941.589 1638.36 950.144 1638.95C957.392 1639.44 961.414 1645.19 960.7 1655.63L958.435 1688.7L973.049 1689.69L975.323 1656.5C976.508 1639.2 969.999 1627.92 955.028 1626.9C946.473 1626.31 939.101 1629.38 934.762 1636.95L935.453 1626.87L920.838 1625.87L916.73 1685.85Z" fill="white"/>
<path d="M1009.3 1659.18C1009 1648.85 1015.06 1639.99 1026.13 1639.68C1036.96 1639.36 1044.69 1647.11 1045.03 1658.74C1045.37 1670.62 1037.59 1677.62 1027.59 1677.91C1016.64 1678.22 1009.61 1669.87 1009.3 1659.18ZM1001.46 1709.56C1007.55 1714.26 1015.87 1717.71 1028.97 1717.33C1048.02 1716.78 1060.7 1706.2 1059.98 1681.37L1058.43 1627.81L1043.79 1628.23L1044.05 1637.14C1038.97 1630.39 1031.37 1627.28 1023.28 1627.52C1004.82 1628.05 994.041 1642.5 994.532 1659.48C995.04 1677.06 1007.11 1690.74 1024.97 1690.23C1033.42 1689.98 1041.28 1685.83 1045.27 1679.42L1045.47 1686.43C1045.84 1699.37 1037.17 1704.38 1026.82 1704.67C1019.55 1704.88 1011.85 1702.01 1006.96 1697.99C1005.17 1701.85 1003.37 1705.7 1001.46 1709.56Z" fill="white"/>
<path d="M1193.11 1637.14C1189.98 1620.44 1176.36 1608.6 1158.22 1611.99C1150.26 1613.47 1143.5 1618.12 1139.97 1625.79L1133.57 1591.69L1119.17 1594.38L1135.02 1678.81L1149.41 1676.13L1147.75 1667.25C1153.17 1672.89 1161.24 1675.25 1169.91 1673.63C1187.47 1670.35 1196.35 1654.43 1193.11 1637.14ZM1178.62 1639.97C1180.59 1650.48 1175.49 1660.13 1164.72 1662.15C1154.89 1663.98 1145.92 1658.77 1143.72 1647.09C1141.58 1635.64 1147.37 1626.47 1158.02 1624.48C1168.91 1622.44 1176.71 1629.81 1178.62 1639.97Z" fill="white"/>
<path d="M1239.91 1635.47L1212.7 1600.37L1196.79 1604.93L1237.05 1652.24L1233.78 1685.19L1247.63 1681.22L1259.4 1586.99L1243.61 1591.52L1239.91 1635.47Z" fill="white"/>
<path d="M1378.24 1582.18C1375.52 1588.52 1371.56 1593.32 1364.74 1596.44C1352.93 1601.82 1342.77 1598.23 1338.81 1589.58L1384.3 1568.83C1374.65 1547.76 1356.41 1544.84 1341.58 1551.61C1324.25 1559.52 1317.42 1578.05 1324.75 1594.04C1331.88 1609.6 1349.53 1616.96 1369.24 1607.97C1377.69 1604.12 1385.64 1597.75 1389.24 1586.18L1378.24 1582.18ZM1346.43 1562.2C1352.06 1559.63 1360.62 1558.6 1366.55 1566.09L1335.35 1580.32C1334.31 1570.6 1340.58 1564.87 1346.43 1562.2Z" fill="white"/>
<path d="M1449.87 1563.33L1462.32 1555.85L1446.39 1529.5C1439.87 1518.02 1442.84 1510.27 1448.55 1506.83C1454.57 1503.21 1460.97 1505.75 1466.38 1514.7L1483.53 1543.09L1496.08 1535.55L1478.86 1507.06C1469.88 1492.2 1458.48 1486.44 1445.11 1494.47C1439.5 1497.85 1433.12 1503.63 1434.02 1514.32C1426.35 1509.22 1418.49 1510.48 1412.07 1514.35C1405.44 1518.33 1401.71 1525.29 1402.77 1533.25L1397.55 1524.6L1385 1532.15L1416.11 1583.64L1428.66 1576.09L1412.73 1549.74C1406.21 1538.26 1409.18 1530.51 1414.89 1527.07C1420.91 1523.46 1427.31 1525.99 1432.72 1534.94L1449.87 1563.33Z" fill="white"/>
<path d="M1545.6 1458.25C1535.18 1444.81 1517.65 1440.46 1503.05 1451.73C1496.65 1456.67 1492.75 1463.88 1493.12 1472.32L1471.84 1444.88L1460.25 1453.82L1512.94 1521.76L1524.53 1512.82L1518.99 1505.68C1526.39 1508.23 1534.65 1506.65 1541.63 1501.27C1555.75 1490.37 1556.39 1472.16 1545.6 1458.25ZM1533.99 1467.36C1540.55 1475.81 1540.43 1486.72 1531.76 1493.41C1523.85 1499.52 1513.48 1498.96 1506.19 1489.56C1499.05 1480.35 1500.01 1469.55 1508.58 1462.94C1517.34 1456.17 1527.65 1459.18 1533.99 1467.36Z" fill="white"/>
<path d="M1549.72 1413.34L1539.12 1423.07L1579.91 1467.32L1590.69 1457.42L1571.83 1436.96C1560.54 1424.72 1565.1 1416.5 1569.04 1412.88C1570.45 1411.59 1572.7 1410.01 1574.93 1409.09L1565.18 1398.51C1563.54 1399.37 1562.42 1399.91 1560.93 1401.28C1556.2 1405.62 1553.31 1414.24 1558.75 1423.13L1549.72 1413.34Z" fill="white"/>
<path d="M1611.86 1349.7L1618.45 1355.72C1610.05 1354.66 1602.53 1357.93 1597.05 1363.88C1584.58 1377.46 1587.46 1395.24 1600.02 1406.72C1613.01 1418.61 1631.26 1419.5 1643.33 1406.36C1649.28 1399.88 1651.54 1391.79 1649.61 1384.22L1656.29 1390.32L1666.18 1379.55L1621.76 1338.93L1611.86 1349.7ZM1610.09 1395.94C1602.45 1388.96 1600.3 1378.46 1607.79 1370.31C1615.11 1362.34 1626.06 1362.2 1634.67 1370.07C1643.45 1378.1 1643.06 1388.54 1636.3 1395.9C1628.9 1403.96 1617.99 1403.17 1610.09 1395.94Z" fill="white"/>
<path d="M1655.72 1344.63C1669.66 1355.2 1688.32 1353.08 1701 1336.43C1704.53 1331.79 1708.39 1324.57 1708.5 1313.02L1696.15 1312.16C1696.38 1320.1 1692.37 1326.16 1691 1327.95C1683.94 1337.23 1672.9 1339.15 1664.37 1332.69C1655.73 1326.15 1654.73 1315.09 1661.79 1305.82C1663.16 1304.02 1667.84 1298.46 1675.66 1296.64L1671.42 1284.92C1660.4 1288.2 1654.46 1293.84 1650.93 1298.48C1638.03 1315.42 1641.49 1333.85 1655.72 1344.63Z" fill="white"/>
<path d="M1733.33 1287.09L1682.88 1254.21L1674.87 1266.45L1725.32 1299.32L1733.33 1287.09ZM1658.74 1258.49C1663.13 1261.35 1668.63 1260.11 1671.63 1255.54C1674.62 1250.96 1673.68 1245.23 1669.29 1242.38C1664.9 1239.52 1659.17 1240.89 1656.17 1245.47C1653.18 1250.04 1654.35 1255.63 1658.74 1258.49Z" fill="white"/>
<path d="M1751.9 1257.13L1758.96 1244.33L1732.56 1229.84C1721.5 1223.77 1719.19 1214.64 1723.32 1207.14C1726.83 1200.79 1733.75 1199.58 1742.93 1204.62L1772.05 1220.59L1779.11 1207.79L1749.89 1191.75C1734.65 1183.39 1721.65 1184.53 1714.42 1197.65C1710.29 1205.15 1709.98 1213.11 1715.03 1220.22L1706.16 1215.35L1699.1 1228.16L1751.9 1257.13Z" fill="white"/>
<path d="M1766.62 1162.14C1757.1 1158.06 1751.61 1148.85 1755.98 1138.69C1760.26 1128.76 1770.55 1125.03 1781.27 1129.62C1792.22 1134.31 1795.3 1144.3 1791.36 1153.47C1787.03 1163.51 1776.47 1166.36 1766.62 1162.14ZM1809.13 1190.44C1815.97 1186.91 1822.61 1180.83 1827.78 1168.82C1835.3 1151.36 1831.01 1135.42 1808.14 1125.62L1758.79 1104.47L1753.01 1117.9L1761.22 1121.41C1752.94 1123.17 1746.92 1128.73 1743.72 1136.16C1736.44 1153.08 1745.04 1168.92 1760.69 1175.63C1776.88 1182.57 1794.4 1177.4 1801.45 1161.03C1804.79 1153.28 1804.33 1144.42 1800.17 1138.11L1806.63 1140.88C1818.56 1145.99 1819.45 1155.94 1815.36 1165.44C1812.5 1172.1 1806.64 1177.87 1800.93 1180.59C1803.68 1183.84 1806.43 1187.09 1809.13 1190.44Z" fill="white"/>
<path d="M1847.16 1017.87L1850.51 1003.77L1820.5 996.661C1807.72 993.269 1804.25 985.731 1805.79 979.257C1807.41 972.437 1813.71 969.652 1823.9 972.067L1856.23 979.721L1859.62 965.501L1827.17 957.82C1810.25 953.815 1798.14 957.908 1794.54 973.052C1793.03 979.41 1792.7 988.001 1800.98 994.848C1791.96 996.742 1787.36 1003.22 1785.63 1010.51C1783.84 1018.02 1786.21 1025.54 1792.66 1030.37L1782.81 1028.03L1779.42 1042.25L1838.06 1056.13L1841.44 1041.91L1811.43 1034.81C1798.65 1031.42 1795.18 1023.88 1796.72 1017.41C1798.34 1010.59 1804.63 1007.8 1814.83 1010.22L1847.16 1017.87Z" fill="white"/>
<path d="M1863.23 929.647L1803.54 921.358L1801.52 935.832L1861.21 944.121L1863.23 929.647ZM1783.53 935.493C1788.72 936.214 1793.17 932.753 1793.93 927.34C1794.68 921.927 1791.38 917.15 1786.19 916.429C1781 915.708 1776.4 919.388 1775.64 924.801C1774.89 930.214 1778.34 934.772 1783.53 935.493Z" fill="white"/>
<path d="M1852.46 899.096C1864.22 896.461 1869.03 885.719 1869.71 876C1870.58 863.555 1864.94 852.086 1853.06 851.259C1847.83 850.895 1839.93 852.846 1834.76 865.349L1830.93 874.015C1829.51 877.251 1827.64 880.098 1824.31 879.867C1820.16 879.577 1818.3 875.398 1818.56 871.606C1818.79 868.405 1820.4 864.111 1825.38 862.909L1821.92 850.878C1810.84 854.036 1807.56 863.336 1807.03 870.922C1806.16 883.367 1812.51 893.337 1823.68 894.114C1829.14 894.495 1836.13 891.885 1841.48 880.228L1845.42 871.689C1847.22 868.122 1849.2 865.402 1852.29 865.617C1857.04 865.948 1858.26 870.796 1857.96 875.063C1857.58 880.515 1854.44 886.132 1848.39 887.26L1852.46 899.096Z" fill="white"/>
<path d="M1793.87 807.559L1793.97 818.846L1810.06 821.324L1810.15 831.423L1821.34 831.329L1821.26 821.943L1850.8 821.694C1867.35 821.555 1871.56 811.658 1871.47 801.678C1871.36 788.728 1863.45 782.735 1854.64 782.809C1853.57 782.818 1850.12 783.085 1847.86 784.173L1847.96 796.173C1849.27 795.567 1851.65 795.31 1852.96 795.299C1856.65 795.268 1859.17 797.623 1859.2 801.187C1859.24 805.464 1856.39 807.033 1852.7 807.064L1821.14 807.329L1820.99 789.389L1809.8 789.484L1809.95 807.424L1793.87 807.559Z" fill="white"/>
<path d="M1804.1 718.554L1812.99 717.7C1806.58 723.209 1803.98 730.979 1804.76 739.021C1806.53 757.352 1821.71 767.113 1838.66 765.485C1856.2 763.799 1869.07 750.865 1867.36 733.125C1866.51 724.373 1862 717.287 1855.07 713.656L1864.08 712.79L1862.68 698.243L1802.69 704.007L1804.1 718.554ZM1837.36 750.808C1827.05 751.799 1817.79 746.363 1816.73 735.364C1815.69 724.602 1822.91 716.388 1834.53 715.272C1846.38 714.133 1853.9 721.407 1854.86 731.341C1855.91 742.222 1848.03 749.783 1837.36 750.808Z" fill="white"/>
<path d="M1820.67 665.371L1770.86 674.964L1773.64 689.313L1858.18 673.031L1855.4 658.682L1826.76 664.2L1843.63 648.607C1848.69 643.398 1852.63 637.436 1850.89 628.453C1850.33 625.537 1848.76 619.305 1843.01 615.328L1834.07 622.375C1836.27 624.371 1837.28 627.686 1837.53 628.97C1838.36 633.286 1836.62 635.558 1832.76 639.447L1820.68 650.97L1791.33 635.325L1789.58 635.663L1792.65 651.529L1820.67 665.371Z" fill="white"/>
<path d="M1810.04 554.104C1815.93 557.716 1820.13 562.315 1822.22 569.502C1825.85 581.938 1820.8 591.443 1811.65 594.098L1797.69 546.182C1775.39 552.651 1769.84 570.222 1774.4 585.852C1779.72 604.105 1797.1 613.538 1814.03 608.628C1830.5 603.85 1840.37 587.5 1834.31 566.736C1831.72 557.837 1826.56 549.065 1815.6 543.829L1810.04 554.104ZM1785.61 582.6C1783.88 576.668 1784.1 568.066 1792.38 563.31L1801.96 596.167C1792.18 595.789 1787.4 588.761 1785.61 582.6Z" fill="white"/>
<path d="M1805.24 528.007C1814.76 520.622 1814.52 508.859 1810.99 499.778C1806.46 488.149 1796.45 480.174 1785.35 484.477C1780.47 486.37 1774.16 491.493 1774.82 505.002L1775.05 514.47C1775.15 518.001 1774.68 521.373 1771.57 522.577C1767.68 524.083 1764.22 521.093 1762.84 517.549C1761.67 514.559 1761.3 509.988 1765.29 506.784L1757.02 497.369C1748.34 504.939 1749.35 514.746 1752.11 521.833C1756.64 533.462 1766.64 539.783 1777.08 535.738C1782.18 533.759 1787.39 528.426 1787.25 515.606L1787.17 506.206C1787.27 502.213 1787.9 498.91 1790.79 497.791C1795.23 496.07 1798.4 499.94 1799.95 503.927C1801.94 509.021 1801.5 515.438 1796.51 519.029L1805.24 528.007Z" fill="white"/>
<defs>
<filter id="filter0_d_490_10057" x="175.296" y="0.171053" width="1627.91" height="1627.91" filterUnits="userSpaceOnUse" color-interpolation-filters="sRGB">
<feFlood flood-opacity="0" result="BackgroundImageFix"/>
<feColorMatrix in="SourceAlpha" type="matrix" values="0 0 0 0 0 0 0 0 0 0 0 0 0 0 0 0 0 0 127 0" result="hardAlpha"/>
<feOffset dy="21.0054"/>
<feGaussianBlur stdDeviation="28.8824"/>
<feComposite in2="hardAlpha" operator="out"/>
<feColorMatrix type="matrix" values="0 0 0 0 0 0 0 0 0 0 0 0 0 0 0 0 0 0 0.25 0"/>
<feBlend mode="normal" in2="BackgroundImageFix" result="effect1_dropShadow_490_10057"/>
<feBlend mode="normal" in="SourceGraphic" in2="effect1_dropShadow_490_10057" result="shape"/>
</filter>
</defs>
</svg>
