<?xml version="1.0" encoding="UTF-8" standalone="no"?><!DOCTYPE svg PUBLIC "-//W3C//DTD SVG 1.1//EN" "http://www.w3.org/Graphics/SVG/1.1/DTD/svg11.dtd"><svg width="100%" height="100%" viewBox="0 0 36 38" version="1.1" xmlns="http://www.w3.org/2000/svg" xmlns:xlink="http://www.w3.org/1999/xlink" xml:space="preserve" xmlns:serif="http://www.serif.com/" style="fill-rule:evenodd;clip-rule:evenodd;stroke-linejoin:round;stroke-miterlimit:1.41421;"><path d="M25.531,18.504l8.837,9.121c1.052,1.086 1.568,2.4 1.547,3.942c0,1.52 -0.516,2.812 -1.547,3.876c-1.052,1.086 -2.314,1.629 -3.787,1.629c-1.473,0 -2.735,-0.543 -3.787,-1.629l-8.837,-9.121l-8.836,9.121c-1.052,1.086 -2.304,1.64 -3.756,1.662c-1.473,0 -2.746,-0.554 -3.819,-1.662c-1.031,-1.064 -1.546,-2.356 -1.546,-3.876c0.021,-1.499 0.558,-2.791 1.61,-3.877l8.836,-9.121l-8.868,-9.154c-1.031,-1.064 -1.546,-2.356 -1.546,-3.876c0,-1.521 0.526,-2.824 1.578,-3.91c1.03,-1.064 2.282,-1.596 3.755,-1.596c1.494,-0.021 2.756,0.5 3.787,1.564l8.868,9.154l8.837,-9.122c1.031,-1.064 2.272,-1.607 3.724,-1.628c1.494,-0.022 2.756,0.499 3.787,1.563c1.073,1.108 1.599,2.433 1.578,3.975c-0.021,1.498 -0.547,2.779 -1.578,3.844l-8.837,9.121Zm8.837,-11.271c0.379,-1.13 0.316,-2.237 -0.189,-3.323c-0.232,-0.5 -0.516,-0.923 -0.852,-1.271c-0.295,-0.304 -0.621,-0.532 -0.979,-0.684c-0.231,-0.108 -0.389,-0.119 -0.473,-0.032c-0.126,0.13 -0.105,0.282 0.063,0.456c1.304,1.346 1.967,2.964 1.988,4.854c-0.021,0.152 0,0.26 0.063,0.325c0.042,0.044 0.095,0.055 0.158,0.033c0.042,0 0.074,-0.011 0.095,-0.033c0.042,-0.043 0.084,-0.152 0.126,-0.325Zm-0.158,25.637c0.379,-1.129 0.326,-2.226 -0.157,-3.29c-0.253,-0.521 -0.537,-0.945 -0.853,-1.271c-0.294,-0.304 -0.62,-0.532 -0.978,-0.684c-0.252,-0.13 -0.421,-0.152 -0.505,-0.065c-0.126,0.13 -0.105,0.282 0.063,0.456c1.326,1.368 1.988,2.986 1.988,4.854c-0.021,0.152 0,0.261 0.064,0.326c0.042,0.043 0.094,0.054 0.157,0.032c0.064,0.022 0.106,0.022 0.127,0c0.042,-0.043 0.073,-0.163 0.094,-0.358Z" style="fill:#3d4c9a;fill-rule:nonzero;"/></svg>