<svg width="986" height="1087" viewBox="0 0 986 1087" fill="none" xmlns="http://www.w3.org/2000/svg">
<rect x="942.123" y="189.573" width="36.8925" height="14.0631" rx="7.03156" transform="rotate(97.8166 942.123 189.573)" fill="#453371"/>
<rect x="648.498" y="205.395" width="36.8925" height="14.0631" rx="7.03156" transform="rotate(13.3593 648.498 205.395)" fill="#453371"/>
<rect x="651.57" y="345.378" width="36.8925" height="14.0631" rx="7.03156" transform="rotate(123.42 651.57 345.378)" fill="#453371"/>
<rect x="557.49" y="411.663" width="36.8925" height="14.0631" rx="7.03156" transform="rotate(14.0338 557.49 411.663)" fill="#453371"/>
<rect x="682.035" y="449.06" width="36.8925" height="14.0631" rx="7.03156" transform="rotate(76.7204 682.035 449.06)" fill="#453371"/>
<rect x="819.928" y="428.506" width="36.8925" height="14.0631" rx="7.03156" transform="rotate(97.8166 819.928 428.506)" fill="#453371"/>
<rect x="936.182" y="466.055" width="36.8925" height="14.0631" rx="7.03156" transform="rotate(78.7728 936.182 466.055)" fill="#453371"/>
<rect x="964.516" y="483.641" width="36.8925" height="14.0631" rx="7.03156" transform="rotate(10.9943 964.516 483.641)" fill="#453371"/>
<rect x="927.324" y="524.782" width="36.8925" height="14.0631" rx="7.03156" transform="rotate(11.2023 927.324 524.782)" fill="#453371"/>
<rect x="771.824" y="238.355" width="36.8925" height="14.0631" rx="7.03156" transform="rotate(55.8616 771.824 238.355)" fill="#453371"/>
<rect x="902.824" y="220.355" width="36.8925" height="14.0631" rx="7.03156" transform="rotate(55.8616 902.824 220.355)" fill="#453371"/>
<rect x="947.869" y="242.897" width="36.8925" height="14.0631" rx="7.03156" transform="rotate(25.501 947.869 242.897)" fill="#453371"/>
<rect x="739.023" y="116.893" width="36.8925" height="14.0631" rx="7.03156" transform="rotate(56.0372 739.023 116.893)" fill="#453371"/>
<rect x="735.709" y="75.49" width="36.8925" height="14.0631" rx="7.03156" transform="rotate(146.689 735.709 75.49)" fill="#453371"/>
<rect x="901.961" y="164.686" width="33.5039" height="14.0631" rx="7.03156" transform="rotate(147.782 901.961 164.686)" fill="#453371"/>
<rect x="912.148" y="179.134" width="33.5039" height="14.0631" rx="7.03156" transform="rotate(147.782 912.148 179.134)" fill="#453371"/>
<rect x="987.684" y="183.269" width="33.5039" height="14.0631" rx="7.03156" transform="rotate(-116.543 987.684 183.269)" fill="#453371"/>
<rect x="972.299" y="191.978" width="33.5039" height="14.0631" rx="7.03156" transform="rotate(-116.543 972.299 191.978)" fill="#453371"/>
<rect x="647.072" y="424.144" width="33.5039" height="14.0631" rx="7.03156" transform="rotate(146.738 647.072 424.144)" fill="#453371"/>
<rect x="657.521" y="438.403" width="33.5039" height="14.0631" rx="7.03156" transform="rotate(146.738 657.521 438.403)" fill="#453371"/>
<rect x="766.363" y="333.631" width="33.5039" height="14.0631" rx="7.03156" transform="rotate(-116.076 766.363 333.631)" fill="#453371"/>
<rect x="750.91" y="342.214" width="33.5039" height="14.0631" rx="7.03156" transform="rotate(-116.076 750.91 342.214)" fill="#453371"/>
<rect x="617.75" y="215.917" width="33.5039" height="14.0631" rx="7.03156" transform="rotate(-168.575 617.75 215.917)" fill="#453371"/>
<rect x="615.152" y="233.403" width="33.5039" height="14.0631" rx="7.03156" transform="rotate(-168.575 615.152 233.403)" fill="#453371"/>
<rect x="694.102" y="122.875" width="33.5039" height="14.0631" rx="7.03156" transform="rotate(-168.575 694.102 122.875)" fill="#453371"/>
<rect x="691.504" y="140.362" width="33.5039" height="14.0631" rx="7.03156" transform="rotate(-168.575 691.504 140.362)" fill="#453371"/>
<rect x="784.502" y="90.8707" width="33.5039" height="14.0631" rx="7.03156" transform="rotate(-139.356 784.502 90.8707)" fill="#453371"/>
<rect x="773.697" y="104.865" width="33.5039" height="14.0631" rx="7.03156" transform="rotate(-139.356 773.697 104.865)" fill="#453371"/>
<rect x="733.098" y="516.481" width="33.5039" height="14.0631" rx="7.03156" transform="rotate(-139.356 733.098 516.481)" fill="#453371"/>
<rect x="722.293" y="530.474" width="33.5039" height="14.0631" rx="7.03156" transform="rotate(-139.356 722.293 530.474)" fill="#453371"/>
<rect x="842.812" y="455.383" width="72.4745" height="14.0631" rx="7.03156" transform="rotate(-39.0677 842.812 455.383)" fill="#453371"/>
<rect x="856.914" y="406.049" width="72.4745" height="14.0631" rx="7.03156" transform="rotate(49.7794 856.914 406.049)" fill="#453371"/>
<rect x="583.789" y="524.637" width="72.4745" height="14.0631" rx="7.03156" transform="rotate(-82.3474 583.789 524.637)" fill="#453371"/>
<rect x="560.236" y="479.055" width="72.4745" height="14.0631" rx="7.03156" transform="rotate(6.49973 560.236 479.055)" fill="#453371"/>
<rect x="612.447" y="43.2162" width="72.4745" height="14.0631" rx="7.03156" transform="rotate(10.3617 612.447 43.2162)" fill="#453371"/>
<rect x="659.092" y="21.8428" width="72.4745" height="14.0631" rx="7.03156" transform="rotate(99.2088 659.092 21.8428)" fill="#453371"/>
<rect x="819.184" y="288.874" width="63.8357" height="12.1463" rx="6.07316" transform="rotate(-3.36271 819.184 288.874)" fill="#453371"/>
<rect x="862.012" y="260.394" width="65.3708" height="12.1463" rx="6.07316" transform="rotate(99.6574 862.012 260.394)" fill="#453371"/>
<rect x="679.91" y="183.743" width="73.9096" height="14.0631" rx="7.03156" transform="rotate(-7.68672 679.91 183.743)" fill="#453371"/>
<rect x="726.869" y="147.122" width="75.687" height="14.0631" rx="7.03156" transform="rotate(95.3334 726.869 147.122)" fill="#453371"/>
<rect x="556.729" y="270.368" width="97.9634" height="18.6399" rx="9.31998" transform="rotate(25.5133 556.729 270.368)" fill="#453371"/>
<rect x="635.391" y="263.833" width="100.319" height="18.64" rx="9.31998" transform="rotate(128.533 635.391 263.833)" fill="#453371"/>
<rect x="968.346" y="313.42" width="73.9096" height="14.0631" rx="7.03156" transform="rotate(45.0498 968.346 313.42)" fill="#453371"/>
<rect x="1025.92" y="328.62" width="75.687" height="14.0631" rx="7.03156" transform="rotate(148.07 1025.92 328.62)" fill="#453371"/>
<rect x="792.367" y="477.394" width="73.9096" height="14.0631" rx="7.03156" transform="rotate(82.0265 792.367 477.394)" fill="#453371"/>
<rect x="829.221" y="524.17" width="75.687" height="14.0631" rx="7.03156" transform="rotate(-174.953 829.221 524.17)" fill="#453371"/>
<rect x="861.324" y="61.5823" width="73.9096" height="14.0631" rx="7.03156" transform="rotate(82.0265 861.324 61.5823)" fill="#453371"/>
<rect x="898.178" y="108.359" width="75.687" height="14.0631" rx="7.03156" transform="rotate(-174.953 898.178 108.359)" fill="#453371"/>
<rect x="793.914" y="199.083" width="57.9459" height="17.1036" rx="8.55179" transform="rotate(23.1773 793.914 199.083)" fill="#453371"/>
<circle cx="827.344" cy="200.043" r="6.65139" transform="rotate(9.81184 827.344 200.043)" fill="#453371"/>
<circle cx="811.505" cy="235.876" r="6.65139" transform="rotate(9.81184 811.505 235.876)" fill="#453371"/>
<rect x="914.062" y="119.338" width="47.645" height="14.0631" rx="7.03156" transform="rotate(-20.3099 914.062 119.338)" fill="#453371"/>
<circle cx="934.549" cy="100.993" r="5.46899" transform="rotate(-33.6754 934.549 100.993)" fill="#453371"/>
<circle cx="945.373" cy="131.333" r="5.46899" transform="rotate(-33.6754 945.373 131.333)" fill="#453371"/>
<rect x="590.994" y="133.064" width="47.645" height="14.0631" rx="7.03156" transform="rotate(9.88843 590.994 133.064)" fill="#453371"/>
<circle cx="617.925" cy="127.513" r="5.46899" transform="rotate(-3.47708 617.925 127.513)" fill="#453371"/>
<circle cx="612.021" cy="159.18" r="5.46899" transform="rotate(-3.47708 612.021 159.18)" fill="#453371"/>
<rect x="571.082" y="352.595" width="47.645" height="14.0631" rx="7.03156" transform="rotate(51.4897 571.082 352.595)" fill="#453371"/>
<circle cx="594.906" cy="366.328" r="5.46899" transform="rotate(38.1242 594.906 366.328)" fill="#453371"/>
<circle cx="569.467" cy="386.089" r="5.46899" transform="rotate(38.1242 569.467 386.089)" fill="#453371"/>
<rect x="953.521" y="406.049" width="47.645" height="14.0631" rx="7.03156" transform="rotate(51.4897 953.521 406.049)" fill="#453371"/>
<circle cx="977.346" cy="419.781" r="5.46899" transform="rotate(38.1242 977.346 419.781)" fill="#453371"/>
<circle cx="951.906" cy="439.543" r="5.46899" transform="rotate(38.1242 951.906 439.543)" fill="#453371"/>
<rect x="800.447" y="354.052" width="47.645" height="14.0631" rx="7.03156" transform="rotate(9.24731 800.447 354.052)" fill="#453371"/>
<circle cx="827.318" cy="348.202" r="5.46899" transform="rotate(-4.11819 827.318 348.202)" fill="#453371"/>
<circle cx="821.771" cy="379.935" r="5.46899" transform="rotate(-4.11819 821.771 379.935)" fill="#453371"/>
<rect x="727.068" y="451.38" width="47.645" height="14.0631" rx="7.03156" transform="rotate(-26.7043 727.068 451.38)" fill="#453371"/>
<circle cx="745.383" cy="430.869" r="5.46899" transform="rotate(-40.0698 745.383 430.869)" fill="#453371"/>
<circle cx="759.52" cy="459.813" r="5.46899" transform="rotate(-40.0698 759.52 459.813)" fill="#453371"/>
<rect x="849.631" y="531.249" width="47.645" height="14.0631" rx="7.03156" transform="rotate(-26.7043 849.631 531.249)" fill="#453371"/>
<circle cx="867.946" cy="510.738" r="5.46899" transform="rotate(-40.0698 867.946 510.738)" fill="#453371"/>
<circle cx="882.083" cy="539.683" r="5.46899" transform="rotate(-40.0698 882.083 539.683)" fill="#453371"/>
<circle cx="920.207" cy="314.676" r="5.46899" transform="rotate(9.81184 920.207 314.676)" fill="#453371"/>
<path d="M917.436 326.09C913.587 325.425 912.722 330.426 910.851 332.084C907.855 334.737 902.555 337.256 900.28 338.184C890.045 342.357 887.789 350.828 887.848 355.067C888.017 366.99 901.395 373 907.006 372.649C923.445 372.954 927.783 364.084 928.281 359.677C928.779 355.27 925.23 354.396 924.46 354.263C922.15 353.864 920.182 356.089 919.042 358.08C915.407 364.428 908.771 363.968 906.294 363.011C901.367 362.159 899.73 358.176 899.528 356.291C899.468 349.303 905.543 345.966 908.587 345.171C916.83 341.522 920.203 336.08 920.859 333.814C922.433 328.378 920.516 326.623 917.436 326.09Z" fill="#453371"/>
<circle cx="669.867" cy="292.339" r="5.2123" transform="rotate(-151.219 669.867 292.339)" fill="#453371"/>
<path d="M675.902 282.909C679.165 284.701 681.494 280.462 683.694 279.547C687.216 278.084 692.773 277.455 695.112 277.324C705.629 276.734 710.287 269.798 711.547 265.958C715.089 255.161 704.893 245.599 699.727 244.177C685.005 238.809 678.347 245.459 676.533 249.277C674.719 253.095 677.647 254.982 678.3 255.341C680.257 256.416 682.721 255.02 684.365 253.579C689.608 248.983 695.446 251.454 697.383 253.084C701.56 255.379 701.8 259.476 701.399 261.237C699.288 267.554 692.779 268.679 689.789 268.453C681.229 269.188 676.503 273.048 675.21 274.887C672.107 279.299 673.291 281.475 675.902 282.909Z" fill="#453371"/>
<circle cx="797.941" cy="191.363" r="5.46899" transform="rotate(-165.459 797.941 191.363)" fill="#453371"/>
<path d="M801.641 180.216C805.423 181.196 806.697 176.284 808.699 174.786C811.903 172.388 817.392 170.314 819.737 169.577C830.28 166.263 833.228 158.006 833.518 153.777C834.333 141.881 821.496 134.789 815.875 134.676C799.517 133.016 794.463 141.498 793.603 145.849C792.744 150.2 796.208 151.364 796.965 151.56C799.233 152.148 801.378 150.093 802.678 148.203C806.824 142.175 813.4 143.181 815.79 144.339C820.63 145.595 821.932 149.699 821.978 151.595C821.462 158.563 815.133 161.388 812.034 161.929C803.518 164.886 799.708 170.032 798.868 172.236C796.85 177.524 798.616 179.431 801.641 180.216Z" fill="#453371"/>
<rect x="707.934" y="406.372" width="72.4745" height="14.0631" rx="7.03156" transform="rotate(-109.476 707.934 406.372)" fill="#453371"/>
<rect x="666.184" y="376.546" width="72.4745" height="14.0631" rx="7.03156" transform="rotate(-20.6293 666.184 376.546)" fill="#453371"/>
<rect x="444.055" y="218.355" width="36.8925" height="14.0631" rx="7.03156" transform="rotate(88.0048 444.055 218.355)" fill="#453371"/>
<rect x="143.436" y="282.988" width="36.8925" height="14.0631" rx="7.03156" transform="rotate(3.5475 143.436 282.988)" fill="#453371"/>
<rect x="170.318" y="420.4" width="36.8925" height="14.0631" rx="7.03156" transform="rotate(113.608 170.318 420.4)" fill="#453371"/>
<rect x="88.9121" y="501.749" width="36.8925" height="14.0631" rx="7.03156" transform="rotate(4.22195 88.9121 501.749)" fill="#453371"/>
<rect x="218.006" y="517.374" width="36.8925" height="14.0631" rx="7.03156" transform="rotate(66.9086 218.006 517.374)" fill="#453371"/>
<rect x="350.379" y="473.622" width="36.8925" height="14.0631" rx="7.03156" transform="rotate(88.0048 350.379 473.622)" fill="#453371"/>
<rect x="471.332" y="490.811" width="36.8925" height="14.0631" rx="7.03156" transform="rotate(68.961 471.332 490.811)" fill="#453371"/>
<rect x="502.246" y="503.311" width="36.8925" height="14.0631" rx="7.03156" transform="rotate(1.18248 502.246 503.311)" fill="#453371"/>
<rect x="472.609" y="550.188" width="36.8925" height="14.0631" rx="7.03156" transform="rotate(1.39049 472.609 550.188)" fill="#453371"/>
<rect x="330.822" y="293.926" width="36.8925" height="14.0631" rx="7.03156" transform="rotate(46.0498 330.822 293.926)" fill="#453371"/>
<rect x="444.818" y="268.925" width="36.8925" height="14.0631" rx="7.03156" transform="rotate(15.6891 444.818 268.925)" fill="#453371"/>
<rect x="436.559" y="170.355" width="36.8925" height="14.0631" rx="7.03156" transform="rotate(23.2757 436.559 170.355)" fill="#453371"/>
<rect x="221.09" y="181.355" width="29.3933" height="11.2045" rx="5.60224" transform="rotate(46.2254 221.09 181.355)" fill="#453371"/>
<rect x="405.678" y="190.392" width="28.9853" height="12.1664" rx="6.08322" transform="rotate(137.971 405.678 190.392)" fill="#453371"/>
<rect x="416.494" y="201.207" width="28.9853" height="12.1664" rx="6.08322" transform="rotate(137.971 416.494 201.207)" fill="#453371"/>
<rect x="538.377" y="290.68" width="33.5039" height="14.0631" rx="7.03156" transform="rotate(-178.716 538.377 290.68)" fill="#453371"/>
<rect x="538.898" y="308.352" width="33.5039" height="14.0631" rx="7.03156" transform="rotate(-178.716 538.898 308.352)" fill="#453371"/>
<rect x="325.211" y="430.315" width="33.5039" height="14.0631" rx="7.03156" transform="rotate(173.855 325.211 430.315)" fill="#453371"/>
<rect x="328.014" y="447.77" width="33.5039" height="14.0631" rx="7.03156" transform="rotate(173.855 328.014 447.77)" fill="#453371"/>
<rect x="228.965" y="405.898" width="33.5039" height="14.0631" rx="7.03156" transform="rotate(-123.04 228.965 405.898)" fill="#453371"/>
<rect x="214.664" y="416.291" width="33.5039" height="14.0631" rx="7.03156" transform="rotate(-123.04 214.664 416.291)" fill="#453371"/>
<rect x="179.309" y="498.781" width="33.5039" height="14.0631" rx="7.03156" transform="rotate(136.926 179.309 498.781)" fill="#453371"/>
<rect x="192.035" y="511.051" width="33.5039" height="14.0631" rx="7.03156" transform="rotate(136.926 192.035 511.051)" fill="#453371"/>
<rect x="258.324" y="314.582" width="33.5039" height="14.0631" rx="7.03156" transform="rotate(-125.887 258.324 314.582)" fill="#453371"/>
<rect x="244.561" y="325.673" width="33.5039" height="14.0631" rx="7.03156" transform="rotate(-125.887 244.561 325.673)" fill="#453371"/>
<rect x="114.932" y="298.596" width="33.5039" height="14.0631" rx="7.03156" transform="rotate(-178.387 114.932 298.596)" fill="#453371"/>
<rect x="115.354" y="316.269" width="33.5039" height="14.0631" rx="7.03156" transform="rotate(-178.387 115.354 316.269)" fill="#453371"/>
<rect x="181.492" y="177.357" width="33.5039" height="14.0631" rx="7.03156" transform="rotate(-178.387 181.492 177.357)" fill="#453371"/>
<rect x="181.914" y="195.03" width="33.5039" height="14.0631" rx="7.03156" transform="rotate(-178.387 181.914 195.03)" fill="#453371"/>
<rect x="255.248" y="146.668" width="25.5599" height="10.7287" rx="5.36433" transform="rotate(-149.168 255.248 146.668)" fill="#453371"/>
<rect x="248.947" y="158.592" width="25.5599" height="10.7287" rx="5.36433" transform="rotate(-149.168 248.947 158.592)" fill="#453371"/>
<rect x="279.811" y="575.107" width="33.5039" height="14.0631" rx="7.03156" transform="rotate(-149.168 279.811 575.107)" fill="#453371"/>
<rect x="271.551" y="590.738" width="33.5039" height="14.0631" rx="7.03156" transform="rotate(-149.168 271.551 590.738)" fill="#453371"/>
<rect x="375.514" y="293.926" width="72.4745" height="14.0631" rx="7.03156" transform="rotate(13.3655 375.514 293.926)" fill="#453371"/>
<rect x="423.215" y="275.026" width="72.4745" height="14.0631" rx="7.03156" transform="rotate(102.213 423.215 275.026)" fill="#453371"/>
<rect x="515.02" y="156.084" width="61.0816" height="11.8524" rx="5.92621" transform="rotate(0.100247 515.02 156.084)" fill="#453371"/>
<rect x="550.494" y="131.355" width="61.0815" height="11.8524" rx="5.92621" transform="rotate(88.9474 550.494 131.355)" fill="#453371"/>
<rect x="377.508" y="496.206" width="72.4745" height="14.0631" rx="7.03156" transform="rotate(-48.8796 377.508 496.206)" fill="#453371"/>
<rect x="382.996" y="445.191" width="72.4745" height="14.0631" rx="7.03156" transform="rotate(39.9676 382.996 445.191)" fill="#453371"/>
<rect x="236.121" y="495.042" width="72.4745" height="14.0631" rx="7.03156" transform="rotate(-119.288 236.121 495.042)" fill="#453371"/>
<rect x="189.898" y="472.766" width="72.4745" height="14.0631" rx="7.03156" transform="rotate(-30.4411 189.898 472.766)" fill="#453371"/>
<rect x="134.076" y="608.587" width="72.4745" height="14.0631" rx="7.03156" transform="rotate(-92.1593 134.076 608.587)" fill="#453371"/>
<rect x="103.1" y="567.686" width="72.4745" height="14.0631" rx="7.03156" transform="rotate(-3.3121 103.1 567.686)" fill="#453371"/>
<rect x="52.1855" y="124.856" width="98.683" height="19.1487" rx="9.57434" transform="rotate(0.549855 52.1855 124.856)" fill="#453371"/>
<rect x="109.809" y="85.3552" width="98.683" height="19.1487" rx="9.57434" transform="rotate(89.397 109.809 85.3552)" fill="#453371"/>
<rect x="262.189" y="349.466" width="73.9096" height="14.0631" rx="7.03156" transform="rotate(1.72297 262.189 349.466)" fill="#453371"/>
<rect x="314.506" y="321.017" width="75.687" height="14.0631" rx="7.03156" transform="rotate(104.743 314.506 321.017)" fill="#453371"/>
<rect x="171" y="252.873" width="61.2191" height="11.6484" rx="5.82422" transform="rotate(-17.4986 171 252.873)" fill="#453371"/>
<rect x="204.16" y="216.356" width="62.6913" height="11.6484" rx="5.82422" transform="rotate(85.5215 204.16 216.356)" fill="#453371"/>
<rect x="91.0605" y="363.054" width="73.9096" height="14.0631" rx="7.03156" transform="rotate(35.238 91.0605 363.054)" fill="#453371"/>
<rect x="150.385" y="368.219" width="75.687" height="14.0631" rx="7.03156" transform="rotate(138.258 150.385 368.219)" fill="#453371"/>
<rect x="477.014" y="334.927" width="73.9096" height="14.0631" rx="7.03156" transform="rotate(35.238 477.014 334.927)" fill="#453371"/>
<rect x="536.338" y="340.092" width="75.687" height="14.0631" rx="7.03156" transform="rotate(138.258 536.338 340.092)" fill="#453371"/>
<rect x="331.553" y="526.492" width="73.9096" height="14.0631" rx="7.03156" transform="rotate(72.2147 331.553 526.492)" fill="#453371"/>
<rect x="375.838" y="566.304" width="75.687" height="14.0631" rx="7.03156" transform="rotate(175.235 375.838 566.304)" fill="#453371"/>
<rect x="346.678" y="108.355" width="63.318" height="12.0478" rx="6.02391" transform="rotate(72.2147 346.678 108.355)" fill="#453371"/>
<rect x="384.615" y="142.462" width="64.8407" height="12.0478" rx="6.02391" transform="rotate(175.235 384.615 142.462)" fill="#453371"/>
<rect x="336.248" y="234.731" width="47.645" height="14.0631" rx="7.03156" transform="rotate(13.3655 336.248 234.731)" fill="#453371"/>
<circle cx="363.467" cy="230.825" r="5.46899" fill="#453371"/>
<circle cx="355.655" cy="262.076" r="5.46899" fill="#453371"/>
<rect x="437.002" y="141.655" width="47.645" height="14.0631" rx="7.03156" transform="rotate(-30.1217 437.002 141.655)" fill="#453371"/>
<circle cx="454.062" cy="120.087" r="5.46899" transform="rotate(-43.4872 454.062 120.087)" fill="#453371"/>
<circle cx="469.898" cy="148.138" r="5.46899" transform="rotate(-43.4872 469.898 148.138)" fill="#453371"/>
<rect x="491.648" y="218.389" width="47.645" height="14.0631" rx="7.03156" transform="rotate(0.0765905 491.648 218.389)" fill="#453371"/>
<circle cx="517.242" cy="208.33" r="5.46899" transform="rotate(-13.2889 517.242 208.33)" fill="#453371"/>
<circle cx="516.82" cy="240.54" r="5.46899" transform="rotate(-13.2889 516.82 240.54)" fill="#453371"/>
<rect x="74.4453" y="221.514" width="47.645" height="14.0631" rx="7.03156" transform="rotate(0.0765905 74.4453 221.514)" fill="#453371"/>
<circle cx="100.039" cy="211.456" r="5.46899" transform="rotate(-13.2889 100.039 211.456)" fill="#453371"/>
<circle cx="99.6168" cy="243.665" r="5.46899" transform="rotate(-13.2889 99.6168 243.665)" fill="#453371"/>
<rect x="92.2383" y="441.228" width="47.645" height="14.0631" rx="7.03156" transform="rotate(41.6779 92.2383 441.228)" fill="#453371"/>
<circle cx="118.053" cy="450.7" r="5.46899" transform="rotate(28.3124 118.053 450.7)" fill="#453371"/>
<circle cx="96.3538" cy="474.508" r="5.46899" transform="rotate(28.3124 96.3538 474.508)" fill="#453371"/>
<rect x="478.191" y="428.727" width="47.645" height="14.0631" rx="7.03156" transform="rotate(41.6779 478.191 428.727)" fill="#453371"/>
<circle cx="504.006" cy="438.199" r="5.46899" transform="rotate(28.3124 504.006 438.199)" fill="#453371"/>
<circle cx="482.307" cy="462.007" r="5.46899" transform="rotate(28.3124 482.307 462.007)" fill="#453371"/>
<rect x="337.049" y="397.001" width="47.645" height="14.0631" rx="7.03156" transform="rotate(-0.564525 337.049 397.001)" fill="#453371"/>
<circle cx="362.527" cy="386.658" r="5.46899" transform="rotate(-13.93 362.527 386.658)" fill="#453371"/>
<circle cx="362.47" cy="418.871" r="5.46899" transform="rotate(-13.93 362.47 418.871)" fill="#453371"/>
<rect x="262.773" y="511.986" width="47.645" height="14.0631" rx="7.03156" transform="rotate(-36.5161 262.773 511.986)" fill="#453371"/>
<circle cx="277.325" cy="488.654" r="5.46899" transform="rotate(-49.8816 277.325 488.654)" fill="#453371"/>
<circle cx="296.189" cy="514.766" r="5.46899" transform="rotate(-49.8816 296.189 514.766)" fill="#453371"/>
<rect x="397.154" y="569.801" width="47.645" height="14.0631" rx="7.03156" transform="rotate(-36.5161 397.154 569.801)" fill="#453371"/>
<circle cx="411.706" cy="546.469" r="5.46899" transform="rotate(-49.8816 411.706 546.469)" fill="#453371"/>
<circle cx="430.57" cy="572.581" r="5.46899" transform="rotate(-49.8816 430.57 572.581)" fill="#453371"/>
<circle cx="435.547" cy="355.648" r="5.46899" fill="#453371"/>
<path d="M434.763 367.367C430.856 367.367 430.856 372.443 429.295 374.395C426.795 377.52 422.002 380.906 419.918 382.208C410.544 388.064 409.764 396.796 410.546 400.963C412.743 412.682 426.95 416.324 432.419 415.022C448.669 412.522 451.433 403.042 451.172 398.615C450.912 394.188 447.266 393.931 446.484 393.931C444.141 393.931 442.581 396.459 441.797 398.615C439.297 405.49 432.679 406.168 430.075 405.647C425.075 405.647 422.784 402.001 422.263 400.178C421.013 393.302 426.43 388.979 429.295 387.677C436.795 382.677 439.191 376.739 439.451 374.395C440.076 368.77 437.888 367.367 434.763 367.367Z" fill="#453371"/>
<circle cx="168.27" cy="377.075" r="5.46899" transform="rotate(-150.916 168.27 377.075)" fill="#453371"/>
<path d="M174.654 367.214C178.068 369.113 180.535 364.678 182.849 363.731C186.552 362.214 192.386 361.586 194.84 361.461C205.879 360.9 210.805 353.648 212.148 349.627C215.924 338.317 205.279 328.228 199.867 326.708C184.45 320.994 177.427 327.935 175.503 331.93C173.578 335.926 176.64 337.923 177.322 338.302C179.371 339.442 181.963 337.99 183.696 336.488C189.223 331.694 195.335 334.319 197.358 336.04C201.727 338.471 201.957 342.771 201.526 344.617C199.276 351.233 192.441 352.378 189.305 352.123C180.319 352.847 175.339 356.872 173.972 358.794C170.692 363.406 171.923 365.695 174.654 367.214Z" fill="#453371"/>
<circle cx="278.723" cy="250.395" r="7.75059" transform="rotate(-175.271 278.723 250.395)" fill="#453371"/>
<path d="M281.199 233.934C286.717 234.391 287.31 227.223 289.744 224.647C293.638 220.525 300.804 216.304 303.899 214.708C317.823 207.533 319.945 195.291 319.328 189.315C317.594 172.506 297.954 165.702 290.078 166.902C266.834 168.535 261.824 181.6 261.674 187.884C261.525 194.167 266.644 194.956 267.748 195.047C271.058 195.321 273.557 191.932 274.916 188.979C279.25 179.561 288.676 179.378 292.293 180.418C299.355 181.002 302.165 186.419 302.687 189.055C303.649 198.911 295.494 204.384 291.295 205.888C280.118 212.074 276.04 220.18 275.399 223.46C273.859 231.332 276.786 233.569 281.199 233.934Z" fill="#453371"/>
<rect x="364.068" y="686.005" width="36.8925" height="14.0631" rx="7.03156" transform="rotate(88.0048 364.068 686.005)" fill="#453371"/>
<rect x="77.4355" y="751.633" width="36.8925" height="14.0631" rx="7.03156" transform="rotate(3.5475 77.4355 751.633)" fill="#453371"/>
<rect x="104.316" y="889.045" width="36.8925" height="14.0631" rx="7.03156" transform="rotate(113.608 104.316 889.045)" fill="#453371"/>
<rect x="22.9102" y="970.393" width="36.8925" height="14.0631" rx="7.03156" transform="rotate(4.22195 22.9102 970.393)" fill="#453371"/>
<rect x="152.006" y="986.019" width="36.8925" height="14.0631" rx="7.03156" transform="rotate(66.9086 152.006 986.019)" fill="#453371"/>
<rect x="284.377" y="942.267" width="36.8925" height="14.0631" rx="7.03156" transform="rotate(88.0048 284.377 942.267)" fill="#453371"/>
<rect x="405.33" y="959.455" width="36.8925" height="14.0631" rx="7.03156" transform="rotate(68.961 405.33 959.455)" fill="#453371"/>
<rect x="436.246" y="971.955" width="36.8925" height="14.0631" rx="7.03156" transform="rotate(1.18248 436.246 971.955)" fill="#453371"/>
<rect x="406.609" y="1018.83" width="36.8925" height="14.0631" rx="7.03156" transform="rotate(1.39049 406.609 1018.83)" fill="#453371"/>
<rect x="264.82" y="762.571" width="36.8925" height="14.0631" rx="7.03156" transform="rotate(46.0498 264.82 762.571)" fill="#453371"/>
<rect x="378.818" y="737.57" width="36.8925" height="14.0631" rx="7.03156" transform="rotate(15.6891 378.818 737.57)" fill="#453371"/>
<rect x="398.723" y="596.939" width="36.8925" height="14.0631" rx="7.03156" transform="rotate(1.09416 398.723 596.939)" fill="#453371"/>
<rect x="151.553" y="649" width="36.8925" height="14.0631" rx="7.03156" transform="rotate(46.2254 151.553 649)" fill="#453371"/>
<rect x="141.232" y="608.766" width="36.8925" height="14.0631" rx="7.03156" transform="rotate(136.877 141.232 608.766)" fill="#453371"/>
<rect x="320.254" y="668.326" width="33.5039" height="14.0631" rx="7.03156" transform="rotate(137.971 320.254 668.326)" fill="#453371"/>
<rect x="332.754" y="680.827" width="33.5039" height="14.0631" rx="7.03156" transform="rotate(137.971 332.754 680.827)" fill="#453371"/>
<rect x="407.889" y="672.029" width="33.5039" height="14.0631" rx="7.03156" transform="rotate(-126.354 407.889 672.029)" fill="#453371"/>
<rect x="394.213" y="683.233" width="33.5039" height="14.0631" rx="7.03156" transform="rotate(-126.354 394.213 683.233)" fill="#453371"/>
<rect x="472.377" y="759.325" width="33.5039" height="14.0631" rx="7.03156" transform="rotate(-178.716 472.377 759.325)" fill="#453371"/>
<rect x="472.898" y="776.997" width="33.5039" height="14.0631" rx="7.03156" transform="rotate(-178.716 472.898 776.997)" fill="#453371"/>
<rect x="259.211" y="898.959" width="33.5039" height="14.0631" rx="7.03156" transform="rotate(173.855 259.211 898.959)" fill="#453371"/>
<rect x="262.014" y="916.414" width="33.5039" height="14.0631" rx="7.03156" transform="rotate(173.855 262.014 916.414)" fill="#453371"/>
<rect x="162.965" y="874.542" width="33.5039" height="14.0631" rx="7.03156" transform="rotate(-123.04 162.965 874.542)" fill="#453371"/>
<rect x="148.664" y="884.935" width="33.5039" height="14.0631" rx="7.03156" transform="rotate(-123.04 148.664 884.935)" fill="#453371"/>
<rect x="113.307" y="967.425" width="33.5039" height="14.0631" rx="7.03156" transform="rotate(136.926 113.307 967.425)" fill="#453371"/>
<rect x="126.033" y="979.695" width="33.5039" height="14.0631" rx="7.03156" transform="rotate(136.926 126.033 979.695)" fill="#453371"/>
<rect x="192.324" y="783.227" width="33.5039" height="14.0631" rx="7.03156" transform="rotate(-125.887 192.324 783.227)" fill="#453371"/>
<rect x="178.561" y="794.317" width="33.5039" height="14.0631" rx="7.03156" transform="rotate(-125.887 178.561 794.317)" fill="#453371"/>
<rect x="48.9297" y="767.241" width="33.5039" height="14.0631" rx="7.03156" transform="rotate(-178.387 48.9297 767.241)" fill="#453371"/>
<rect x="49.3516" y="784.914" width="33.5039" height="14.0631" rx="7.03156" transform="rotate(-178.387 49.3516 784.914)" fill="#453371"/>
<rect x="108.309" y="662.549" width="33.5039" height="14.0631" rx="7.03156" transform="rotate(-178.387 108.309 662.549)" fill="#453371"/>
<rect x="108.73" y="680.222" width="33.5039" height="14.0631" rx="7.03156" transform="rotate(-178.387 108.73 680.222)" fill="#453371"/>
<rect x="191.932" y="615.607" width="33.5039" height="14.0631" rx="7.03156" transform="rotate(-149.168 191.932 615.607)" fill="#453371"/>
<rect x="183.672" y="631.237" width="33.5039" height="14.0631" rx="7.03156" transform="rotate(-149.168 183.672 631.237)" fill="#453371"/>
<rect x="213.809" y="1043.75" width="33.5039" height="14.0631" rx="7.03156" transform="rotate(-149.168 213.809 1043.75)" fill="#453371"/>
<rect x="205.549" y="1059.38" width="33.5039" height="14.0631" rx="7.03156" transform="rotate(-149.168 205.549 1059.38)" fill="#453371"/>
<rect x="309.512" y="762.571" width="72.4745" height="14.0631" rx="7.03156" transform="rotate(13.3655 309.512 762.571)" fill="#453371"/>
<rect x="357.213" y="743.671" width="72.4745" height="14.0631" rx="7.03156" transform="rotate(102.213 357.213 743.671)" fill="#453371"/>
<rect x="439.451" y="621.91" width="72.4745" height="14.0631" rx="7.03156" transform="rotate(0.100247 439.451 621.91)" fill="#453371"/>
<rect x="481.543" y="592.569" width="72.4745" height="14.0631" rx="7.03156" transform="rotate(88.9474 481.543 592.569)" fill="#453371"/>
<rect x="311.508" y="964.851" width="72.4745" height="14.0631" rx="7.03156" transform="rotate(-48.8796 311.508 964.851)" fill="#453371"/>
<rect x="316.996" y="913.835" width="72.4745" height="14.0631" rx="7.03156" transform="rotate(39.9676 316.996 913.835)" fill="#453371"/>
<rect x="170.119" y="963.686" width="72.4745" height="14.0631" rx="7.03156" transform="rotate(-119.288 170.119 963.686)" fill="#453371"/>
<rect x="123.896" y="941.41" width="72.4745" height="14.0631" rx="7.03156" transform="rotate(-30.4411 123.896 941.41)" fill="#453371"/>
<rect x="68.0742" y="1077.23" width="72.4745" height="14.0631" rx="7.03156" transform="rotate(-92.1593 68.0742 1077.23)" fill="#453371"/>
<rect x="37.0977" y="1036.33" width="72.4745" height="14.0631" rx="7.03156" transform="rotate(-3.3121 37.0977 1036.33)" fill="#453371"/>
<rect x="14.2734" y="597.97" width="72.4745" height="14.0631" rx="7.03156" transform="rotate(0.549855 14.2734 597.97)" fill="#453371"/>
<rect x="56.5938" y="568.96" width="72.4745" height="14.0631" rx="7.03156" transform="rotate(89.397 56.5938 568.96)" fill="#453371"/>
<rect x="196.188" y="818.111" width="73.9096" height="14.0631" rx="7.03156" transform="rotate(1.72297 196.188 818.111)" fill="#453371"/>
<rect x="248.504" y="789.662" width="75.687" height="14.0631" rx="7.03156" transform="rotate(104.743 248.504 789.662)" fill="#453371"/>
<rect x="104.697" y="724.944" width="73.9096" height="14.0631" rx="7.03156" transform="rotate(-17.4986 104.697 724.944)" fill="#453371"/>
<rect x="144.73" y="680.857" width="75.687" height="14.0631" rx="7.03156" transform="rotate(85.5215 144.73 680.857)" fill="#453371"/>
<rect x="25.0586" y="831.698" width="73.9096" height="14.0631" rx="7.03156" transform="rotate(35.238 25.0586 831.698)" fill="#453371"/>
<rect x="84.3828" y="836.863" width="75.687" height="14.0631" rx="7.03156" transform="rotate(138.258 84.3828 836.863)" fill="#453371"/>
<rect x="411.014" y="803.572" width="73.9096" height="14.0631" rx="7.03156" transform="rotate(35.238 411.014 803.572)" fill="#453371"/>
<rect x="470.338" y="808.737" width="75.687" height="14.0631" rx="7.03156" transform="rotate(138.258 470.338 808.737)" fill="#453371"/>
<rect x="265.553" y="995.136" width="73.9096" height="14.0631" rx="7.03156" transform="rotate(72.2147 265.553 995.136)" fill="#453371"/>
<rect x="309.838" y="1034.95" width="75.687" height="14.0631" rx="7.03156" transform="rotate(175.235 309.838 1034.95)" fill="#453371"/>
<rect x="262.639" y="573.656" width="73.9096" height="14.0631" rx="7.03156" transform="rotate(72.2147 262.639 573.656)" fill="#453371"/>
<rect x="306.924" y="613.468" width="75.687" height="14.0631" rx="7.03156" transform="rotate(175.235 306.924 613.468)" fill="#453371"/>
<rect x="243.885" y="714.131" width="47.645" height="14.0631" rx="7.03156" transform="rotate(13.3655 243.885 714.131)" fill="#453371"/>
<circle cx="271.106" cy="710.225" r="5.46899" fill="#453371"/>
<circle cx="263.293" cy="741.476" r="5.46899" fill="#453371"/>
<rect x="324.449" y="621.58" width="47.645" height="14.0631" rx="7.03156" transform="rotate(-30.1217 324.449 621.58)" fill="#453371"/>
<circle cx="341.511" cy="600.012" r="5.46899" transform="rotate(-43.4872 341.511 600.012)" fill="#453371"/>
<circle cx="357.347" cy="628.063" r="5.46899" transform="rotate(-43.4872 357.347 628.063)" fill="#453371"/>
<rect x="425.648" y="687.034" width="47.645" height="14.0631" rx="7.03156" transform="rotate(0.0765905 425.648 687.034)" fill="#453371"/>
<circle cx="451.242" cy="676.975" r="5.46899" transform="rotate(-13.2889 451.242 676.975)" fill="#453371"/>
<circle cx="450.82" cy="709.185" r="5.46899" transform="rotate(-13.2889 450.82 709.185)" fill="#453371"/>
<rect x="8.44336" y="690.159" width="47.645" height="14.0631" rx="7.03156" transform="rotate(0.0765905 8.44336 690.159)" fill="#453371"/>
<circle cx="34.0367" cy="680.101" r="5.46899" transform="rotate(-13.2889 34.0367 680.101)" fill="#453371"/>
<circle cx="33.6148" cy="712.31" r="5.46899" transform="rotate(-13.2889 33.6148 712.31)" fill="#453371"/>
<rect x="26.2363" y="909.873" width="47.645" height="14.0631" rx="7.03156" transform="rotate(41.6779 26.2363 909.873)" fill="#453371"/>
<circle cx="52.051" cy="919.344" r="5.46899" transform="rotate(28.3124 52.051 919.344)" fill="#453371"/>
<circle cx="30.3518" cy="943.152" r="5.46899" transform="rotate(28.3124 30.3518 943.152)" fill="#453371"/>
<rect x="412.191" y="897.372" width="47.645" height="14.0631" rx="7.03156" transform="rotate(41.6779 412.191 897.372)" fill="#453371"/>
<circle cx="438.006" cy="906.843" r="5.46899" transform="rotate(28.3124 438.006 906.843)" fill="#453371"/>
<circle cx="416.307" cy="930.651" r="5.46899" transform="rotate(28.3124 416.307 930.651)" fill="#453371"/>
<rect x="271.047" y="865.645" width="47.645" height="14.0631" rx="7.03156" transform="rotate(-0.564525 271.047 865.645)" fill="#453371"/>
<circle cx="296.525" cy="855.302" r="5.46899" transform="rotate(-13.93 296.525 855.302)" fill="#453371"/>
<circle cx="296.468" cy="887.515" r="5.46899" transform="rotate(-13.93 296.468 887.515)" fill="#453371"/>
<rect x="196.773" y="980.631" width="47.645" height="14.0631" rx="7.03156" transform="rotate(-36.5161 196.773 980.631)" fill="#453371"/>
<circle cx="211.325" cy="957.298" r="5.46899" transform="rotate(-49.8816 211.325 957.298)" fill="#453371"/>
<circle cx="230.189" cy="983.41" r="5.46899" transform="rotate(-49.8816 230.189 983.41)" fill="#453371"/>
<rect x="331.154" y="1038.45" width="47.645" height="14.0631" rx="7.03156" transform="rotate(-36.5161 331.154 1038.45)" fill="#453371"/>
<circle cx="345.706" cy="1015.11" r="5.46899" transform="rotate(-49.8816 345.706 1015.11)" fill="#453371"/>
<circle cx="364.57" cy="1041.23" r="5.46899" transform="rotate(-49.8816 364.57 1041.23)" fill="#453371"/>
<circle cx="369.547" cy="824.292" r="5.46899" fill="#453371"/>
<path d="M368.763 836.012C364.856 836.012 364.856 841.087 363.295 843.04C360.795 846.165 356.002 849.55 353.918 850.852C344.544 856.708 343.764 865.44 344.546 869.607C346.743 881.326 360.95 884.969 366.419 883.666C382.669 881.166 385.433 871.687 385.172 867.259C384.912 862.832 381.266 862.575 380.484 862.575C378.141 862.575 376.581 865.104 375.797 867.259C373.297 874.135 366.679 874.812 364.075 874.291C359.075 874.291 356.784 870.645 356.263 868.822C355.013 861.947 360.43 857.624 363.295 856.321C370.795 851.321 373.191 845.383 373.451 843.04C374.076 837.414 371.888 836.012 368.763 836.012Z" fill="#453371"/>
<circle cx="102.268" cy="845.72" r="5.46899" transform="rotate(-150.916 102.268 845.72)" fill="#453371"/>
<path d="M108.652 835.859C112.066 837.758 114.533 833.322 116.847 832.375C120.55 830.859 126.384 830.23 128.839 830.105C139.877 829.544 144.803 822.292 146.146 818.271C149.922 806.961 139.277 796.873 133.865 795.352C118.448 789.638 111.425 796.579 109.501 800.575C107.576 804.57 110.638 806.567 111.32 806.947C113.369 808.086 115.961 806.635 117.694 805.132C123.221 800.339 129.333 802.964 131.356 804.685C135.725 807.115 135.955 811.415 135.524 813.261C133.274 819.877 126.439 821.022 123.303 820.768C114.318 821.492 109.337 825.516 107.971 827.438C104.69 832.05 105.921 834.34 108.652 835.859Z" fill="#453371"/>
<circle cx="222.299" cy="712.339" r="5.46899" transform="rotate(-175.271 222.299 712.339)" fill="#453371"/>
<path d="M224.047 700.725C227.94 701.047 228.359 695.989 230.076 694.171C232.824 691.263 237.88 688.284 240.065 687.158C249.889 682.095 251.387 673.457 250.952 669.24C249.728 657.38 235.87 652.579 230.312 653.425C213.911 654.577 210.375 663.797 210.27 668.23C210.164 672.664 213.777 673.221 214.555 673.285C216.891 673.478 218.654 671.087 219.613 669.003C222.672 662.358 229.322 662.228 231.875 662.962C236.858 663.374 238.841 667.197 239.209 669.057C239.888 676.012 234.133 679.873 231.171 680.935C223.284 685.3 220.407 691.02 219.954 693.334C218.867 698.889 220.933 700.467 224.047 700.725Z" fill="#453371"/>
<rect width="36.8925" height="14.0631" rx="7.03156" transform="matrix(0.0625056 0.998045 0.998045 -0.0625056 563.342 622.646)" fill="#453371"/>
<rect width="36.8925" height="14.0631" rx="7.03156" transform="matrix(-0.987341 0.158613 0.158613 0.987341 854.998 660.098)" fill="#453371"/>
<rect width="36.8925" height="14.0631" rx="7.03156" transform="matrix(0.487655 0.873036 0.873036 -0.487655 841.604 799.472)" fill="#453371"/>
<rect width="36.8925" height="14.0631" rx="7.03156" transform="matrix(-0.985405 0.170224 0.170224 0.985405 930.531 872.52)" fill="#453371"/>
<rect width="36.8925" height="14.0631" rx="7.03156" transform="matrix(-0.300915 0.953651 0.953651 0.300915 803.566 900.622)" fill="#453371"/>
<rect width="36.8925" height="14.0631" rx="7.03156" transform="matrix(0.0625056 0.998045 0.998045 -0.0625056 667.568 869.946)" fill="#453371"/>
<rect width="36.8925" height="14.0631" rx="7.03156" transform="matrix(-0.266568 0.963816 0.963816 0.266568 548.859 898.812)" fill="#453371"/>
<rect width="36.8925" height="14.0631" rx="7.03156" transform="matrix(-0.922413 -0.386204 -0.386204 0.922413 502.877 906.148)" fill="#453371"/>
<rect width="36.8925" height="14.0631" rx="7.03156" transform="matrix(-0.992611 0.121339 0.121339 0.992611 553.359 958.032)" fill="#453371"/>
<rect width="36.8925" height="14.0631" rx="7.03156" transform="matrix(-0.620755 0.784004 0.784004 0.620755 658.439 696.649)" fill="#453371"/>
<rect width="36.8925" height="14.0631" rx="7.03156" transform="matrix(-0.931894 0.362731 0.362731 0.931894 553.676 675.401)" fill="#453371"/>
<rect width="36.8925" height="14.0631" rx="7.03156" transform="matrix(-0.993225 0.116204 0.116204 0.993225 520.193 537.37)" fill="#453371"/>
<rect width="36.8925" height="14.0631" rx="7.03156" transform="matrix(-0.61835 0.785903 0.785903 0.61835 771.254 565.156)" fill="#453371"/>
<rect width="36.8925" height="14.0631" rx="7.03156" transform="matrix(0.792884 0.609373 0.609373 -0.792884 777.615 524.11)" fill="#453371"/>
<rect width="33.5039" height="14.0631" rx="7.03156" transform="matrix(0.80437 0.594129 0.594129 -0.80437 605.23 600.791)" fill="#453371"/>
<rect width="33.5039" height="14.0631" rx="7.03156" transform="matrix(0.80437 0.594129 0.594129 -0.80437 594.006 614.448)" fill="#453371"/>
<rect width="33.5039" height="14.0631" rx="7.03156" transform="matrix(0.511676 -0.859178 -0.859178 -0.511676 518.371 612.996)" fill="#453371"/>
<rect width="33.5039" height="14.0631" rx="7.03156" transform="matrix(0.511676 -0.859178 -0.859178 -0.511676 533.07 622.817)" fill="#453371"/>
<rect width="33.5039" height="14.0631" rx="7.03156" transform="matrix(0.992836 -0.119485 -0.119485 -0.992836 462.676 706.148)" fill="#453371"/>
<rect width="33.5039" height="14.0631" rx="7.03156" transform="matrix(0.992836 -0.119485 -0.119485 -0.992836 463.873 723.787)" fill="#453371"/>
<rect width="33.5039" height="14.0631" rx="7.03156" transform="matrix(0.999951 0.00987948 0.00987948 -0.999951 688.404 824.397)" fill="#453371"/>
<rect width="33.5039" height="14.0631" rx="7.03156" transform="matrix(0.999951 0.00987948 0.00987948 -0.999951 687.312 842.042)" fill="#453371"/>
<rect width="33.5039" height="14.0631" rx="7.03156" transform="matrix(0.461147 -0.887324 -0.887324 -0.461147 781.822 790.739)" fill="#453371"/>
<rect width="33.5039" height="14.0631" rx="7.03156" transform="matrix(0.461147 -0.887324 -0.887324 -0.461147 797.066 799.693)" fill="#453371"/>
<rect width="33.5039" height="14.0631" rx="7.03156" transform="matrix(0.793408 0.60869 0.60869 -0.793408 840.273 878.355)" fill="#453371"/>
<rect width="33.5039" height="14.0631" rx="7.03156" transform="matrix(0.793408 0.60869 0.60869 -0.793408 828.801 891.804)" fill="#453371"/>
<rect width="33.5039" height="14.0631" rx="7.03156" transform="matrix(0.504656 -0.863321 -0.863321 -0.504656 743.725 702.711)" fill="#453371"/>
<rect width="33.5039" height="14.0631" rx="7.03156" transform="matrix(0.504656 -0.863321 -0.863321 -0.504656 758.5 712.411)" fill="#453371"/>
<rect width="33.5039" height="14.0631" rx="7.03156" transform="matrix(0.992131 -0.125201 -0.125201 -0.992131 884.885 672.86)" fill="#453371"/>
<rect width="33.5039" height="14.0631" rx="7.03156" transform="matrix(0.992131 -0.125201 -0.125201 -0.992131 886.184 690.491)" fill="#453371"/>
<rect width="33.5039" height="14.0631" rx="7.03156" transform="matrix(0.992131 -0.125201 -0.125201 -0.992131 815.609 574.437)" fill="#453371"/>
<rect width="33.5039" height="14.0631" rx="7.03156" transform="matrix(0.992131 -0.125201 -0.125201 -0.992131 816.908 592.067)" fill="#453371"/>
<rect width="33.5039" height="14.0631" rx="7.03156" transform="matrix(0.804777 -0.593578 -0.593578 -0.804777 727.818 535.847)" fill="#453371"/>
<rect width="33.5039" height="14.0631" rx="7.03156" transform="matrix(0.804777 -0.593578 -0.593578 -0.804777 737.561 550.6)" fill="#453371"/>
<rect width="33.5039" height="14.0631" rx="7.03156" transform="matrix(0.804777 -0.593578 -0.593578 -0.804777 747.668 964.09)" fill="#453371"/>
<rect width="33.5039" height="14.0631" rx="7.03156" transform="matrix(0.804777 -0.593578 -0.593578 -0.804777 757.41 978.843)" fill="#453371"/>
<rect width="72.4745" height="14.0631" rx="7.03156" transform="matrix(-0.945834 0.32465 0.32465 0.945834 625.082 693.546)" fill="#453371"/>
<rect width="72.4745" height="14.0631" rx="7.03156" transform="matrix(0.305555 0.952174 0.952174 -0.305555 575.77 679.372)" fill="#453371"/>
<rect width="72.4745" height="14.0631" rx="7.03156" transform="matrix(-0.995092 0.0989573 0.0989573 0.995092 482.088 566.182)" fill="#453371"/>
<rect width="72.4745" height="14.0631" rx="7.03156" transform="matrix(0.0789164 0.996881 0.996881 -0.0789164 437.342 541.072)" fill="#453371"/>
<rect width="72.4745" height="14.0631" rx="7.03156" transform="matrix(-0.727764 -0.685827 -0.685827 0.727764 642.762 895.061)" fill="#453371"/>
<rect width="72.4745" height="14.0631" rx="7.03156" transform="matrix(-0.700331 0.713818 0.713818 0.700331 632.342 844.821)" fill="#453371"/>
<rect width="72.4745" height="14.0631" rx="7.03156" transform="matrix(0.402098 -0.915597 -0.915597 -0.402098 783.367 880.157)" fill="#453371"/>
<rect width="72.4745" height="14.0631" rx="7.03156" transform="matrix(-0.907321 -0.420438 -0.420438 0.907321 827.205 853.493)" fill="#453371"/>
<rect width="72.4745" height="14.0631" rx="7.03156" transform="matrix(-0.0596484 -0.998219 -0.998219 0.0596484 895.967 983.245)" fill="#453371"/>
<rect width="72.4745" height="14.0631" rx="7.03156" transform="matrix(-0.999218 0.0395525 0.0395525 0.999218 922.82 939.525)" fill="#453371"/>
<rect width="72.4745" height="14.0631" rx="7.03156" transform="matrix(-0.994285 0.106763 0.106763 0.994285 902.922 501.022)" fill="#453371"/>
<rect width="72.4745" height="14.0631" rx="7.03156" transform="matrix(0.0867365 0.996231 0.996231 -0.0867365 857.982 476.264)" fill="#453371"/>
<rect width="63.8357" height="12.1463" rx="6.07316" transform="matrix(-0.991226 -0.132181 -0.132181 0.991226 747.764 744.893)" fill="#453371"/>
<rect width="65.3708" height="12.1463" rx="6.07316" transform="matrix(0.0945326 0.995522 0.995522 -0.0945326 707.154 713.329)" fill="#453371"/>
<rect width="73.9096" height="14.0631" rx="7.03156" transform="matrix(-0.978438 -0.20654 -0.20654 0.978438 825.271 636.186)" fill="#453371"/>
<rect width="75.687" height="14.0631" rx="7.03156" transform="matrix(0.0192046 0.999816 0.999816 -0.0192046 781.143 596.199)" fill="#453371"/>
<rect width="97.9634" height="18.64" rx="9.31998" transform="matrix(-0.931816 0.362931 0.362931 0.931816 941.723 731.667)" fill="#453371"/>
<rect width="100.319" height="18.64" rx="9.31998" transform="matrix(0.563532 0.826094 0.826094 -0.563532 863.758 719.344)" fill="#453371"/>
<rect width="73.9096" height="14.0631" rx="7.03156" transform="matrix(-0.756803 0.653643 0.653643 0.756803 528.049 744.219)" fill="#453371"/>
<rect width="75.687" height="14.0631" rx="7.03156" transform="matrix(0.807341 0.590086 0.590086 -0.807341 469.506 755.128)" fill="#453371"/>
<rect width="73.9096" height="14.0631" rx="7.03156" transform="matrix(-0.211434 0.977392 0.977392 0.211434 691.445 920.735)" fill="#453371"/>
<rect width="75.687" height="14.0631" rx="7.03156" transform="matrix(0.999899 -0.0142007 -0.0142007 -0.999899 651.238 964.664)" fill="#453371"/>
<rect width="73.9096" height="14.0631" rx="7.03156" transform="matrix(-0.211434 0.977392 0.977392 0.211434 653.369 500.968)" fill="#453371"/>
<rect width="75.687" height="14.0631" rx="7.03156" transform="matrix(0.999899 -0.0142007 -0.0142007 -0.999899 613.162 544.897)" fill="#453371"/>
<rect width="57.9459" height="17.1036" rx="8.55179" transform="matrix(-0.945834 0.32465 0.32465 0.945834 710.445 643.069)" fill="#453371"/>
<circle cx="6.65139" cy="6.65139" r="6.65139" transform="matrix(-0.995263 0.0972161 0.0972161 0.995263 683.008 634.293)" fill="#453371"/>
<circle cx="6.65139" cy="6.65139" r="6.65139" transform="matrix(-0.995263 0.0972161 0.0972161 0.995263 696.16 671.197)" fill="#453371"/>
<rect width="47.645" height="14.0631" rx="7.03156" transform="matrix(-0.909651 -0.415373 -0.415373 0.909651 596.51 554.674)" fill="#453371"/>
<circle cx="5.46899" cy="5.46899" r="5.46899" transform="matrix(-0.788995 -0.6144 -0.6144 0.788995 585.109 533.912)" fill="#453371"/>
<circle cx="5.46899" cy="5.46899" r="5.46899" transform="matrix(-0.788995 -0.6144 -0.6144 0.788995 572.074 563.37)" fill="#453371"/>
<rect width="47.645" height="14.0631" rx="7.03156" transform="matrix(-0.995132 0.0985465 0.0985465 0.995132 502.154 629.657)" fill="#453371"/>
<circle cx="5.46899" cy="5.46899" r="5.46899" transform="matrix(-0.99096 -0.13416 -0.13416 0.99096 481.857 617.448)" fill="#453371"/>
<circle cx="5.46899" cy="5.46899" r="5.46899" transform="matrix(-0.99096 -0.13416 -0.13416 0.99096 485.408 649.464)" fill="#453371"/>
<rect width="47.645" height="14.0631" rx="7.03156" transform="matrix(-0.995132 0.0985465 0.0985465 0.995132 917.688 592.208)" fill="#453371"/>
<circle cx="5.46899" cy="5.46899" r="5.46899" transform="matrix(-0.99096 -0.13416 -0.13416 0.99096 897.391 579.999)" fill="#453371"/>
<circle cx="5.46899" cy="5.46899" r="5.46899" transform="matrix(-0.99096 -0.13416 -0.13416 0.99096 900.941 612.015)" fill="#453371"/>
<rect width="47.645" height="14.0631" rx="7.03156" transform="matrix(-0.678714 0.734402 0.734402 0.678714 921.338 812.61)" fill="#453371"/>
<circle cx="5.46899" cy="5.46899" r="5.46899" transform="matrix(-0.830098 0.557618 0.557618 0.830098 898.055 816.957)" fill="#453371"/>
<circle cx="5.46899" cy="5.46899" r="5.46899" transform="matrix(-0.830098 0.557618 0.557618 0.830098 921.967 838.543)" fill="#453371"/>
<rect width="47.645" height="14.0631" rx="7.03156" transform="matrix(-0.678714 0.734402 0.734402 0.678714 535.996 837.689)" fill="#453371"/>
<circle cx="5.46899" cy="5.46899" r="5.46899" transform="matrix(-0.830098 0.557618 0.557618 0.830098 512.713 842.037)" fill="#453371"/>
<circle cx="5.46899" cy="5.46899" r="5.46899" transform="matrix(-0.830098 0.557618 0.557618 0.830098 536.625 863.622)" fill="#453371"/>
<rect width="47.645" height="14.0631" rx="7.03156" transform="matrix(-0.996173 0.0874054 0.0874054 0.996173 673.387 792.392)" fill="#453371"/>
<circle cx="5.46899" cy="5.46899" r="5.46899" transform="matrix(-0.989397 -0.145239 -0.145239 0.989397 653.229 779.958)" fill="#453371"/>
<circle cx="5.46899" cy="5.46899" r="5.46899" transform="matrix(-0.989397 -0.145239 -0.145239 0.989397 656.418 812.013)" fill="#453371"/>
<rect width="47.645" height="14.0631" rx="7.03156" transform="matrix(-0.857731 -0.514098 -0.514098 0.857731 758.486 899.612)" fill="#453371"/>
<circle cx="5.46899" cy="5.46899" r="5.46899" transform="matrix(-0.71566 -0.698449 -0.698449 0.71566 749.469 877.711)" fill="#453371"/>
<circle cx="5.46899" cy="5.46899" r="5.46899" transform="matrix(-0.71566 -0.698449 -0.698449 0.71566 733.232 905.533)" fill="#453371"/>
<rect width="47.645" height="14.0631" rx="7.03156" transform="matrix(-0.857731 -0.514098 -0.514098 0.857731 630.363 970.217)" fill="#453371"/>
<circle cx="5.46899" cy="5.46899" r="5.46899" transform="matrix(-0.71566 -0.698449 -0.698449 0.71566 621.346 948.316)" fill="#453371"/>
<circle cx="5.46899" cy="5.46899" r="5.46899" transform="matrix(-0.71566 -0.698449 -0.698449 0.71566 605.109 976.138)" fill="#453371"/>
<circle cx="5.46899" cy="5.46899" r="5.46899" transform="matrix(-0.995263 0.0972161 0.0972161 0.995263 576.244 754.836)" fill="#453371"/>
<path d="M573.253 772.398C577.141 772.018 577.635 777.07 579.379 778.861C582.17 781.729 587.27 784.632 589.471 785.726C599.369 790.642 600.994 799.257 600.622 803.48C599.574 815.357 585.789 820.364 580.219 819.599C563.802 818.691 560.131 809.525 559.96 805.093C559.788 800.662 563.392 800.052 564.17 799.976C566.502 799.748 568.301 802.112 569.291 804.182C572.447 810.781 579.099 810.812 581.641 810.04C586.617 809.554 588.543 805.703 588.884 803.838C589.459 796.874 583.648 793.098 580.67 792.08C572.719 787.833 569.757 782.156 569.27 779.849C568.101 774.311 570.143 772.702 573.253 772.398Z" fill="#453371"/>
<circle cx="5.2123" cy="5.2123" r="5.2123" transform="matrix(0.90961 -0.415463 -0.415463 -0.90961 824.693 752.133)" fill="#453371"/>
<path d="M821.947 735.377C818.56 736.924 816.551 732.524 814.424 731.45C811.02 729.73 805.524 728.693 803.201 728.389C792.756 727.025 788.623 719.764 787.65 715.842C784.915 704.812 795.788 696.029 801.045 694.993C816.123 690.725 822.272 697.849 823.799 701.791C825.327 705.732 822.268 707.398 821.59 707.707C819.558 708.635 817.205 707.061 815.672 705.503C810.782 700.532 804.777 702.566 802.726 704.049C798.391 706.028 797.848 710.096 798.119 711.883C799.758 718.338 806.165 719.941 809.165 719.936C817.647 721.3 822.075 725.499 823.229 727.428C825.998 732.057 824.656 734.14 821.947 735.377Z" fill="#453371"/>
<circle cx="5.46899" cy="5.46899" r="5.46899" transform="matrix(0.98386 -0.17894 -0.17894 -0.98386 702.598 641.433)" fill="#453371"/>
<path d="M704.132 623.683C700.288 624.382 699.38 619.389 697.494 617.747C694.476 615.12 689.155 612.646 686.871 611.738C676.601 607.654 674.271 599.203 674.294 594.964C674.359 583.04 687.685 576.915 693.298 577.217C709.734 576.769 714.149 585.601 714.685 590.004C715.221 594.406 711.68 595.311 710.911 595.451C708.605 595.87 706.618 593.662 705.461 591.681C701.771 585.364 695.139 585.882 692.67 586.861C687.75 587.755 686.149 591.752 685.963 593.639C685.963 600.627 692.066 603.911 695.118 604.68C703.392 608.257 706.812 613.67 707.487 615.93C709.109 621.352 707.207 623.124 704.132 623.683Z" fill="#453371"/>
</svg>
