<svg width="1154" height="1174" viewBox="0 0 1154 1174" fill="none" xmlns="http://www.w3.org/2000/svg">
<rect width="36.8925" height="14.0631" rx="7.03156" transform="matrix(0.154374 0.988012 0.988012 -0.154374 187.906 196.273)" fill="#453371"/>
<rect width="36.8925" height="14.0631" rx="7.03156" transform="matrix(-0.968482 0.249083 0.249083 0.968482 481.774 206.641)" fill="#453371"/>
<rect width="36.8925" height="14.0631" rx="7.03156" transform="matrix(0.566168 0.82429 0.82429 -0.566168 481.302 346.656)" fill="#453371"/>
<rect width="36.8925" height="14.0631" rx="7.03156" transform="matrix(-0.965483 0.260466 0.260466 0.965483 576.595 411.184)" fill="#453371"/>
<rect width="36.8925" height="14.0631" rx="7.03156" transform="matrix(-0.211593 0.977358 0.977358 0.211593 452.767 450.887)" fill="#453371"/>
<rect width="36.8925" height="14.0631" rx="7.03156" transform="matrix(0.154374 0.988012 0.988012 -0.154374 314.517 432.895)" fill="#453371"/>
<rect width="36.8925" height="14.0631" rx="7.03156" transform="matrix(-0.176454 0.984309 0.984309 0.176454 198.979 472.598)" fill="#453371"/>
<rect width="36.8925" height="14.0631" rx="7.03156" transform="matrix(-0.977936 0.208905 0.208905 0.977936 170.978 490.707)" fill="#453371"/>
<rect width="36.8925" height="14.0631" rx="7.03156" transform="matrix(-0.977171 0.212454 0.212454 0.977171 208.927 531.148)" fill="#453371"/>
<rect width="36.8925" height="14.0631" rx="7.03156" transform="matrix(-0.545729 0.837962 0.837962 0.545729 359.081 241.887)" fill="#453371"/>
<rect width="36.8925" height="14.0631" rx="7.03156" transform="matrix(-0.545729 0.837962 0.837962 0.545729 227.77 226.32)" fill="#453371"/>
<rect width="36.8925" height="14.0631" rx="7.03156" transform="matrix(-0.894427 0.447213 0.447208 0.89443 183.15 249.695)" fill="#453371"/>
<rect width="36.8925" height="14.0631" rx="7.03156" transform="matrix(-0.978257 0.207398 0.207398 0.978257 137.069 115.344)" fill="#453371"/>
<rect width="36.8925" height="14.0631" rx="7.03156" transform="matrix(-0.543158 0.839631 0.839631 0.543158 389.622 119.836)" fill="#453371"/>
<rect width="36.8925" height="14.0631" rx="7.03156" transform="matrix(0.845753 0.533575 0.533575 -0.845753 392.167 78.3789)" fill="#453371"/>
<rect width="33.5039" height="14.0631" rx="7.03156" transform="matrix(0.855783 0.517336 0.517336 -0.855783 227.598 170.645)" fill="#453371"/>
<rect width="33.5039" height="14.0631" rx="7.03156" transform="matrix(0.855783 0.517336 0.517336 -0.855783 217.681 185.277)" fill="#453371"/>
<rect width="33.5039" height="14.0631" rx="7.03156" transform="matrix(0.430175 -0.902745 -0.902745 -0.430175 142.236 190.816)" fill="#453371"/>
<rect width="33.5039" height="14.0631" rx="7.03156" transform="matrix(0.430175 -0.902745 -0.902745 -0.430175 157.78 199.238)" fill="#453371"/>
<rect width="33.5039" height="14.0631" rx="7.03156" transform="matrix(0.977566 -0.21063 -0.21063 -0.977566 95.3766 288.711)" fill="#453371"/>
<rect width="33.5039" height="14.0631" rx="7.03156" transform="matrix(0.977566 -0.21063 -0.21063 -0.977566 98.1985 306.164)" fill="#453371"/>
<rect width="33.5039" height="14.0631" rx="7.03156" transform="matrix(0.846212 0.532846 0.532846 -0.846212 487.261 425.324)" fill="#453371"/>
<rect width="33.5039" height="14.0631" rx="7.03156" transform="matrix(0.846212 0.532846 0.532846 -0.846212 477.078 439.777)" fill="#453371"/>
<rect width="33.5039" height="14.0631" rx="7.03156" transform="matrix(0.422803 -0.906222 -0.906222 -0.422803 366.31 337.043)" fill="#453371"/>
<rect width="33.5039" height="14.0631" rx="7.03156" transform="matrix(0.422803 -0.906222 -0.906222 -0.422803 381.92 345.34)" fill="#453371"/>
<rect width="33.5039" height="14.0631" rx="7.03156" transform="matrix(0.976337 -0.216256 -0.216256 -0.976337 512.711 216.59)" fill="#453371"/>
<rect width="33.5039" height="14.0631" rx="7.03156" transform="matrix(0.976337 -0.216256 -0.216256 -0.976337 515.632 234.023)" fill="#453371"/>
<rect width="33.5039" height="14.0631" rx="7.03156" transform="matrix(0.976337 -0.216256 -0.216256 -0.976337 434.646 124.98)" fill="#453371"/>
<rect width="33.5039" height="14.0631" rx="7.03156" transform="matrix(0.976337 -0.216256 -0.216256 -0.976337 437.567 142.414)" fill="#453371"/>
<rect width="33.5039" height="14.0631" rx="7.03156" transform="matrix(0.746543 -0.665337 -0.665337 -0.746543 343.667 94.6641)" fill="#453371"/>
<rect width="33.5039" height="14.0631" rx="7.03156" transform="matrix(0.746543 -0.665337 -0.665337 -0.746543 354.729 108.453)" fill="#453371"/>
<rect width="33.5039" height="14.0631" rx="7.03156" transform="matrix(0.746544 -0.665337 -0.665336 -0.746543 402.965 519.246)" fill="#453371"/>
<rect width="33.5039" height="14.0631" rx="7.03156" transform="matrix(0.746544 -0.665337 -0.665336 -0.746543 414.027 533.035)" fill="#453371"/>
<rect width="72.4745" height="14.0631" rx="7.03156" transform="matrix(-0.981707 0.190398 0.190398 0.981707 101.785 147.551)" fill="#453371"/>
<rect width="72.4745" height="14.0631" rx="7.03156" transform="matrix(0.170608 0.985339 0.985339 -0.170607 54.913 126.68)" fill="#453371"/>
<rect width="72.4745" height="14.0631" rx="7.03156" transform="matrix(-0.787969 -0.615714 -0.615714 0.787969 292.135 460.191)" fill="#453371"/>
<rect width="72.4745" height="14.0631" rx="7.03156" transform="matrix(-0.631443 0.775422 0.775422 0.631443 277.12 411.129)" fill="#453371"/>
<rect width="72.4745" height="14.0631" rx="7.03156" transform="matrix(-0.151545 -0.98845 -0.98845 0.151545 552.4 524.629)" fill="#453371"/>
<rect width="72.4745" height="14.0631" rx="7.03156" transform="matrix(-0.991299 0.131627 0.131627 0.991299 575.103 478.617)" fill="#453371"/>
<rect width="72.4745" height="14.0631" rx="7.03156" transform="matrix(-0.980183 0.198095 0.198095 0.980183 514.808 43.8242)" fill="#453371"/>
<rect width="72.4745" height="14.0631" rx="7.03156" transform="matrix(0.178334 0.98397 0.98397 -0.178334 467.774 23.3203)" fill="#453371"/>
<rect width="63.8357" height="12.1463" rx="6.07316" transform="matrix(-0.999195 -0.040111 -0.040111 0.999195 312.668 293.273)" fill="#453371"/>
<rect width="65.3708" height="12.1463" rx="6.07316" transform="matrix(0.186031 0.982544 0.982544 -0.186032 269.319 265.594)" fill="#453371"/>
<rect width="73.9096" height="14.0631" rx="7.03156" transform="matrix(-0.993327 -0.115333 -0.115333 0.993327 449.965 185.574)" fill="#453371"/>
<rect width="75.687" height="14.0631" rx="7.03156" transform="matrix(0.111421 0.993773 0.993773 -0.111421 402.334 149.832)" fill="#453371"/>
<rect width="97.9634" height="18.64" rx="9.31998" transform="matrix(-0.894333 0.447403 0.447403 0.894333 574.735 269.898)" fill="#453371"/>
<rect width="100.319" height="18.64" rx="9.31998" transform="matrix(0.637387 0.770544 0.770544 -0.637387 495.966 264.828)" fill="#453371"/>
<rect width="73.9096" height="14.0631" rx="7.03156" transform="matrix(-0.69323 0.720717 0.720717 0.69323 163.987 320.586)" fill="#453371"/>
<rect width="75.687" height="14.0631" rx="7.03156" transform="matrix(0.858367 0.513035 0.513035 -0.858367 106.702 336.852)" fill="#453371"/>
<rect width="73.9096" height="14.0631" rx="7.03156" transform="matrix(-0.120303 0.992737 0.992737 0.120302 342.98 481.266)" fill="#453371"/>
<rect width="75.687" height="14.0631" rx="7.03156" transform="matrix(0.994318 -0.106447 -0.106447 -0.994318 307.001 528.719)" fill="#453371"/>
<rect width="73.9096" height="14.0631" rx="7.03156" transform="matrix(-0.120302 0.992737 0.992737 0.120302 266.316 66.8047)" fill="#453371"/>
<rect width="75.687" height="14.0631" rx="7.03156" transform="matrix(0.994318 -0.106447 -0.106447 -0.994318 230.337 114.258)" fill="#453371"/>
<rect width="57.9459" height="17.1036" rx="8.55179" transform="matrix(-0.911825 0.410579 0.410579 0.911825 336.267 203.031)" fill="#453371"/>
<circle cx="6.65139" cy="6.65139" r="6.65139" transform="matrix(-0.982039 0.18868 0.18868 0.982039 308.136 196.824)" fill="#453371"/>
<circle cx="6.65139" cy="6.65139" r="6.65139" transform="matrix(-0.982039 0.18868 0.18868 0.982039 324.64 232.355)" fill="#453371"/>
<rect width="47.645" height="14.0631" rx="7.03156" transform="matrix(-0.944112 -0.329624 -0.329624 0.944112 214.658 125.527)" fill="#453371"/>
<circle cx="5.46899" cy="5.46899" r="5.46899" transform="matrix(-0.842344 -0.53894 -0.53894 0.842344 201.387 105.906)" fill="#453371"/>
<circle cx="5.46899" cy="5.46899" r="5.46899" transform="matrix(-0.842344 -0.53894 -0.53894 0.842344 191.128 136.441)" fill="#453371"/>
<rect width="47.645" height="14.0631" rx="7.03156" transform="matrix(-0.981786 0.189992 0.189992 0.981786 127.626 208.902)" fill="#453371"/>
<circle cx="5.46899" cy="5.46899" r="5.46899" transform="matrix(-0.999113 -0.0421053 -0.0421056 0.999113 106.289 198.621)" fill="#453371"/>
<circle cx="5.46899" cy="5.46899" r="5.46899" transform="matrix(-0.999113 -0.0421053 -0.0421056 0.999113 112.78 230.172)" fill="#453371"/>
<rect width="47.645" height="14.0631" rx="7.03156" transform="matrix(-0.981786 0.189992 0.189992 0.981786 537.927 133.254)" fill="#453371"/>
<circle cx="5.46899" cy="5.46899" r="5.46899" transform="matrix(-0.999113 -0.0421055 -0.0421055 0.999113 516.59 122.973)" fill="#453371"/>
<circle cx="5.46899" cy="5.46899" r="5.46899" transform="matrix(-0.999113 -0.0421055 -0.0421055 0.999113 523.081 154.523)" fill="#453371"/>
<rect width="47.645" height="14.0631" rx="7.03156" transform="matrix(-0.608019 0.793922 0.793922 0.608019 561.909 352.379)" fill="#453371"/>
<circle cx="5.46899" cy="5.46899" r="5.46899" transform="matrix(-0.775076 0.631868 0.631868 0.775076 539.128 358.855)" fill="#453371"/>
<circle cx="5.46899" cy="5.46899" r="5.46899" transform="matrix(-0.775076 0.631868 0.631868 0.775076 564.929 378.141)" fill="#453371"/>
<rect width="47.645" height="14.0631" rx="7.03156" transform="matrix(-0.608019 0.793922 0.793922 0.608019 180.528 412.926)" fill="#453371"/>
<circle cx="5.46899" cy="5.46899" r="5.46899" transform="matrix(-0.775076 0.631868 0.631868 0.775076 157.747 419.402)" fill="#453371"/>
<circle cx="5.46899" cy="5.46899" r="5.46899" transform="matrix(-0.775076 0.631868 0.631868 0.775076 183.548 438.688)" fill="#453371"/>
<rect width="47.645" height="14.0631" rx="7.03156" transform="matrix(-0.98385 0.178995 0.178995 0.98385 332.612 358.094)" fill="#453371"/>
<circle cx="5.46899" cy="5.46899" r="5.46899" transform="matrix(-0.99858 -0.0532822 -0.0532822 0.99858 311.389 347.574)" fill="#453371"/>
<circle cx="5.46899" cy="5.46899" r="5.46899" transform="matrix(-0.99858 -0.0532822 -0.0532822 0.99858 317.524 379.199)" fill="#453371"/>
<rect width="47.645" height="14.0631" rx="7.03156" transform="matrix(-0.901528 -0.432721 -0.432721 0.901528 407.785 454.039)" fill="#453371"/>
<circle cx="5.46899" cy="5.46899" r="5.46899" transform="matrix(-0.777082 -0.6294 -0.6294 0.777082 396.785 433.066)" fill="#453371"/>
<circle cx="5.46899" cy="5.46899" r="5.46899" transform="matrix(-0.777082 -0.6294 -0.6294 0.777082 383.187 462.266)" fill="#453371"/>
<rect width="47.645" height="14.0631" rx="7.03156" transform="matrix(-0.901528 -0.432721 -0.432721 0.901528 286.727 536.172)" fill="#453371"/>
<circle cx="5.46899" cy="5.46899" r="5.46899" transform="matrix(-0.777082 -0.6294 -0.6294 0.777082 275.726 515.199)" fill="#453371"/>
<circle cx="5.46899" cy="5.46899" r="5.46899" transform="matrix(-0.777082 -0.6294 -0.6294 0.777082 262.128 544.398)" fill="#453371"/>
<circle cx="5.46899" cy="5.46899" r="5.46899" transform="matrix(-0.982039 0.18868 0.18868 0.982039 216.48 314.547)" fill="#453371"/>
<path d="M215.123 332.308C218.959 331.571 219.917 336.555 221.819 338.178C224.863 340.775 230.209 343.196 232.501 344.081C242.811 348.063 245.225 356.491 245.244 360.73C245.297 372.654 232.033 378.911 226.416 378.664C209.986 379.275 205.484 370.487 204.904 366.09C204.324 361.694 207.857 360.753 208.624 360.606C210.926 360.164 212.935 362.352 214.111 364.322C217.864 370.602 224.49 370.018 226.949 369.015C231.86 368.072 233.421 364.059 233.589 362.17C233.519 355.183 227.384 351.959 224.325 351.221C216.016 347.726 212.543 342.347 211.845 340.094C210.169 334.688 212.054 332.897 215.123 332.308Z" fill="#453371"/>
<circle cx="5.2123" cy="5.2123" r="5.2123" transform="matrix(0.867372 -0.497661 -0.497661 -0.867372 460.096 301.082)" fill="#453371"/>
<path d="M455.815 284.651C452.585 286.504 450.178 282.309 447.961 281.435C444.413 280.037 438.845 279.512 436.504 279.424C425.978 279.029 421.192 272.181 419.861 268.366C416.119 257.635 426.136 247.886 431.274 246.369C445.894 240.728 452.674 247.253 454.559 251.037C456.443 254.82 453.551 256.762 452.905 257.132C450.968 258.244 448.479 256.894 446.809 255.484C441.481 250.986 435.689 253.565 433.783 255.231C429.65 257.602 429.485 261.703 429.92 263.457C432.147 269.733 438.676 270.738 441.662 270.455C450.233 271.031 455.03 274.804 456.357 276.618C459.542 280.971 458.398 283.169 455.815 284.651Z" fill="#453371"/>
<circle cx="5.46899" cy="5.46899" r="5.46899" transform="matrix(0.96314 -0.269001 -0.269001 -0.96314 328.301 202.125)" fill="#453371"/>
<path d="M328.191 184.311C324.429 185.361 323.063 180.473 321.034 179.013C317.786 176.675 312.259 174.704 309.901 174.01C299.298 170.892 296.198 162.692 295.829 158.468C294.793 146.59 307.496 139.26 313.114 139.043C329.438 137.079 334.65 145.466 335.59 149.8C336.53 154.135 333.087 155.363 332.335 155.573C330.077 156.203 327.895 154.188 326.56 152.323C322.303 146.373 315.747 147.501 313.379 148.703C308.563 150.048 307.337 154.176 307.326 156.072C307.972 163.03 314.352 165.737 317.461 166.22C326.03 169.019 329.935 174.093 330.816 176.28C332.931 181.53 331.201 183.47 328.191 184.311Z" fill="#453371"/>
<rect width="72.4745" height="14.0631" rx="7.03156" transform="matrix(0.315857 -0.948807 -0.948807 -0.315857 426.08 408.688)" fill="#453371"/>
<rect width="72.4745" height="14.0631" rx="7.03156" transform="matrix(-0.94226 -0.334883 -0.334883 0.94226 467.269 378.09)" fill="#453371"/>
<rect width="36.8925" height="14.0631" rx="7.03156" transform="matrix(-0.0348165 0.999394 0.999394 0.0348165 700.985 257.355)" fill="#453371"/>
<rect width="36.8925" height="14.0631" rx="7.03156" transform="matrix(-0.998084 0.0618759 0.0618759 0.998084 1001.6 321.988)" fill="#453371"/>
<rect width="36.8925" height="14.0631" rx="7.03156" transform="matrix(0.400472 0.916309 0.916309 -0.400472 974.723 459.402)" fill="#453371"/>
<rect width="36.8925" height="14.0631" rx="7.03156" transform="matrix(-0.997286 0.0736211 0.0736194 0.997286 1056.13 540.75)" fill="#453371"/>
<rect width="36.8925" height="14.0631" rx="7.03156" transform="matrix(-0.3922 0.91988 0.91988 0.3922 927.034 556.375)" fill="#453371"/>
<rect width="36.8925" height="14.0631" rx="7.03156" transform="matrix(-0.0348165 0.999394 0.999394 0.0348165 794.662 512.621)" fill="#453371"/>
<rect width="36.8925" height="14.0631" rx="7.03156" transform="matrix(-0.359002 0.933337 0.933336 0.359005 673.709 529.812)" fill="#453371"/>
<rect width="36.8925" height="14.0631" rx="7.03156" transform="matrix(-0.999787 0.0206366 0.0206366 0.999787 642.793 542.312)" fill="#453371"/>
<rect width="36.8925" height="14.0631" rx="7.03156" transform="matrix(-0.999705 0.0242662 0.0242662 0.999705 672.43 589.188)" fill="#453371"/>
<rect width="36.8925" height="14.0631" rx="7.03156" transform="matrix(-0.694033 0.719943 0.719943 0.694033 814.218 332.926)" fill="#453371"/>
<rect width="36.8925" height="14.0631" rx="7.03156" transform="matrix(-0.962743 0.270418 0.270418 0.962743 700.221 307.926)" fill="#453371"/>
<rect width="36.8925" height="14.0631" rx="7.03156" transform="matrix(-0.918614 0.395155 0.395155 0.918614 708.481 209.355)" fill="#453371"/>
<rect width="29.3933" height="11.2045" rx="5.60224" transform="matrix(-0.691823 0.722067 0.722067 0.691823 923.95 220.355)" fill="#453371"/>
<rect width="28.9853" height="12.1664" rx="6.08322" transform="matrix(0.742801 0.669512 0.669512 -0.742801 739.363 229.395)" fill="#453371"/>
<rect width="28.9853" height="12.1664" rx="6.08322" transform="matrix(0.742801 0.669512 0.669512 -0.742801 728.546 240.207)" fill="#453371"/>
<rect width="33.5039" height="14.0631" rx="7.03156" transform="matrix(0.999749 -0.0223998 -0.0223998 -0.999749 606.662 329.68)" fill="#453371"/>
<rect width="33.5039" height="14.0631" rx="7.03156" transform="matrix(0.999749 -0.0223998 -0.0223998 -0.999749 606.14 347.352)" fill="#453371"/>
<rect width="33.5039" height="14.0631" rx="7.03156" transform="matrix(0.994254 0.107044 0.107044 -0.994254 819.828 469.316)" fill="#453371"/>
<rect width="33.5039" height="14.0631" rx="7.03156" transform="matrix(0.994254 0.107044 0.107044 -0.994254 817.027 486.77)" fill="#453371"/>
<rect width="33.5039" height="14.0631" rx="7.03156" transform="matrix(0.545225 -0.83829 -0.83829 -0.545225 916.074 444.898)" fill="#453371"/>
<rect width="33.5039" height="14.0631" rx="7.03156" transform="matrix(0.545225 -0.83829 -0.83829 -0.545225 930.375 455.289)" fill="#453371"/>
<rect width="33.5039" height="14.0631" rx="7.03156" transform="matrix(0.730476 0.682939 0.682939 -0.730476 965.731 537.781)" fill="#453371"/>
<rect width="33.5039" height="14.0631" rx="7.03156" transform="matrix(0.730476 0.682939 0.682939 -0.730476 953.004 550.051)" fill="#453371"/>
<rect width="33.5039" height="14.0631" rx="7.03156" transform="matrix(0.586194 -0.810171 -0.810171 -0.586194 886.715 353.582)" fill="#453371"/>
<rect width="33.5039" height="14.0631" rx="7.03156" transform="matrix(0.586194 -0.810171 -0.810171 -0.586194 900.479 364.672)" fill="#453371"/>
<rect width="33.5039" height="14.0631" rx="7.03156" transform="matrix(0.999603 -0.028157 -0.028157 -0.999603 1030.11 337.598)" fill="#453371"/>
<rect width="33.5039" height="14.0631" rx="7.03156" transform="matrix(0.999603 -0.028157 -0.028157 -0.999603 1029.69 355.27)" fill="#453371"/>
<rect width="33.5039" height="14.0631" rx="7.03156" transform="matrix(0.999603 -0.028157 -0.028157 -0.999603 963.547 216.359)" fill="#453371"/>
<rect width="33.5039" height="14.0631" rx="7.03156" transform="matrix(0.999603 -0.028157 -0.028157 -0.999603 963.125 234.031)" fill="#453371"/>
<rect width="25.5599" height="10.7287" rx="5.36433" transform="matrix(0.85867 -0.512529 -0.512529 -0.85867 889.791 185.668)" fill="#453371"/>
<rect width="25.5599" height="10.7287" rx="5.36433" transform="matrix(0.85867 -0.512529 -0.512529 -0.85867 896.092 197.59)" fill="#453371"/>
<rect width="33.5039" height="14.0631" rx="7.03156" transform="matrix(0.85867 -0.512529 -0.512529 -0.85867 865.229 614.105)" fill="#453371"/>
<rect width="33.5039" height="14.0631" rx="7.03156" transform="matrix(0.85867 -0.512529 -0.512529 -0.85867 873.49 629.738)" fill="#453371"/>
<rect width="72.4745" height="14.0631" rx="7.03156" transform="matrix(-0.972915 0.231162 0.231162 0.972915 769.526 332.926)" fill="#453371"/>
<rect width="72.4745" height="14.0631" rx="7.03156" transform="matrix(0.211541 0.977369 0.977369 -0.211541 721.825 314.027)" fill="#453371"/>
<rect width="61.0815" height="11.8524" rx="5.92621" transform="matrix(-0.999999 0.00174965 0.00174965 0.999999 630.019 195.086)" fill="#453371"/>
<rect width="61.0815" height="11.8524" rx="5.92621" transform="matrix(-0.0183703 0.999831 0.999831 0.0183703 594.545 170.355)" fill="#453371"/>
<rect width="72.4745" height="14.0631" rx="7.03156" transform="matrix(-0.657644 -0.753329 -0.753329 0.657644 767.531 535.207)" fill="#453371"/>
<rect width="72.4745" height="14.0631" rx="7.03156" transform="matrix(-0.766407 0.642355 0.642353 0.766409 762.044 484.191)" fill="#453371"/>
<rect width="72.4745" height="14.0631" rx="7.03156" transform="matrix(0.489204 -0.872169 -0.872169 -0.489204 908.921 534.043)" fill="#453371"/>
<rect width="72.4745" height="14.0631" rx="7.03156" transform="matrix(-0.86215 -0.506653 -0.506653 0.86215 955.142 511.766)" fill="#453371"/>
<rect width="72.4745" height="14.0631" rx="7.03156" transform="matrix(0.0376772 -0.99929 -0.99929 -0.0376772 1010.96 647.586)" fill="#453371"/>
<rect width="72.4745" height="14.0631" rx="7.03156" transform="matrix(-0.99833 -0.0577749 -0.0577749 0.99833 1041.94 606.688)" fill="#453371"/>
<rect width="98.683" height="19.1487" rx="9.57434" transform="matrix(-0.999954 0.00959663 0.00959663 0.999954 1092.86 163.855)" fill="#453371"/>
<rect width="98.683" height="19.1487" rx="9.57434" transform="matrix(-0.010524 0.999945 0.999945 0.010524 1035.23 124.355)" fill="#453371"/>
<rect width="73.9096" height="14.0631" rx="7.03156" transform="matrix(-0.999548 0.0300669 0.0300669 0.999548 882.849 388.465)" fill="#453371"/>
<rect width="75.687" height="14.0631" rx="7.03156" transform="matrix(0.254485 0.967077 0.967077 -0.254485 830.534 360.016)" fill="#453371"/>
<rect width="61.2191" height="11.6484" rx="5.82422" transform="matrix(-0.953725 -0.300682 -0.300682 0.953725 974.041 291.871)" fill="#453371"/>
<rect width="62.6913" height="11.6484" rx="5.82422" transform="matrix(-0.0780845 0.996947 0.996947 0.0780845 940.88 255.355)" fill="#453371"/>
<rect width="73.9096" height="14.0631" rx="7.03156" transform="matrix(-0.816763 0.576973 0.576973 0.816763 1053.98 402.055)" fill="#453371"/>
<rect width="75.687" height="14.0631" rx="7.03156" transform="matrix(0.746151 0.665777 0.665777 -0.746151 994.654 407.219)" fill="#453371"/>
<rect width="73.9096" height="14.0631" rx="7.03156" transform="matrix(-0.816763 0.576973 0.576973 0.816763 668.027 373.926)" fill="#453371"/>
<rect width="75.687" height="14.0631" rx="7.03156" transform="matrix(0.746151 0.665777 0.665777 -0.746151 608.701 379.09)" fill="#453371"/>
<rect width="73.9096" height="14.0631" rx="7.03156" transform="matrix(-0.305451 0.952208 0.952208 0.305451 813.488 565.492)" fill="#453371"/>
<rect width="75.687" height="14.0631" rx="7.03156" transform="matrix(0.996543 0.0830729 0.0830729 -0.996543 769.202 605.305)" fill="#453371"/>
<rect width="63.318" height="12.0478" rx="6.02391" transform="matrix(-0.305451 0.952208 0.952208 0.305451 798.362 147.355)" fill="#453371"/>
<rect width="64.8407" height="12.0478" rx="6.02391" transform="matrix(0.996543 0.0830729 0.0830729 -0.996543 760.425 181.461)" fill="#453371"/>
<rect width="47.645" height="14.0631" rx="7.03156" transform="matrix(-0.972915 0.231162 0.231162 0.972915 808.79 273.73)" fill="#453371"/>
<circle cx="5.46899" cy="5.46899" r="5.46899" transform="matrix(-1 0 0 1 787.04 264.355)" fill="#453371"/>
<circle cx="5.46899" cy="5.46899" r="5.46899" transform="matrix(-1 0 0 1 794.853 295.605)" fill="#453371"/>
<rect width="47.645" height="14.0631" rx="7.03156" transform="matrix(-0.864961 -0.501839 -0.501839 0.864961 708.039 180.656)" fill="#453371"/>
<circle cx="5.46899" cy="5.46899" r="5.46899" transform="matrix(-0.725528 -0.688193 -0.688193 0.725528 698.71 158.883)" fill="#453371"/>
<circle cx="5.46899" cy="5.46899" r="5.46899" transform="matrix(-0.725528 -0.688193 -0.688193 0.725528 682.875 186.934)" fill="#453371"/>
<rect width="47.645" height="14.0631" rx="7.03156" transform="matrix(-0.999999 0.00133676 0.00133676 0.999999 653.39 257.391)" fill="#453371"/>
<circle cx="5.46899" cy="5.46899" r="5.46899" transform="matrix(-0.973223 -0.229861 -0.229861 0.973223 634.377 243.266)" fill="#453371"/>
<circle cx="5.46899" cy="5.46899" r="5.46899" transform="matrix(-0.973223 -0.229861 -0.229861 0.973223 634.798 275.473)" fill="#453371"/>
<rect width="47.645" height="14.0631" rx="7.03156" transform="matrix(-0.999999 0.00133676 0.00133676 0.999999 1070.59 260.516)" fill="#453371"/>
<circle cx="5.46899" cy="5.46899" r="5.46899" transform="matrix(-0.973223 -0.229861 -0.229861 0.973223 1051.58 246.391)" fill="#453371"/>
<circle cx="5.46899" cy="5.46899" r="5.46899" transform="matrix(-0.973223 -0.229861 -0.229861 0.973223 1052 278.598)" fill="#453371"/>
<rect width="47.645" height="14.0631" rx="7.03156" transform="matrix(-0.746895 0.664942 0.664942 0.746895 1052.8 480.227)" fill="#453371"/>
<circle cx="5.46899" cy="5.46899" r="5.46899" transform="matrix(-0.880375 0.474278 0.474278 0.880375 1029.21 482.293)" fill="#453371"/>
<circle cx="5.46899" cy="5.46899" r="5.46899" transform="matrix(-0.880375 0.474278 0.474278 0.880375 1050.91 506.098)" fill="#453371"/>
<rect width="47.645" height="14.0631" rx="7.03156" transform="matrix(-0.746895 0.664942 0.664942 0.746895 666.848 467.727)" fill="#453371"/>
<circle cx="5.46899" cy="5.46899" r="5.46899" transform="matrix(-0.880375 0.474278 0.474278 0.880375 643.254 469.793)" fill="#453371"/>
<circle cx="5.46899" cy="5.46899" r="5.46899" transform="matrix(-0.880375 0.474278 0.474278 0.880375 664.953 493.598)" fill="#453371"/>
<rect width="47.645" height="14.0631" rx="7.03156" transform="matrix(-0.999951 -0.00985266 -0.00985266 0.999951 807.992 436)" fill="#453371"/>
<circle cx="5.46899" cy="5.46899" r="5.46899" transform="matrix(-0.97059 -0.240737 -0.240737 0.97059 789.137 421.664)" fill="#453371"/>
<circle cx="5.46899" cy="5.46899" r="5.46899" transform="matrix(-0.97059 -0.240737 -0.240737 0.97059 789.196 453.879)" fill="#453371"/>
<rect width="47.645" height="14.0631" rx="7.03156" transform="matrix(-0.80369 -0.595048 -0.595048 0.80369 882.265 550.984)" fill="#453371"/>
<circle cx="5.46899" cy="5.46899" r="5.46899" transform="matrix(-0.644369 -0.764714 -0.764714 0.644369 875.419 528.312)" fill="#453371"/>
<circle cx="5.46899" cy="5.46899" r="5.46899" transform="matrix(-0.644369 -0.764714 -0.764714 0.644369 856.556 554.422)" fill="#453371"/>
<rect width="47.645" height="14.0631" rx="7.03156" transform="matrix(-0.80369 -0.595048 -0.595048 0.80369 747.885 608.801)" fill="#453371"/>
<circle cx="5.46899" cy="5.46899" r="5.46899" transform="matrix(-0.644369 -0.764714 -0.764714 0.644369 741.039 586.129)" fill="#453371"/>
<circle cx="5.46899" cy="5.46899" r="5.46899" transform="matrix(-0.644369 -0.764714 -0.764714 0.644369 722.175 612.238)" fill="#453371"/>
<circle cx="5.46899" cy="5.46899" r="5.46899" transform="matrix(-1 0 0 1 714.963 389.18)" fill="#453371"/>
<path d="M710.277 406.367C714.184 406.367 714.184 411.442 715.745 413.395C718.245 416.52 723.038 419.906 725.122 421.208C734.496 427.064 735.276 435.796 734.495 439.962C732.297 451.682 718.09 455.324 712.621 454.022C696.371 451.522 693.608 442.042 693.868 437.615C694.128 433.188 697.774 432.931 698.556 432.931C700.9 432.931 702.459 435.459 703.243 437.615C705.743 444.49 712.361 445.167 714.965 444.647C719.965 444.647 722.256 441.001 722.777 439.178C724.027 432.302 718.61 427.979 715.745 426.677C708.245 421.677 705.849 415.739 705.589 413.395C704.964 407.77 707.152 406.367 710.277 406.367Z" fill="#453371"/>
<circle cx="5.46899" cy="5.46899" r="5.46899" transform="matrix(-1 0 0 1 580.279 574)" fill="#453371"/>
<path d="M575.594 591.188C579.5 591.188 579.5 596.263 581.062 598.215C583.561 601.341 588.354 604.726 590.438 606.028C599.812 611.884 600.592 620.616 599.811 624.783C597.614 636.502 583.407 640.144 577.938 638.842C561.687 636.342 558.924 626.863 559.184 622.435C559.445 618.008 563.091 617.751 563.872 617.751C566.216 617.751 567.776 620.28 568.56 622.435C571.06 629.311 577.677 629.988 580.282 629.467C585.282 629.467 587.573 625.821 588.093 623.998C589.343 617.123 583.927 612.799 581.062 611.497C573.561 606.497 571.166 600.559 570.905 598.215C570.28 592.59 572.469 591.188 575.594 591.188Z" fill="#453371"/>
<circle cx="5.46899" cy="5.46899" r="5.46899" transform="matrix(0.87391 -0.486088 -0.486088 -0.87391 974.649 423.516)" fill="#453371"/>
<path d="M970.386 406.215C966.972 408.113 964.505 403.678 962.191 402.731C958.488 401.215 952.653 400.586 950.199 400.461C939.161 399.9 934.235 392.648 932.892 388.627C929.116 377.317 939.761 367.229 945.173 365.708C960.59 359.994 967.613 366.935 969.537 370.93C971.461 374.926 968.4 376.923 967.717 377.303C965.669 378.442 963.077 376.991 961.344 375.488C955.817 370.695 949.705 373.32 947.682 375.041C943.312 377.471 943.082 381.771 943.514 383.617C945.763 390.233 952.598 391.378 955.735 391.124C964.72 391.848 969.7 395.872 971.067 397.794C974.348 402.406 973.117 404.696 970.386 406.215Z" fill="#453371"/>
<circle cx="7.75059" cy="7.75059" r="7.75059" transform="matrix(0.996596 -0.0824451 -0.0824451 -0.996596 859.232 297.758)" fill="#453371"/>
<path d="M863.841 272.933C858.324 273.389 857.731 266.221 855.297 263.646C851.402 259.524 844.237 255.302 841.141 253.707C827.218 246.531 825.096 234.29 825.712 228.314C827.447 211.505 847.086 204.701 854.962 205.901C878.206 207.533 883.217 220.599 883.366 226.882C883.516 233.166 878.396 233.954 877.293 234.046C873.982 234.319 871.484 230.931 870.125 227.978C865.79 218.559 856.365 218.376 852.747 219.416C845.685 220 842.876 225.418 842.353 228.053C841.391 237.91 849.547 243.382 853.745 244.887C864.923 251.073 869 259.179 869.642 262.459C871.182 270.331 868.255 272.568 863.841 272.933Z" fill="#453371"/>
<rect width="36.8925" height="14.0631" rx="7.03156" transform="matrix(-0.0348165 0.999394 0.999394 0.0348165 716.972 773.027)" fill="#453371"/>
<rect width="36.8925" height="14.0631" rx="7.03156" transform="matrix(-0.998084 0.0618759 0.0618759 0.998084 1003.6 838.656)" fill="#453371"/>
<rect width="36.8925" height="14.0631" rx="7.03156" transform="matrix(0.400472 0.916309 0.916309 -0.400472 976.723 976.066)" fill="#453371"/>
<rect width="36.8925" height="14.0631" rx="7.03156" transform="matrix(-0.997286 0.0736203 0.0736203 0.997286 1058.13 1057.41)" fill="#453371"/>
<rect width="36.8925" height="14.0631" rx="7.03156" transform="matrix(-0.3922 0.91988 0.91988 0.3922 929.035 1073.04)" fill="#453371"/>
<rect width="36.8925" height="14.0631" rx="7.03156" transform="matrix(-0.0348165 0.999394 0.999394 0.0348165 796.663 1029.29)" fill="#453371"/>
<rect width="36.8925" height="14.0631" rx="7.03156" transform="matrix(-0.359004 0.933336 0.933336 0.359004 675.71 1046.48)" fill="#453371"/>
<rect width="36.8925" height="14.0631" rx="7.03156" transform="matrix(-0.999787 0.0206366 0.0206366 0.999787 644.794 1058.98)" fill="#453371"/>
<rect width="36.8925" height="14.0631" rx="7.03156" transform="matrix(-0.999705 0.0242662 0.0242662 0.999705 674.431 1105.86)" fill="#453371"/>
<rect width="36.8925" height="14.0631" rx="7.03156" transform="matrix(-0.694033 0.719943 0.719943 0.694033 816.219 849.594)" fill="#453371"/>
<rect width="36.8925" height="14.0631" rx="7.03156" transform="matrix(-0.962743 0.270418 0.270418 0.962743 702.222 824.59)" fill="#453371"/>
<rect width="36.8925" height="14.0631" rx="7.03156" transform="matrix(-0.999818 0.0190956 0.0190956 0.999818 682.317 683.961)" fill="#453371"/>
<rect width="36.8925" height="14.0631" rx="7.03156" transform="matrix(-0.691823 0.722067 0.722067 0.691823 929.486 736.02)" fill="#453371"/>
<rect width="36.8925" height="14.0631" rx="7.03156" transform="matrix(0.729887 0.683567 0.683567 -0.729887 991.5 690.266)" fill="#453371"/>
<rect width="33.5039" height="14.0631" rx="7.03156" transform="matrix(0.742801 0.669512 0.669512 -0.742801 760.787 755.348)" fill="#453371"/>
<rect width="33.5039" height="14.0631" rx="7.03156" transform="matrix(0.742801 0.669512 0.669512 -0.742801 748.286 767.848)" fill="#453371"/>
<rect width="33.5039" height="14.0631" rx="7.03156" transform="matrix(0.592777 -0.805367 -0.805364 -0.59278 673.152 759.051)" fill="#453371"/>
<rect width="33.5039" height="14.0631" rx="7.03156" transform="matrix(0.592779 -0.805366 -0.805366 -0.592779 686.828 770.254)" fill="#453371"/>
<rect width="33.5039" height="14.0631" rx="7.03156" transform="matrix(0.999749 -0.0223998 -0.0223998 -0.999749 608.663 846.348)" fill="#453371"/>
<rect width="33.5039" height="14.0631" rx="7.03156" transform="matrix(0.999749 -0.0223998 -0.0223998 -0.999749 608.141 864.02)" fill="#453371"/>
<rect width="33.5039" height="14.0631" rx="7.03156" transform="matrix(0.994254 0.107044 0.107044 -0.994254 821.829 985.98)" fill="#453371"/>
<rect width="33.5039" height="14.0631" rx="7.03156" transform="matrix(0.994254 0.107044 0.107044 -0.994254 819.028 1003.43)" fill="#453371"/>
<rect width="33.5039" height="14.0631" rx="7.03156" transform="matrix(0.545225 -0.83829 -0.83829 -0.545225 918.075 961.566)" fill="#453371"/>
<rect width="33.5039" height="14.0631" rx="7.03156" transform="matrix(0.545227 -0.838289 -0.838291 -0.545223 932.376 971.957)" fill="#453371"/>
<rect width="33.5039" height="14.0631" rx="7.03156" transform="matrix(0.730476 0.682939 0.682939 -0.730476 967.732 1054.45)" fill="#453371"/>
<rect width="33.5039" height="14.0631" rx="7.03156" transform="matrix(0.730476 0.682939 0.682939 -0.730476 955.005 1066.72)" fill="#453371"/>
<rect width="33.5039" height="14.0631" rx="7.03156" transform="matrix(0.586194 -0.810171 -0.810171 -0.586194 888.716 870.25)" fill="#453371"/>
<rect width="33.5039" height="14.0631" rx="7.03156" transform="matrix(0.586194 -0.810171 -0.810171 -0.586194 902.48 881.34)" fill="#453371"/>
<rect width="33.5039" height="14.0631" rx="7.03156" transform="matrix(0.999603 -0.0281567 -0.0281573 -0.999603 1032.11 854.262)" fill="#453371"/>
<rect width="33.5039" height="14.0631" rx="7.03156" transform="matrix(0.999603 -0.028157 -0.028157 -0.999603 1031.69 871.934)" fill="#453371"/>
<rect width="33.5039" height="14.0631" rx="7.03156" transform="matrix(0.999603 -0.028157 -0.028157 -0.999603 972.731 749.57)" fill="#453371"/>
<rect width="33.5039" height="14.0631" rx="7.03156" transform="matrix(0.999603 -0.028157 -0.028157 -0.999603 972.31 767.242)" fill="#453371"/>
<rect width="33.5039" height="14.0631" rx="7.03156" transform="matrix(0.85867 -0.512529 -0.512529 -0.85867 806.551 699.855)" fill="#453371"/>
<rect width="33.5039" height="14.0631" rx="7.03156" transform="matrix(0.85867 -0.512529 -0.512529 -0.85867 814.813 715.488)" fill="#453371"/>
<rect width="33.5039" height="14.0631" rx="7.03156" transform="matrix(0.85867 -0.512529 -0.512529 -0.85867 867.231 1130.77)" fill="#453371"/>
<rect width="33.5039" height="14.0631" rx="7.03156" transform="matrix(0.85867 -0.512529 -0.512529 -0.85867 875.492 1146.41)" fill="#453371"/>
<rect width="72.4745" height="14.0631" rx="7.03156" transform="matrix(-0.972915 0.231162 0.231162 0.972915 771.528 849.594)" fill="#453371"/>
<rect width="72.4745" height="14.0631" rx="7.03156" transform="matrix(-0.972915 0.231162 0.231162 0.972915 1150.51 873.875)" fill="#453371"/>
<rect width="72.4745" height="14.0631" rx="7.03156" transform="matrix(0.211541 0.977369 0.977369 -0.211541 723.825 830.695)" fill="#453371"/>
<rect width="72.4745" height="14.0631" rx="7.03156" transform="matrix(0.211541 0.977369 0.977369 -0.211541 1102.81 854.977)" fill="#453371"/>
<rect width="72.4745" height="14.0631" rx="7.03156" transform="matrix(-0.999999 0.00174965 0.00174965 0.999999 641.59 708.934)" fill="#453371"/>
<rect width="72.4745" height="14.0631" rx="7.03156" transform="matrix(-0.0183703 0.999831 0.999831 0.0183703 599.499 679.59)" fill="#453371"/>
<rect width="72.4745" height="14.0631" rx="7.03156" transform="matrix(-0.657644 -0.753329 -0.753329 0.657644 769.532 1051.88)" fill="#453371"/>
<rect width="72.4745" height="14.0631" rx="7.03156" transform="matrix(-0.766408 0.642354 0.642354 0.766408 764.045 1000.86)" fill="#453371"/>
<rect width="72.4745" height="14.0631" rx="7.03156" transform="matrix(0.489204 -0.872169 -0.872169 -0.489204 910.922 1050.71)" fill="#453371"/>
<rect width="72.4745" height="14.0631" rx="7.03156" transform="matrix(-0.86215 -0.506653 -0.506653 0.86215 957.143 1028.43)" fill="#453371"/>
<rect width="72.4745" height="14.0631" rx="7.03156" transform="matrix(0.0376772 -0.99929 -0.99929 -0.0376772 1012.97 1164.25)" fill="#453371"/>
<rect width="72.4745" height="14.0631" rx="7.03156" transform="matrix(-0.99833 -0.0577749 -0.0577749 0.99833 1043.94 1123.35)" fill="#453371"/>
<rect width="72.4745" height="14.0631" rx="7.03156" transform="matrix(-0.999954 0.00959663 0.00959663 0.999954 959.018 667.973)" fill="#453371"/>
<rect width="72.4745" height="14.0631" rx="7.03156" transform="matrix(-0.010524 0.999945 0.999945 0.010524 916.697 638.961)" fill="#453371"/>
<rect width="73.9096" height="14.0631" rx="7.03156" transform="matrix(-0.999548 0.0300669 0.0300669 0.999548 884.851 905.133)" fill="#453371"/>
<rect width="75.687" height="14.0631" rx="7.03156" transform="matrix(0.254485 0.967077 0.967077 -0.254485 832.535 876.684)" fill="#453371"/>
<rect width="73.9096" height="14.0631" rx="7.03156" transform="matrix(-0.953725 -0.300682 -0.300682 0.953725 976.342 811.965)" fill="#453371"/>
<rect width="75.687" height="14.0631" rx="7.03156" transform="matrix(-0.0780845 0.996947 0.996947 0.0780845 936.31 767.875)" fill="#453371"/>
<rect width="73.9096" height="14.0631" rx="7.03156" transform="matrix(-0.816763 0.576973 0.576973 0.816763 1067.37 906.328)" fill="#453371"/>
<rect width="75.687" height="14.0631" rx="7.03156" transform="matrix(0.746151 0.665777 0.665777 -0.746151 1008.04 911.492)" fill="#453371"/>
<rect width="73.9096" height="14.0631" rx="7.03156" transform="matrix(-0.816764 0.576972 0.576975 0.816762 670.028 890.594)" fill="#453371"/>
<rect width="75.687" height="14.0631" rx="7.03156" transform="matrix(0.746151 0.665777 0.665777 -0.746151 610.702 895.758)" fill="#453371"/>
<rect width="73.9096" height="14.0631" rx="7.03156" transform="matrix(-0.305451 0.952208 0.952208 0.305451 815.489 1082.16)" fill="#453371"/>
<rect width="75.687" height="14.0631" rx="7.03156" transform="matrix(0.996543 0.0830729 0.0830729 -0.996543 771.203 1121.97)" fill="#453371"/>
<rect width="47.645" height="14.0631" rx="7.03156" transform="matrix(-0.972915 0.231162 0.231162 0.972915 837.154 801.152)" fill="#453371"/>
<circle cx="5.46899" cy="5.46899" r="5.46899" transform="matrix(-1 0 0 1 815.403 791.777)" fill="#453371"/>
<circle cx="5.46899" cy="5.46899" r="5.46899" transform="matrix(-1 0 0 1 823.216 823.027)" fill="#453371"/>
<rect width="47.645" height="14.0631" rx="7.03156" transform="matrix(-0.864961 -0.501839 -0.501839 0.864961 756.591 708.602)" fill="#453371"/>
<circle cx="5.46899" cy="5.46899" r="5.46899" transform="matrix(-0.725528 -0.688193 -0.688193 0.725528 747.261 686.828)" fill="#453371"/>
<circle cx="5.46899" cy="5.46899" r="5.46899" transform="matrix(-0.725528 -0.688193 -0.688193 0.725528 731.425 714.879)" fill="#453371"/>
<rect width="47.645" height="14.0631" rx="7.03156" transform="matrix(-0.999999 0.00133676 0.00133676 0.999999 655.391 774.059)" fill="#453371"/>
<circle cx="5.46899" cy="5.46899" r="5.46899" transform="matrix(-0.973223 -0.229861 -0.229861 0.973223 636.378 759.934)" fill="#453371"/>
<circle cx="5.46899" cy="5.46899" r="5.46899" transform="matrix(-0.973223 -0.229861 -0.229861 0.973223 636.799 792.141)" fill="#453371"/>
<rect width="47.645" height="14.0631" rx="7.03156" transform="matrix(-0.999999 0.00133676 0.00133676 0.999999 1072.6 777.184)" fill="#453371"/>
<circle cx="5.46899" cy="5.46899" r="5.46899" transform="matrix(-0.973223 -0.229861 -0.229861 0.973223 1053.58 763.059)" fill="#453371"/>
<circle cx="5.46899" cy="5.46899" r="5.46899" transform="matrix(-0.973223 -0.229861 -0.229861 0.973223 1054 795.266)" fill="#453371"/>
<rect width="47.645" height="14.0631" rx="7.03156" transform="matrix(-0.746895 0.664942 0.664942 0.746895 1054.8 996.895)" fill="#453371"/>
<circle cx="5.46899" cy="5.46899" r="5.46899" transform="matrix(-0.880375 0.474278 0.474278 0.880375 1031.21 998.961)" fill="#453371"/>
<circle cx="5.46899" cy="5.46899" r="5.46899" transform="matrix(-0.880375 0.474278 0.474278 0.880375 1052.91 1022.77)" fill="#453371"/>
<rect width="47.645" height="14.0631" rx="7.03156" transform="matrix(-0.746895 0.664943 0.66494 0.746896 668.849 984.395)" fill="#453371"/>
<circle cx="5.46899" cy="5.46899" r="5.46899" transform="matrix(-0.880374 0.474279 0.474277 0.880376 645.255 986.461)" fill="#453371"/>
<circle cx="5.46899" cy="5.46899" r="5.46899" transform="matrix(-0.880374 0.474279 0.474277 0.880376 666.954 1010.27)" fill="#453371"/>
<rect width="47.645" height="14.0631" rx="7.03156" transform="matrix(-0.999951 -0.00985266 -0.00985266 0.999951 809.993 952.668)" fill="#453371"/>
<circle cx="5.46899" cy="5.46899" r="5.46899" transform="matrix(-0.97059 -0.240737 -0.240737 0.97059 791.139 938.332)" fill="#453371"/>
<circle cx="5.46899" cy="5.46899" r="5.46899" transform="matrix(-0.97059 -0.240737 -0.240737 0.97059 791.197 970.547)" fill="#453371"/>
<rect width="47.645" height="14.0631" rx="7.03156" transform="matrix(-0.80369 -0.595048 -0.595048 0.80369 884.266 1067.65)" fill="#453371"/>
<circle cx="5.46899" cy="5.46899" r="5.46899" transform="matrix(-0.644369 -0.764714 -0.764714 0.644369 877.421 1044.98)" fill="#453371"/>
<circle cx="5.46899" cy="5.46899" r="5.46899" transform="matrix(-0.644369 -0.764714 -0.764714 0.644369 858.557 1071.09)" fill="#453371"/>
<rect width="47.645" height="14.0631" rx="7.03156" transform="matrix(-0.80369 -0.595048 -0.595048 0.80369 749.886 1125.47)" fill="#453371"/>
<circle cx="5.46899" cy="5.46899" r="5.46899" transform="matrix(-0.644369 -0.764714 -0.764714 0.644369 743.04 1102.8)" fill="#453371"/>
<circle cx="5.46899" cy="5.46899" r="5.46899" transform="matrix(-0.644369 -0.764714 -0.764714 0.644369 724.177 1128.91)" fill="#453371"/>
<circle cx="5.46899" cy="5.46899" r="5.46899" transform="matrix(-1 0 0 1 716.963 905.848)" fill="#453371"/>
<path d="M712.278 923.035C716.184 923.035 716.184 928.11 717.746 930.063C720.245 933.188 725.038 936.574 727.122 937.876C736.496 943.732 737.276 952.464 736.495 956.63C734.298 968.35 720.091 971.992 714.622 970.69C698.371 968.19 695.608 958.71 695.868 954.283C696.129 949.856 699.775 949.599 700.556 949.599C702.9 949.599 704.46 952.127 705.244 954.283C707.744 961.158 714.361 961.835 716.966 961.314C721.966 961.314 724.257 957.668 724.777 955.846C726.028 948.97 720.611 944.647 717.746 943.345C710.246 938.345 707.85 932.407 707.589 930.063C706.964 924.438 709.153 923.035 712.278 923.035Z" fill="#453371"/>
<circle cx="5.46899" cy="5.46899" r="5.46899" transform="matrix(0.87391 -0.486088 -0.486088 -0.87391 976.65 940.18)" fill="#453371"/>
<path d="M972.387 922.879C968.973 924.778 966.506 920.342 964.192 919.395C960.489 917.879 954.654 917.25 952.2 917.125C941.162 916.564 936.236 909.312 934.893 905.291C931.117 893.981 941.762 883.893 947.174 882.372C962.591 876.658 969.614 883.599 971.538 887.595C973.462 891.59 970.401 893.587 969.718 893.967C967.67 895.106 965.078 893.655 963.345 892.152C957.818 887.359 951.706 889.984 949.683 891.705C945.313 894.135 945.083 898.435 945.515 900.281C947.764 906.897 954.599 908.042 957.736 907.788C966.721 908.512 971.701 912.536 973.068 914.458C976.349 919.07 975.118 921.36 972.387 922.879Z" fill="#453371"/>
<circle cx="5.46899" cy="5.46899" r="5.46899" transform="matrix(0.996596 -0.0824451 -0.0824451 -0.996596 853.741 805.262)" fill="#453371"/>
<path d="M856.995 787.746C853.102 788.068 852.683 783.01 850.966 781.193C848.217 778.285 843.161 775.306 840.977 774.18C831.152 769.117 829.655 760.479 830.09 756.262C831.314 744.401 845.172 739.6 850.73 740.447C867.131 741.599 870.667 750.818 870.772 755.252C870.877 759.686 867.265 760.242 866.486 760.307C864.151 760.5 862.387 758.109 861.428 756.025C858.37 749.379 851.719 749.25 849.167 749.984C844.184 750.396 842.201 754.218 841.833 756.078C841.154 763.033 846.908 766.895 849.871 767.956C857.758 772.321 860.635 778.041 861.088 780.356C862.175 785.91 860.109 787.489 856.995 787.746Z" fill="#453371"/>
<rect width="36.8925" height="14.0631" rx="7.03156" transform="matrix(0.179198 0.983813 0.983813 -0.179198 179.007 719.25)" fill="#453371"/>
<rect width="36.8925" height="14.0631" rx="7.03156" transform="matrix(-0.961905 0.273385 0.273385 0.961905 473.043 722.215)" fill="#453371"/>
<rect width="36.8925" height="14.0631" rx="7.03156" transform="matrix(0.58674 0.809775 0.809775 -0.58674 476.097 862.199)" fill="#453371"/>
<rect width="36.8925" height="14.0631" rx="7.03156" transform="matrix(-0.95862 0.284689 0.284689 0.95862 572.984 924.305)" fill="#453371"/>
<rect width="36.8925" height="14.0631" rx="7.03156" transform="matrix(-0.18692 0.982375 0.982375 0.186921 450.195 967.113)" fill="#453371"/>
<rect width="36.8925" height="14.0631" rx="7.03156" transform="matrix(0.179198 0.983813 0.983813 -0.179198 311.535 952.609)" fill="#453371"/>
<rect width="36.8925" height="14.0631" rx="7.03156" transform="matrix(-0.151618 0.988439 0.988439 0.151618 197.034 995.207)" fill="#453371"/>
<rect width="36.8925" height="14.0631" rx="7.03156" transform="matrix(-0.961362 -0.275287 -0.275287 0.961362 152.231 1007.89)" fill="#453371"/>
<rect width="36.8925" height="14.0631" rx="7.03156" transform="matrix(-0.971513 0.236987 0.236987 0.971513 208.453 1053.49)" fill="#453371"/>
<rect width="36.8925" height="14.0631" rx="7.03156" transform="matrix(-0.52446 0.851435 0.851435 0.52446 282.133 781.582)" fill="#453371"/>
<rect width="36.8925" height="14.0631" rx="7.03156" transform="matrix(-0.882886 0.469588 0.469585 0.882887 175.598 772.773)" fill="#453371"/>
<rect width="36.8925" height="14.0631" rx="7.03156" transform="matrix(-0.972725 0.23196 0.23196 0.972725 126.149 639.629)" fill="#453371"/>
<rect width="36.8925" height="14.0631" rx="7.03156" transform="matrix(-0.521848 0.853038 0.853038 0.521848 378.735 637.758)" fill="#453371"/>
<rect width="36.8925" height="14.0631" rx="7.03156" transform="matrix(0.858918 0.512114 0.512114 -0.858918 380.236 596.25)" fill="#453371"/>
<rect width="33.5039" height="14.0631" rx="7.03156" transform="matrix(0.868535 0.495627 0.495627 -0.868535 218.042 692.629)" fill="#453371"/>
<rect width="33.5039" height="14.0631" rx="7.03156" transform="matrix(0.868535 0.495627 0.495627 -0.868535 208.496 707.508)" fill="#453371"/>
<rect width="33.5039" height="14.0631" rx="7.03156" transform="matrix(0.407312 -0.913289 -0.913289 -0.407312 133.215 714.945)" fill="#453371"/>
<rect width="33.5039" height="14.0631" rx="7.03156" transform="matrix(0.407312 -0.913289 -0.913289 -0.407312 148.966 722.973)" fill="#453371"/>
<rect width="33.5039" height="14.0631" rx="7.03156" transform="matrix(0.971952 -0.235174 -0.235172 -0.971955 88.835 813.988)" fill="#453371"/>
<rect width="33.5039" height="14.0631" rx="7.03156" transform="matrix(0.971952 -0.235174 -0.235172 -0.971955 92.0953 831.363)" fill="#453371"/>
<rect width="33.5039" height="14.0631" rx="7.03156" transform="matrix(0.994201 -0.107537 -0.107537 -0.994201 326.883 904.93)" fill="#453371"/>
<rect width="33.5039" height="14.0631" rx="7.03156" transform="matrix(0.994201 -0.107537 -0.107537 -0.994201 327.87 922.582)" fill="#453371"/>
<rect width="33.5039" height="14.0631" rx="7.03156" transform="matrix(0.35383 -0.93531 -0.93531 -0.35383 415.705 860.539)" fill="#453371"/>
<rect width="33.5039" height="14.0631" rx="7.03156" transform="matrix(0.35383 -0.93531 -0.93531 -0.35383 431.894 867.645)" fill="#453371"/>
<rect width="33.5039" height="14.0631" rx="7.03156" transform="matrix(0.859359 0.511374 0.511373 -0.859357 484.034 940.691)" fill="#453371"/>
<rect width="33.5039" height="14.0631" rx="7.03156" transform="matrix(0.859359 0.511374 0.511373 -0.859357 474.219 955.395)" fill="#453371"/>
<rect width="33.5039" height="14.0631" rx="7.03156" transform="matrix(0.399854 -0.916579 -0.916579 -0.399854 367.54 777.594)" fill="#453371"/>
<rect width="33.5039" height="14.0631" rx="7.03156" transform="matrix(0.399854 -0.916579 -0.916579 -0.399854 383.353 785.492)" fill="#453371"/>
<rect width="33.5039" height="14.0631" rx="7.03156" transform="matrix(0.970583 -0.240767 -0.240767 -0.970583 504.222 731.383)" fill="#453371"/>
<rect width="33.5039" height="14.0631" rx="7.03156" transform="matrix(0.970583 -0.240767 -0.240767 -0.970583 507.581 748.738)" fill="#453371"/>
<rect width="33.5039" height="14.0631" rx="7.03156" transform="matrix(0.970583 -0.240767 -0.240767 -0.970583 423.875 641.77)" fill="#453371"/>
<rect width="33.5039" height="14.0631" rx="7.03156" transform="matrix(0.970583 -0.240767 -0.240767 -0.970583 427.234 659.125)" fill="#453371"/>
<rect width="33.5039" height="14.0631" rx="7.03156" transform="matrix(0.729557 -0.68392 -0.68392 -0.729557 332.161 613.75)" fill="#453371"/>
<rect width="33.5039" height="14.0631" rx="7.03156" transform="matrix(0.729557 -0.68392 -0.68392 -0.729557 343.567 627.258)" fill="#453371"/>
<rect width="33.5039" height="14.0631" rx="7.03156" transform="matrix(0.729555 -0.683922 -0.683918 -0.729559 402.13 1036.7)" fill="#453371"/>
<rect width="33.5039" height="14.0631" rx="7.03156" transform="matrix(0.729557 -0.68392 -0.68392 -0.729557 413.535 1050.21)" fill="#453371"/>
<rect width="72.4745" height="14.0631" rx="7.03156" transform="matrix(-0.901199 0.433405 0.433405 0.901199 248.642 782.414)" fill="#453371"/>
<rect width="72.4745" height="14.0631" rx="7.03156" transform="matrix(0.415185 0.909737 0.909737 -0.415185 198.007 774.125)" fill="#453371"/>
<rect width="72.4745" height="14.0631" rx="7.03156" transform="matrix(-0.976603 0.215052 0.215052 0.976603 91.6873 672.711)" fill="#453371"/>
<rect width="72.4745" height="14.0631" rx="7.03156" transform="matrix(0.195359 0.980732 0.980732 -0.195359 44.3049 653.027)" fill="#453371"/>
<rect width="72.4745" height="14.0631" rx="7.03156" transform="matrix(-0.80322 -0.595682 -0.595682 0.80322 289.848 980.461)" fill="#453371"/>
<rect width="72.4745" height="14.0631" rx="7.03156" transform="matrix(-0.611722 0.791073 0.791073 0.611722 273.603 931.793)" fill="#453371"/>
<rect width="72.4745" height="14.0631" rx="7.03156" transform="matrix(0.291871 -0.956458 -0.956458 -0.291871 427.734 949.16)" fill="#453371"/>
<rect width="72.4745" height="14.0631" rx="7.03156" transform="matrix(-0.950392 -0.311055 -0.311055 0.950392 468.138 917.539)" fill="#453371"/>
<rect width="72.4745" height="14.0631" rx="7.03156" transform="matrix(-0.176381 -0.984322 -0.984322 0.176381 551.653 1038.32)" fill="#453371"/>
<rect width="72.4745" height="14.0631" rx="7.03156" transform="matrix(-0.987671 0.156541 0.156542 0.987671 573.19 991.754)" fill="#453371"/>
<rect width="72.4745" height="14.0631" rx="7.03156" transform="matrix(-0.974885 0.222709 0.222709 0.974885 501.968 558.613)" fill="#453371"/>
<rect width="72.4745" height="14.0631" rx="7.03156" transform="matrix(0.203049 0.979169 0.979169 -0.203049 454.433 539.301)" fill="#453371"/>
<rect width="63.8357" height="12.1463" rx="6.07316" transform="matrix(-0.999888 -0.0149435 -0.0149435 0.999888 376.501 819.008)" fill="#453371"/>
<rect width="65.3708" height="12.1463" rx="6.07316" transform="matrix(0.210708 0.977549 0.977549 -0.210708 332.468 792.43)" fill="#453371"/>
<rect width="73.9096" height="14.0631" rx="7.03156" transform="matrix(-0.995916 -0.0902891 -0.0902891 0.995916 440.714 701.957)" fill="#453371"/>
<rect width="75.687" height="14.0631" rx="7.03156" transform="matrix(0.136404 0.990653 0.990653 -0.136404 392.198 667.426)" fill="#453371"/>
<rect width="97.9634" height="18.64" rx="9.31998" transform="matrix(-0.882786 0.469776 0.469776 0.882786 567.568 783.113)" fill="#453371"/>
<rect width="100.319" height="18.64" rx="9.31998" transform="matrix(0.656583 0.754253 0.754253 -0.656583 488.696 780.027)" fill="#453371"/>
<rect width="73.9096" height="14.0631" rx="7.03156" transform="matrix(-0.674866 0.73794 0.737941 0.674865 158.226 844.125)" fill="#453371"/>
<rect width="75.687" height="14.0631" rx="7.03156" transform="matrix(0.871012 0.491263 0.491264 -0.87101 101.368 861.828)" fill="#453371"/>
<rect width="73.9096" height="14.0631" rx="7.03156" transform="matrix(-0.0952721 0.995451 0.995451 0.0952721 341.208 1000.25)" fill="#453371"/>
<rect width="75.687" height="14.0631" rx="7.03156" transform="matrix(0.991323 -0.131444 -0.131446 -0.991323 306.435 1048.59)" fill="#453371"/>
<rect width="73.9096" height="14.0631" rx="7.03156" transform="matrix(-0.0952721 0.995451 0.995451 0.0952721 254.134 587.848)" fill="#453371"/>
<rect width="75.687" height="14.0631" rx="7.03156" transform="matrix(0.991323 -0.131445 -0.131445 -0.991323 219.361 636.191)" fill="#453371"/>
<rect width="57.9459" height="17.1036" rx="8.55179" transform="matrix(-0.901199 0.433405 0.433405 0.901199 327.492 722.27)" fill="#453371"/>
<circle cx="6.65139" cy="6.65139" r="6.65139" transform="matrix(-0.976977 0.213343 0.213343 0.976977 299.214 716.773)" fill="#453371"/>
<circle cx="6.65139" cy="6.65139" r="6.65139" transform="matrix(-0.976977 0.213343 0.213343 0.976977 316.607 751.879)" fill="#453371"/>
<rect width="47.645" height="14.0631" rx="7.03156" transform="matrix(-0.952111 -0.305752 -0.305752 0.952111 203.97 647.855)" fill="#453371"/>
<circle cx="5.46899" cy="5.46899" r="5.46899" transform="matrix(-0.855645 -0.517563 -0.517563 0.855645 190.21 628.574)" fill="#453371"/>
<circle cx="5.46899" cy="5.46899" r="5.46899" transform="matrix(-0.855645 -0.517563 -0.517563 0.855645 180.723 659.359)" fill="#453371"/>
<rect width="47.645" height="14.0631" rx="7.03156" transform="matrix(-0.976691 0.214648 0.214648 0.976691 119.064 733.395)" fill="#453371"/>
<circle cx="5.46899" cy="5.46899" r="5.46899" transform="matrix(-0.999856 -0.0169394 -0.0169394 0.999856 97.4756 723.652)" fill="#453371"/>
<circle cx="5.46899" cy="5.46899" r="5.46899" transform="matrix(-0.999856 -0.0169394 -0.0169394 0.999856 104.759 755.027)" fill="#453371"/>
<rect width="47.645" height="14.0631" rx="7.03156" transform="matrix(-0.976691 0.214648 0.214648 0.976691 527.331 647.441)" fill="#453371"/>
<circle cx="5.46899" cy="5.46899" r="5.46899" transform="matrix(-0.999856 -0.0169394 -0.0169394 0.999856 505.742 637.699)" fill="#453371"/>
<circle cx="5.46899" cy="5.46899" r="5.46899" transform="matrix(-0.999856 -0.0169394 -0.0169394 0.999856 513.026 669.074)" fill="#453371"/>
<rect width="47.645" height="14.0631" rx="7.03156" transform="matrix(-0.587839 0.808978 0.808978 0.587839 556.822 865.891)" fill="#453371"/>
<circle cx="5.46899" cy="5.46899" r="5.46899" transform="matrix(-0.758923 0.65118 0.65118 0.758923 534.211 872.941)" fill="#453371"/>
<circle cx="5.46899" cy="5.46899" r="5.46899" transform="matrix(-0.758923 0.65118 0.65118 0.758923 560.49 891.57)" fill="#453371"/>
<rect width="47.645" height="14.0631" rx="7.03156" transform="matrix(-0.587839 0.808978 0.808978 0.587839 177.086 936.016)" fill="#453371"/>
<circle cx="5.46899" cy="5.46899" r="5.46899" transform="matrix(-0.758923 0.65118 0.65118 0.758923 154.475 943.066)" fill="#453371"/>
<circle cx="5.46899" cy="5.46899" r="5.46899" transform="matrix(-0.758923 0.65118 0.65118 0.758923 180.754 961.695)" fill="#453371"/>
<rect width="47.645" height="14.0631" rx="7.03156" transform="matrix(-0.979032 0.203706 0.203706 0.979032 308.212 874.906)" fill="#453371"/>
<circle cx="5.46899" cy="5.46899" r="5.46899" transform="matrix(-0.999604 -0.0281261 -0.0281261 0.999604 286.734 864.926)" fill="#453371"/>
<circle cx="5.46899" cy="5.46899" r="5.46899" transform="matrix(-0.999604 -0.0281261 -0.0281261 0.999604 293.663 896.383)" fill="#453371"/>
<rect width="47.645" height="14.0631" rx="7.03156" transform="matrix(-0.912136 -0.409888 -0.409888 0.912136 405.307 971.398)" fill="#453371"/>
<circle cx="5.46899" cy="5.46899" r="5.46899" transform="matrix(-0.79268 -0.609637 -0.609637 0.79268 393.782 950.707)" fill="#453371"/>
<circle cx="5.46899" cy="5.46899" r="5.46899" transform="matrix(-0.79268 -0.609637 -0.609637 0.79268 380.923 980.242)" fill="#453371"/>
<rect width="47.645" height="14.0631" rx="7.03156" transform="matrix(-0.912136 -0.409888 -0.409888 0.912136 286.354 1056.55)" fill="#453371"/>
<circle cx="5.46899" cy="5.46899" r="5.46899" transform="matrix(-0.79268 -0.609637 -0.609637 0.79268 274.829 1035.86)" fill="#453371"/>
<circle cx="5.46899" cy="5.46899" r="5.46899" transform="matrix(-0.79268 -0.609637 -0.609637 0.79268 261.97 1065.4)" fill="#453371"/>
<circle cx="5.46899" cy="5.46899" r="5.46899" transform="matrix(-0.976977 0.213343 0.213343 0.976977 207.335 849.012)" fill="#453371"/>
<path d="M206.424 866.805C210.241 865.972 211.324 870.93 213.266 872.505C216.374 875.025 221.78 877.31 224.094 878.137C234.501 881.859 237.126 890.223 237.251 894.461C237.605 906.379 224.502 912.968 218.881 912.863C202.471 913.887 197.749 905.215 197.059 900.834C196.369 896.454 199.877 895.425 200.64 895.258C202.93 894.758 204.993 896.895 206.219 898.834C210.128 905.018 216.738 904.268 219.171 903.203C224.056 902.136 225.517 898.086 225.636 896.194C225.391 889.21 219.176 886.142 216.1 885.481C207.705 882.196 204.098 876.906 203.343 874.672C201.532 869.309 203.371 867.472 206.424 866.805Z" fill="#453371"/>
<circle cx="5.2123" cy="5.2123" r="5.2123" transform="matrix(0.854568 -0.519339 -0.519339 -0.854568 453.75 817.172)" fill="#453371"/>
<path d="M449.057 800.853C445.875 802.787 443.363 798.653 441.124 797.836C437.542 796.527 431.963 796.142 429.621 796.113C419.088 795.984 414.13 789.258 412.704 785.478C408.693 774.845 418.461 764.847 423.56 763.201C438.033 757.193 444.976 763.546 446.955 767.281C448.934 771.016 446.092 773.03 445.455 773.416C443.546 774.576 441.024 773.289 439.319 771.922C433.88 767.559 428.155 770.283 426.292 771.997C422.219 774.471 422.158 778.575 422.636 780.317C425.021 786.536 431.573 787.375 434.55 787.018C443.134 787.378 448.024 791.028 449.397 792.808C452.69 797.081 451.602 799.306 449.057 800.853Z" fill="#453371"/>
<circle cx="5.46899" cy="5.46899" r="5.46899" transform="matrix(0.956062 -0.293163 -0.293163 -0.956062 319.506 721.566)" fill="#453371"/>
<path d="M318.947 703.759C315.212 704.904 313.725 700.052 311.659 698.643C308.354 696.388 302.778 694.556 300.404 693.922C289.726 691.072 286.42 682.952 285.945 678.739C284.61 666.891 297.125 659.244 302.736 658.885C319.005 656.511 324.426 664.764 325.475 669.074C326.524 673.383 323.113 674.697 322.366 674.926C320.126 675.613 317.893 673.653 316.511 671.822C312.106 665.982 305.58 667.274 303.243 668.536C298.463 670.002 297.341 674.159 297.378 676.055C298.199 682.994 304.645 685.54 307.765 685.945C316.402 688.526 320.433 693.501 321.37 695.665C323.616 700.86 321.935 702.843 318.947 703.759Z" fill="#453371"/>
</svg>
