<?xml version="1.0" encoding="UTF-8" standalone="no"?>
<!DOCTYPE svg PUBLIC "-//W3C//DTD SVG 1.1//EN" "http://www.w3.org/Graphics/SVG/1.1/DTD/svg11.dtd">
<svg width="100%" height="100%" viewBox="0 0 2560 1340" version="1.1" xmlns="http://www.w3.org/2000/svg" xmlns:xlink="http://www.w3.org/1999/xlink" xml:space="preserve" xmlns:serif="http://www.serif.com/" style="fill-rule:evenodd;clip-rule:evenodd;stroke-linejoin:round;stroke-miterlimit:2;">
    <g transform="matrix(1,0,0,1,0,-5)">
        <rect x="-88.649" y="5.168" width="2816.06" height="1341.54" style="fill:rgb(50,39,89);fill-rule:nonzero;"/>
        <g transform="matrix(-0.898993,-0.437963,0.437963,-0.898993,4424.71,4521.15)">
            <rect x="2733.71" y="1750.34" width="920.638" height="920.638" style="fill:rgb(180,67,204);"/>
        </g>
        <g transform="matrix(-0.898993,-0.437963,0.437963,-0.898993,4424.71,4521.15)">
            <rect x="2733.71" y="1750.34" width="920.638" height="920.638" style="fill:url(#_Linear1);"/>
        </g>
        <g transform="matrix(0.965926,-0.258819,0.258819,0.965926,-86.4954,-145.318)">
            <rect x="-595.146" y="255.84" width="3152.16" height="1699.05" style="fill:rgb(50,39,89);"/>
        </g>
        <g transform="matrix(-0.898993,-0.437963,0.437963,-0.898993,-509.297,1494.12)">
            <rect x="-82.355" y="805.791" width="920.638" height="920.638" style="fill:rgb(180,67,204);"/>
        </g>
        <g transform="matrix(-0.898993,-0.437963,0.437963,-0.898993,-509.297,1494.12)">
            <rect x="-82.355" y="805.791" width="920.638" height="920.638" style="fill:url(#_Linear2);"/>
        </g>
    </g>
    <defs>
        <linearGradient id="_Linear1" x1="0" y1="0" x2="1" y2="0" gradientUnits="userSpaceOnUse" gradientTransform="matrix(-427.98,272.07,-272.07,-427.98,3663.62,2025.35)"><stop offset="0" style="stop-color:rgb(180,67,204);stop-opacity:1"/><stop offset="1" style="stop-color:rgb(102,42,175);stop-opacity:1"/></linearGradient>
        <linearGradient id="_Linear2" x1="0" y1="0" x2="1" y2="0" gradientUnits="userSpaceOnUse" gradientTransform="matrix(-940.093,642.76,-642.76,-940.093,847.561,1080.79)"><stop offset="0" style="stop-color:rgb(180,67,204);stop-opacity:1"/><stop offset="0.53" style="stop-color:rgb(180,67,204);stop-opacity:1"/><stop offset="0.84" style="stop-color:rgb(102,42,175);stop-opacity:1"/><stop offset="1" style="stop-color:rgb(102,42,175);stop-opacity:1"/></linearGradient>
    </defs>
</svg>
