<?xml version="1.0" encoding="UTF-8" standalone="no"?><!DOCTYPE svg PUBLIC "-//W3C//DTD SVG 1.1//EN" "http://www.w3.org/Graphics/SVG/1.1/DTD/svg11.dtd"><svg width="100%" height="100%" viewBox="0 0 2560 1340" version="1.1" xmlns="http://www.w3.org/2000/svg" xmlns:xlink="http://www.w3.org/1999/xlink" xml:space="preserve" xmlns:serif="http://www.serif.com/" style="fill-rule:evenodd;clip-rule:evenodd;stroke-linejoin:round;stroke-miterlimit:2;"><g><rect x="-88.649" y="0.168" width="2816.06" height="1341.54" style="fill:#322759;fill-rule:nonzero;"/><path d="M1906.06,1342.13l827.647,403.206l403.206,-827.647l-827.647,-403.206l-403.206,827.647Z" style="fill:#b443cc;"/><path d="M1906.06,1342.13l827.647,403.206l403.206,-827.647l-827.647,-403.206l-403.206,827.647Z" style="fill:url(#_Linear1);"/><path d="M2449.61,-564.999l-3044.75,815.839l439.746,1641.16l3044.75,-815.839l-439.746,-1641.16Z" style="fill:#322759;"/><path d="M-910.002,397.585l827.648,403.206l403.205,-827.647l-827.647,-403.206l-403.206,827.647Z" style="fill:#b443cc;"/><path d="M-910.002,397.585l827.648,403.206l403.205,-827.647l-827.647,-403.206l-403.206,827.647Z" style="fill:url(#_Linear2);"/></g><defs><linearGradient id="_Linear1" x1="0" y1="0" x2="1" y2="0" gradientUnits="userSpaceOnUse" gradientTransform="matrix(503.908,-57.1495,57.1495,503.908,2018.17,1090.84)"><stop offset="0" style="stop-color:#b443cc;stop-opacity:1"/><stop offset="1" style="stop-color:#662aaf;stop-opacity:1"/></linearGradient><linearGradient id="_Linear2" x1="0" y1="0" x2="1" y2="0" gradientUnits="userSpaceOnUse" gradientTransform="matrix(1126.64,-166.11,166.11,1126.64,-797.902,146.3)"><stop offset="0" style="stop-color:#b443cc;stop-opacity:1"/><stop offset="0.53" style="stop-color:#b443cc;stop-opacity:1"/><stop offset="0.84" style="stop-color:#662aaf;stop-opacity:1"/><stop offset="1" style="stop-color:#662aaf;stop-opacity:1"/></linearGradient></defs></svg>