<?xml version="1.0" encoding="UTF-8" standalone="no"?>
<!DOCTYPE svg PUBLIC "-//W3C//DTD SVG 1.1//EN" "http://www.w3.org/Graphics/SVG/1.1/DTD/svg11.dtd">
<svg width="100%" height="100%" viewBox="0 0 842 596" version="1.1" xmlns="http://www.w3.org/2000/svg" xmlns:xlink="http://www.w3.org/1999/xlink" xml:space="preserve" xmlns:serif="http://www.serif.com/" style="fill-rule:evenodd;clip-rule:evenodd;stroke-linecap:square;stroke-linejoin:round;stroke-miterlimit:1.41421;">
    <g transform="matrix(1,0,0,1,-892,0)">
        <rect id="Artboard2" x="892" y="0" width="842" height="596" style="fill:none;"/>
        <g id="Artboard21" serif:id="Artboard2">
            <g transform="matrix(0.970147,-0.242518,0.242518,0.970147,-221.177,356.877)">
                <g transform="matrix(1.68378,0,0,0.748035,-1123.48,149.863)">
                    <g transform="matrix(68.5065,0,0,154.204,1341.83,271.578)">
                        <path d="M0.62,-0.459C0.623,-0.473 0.624,-0.487 0.624,-0.501C0.624,-0.61 0.539,-0.68 0.426,-0.68L0.164,-0.68L0.044,0L0.161,0L0.207,-0.259L0.314,-0.259L0.436,0L0.563,0L0.563,-0.003L0.432,-0.27C0.535,-0.295 0.603,-0.36 0.62,-0.459ZM0.507,-0.467C0.495,-0.397 0.434,-0.357 0.357,-0.357L0.224,-0.357L0.263,-0.579L0.405,-0.579C0.47,-0.579 0.509,-0.542 0.509,-0.488C0.509,-0.481 0.508,-0.474 0.507,-0.467Z" style="fill:rgb(204,56,106);fill-rule:nonzero;stroke:rgb(204,56,106);stroke-width:0.13px;"/>
                    </g>
                    <g transform="matrix(68.5065,0,0,154.204,1390.33,235.842)">
                        <path d="M0.182,-0.59C0.224,-0.59 0.252,-0.625 0.252,-0.662C0.252,-0.695 0.23,-0.722 0.19,-0.722C0.147,-0.722 0.121,-0.686 0.121,-0.649C0.121,-0.617 0.143,-0.59 0.182,-0.59ZM0.031,-0.036L0.14,-0.036L0.213,-0.446L0.104,-0.446L0.031,-0.036Z" style="fill:rgb(204,56,106);fill-rule:nonzero;stroke:rgb(204,56,106);stroke-width:0.13px;"/>
                    </g>
                    <g transform="matrix(67.3155,0,0,151.523,1410.65,236.717)">
                        <path d="M0.472,-0.446L0.438,-0.379C0.407,-0.43 0.353,-0.457 0.285,-0.457C0.157,-0.457 0.064,-0.365 0.04,-0.233C0.037,-0.214 0.035,-0.197 0.035,-0.179C0.035,-0.069 0.103,0.008 0.216,0.008C0.273,0.008 0.326,-0.011 0.37,-0.05C0.364,-0.028 0.359,-0.005 0.355,0.016C0.34,0.092 0.283,0.134 0.199,0.134C0.145,0.134 0.1,0.115 0.06,0.079L0.008,0.159C0.059,0.207 0.125,0.232 0.203,0.232C0.333,0.232 0.438,0.169 0.463,0.026L0.545,-0.446L0.472,-0.446ZM0.402,-0.225C0.387,-0.144 0.333,-0.085 0.25,-0.085C0.189,-0.085 0.146,-0.123 0.146,-0.19C0.146,-0.201 0.147,-0.211 0.149,-0.223C0.164,-0.309 0.223,-0.361 0.298,-0.361C0.369,-0.361 0.405,-0.316 0.405,-0.255C0.405,-0.245 0.404,-0.235 0.402,-0.225Z" style="fill:rgb(204,56,106);fill-rule:nonzero;stroke:rgb(204,56,106);stroke-width:0.13px;"/>
                    </g>
                    <g transform="matrix(68.5065,0,0,154.204,1452.33,237.08)">
                        <path d="M0.025,0L0.135,0L0.175,-0.23C0.187,-0.299 0.234,-0.36 0.304,-0.36C0.347,-0.36 0.369,-0.336 0.369,-0.297C0.369,-0.29 0.368,-0.283 0.367,-0.275L0.318,0L0.428,0L0.477,-0.277C0.48,-0.294 0.481,-0.31 0.481,-0.325C0.481,-0.408 0.437,-0.458 0.348,-0.458C0.287,-0.458 0.237,-0.43 0.199,-0.389C0.207,-0.421 0.213,-0.447 0.218,-0.475L0.261,-0.72L0.152,-0.72L0.025,0Z" style="fill:rgb(204,56,106);fill-rule:nonzero;stroke:rgb(204,56,106);stroke-width:0.13px;"/>
                    </g>
                    <g transform="matrix(68.5065,0,0,154.204,1492.27,235.538)">
                        <path d="M0.201,0.01C0.246,0.01 0.289,-0.001 0.332,-0.028L0.305,-0.114C0.277,-0.097 0.254,-0.09 0.231,-0.09C0.206,-0.09 0.191,-0.1 0.191,-0.126C0.191,-0.132 0.192,-0.138 0.193,-0.145L0.229,-0.354L0.367,-0.354L0.383,-0.446L0.245,-0.446L0.27,-0.589L0.163,-0.589L0.135,-0.446L0.053,-0.446L0.038,-0.359L0.119,-0.354L0.082,-0.14C0.08,-0.127 0.079,-0.115 0.079,-0.104C0.079,-0.028 0.13,0.01 0.201,0.01Z" style="fill:rgb(204,56,106);fill-rule:nonzero;stroke:rgb(204,56,106);stroke-width:0.13px;"/>
                    </g>
                </g>
                <g transform="matrix(1,0,0,1,-137.831,-77.7453)">
                    <g transform="matrix(128.845,0,0,128.845,1434.94,485.401)">
                        <path d="M0.243,0.012C0.39,0.012 0.491,-0.08 0.515,-0.215C0.518,-0.23 0.519,-0.246 0.519,-0.26C0.519,-0.376 0.436,-0.458 0.311,-0.458C0.164,-0.458 0.062,-0.364 0.039,-0.231C0.036,-0.215 0.035,-0.2 0.035,-0.185C0.035,-0.069 0.118,0.012 0.243,0.012ZM0.251,-0.084C0.185,-0.084 0.145,-0.127 0.145,-0.191C0.145,-0.201 0.146,-0.211 0.148,-0.222C0.161,-0.301 0.219,-0.362 0.302,-0.362C0.369,-0.362 0.409,-0.318 0.409,-0.254C0.409,-0.244 0.408,-0.234 0.406,-0.224C0.391,-0.141 0.334,-0.084 0.251,-0.084Z" style="fill:rgb(204,56,106);fill-rule:nonzero;stroke:rgb(204,56,106);stroke-width:0.12px;"/>
                    </g>
                    <g transform="matrix(128.845,0,0,128.845,1510.72,485.401)">
                        <path d="M0.347,-0.458C0.278,-0.458 0.223,-0.421 0.186,-0.374L0.176,-0.446L0.103,-0.446L0.024,0L0.134,0L0.174,-0.229C0.187,-0.303 0.233,-0.36 0.303,-0.36C0.347,-0.36 0.368,-0.337 0.368,-0.297C0.368,-0.29 0.368,-0.281 0.366,-0.272L0.318,0L0.427,0L0.476,-0.277C0.479,-0.295 0.481,-0.312 0.481,-0.327C0.481,-0.413 0.432,-0.458 0.347,-0.458Z" style="fill:rgb(204,56,106);fill-rule:nonzero;stroke:rgb(204,56,106);stroke-width:0.12px;"/>
                    </g>
                    <g transform="matrix(184.342,0,0,184.342,1578.14,483.189)">
                        <path d="M0.081,-0.215L0.18,-0.215L0.211,-0.367L0.28,-0.707L0.155,-0.707L0.081,-0.215ZM0.104,0.012C0.142,0.012 0.178,-0.014 0.178,-0.064C0.178,-0.103 0.15,-0.126 0.113,-0.126C0.075,-0.126 0.038,-0.1 0.038,-0.05C0.038,-0.011 0.066,0.012 0.104,0.012Z" style="fill:rgb(204,56,106);fill-rule:nonzero;stroke:rgb(204,56,106);stroke-width:0.08px;"/>
                    </g>
                </g>
                <g transform="matrix(1.68378,0,0,0.748035,-1123.48,147.863)">
                    <g transform="matrix(68.5065,0,0,154.204,1343.61,272.915)">
                        <path d="M0.62,-0.459C0.623,-0.473 0.624,-0.487 0.624,-0.501C0.624,-0.61 0.539,-0.68 0.426,-0.68L0.164,-0.68L0.044,0L0.161,0L0.207,-0.259L0.314,-0.259L0.436,0L0.563,0L0.563,-0.003L0.432,-0.27C0.535,-0.295 0.603,-0.36 0.62,-0.459ZM0.507,-0.467C0.495,-0.397 0.434,-0.357 0.357,-0.357L0.224,-0.357L0.263,-0.579L0.405,-0.579C0.47,-0.579 0.509,-0.542 0.509,-0.488C0.509,-0.481 0.508,-0.474 0.507,-0.467Z" style="fill:white;fill-rule:nonzero;"/>
                    </g>
                    <g transform="matrix(68.5065,0,0,154.204,1392.11,237.178)">
                        <path d="M0.182,-0.59C0.224,-0.59 0.252,-0.625 0.252,-0.662C0.252,-0.695 0.23,-0.722 0.19,-0.722C0.147,-0.722 0.121,-0.686 0.121,-0.649C0.121,-0.617 0.143,-0.59 0.182,-0.59ZM0.033,-0.047L0.142,-0.047L0.213,-0.446L0.104,-0.446L0.033,-0.047Z" style="fill:white;fill-rule:nonzero;"/>
                    </g>
                    <g transform="matrix(67.3155,0,0,151.523,1412.41,238.031)">
                        <path d="M0.472,-0.446L0.438,-0.379C0.407,-0.43 0.353,-0.457 0.285,-0.457C0.157,-0.457 0.064,-0.365 0.04,-0.233C0.037,-0.214 0.035,-0.197 0.035,-0.179C0.035,-0.069 0.103,0.008 0.216,0.008C0.273,0.008 0.326,-0.011 0.37,-0.05C0.364,-0.028 0.359,-0.005 0.355,0.016C0.34,0.092 0.283,0.134 0.199,0.134C0.145,0.134 0.1,0.115 0.06,0.079L0.008,0.159C0.059,0.207 0.125,0.232 0.203,0.232C0.333,0.232 0.438,0.169 0.463,0.026L0.545,-0.446L0.472,-0.446ZM0.402,-0.225C0.387,-0.144 0.333,-0.085 0.25,-0.085C0.189,-0.085 0.146,-0.123 0.146,-0.19C0.146,-0.201 0.147,-0.211 0.149,-0.223C0.164,-0.309 0.223,-0.361 0.298,-0.361C0.369,-0.361 0.405,-0.316 0.405,-0.255C0.405,-0.245 0.404,-0.235 0.402,-0.225Z" style="fill:white;fill-rule:nonzero;"/>
                    </g>
                    <g transform="matrix(68.5065,0,0,154.204,1454.11,238.417)">
                        <path d="M0.025,0L0.135,0L0.175,-0.23C0.187,-0.299 0.234,-0.36 0.304,-0.36C0.347,-0.36 0.369,-0.336 0.369,-0.297C0.369,-0.29 0.368,-0.283 0.367,-0.275L0.318,0L0.428,0L0.477,-0.277C0.48,-0.294 0.481,-0.31 0.481,-0.325C0.481,-0.408 0.437,-0.458 0.348,-0.458C0.287,-0.458 0.237,-0.43 0.199,-0.389C0.207,-0.421 0.213,-0.447 0.218,-0.475L0.261,-0.72L0.152,-0.72L0.025,0Z" style="fill:white;fill-rule:nonzero;"/>
                    </g>
                    <g transform="matrix(68.5065,0,0,154.204,1494.05,236.875)">
                        <path d="M0.201,0.01C0.246,0.01 0.289,-0.001 0.332,-0.028L0.305,-0.114C0.277,-0.097 0.254,-0.09 0.231,-0.09C0.206,-0.09 0.191,-0.1 0.191,-0.126C0.191,-0.132 0.192,-0.138 0.193,-0.145L0.229,-0.354L0.367,-0.354L0.383,-0.446L0.245,-0.446L0.27,-0.589L0.163,-0.589L0.135,-0.446L0.053,-0.446L0.038,-0.359L0.119,-0.354L0.082,-0.14C0.08,-0.127 0.079,-0.115 0.079,-0.104C0.079,-0.028 0.13,0.01 0.201,0.01Z" style="fill:white;fill-rule:nonzero;"/>
                    </g>
                </g>
                <g transform="matrix(1,0,0,1,-129.956,-80.1017)">
                    <g transform="matrix(128.845,0,0,128.845,1430.94,485.401)">
                        <path d="M0.243,0.012C0.39,0.012 0.491,-0.08 0.515,-0.215C0.518,-0.23 0.519,-0.246 0.519,-0.26C0.519,-0.376 0.436,-0.458 0.311,-0.458C0.164,-0.458 0.062,-0.364 0.039,-0.231C0.036,-0.215 0.035,-0.2 0.035,-0.185C0.035,-0.069 0.118,0.012 0.243,0.012ZM0.251,-0.084C0.185,-0.084 0.145,-0.127 0.145,-0.191C0.145,-0.201 0.146,-0.211 0.148,-0.222C0.161,-0.301 0.219,-0.362 0.302,-0.362C0.369,-0.362 0.409,-0.318 0.409,-0.254C0.409,-0.244 0.408,-0.234 0.406,-0.224C0.391,-0.141 0.334,-0.084 0.251,-0.084Z" style="fill:white;fill-rule:nonzero;"/>
                    </g>
                    <g transform="matrix(128.845,0,0,128.845,1506.72,485.401)">
                        <path d="M0.347,-0.458C0.278,-0.458 0.223,-0.421 0.186,-0.374L0.176,-0.446L0.103,-0.446L0.024,0L0.134,0L0.174,-0.229C0.187,-0.303 0.233,-0.36 0.303,-0.36C0.347,-0.36 0.368,-0.337 0.368,-0.297C0.368,-0.29 0.368,-0.281 0.366,-0.272L0.318,0L0.427,0L0.476,-0.277C0.479,-0.295 0.481,-0.312 0.481,-0.327C0.481,-0.413 0.432,-0.458 0.347,-0.458Z" style="fill:white;fill-rule:nonzero;"/>
                    </g>
                    <g transform="matrix(184.342,0,0,184.342,1572.89,483.289)">
                        <path d="M0.081,-0.215L0.18,-0.215L0.28,-0.707L0.155,-0.707L0.081,-0.215ZM0.104,0.012C0.142,0.012 0.178,-0.014 0.178,-0.064C0.178,-0.103 0.15,-0.126 0.113,-0.126C0.075,-0.126 0.038,-0.1 0.038,-0.05C0.038,-0.011 0.066,0.012 0.104,0.012Z" style="fill:white;fill-rule:nonzero;"/>
                    </g>
                </g>
            </g>
            <g transform="matrix(0.681221,0,0,0.681221,415.968,-84.8223)">
                <g transform="matrix(1.73591,0,0,0.771194,-1194.98,143.543)">
                    <g transform="matrix(68.5065,0,0,154.204,1349.48,272.915)">
                        <path d="M0.62,-0.459C0.623,-0.473 0.624,-0.487 0.624,-0.501C0.624,-0.61 0.539,-0.68 0.426,-0.68L0.164,-0.68L0.044,0L0.161,0L0.207,-0.259L0.314,-0.259L0.436,0L0.563,0L0.563,-0.003L0.432,-0.27C0.535,-0.295 0.603,-0.36 0.62,-0.459ZM0.507,-0.467C0.495,-0.397 0.434,-0.357 0.357,-0.357L0.224,-0.357L0.263,-0.579L0.405,-0.579C0.47,-0.579 0.509,-0.542 0.509,-0.488C0.509,-0.481 0.508,-0.474 0.507,-0.467Z" style="fill:rgb(204,56,106);fill-rule:nonzero;stroke:rgb(204,56,106);stroke-width:0.07px;stroke-linecap:butt;"/>
                    </g>
                    <g transform="matrix(68.5065,0,0,154.204,1394.51,239.01)">
                        <path d="M0.182,-0.538C0.224,-0.538 0.252,-0.573 0.252,-0.61C0.252,-0.643 0.23,-0.67 0.19,-0.67C0.147,-0.67 0.121,-0.634 0.121,-0.597C0.121,-0.565 0.143,-0.538 0.182,-0.538ZM0.025,0L0.134,0L0.213,-0.446L0.104,-0.446L0.025,0Z" style="fill:rgb(204,56,106);fill-rule:nonzero;stroke:rgb(204,56,106);stroke-width:0.07px;stroke-linecap:butt;"/>
                    </g>
                    <g transform="matrix(67.3155,0,0,151.523,1411.73,237.761)">
                        <path d="M0.472,-0.446L0.438,-0.379C0.407,-0.43 0.353,-0.457 0.285,-0.457C0.157,-0.457 0.064,-0.365 0.04,-0.233C0.037,-0.214 0.035,-0.197 0.035,-0.179C0.035,-0.069 0.103,0.008 0.216,0.008C0.273,0.008 0.326,-0.011 0.37,-0.05C0.364,-0.028 0.359,-0.005 0.355,0.016C0.34,0.092 0.283,0.134 0.199,0.134C0.145,0.134 0.1,0.115 0.06,0.079L0.008,0.159C0.059,0.207 0.125,0.232 0.203,0.232C0.333,0.232 0.438,0.169 0.463,0.026L0.545,-0.446L0.472,-0.446ZM0.402,-0.225C0.387,-0.144 0.333,-0.085 0.25,-0.085C0.189,-0.085 0.146,-0.123 0.146,-0.19C0.146,-0.201 0.147,-0.211 0.149,-0.223C0.164,-0.309 0.223,-0.361 0.298,-0.361C0.369,-0.361 0.405,-0.316 0.405,-0.255C0.405,-0.245 0.404,-0.235 0.402,-0.225Z" style="fill:rgb(204,56,106);fill-rule:nonzero;stroke:rgb(204,56,106);stroke-width:0.07px;stroke-linecap:butt;"/>
                    </g>
                    <g transform="matrix(68.5065,0,0,154.204,1450.53,239.01)">
                        <path d="M0.025,0L0.135,0L0.175,-0.23C0.187,-0.299 0.234,-0.36 0.304,-0.36C0.347,-0.36 0.369,-0.336 0.369,-0.297C0.369,-0.29 0.368,-0.283 0.367,-0.275L0.318,0L0.428,0L0.477,-0.277C0.48,-0.294 0.481,-0.31 0.481,-0.325C0.481,-0.408 0.437,-0.458 0.348,-0.458C0.287,-0.458 0.237,-0.43 0.199,-0.389C0.207,-0.421 0.213,-0.447 0.218,-0.475L0.261,-0.72L0.152,-0.72L0.025,0Z" style="fill:rgb(204,56,106);fill-rule:nonzero;stroke:rgb(204,56,106);stroke-width:0.07px;stroke-linecap:butt;"/>
                    </g>
                    <g transform="matrix(68.5065,0,0,154.204,1487.98,239.01)">
                        <path d="M0.201,0.01C0.246,0.01 0.289,-0.001 0.332,-0.028L0.305,-0.114C0.277,-0.097 0.254,-0.09 0.231,-0.09C0.206,-0.09 0.191,-0.1 0.191,-0.126C0.191,-0.132 0.192,-0.138 0.193,-0.145L0.229,-0.354L0.367,-0.354L0.383,-0.446L0.245,-0.446L0.27,-0.589L0.163,-0.589L0.135,-0.446L0.053,-0.446L0.038,-0.359L0.119,-0.354L0.082,-0.14C0.08,-0.127 0.079,-0.115 0.079,-0.104C0.079,-0.028 0.13,0.01 0.201,0.01Z" style="fill:rgb(204,56,106);fill-rule:nonzero;stroke:rgb(204,56,106);stroke-width:0.07px;stroke-linecap:butt;"/>
                    </g>
                </g>
                <g transform="matrix(1,0,0,1,-135.328,-79.9296)">
                    <g transform="matrix(128.845,0,0,128.845,1430.94,485.401)">
                        <path d="M0.243,0.012C0.39,0.012 0.491,-0.08 0.515,-0.215C0.518,-0.23 0.519,-0.246 0.519,-0.26C0.519,-0.376 0.436,-0.458 0.311,-0.458C0.164,-0.458 0.062,-0.364 0.039,-0.231C0.036,-0.215 0.035,-0.2 0.035,-0.185C0.035,-0.069 0.118,0.012 0.243,0.012ZM0.251,-0.084C0.185,-0.084 0.145,-0.127 0.145,-0.191C0.145,-0.201 0.146,-0.211 0.148,-0.222C0.161,-0.301 0.219,-0.362 0.302,-0.362C0.369,-0.362 0.409,-0.318 0.409,-0.254C0.409,-0.244 0.408,-0.234 0.406,-0.224C0.391,-0.141 0.334,-0.084 0.251,-0.084Z" style="fill:rgb(204,56,106);fill-rule:nonzero;stroke:rgb(204,56,106);stroke-width:0.06px;stroke-linecap:butt;"/>
                    </g>
                    <g transform="matrix(128.845,0,0,128.845,1499.72,485.401)">
                        <path d="M0.347,-0.458C0.278,-0.458 0.223,-0.421 0.186,-0.374L0.176,-0.446L0.103,-0.446L0.024,0L0.134,0L0.174,-0.229C0.187,-0.303 0.233,-0.36 0.303,-0.36C0.347,-0.36 0.368,-0.337 0.368,-0.297C0.368,-0.29 0.368,-0.281 0.366,-0.272L0.318,0L0.427,0L0.476,-0.277C0.479,-0.295 0.481,-0.312 0.481,-0.327C0.481,-0.413 0.432,-0.458 0.347,-0.458Z" style="fill:rgb(204,56,106);fill-rule:nonzero;stroke:rgb(204,56,106);stroke-width:0.06px;stroke-linecap:butt;"/>
                    </g>
                    <g transform="matrix(181.923,4.91797,-5.0623,187.262,1561.73,482.637)">
                        <path d="M0.081,-0.188L0.18,-0.188L0.28,-0.68L0.155,-0.68L0.081,-0.188ZM0.104,0.012C0.142,0.012 0.178,-0.014 0.178,-0.064C0.178,-0.103 0.15,-0.126 0.113,-0.126C0.075,-0.126 0.038,-0.1 0.038,-0.05C0.038,-0.011 0.066,0.012 0.104,0.012Z" style="fill:rgb(204,56,106);fill-rule:nonzero;stroke:rgb(204,56,106);stroke-width:0.04px;stroke-linecap:butt;"/>
                    </g>
                </g>
            </g>
            <g transform="matrix(1,0,0,1,26.6198,0)">
                <g transform="matrix(1,0,0,1,183.957,27.3321)">
                    <g transform="matrix(1.73591,0,0,0.771194,-1194.98,143.543)">
                        <g transform="matrix(68.5065,0,0,154.204,1349.48,272.915)">
                            <path d="M0.62,-0.459C0.623,-0.473 0.624,-0.487 0.624,-0.501C0.624,-0.61 0.539,-0.68 0.426,-0.68L0.164,-0.68L0.044,0L0.161,0L0.207,-0.259L0.314,-0.259L0.436,0L0.563,0L0.563,-0.003L0.432,-0.27C0.535,-0.295 0.603,-0.36 0.62,-0.459ZM0.507,-0.467C0.495,-0.397 0.434,-0.357 0.357,-0.357L0.224,-0.357L0.263,-0.579L0.405,-0.579C0.47,-0.579 0.509,-0.542 0.509,-0.488C0.509,-0.481 0.508,-0.474 0.507,-0.467Z" style="fill:rgb(204,56,106);fill-rule:nonzero;stroke:rgb(204,56,106);stroke-width:0.05px;stroke-linecap:butt;"/>
                        </g>
                        <g transform="matrix(68.5065,0,0,154.204,1394.51,236.416)">
                            <path d="M0.182,-0.538C0.224,-0.538 0.252,-0.573 0.252,-0.61C0.252,-0.643 0.23,-0.67 0.19,-0.67C0.147,-0.67 0.121,-0.634 0.121,-0.597C0.121,-0.565 0.143,-0.538 0.182,-0.538ZM0.025,0L0.134,0L0.213,-0.446L0.104,-0.446L0.025,0Z" style="fill:rgb(204,56,106);fill-rule:nonzero;stroke:rgb(204,56,106);stroke-width:0.05px;stroke-linecap:butt;"/>
                        </g>
                        <g transform="matrix(67.3155,0,0,151.523,1411.73,237.761)">
                            <path d="M0.472,-0.446L0.438,-0.379C0.407,-0.43 0.353,-0.457 0.285,-0.457C0.157,-0.457 0.064,-0.365 0.04,-0.233C0.037,-0.214 0.035,-0.197 0.035,-0.179C0.035,-0.069 0.103,0.008 0.216,0.008C0.273,0.008 0.326,-0.011 0.37,-0.05C0.364,-0.028 0.359,-0.005 0.355,0.016C0.34,0.092 0.283,0.134 0.199,0.134C0.145,0.134 0.1,0.115 0.06,0.079L0.008,0.159C0.059,0.207 0.125,0.232 0.203,0.232C0.333,0.232 0.438,0.169 0.463,0.026L0.545,-0.446L0.472,-0.446ZM0.402,-0.225C0.387,-0.144 0.333,-0.085 0.25,-0.085C0.189,-0.085 0.146,-0.123 0.146,-0.19C0.146,-0.201 0.147,-0.211 0.149,-0.223C0.164,-0.309 0.223,-0.361 0.298,-0.361C0.369,-0.361 0.405,-0.316 0.405,-0.255C0.405,-0.245 0.404,-0.235 0.402,-0.225Z" style="fill:rgb(204,56,106);fill-rule:nonzero;stroke:rgb(204,56,106);stroke-width:0.05px;stroke-linecap:butt;"/>
                        </g>
                        <g transform="matrix(68.5065,0,0,154.204,1450.53,239.01)">
                            <path d="M0.025,0L0.135,0L0.175,-0.23C0.187,-0.299 0.234,-0.36 0.304,-0.36C0.347,-0.36 0.369,-0.336 0.369,-0.297C0.369,-0.29 0.368,-0.283 0.367,-0.275L0.318,0L0.428,0L0.477,-0.277C0.48,-0.294 0.481,-0.31 0.481,-0.325C0.481,-0.408 0.437,-0.458 0.348,-0.458C0.287,-0.458 0.237,-0.43 0.199,-0.389C0.207,-0.421 0.213,-0.447 0.218,-0.475L0.261,-0.72L0.152,-0.72L0.025,0Z" style="fill:rgb(204,56,106);fill-rule:nonzero;stroke:rgb(204,56,106);stroke-width:0.05px;stroke-linecap:butt;"/>
                        </g>
                        <g transform="matrix(68.5065,0,0,154.204,1487.98,237.713)">
                            <path d="M0.201,0.01C0.246,0.01 0.289,-0.001 0.332,-0.028L0.305,-0.114C0.277,-0.097 0.254,-0.09 0.231,-0.09C0.206,-0.09 0.191,-0.1 0.191,-0.126C0.191,-0.132 0.192,-0.138 0.193,-0.145L0.229,-0.354L0.367,-0.354L0.383,-0.446L0.245,-0.446L0.27,-0.589L0.163,-0.589L0.135,-0.446L0.053,-0.446L0.038,-0.359L0.119,-0.354L0.082,-0.14C0.08,-0.127 0.079,-0.115 0.079,-0.104C0.079,-0.028 0.13,0.01 0.201,0.01Z" style="fill:rgb(204,56,106);fill-rule:nonzero;stroke:rgb(204,56,106);stroke-width:0.05px;stroke-linecap:butt;"/>
                        </g>
                    </g>
                    <g transform="matrix(1,0,0,1,-135.328,-79.9296)">
                        <g transform="matrix(128.845,0,0,128.845,1430.94,484.401)">
                            <path d="M0.243,0.012C0.39,0.012 0.491,-0.08 0.515,-0.215C0.518,-0.23 0.519,-0.246 0.519,-0.26C0.519,-0.376 0.436,-0.458 0.311,-0.458C0.164,-0.458 0.062,-0.364 0.039,-0.231C0.036,-0.215 0.035,-0.2 0.035,-0.185C0.035,-0.069 0.118,0.012 0.243,0.012ZM0.251,-0.084C0.185,-0.084 0.145,-0.127 0.145,-0.191C0.145,-0.201 0.146,-0.211 0.148,-0.222C0.161,-0.301 0.219,-0.362 0.302,-0.362C0.369,-0.362 0.409,-0.318 0.409,-0.254C0.409,-0.244 0.408,-0.234 0.406,-0.224C0.391,-0.141 0.334,-0.084 0.251,-0.084Z" style="fill:rgb(204,56,106);fill-rule:nonzero;stroke:rgb(204,56,106);stroke-width:0.04px;stroke-linecap:butt;"/>
                        </g>
                        <g transform="matrix(128.845,0,0,128.845,1499.72,484.401)">
                            <path d="M0.347,-0.458C0.278,-0.458 0.223,-0.421 0.186,-0.374L0.176,-0.446L0.103,-0.446L0.024,0L0.134,0L0.174,-0.229C0.187,-0.303 0.233,-0.36 0.303,-0.36C0.347,-0.36 0.368,-0.337 0.368,-0.297C0.368,-0.29 0.368,-0.281 0.366,-0.272L0.318,0L0.427,0L0.476,-0.277C0.479,-0.295 0.481,-0.312 0.481,-0.327C0.481,-0.413 0.432,-0.458 0.347,-0.458Z" style="fill:rgb(204,56,106);fill-rule:nonzero;stroke:rgb(204,56,106);stroke-width:0.04px;stroke-linecap:butt;"/>
                        </g>
                        <g transform="matrix(181.923,4.91797,-4.77628,176.682,1561.92,472.753)">
                            <path d="M0.081,-0.188L0.18,-0.188L0.28,-0.68L0.155,-0.68L0.081,-0.188Z" style="fill:rgb(204,56,106);fill-rule:nonzero;stroke:rgb(204,56,106);stroke-width:0.03px;stroke-linecap:butt;"/>
                        </g>
                    </g>
                </g>
                <g transform="matrix(0.863244,0,0,0.863244,472.355,298.473)">
                    <path d="M1358.95,121.446L1350.02,121.446L1344.91,127.926C1343.97,129.15 1343.11,130.302 1342.03,132.03C1341.6,130.302 1341.17,129.222 1340.59,127.998L1337.64,121.446L1329.43,121.446L1329.43,121.662L1336.49,136.638L1322.73,153.414L1322.73,153.558L1331.73,153.558L1337.85,145.926C1338.86,144.63 1339.65,143.406 1340.66,141.678C1341.17,143.334 1341.6,144.558 1342.1,145.854L1345.7,153.558L1354.13,153.558L1354.13,153.414L1346.28,136.998L1358.95,121.662L1358.95,121.446Z" style="fill:rgb(204,56,106);fill-rule:nonzero;stroke:rgb(204,56,106);stroke-width:6.37px;stroke-linecap:butt;"/>
                </g>
            </g>
        </g>
    </g>
</svg>
