<?xml version="1.0" encoding="UTF-8" standalone="no"?>
<!DOCTYPE svg PUBLIC "-//W3C//DTD SVG 1.1//EN" "http://www.w3.org/Graphics/SVG/1.1/DTD/svg11.dtd">
<svg width="100%" height="100%" viewBox="0 0 272 175" version="1.1" xmlns="http://www.w3.org/2000/svg" xmlns:xlink="http://www.w3.org/1999/xlink" xml:space="preserve" xmlns:serif="http://www.serif.com/" style="fill-rule:evenodd;clip-rule:evenodd;stroke-linecap:square;stroke-linejoin:round;stroke-miterlimit:1.41421;">
    <g transform="matrix(1,0,0,1,-1370.2,-313.76)">
        <g transform="matrix(0.876449,0,0,0.876449,499.189,86.7554)">
            <g transform="matrix(0.970147,-0.242518,0.242518,0.970147,-401.53,325.837)">
                <g>
                    <g transform="matrix(128.845,0,0,128.845,1403.12,484.699)">
                        <path d="M0.243,0.012C0.39,0.012 0.491,-0.08 0.515,-0.215C0.518,-0.23 0.519,-0.246 0.519,-0.26C0.519,-0.376 0.436,-0.458 0.311,-0.458C0.164,-0.458 0.062,-0.364 0.039,-0.231C0.036,-0.215 0.035,-0.2 0.035,-0.185C0.035,-0.069 0.118,0.012 0.243,0.012ZM0.251,-0.084C0.185,-0.084 0.145,-0.127 0.145,-0.191C0.145,-0.201 0.146,-0.211 0.148,-0.222C0.161,-0.301 0.219,-0.362 0.302,-0.362C0.369,-0.362 0.409,-0.318 0.409,-0.254C0.409,-0.244 0.408,-0.234 0.406,-0.224C0.391,-0.141 0.334,-0.084 0.251,-0.084Z" style="fill:rgb(204,56,106);fill-rule:nonzero;stroke:rgb(204,56,106);stroke-width:0.11px;"/>
                    </g>
                    <g transform="matrix(128.845,0,0,128.845,1478.9,484.699)">
                        <path d="M0.347,-0.458C0.278,-0.458 0.223,-0.421 0.186,-0.374L0.176,-0.446L0.103,-0.446L0.024,0L0.134,0L0.174,-0.229C0.187,-0.303 0.233,-0.36 0.303,-0.36C0.347,-0.36 0.368,-0.337 0.368,-0.297C0.368,-0.29 0.368,-0.281 0.366,-0.272L0.318,0L0.427,0L0.476,-0.277C0.479,-0.295 0.481,-0.312 0.481,-0.327C0.481,-0.413 0.432,-0.458 0.347,-0.458Z" style="fill:rgb(204,56,106);fill-rule:nonzero;stroke:rgb(204,56,106);stroke-width:0.11px;"/>
                    </g>
                    <g transform="matrix(1,0,0,1,3.26718,-0.416053)">
                        <g transform="matrix(128.845,0,0,128.845,1401.55,487.367)">
                            <path d="M0.243,0.012C0.39,0.012 0.491,-0.08 0.515,-0.215C0.518,-0.23 0.519,-0.246 0.519,-0.26C0.519,-0.376 0.436,-0.458 0.311,-0.458C0.164,-0.458 0.062,-0.364 0.039,-0.231C0.036,-0.215 0.035,-0.2 0.035,-0.185C0.035,-0.069 0.118,0.012 0.243,0.012ZM0.251,-0.084C0.185,-0.084 0.145,-0.127 0.145,-0.191C0.145,-0.201 0.146,-0.211 0.148,-0.222C0.161,-0.301 0.219,-0.362 0.302,-0.362C0.369,-0.362 0.409,-0.318 0.409,-0.254C0.409,-0.244 0.408,-0.234 0.406,-0.224C0.391,-0.141 0.334,-0.084 0.251,-0.084Z" style="fill:white;fill-rule:nonzero;stroke:white;stroke-width:0.02px;stroke-linecap:butt;"/>
                        </g>
                        <g transform="matrix(128.845,0,0,128.845,1477.33,487.367)">
                            <path d="M0.347,-0.458C0.278,-0.458 0.223,-0.421 0.186,-0.374L0.176,-0.446L0.103,-0.446L0.024,0L0.134,0L0.174,-0.229C0.187,-0.303 0.233,-0.36 0.303,-0.36C0.347,-0.36 0.368,-0.337 0.368,-0.297C0.368,-0.29 0.368,-0.281 0.366,-0.272L0.318,0L0.427,0L0.476,-0.277C0.479,-0.295 0.481,-0.312 0.481,-0.327C0.481,-0.413 0.432,-0.458 0.347,-0.458Z" style="fill:white;fill-rule:nonzero;stroke:white;stroke-width:0.02px;stroke-linecap:butt;"/>
                        </g>
                    </g>
                </g>
            </g>
            <g transform="matrix(1.63351,-0.408347,0.181412,0.725704,-1245.85,773.903)">
                <g transform="matrix(68.1314,-16.1152,7.15934,153.359,1348.64,285.166)">
                    <path d="M0.62,-0.459C0.623,-0.473 0.624,-0.487 0.624,-0.501C0.624,-0.61 0.539,-0.68 0.426,-0.68L0.164,-0.68L0.044,0L0.161,0L0.207,-0.259L0.314,-0.259L0.436,0L0.563,0L0.563,-0.003L0.432,-0.27C0.535,-0.295 0.603,-0.36 0.62,-0.459ZM0.507,-0.467C0.495,-0.397 0.434,-0.357 0.357,-0.357L0.224,-0.357L0.263,-0.579L0.405,-0.579C0.47,-0.579 0.509,-0.542 0.509,-0.488C0.509,-0.481 0.508,-0.474 0.507,-0.467Z" style="fill:rgb(204,56,106);fill-rule:nonzero;stroke:rgb(204,56,106);stroke-width:0.1px;stroke-miterlimit:2;"/>
                </g>
                <g transform="matrix(67.3155,0,2.1028e-15,151.523,1408.49,234.123)">
                    <path d="M0.472,-0.446L0.438,-0.379C0.407,-0.43 0.353,-0.457 0.285,-0.457C0.157,-0.457 0.064,-0.365 0.04,-0.233C0.037,-0.214 0.035,-0.197 0.035,-0.179C0.035,-0.069 0.103,0.008 0.216,0.008C0.273,0.008 0.326,-0.011 0.37,-0.05C0.364,-0.028 0.359,-0.005 0.355,0.016C0.34,0.092 0.283,0.134 0.199,0.134C0.145,0.134 0.1,0.115 0.06,0.079L0.008,0.159C0.059,0.207 0.125,0.232 0.203,0.232C0.333,0.232 0.438,0.169 0.463,0.026L0.545,-0.446L0.472,-0.446ZM0.402,-0.225C0.387,-0.144 0.333,-0.085 0.25,-0.085C0.189,-0.085 0.146,-0.123 0.146,-0.19C0.146,-0.201 0.147,-0.211 0.149,-0.223C0.164,-0.309 0.223,-0.361 0.298,-0.361C0.369,-0.361 0.405,-0.316 0.405,-0.255C0.405,-0.245 0.404,-0.235 0.402,-0.225Z" style="fill:rgb(204,56,106);fill-rule:nonzero;stroke:rgb(204,56,106);stroke-width:0.11px;stroke-miterlimit:2;"/>
                </g>
                <g transform="matrix(68.5065,0,4.28001e-15,154.204,1447.14,234.162)">
                    <path d="M0.025,0L0.135,0L0.175,-0.23C0.187,-0.299 0.234,-0.36 0.304,-0.36C0.347,-0.36 0.369,-0.336 0.369,-0.297C0.369,-0.29 0.368,-0.283 0.367,-0.275L0.318,0L0.428,0L0.477,-0.277C0.48,-0.294 0.481,-0.31 0.481,-0.325C0.481,-0.408 0.437,-0.458 0.348,-0.458C0.287,-0.458 0.237,-0.43 0.199,-0.389C0.207,-0.421 0.213,-0.447 0.218,-0.475L0.261,-0.72L0.152,-0.72L0.025,0Z" style="fill:rgb(204,56,106);fill-rule:nonzero;stroke:rgb(204,56,106);stroke-width:0.1px;stroke-miterlimit:2;"/>
                </g>
                <g transform="matrix(68.5065,0,2.14001e-15,154.204,1484.35,235.214)">
                    <path d="M0.201,0.01C0.246,0.01 0.289,-0.001 0.332,-0.028L0.305,-0.114C0.277,-0.097 0.254,-0.09 0.231,-0.09C0.206,-0.09 0.191,-0.1 0.191,-0.126C0.191,-0.132 0.192,-0.138 0.193,-0.145L0.229,-0.354L0.367,-0.354L0.383,-0.446L0.245,-0.446L0.27,-0.589L0.163,-0.589L0.135,-0.446L0.053,-0.446L0.038,-0.359L0.119,-0.354L0.082,-0.14C0.08,-0.127 0.079,-0.115 0.079,-0.104C0.079,-0.028 0.13,0.01 0.201,0.01Z" style="fill:rgb(204,56,106);fill-rule:nonzero;stroke:rgb(204,56,106);stroke-width:0.1px;stroke-miterlimit:2;"/>
                </g>
                <g transform="matrix(1,4.44089e-16,6.93889e-17,1,-0.432097,1.21711)">
                    <g transform="matrix(68.1314,-16.1152,7.15934,153.359,1350.53,286.171)">
                        <path d="M0.62,-0.459C0.623,-0.473 0.624,-0.487 0.624,-0.501C0.624,-0.61 0.539,-0.68 0.426,-0.68L0.164,-0.68L0.044,0L0.161,0L0.207,-0.259L0.314,-0.259L0.436,0L0.563,0L0.563,-0.003L0.432,-0.27C0.535,-0.295 0.603,-0.36 0.62,-0.459ZM0.507,-0.467C0.495,-0.397 0.434,-0.357 0.357,-0.357L0.224,-0.357L0.263,-0.579L0.405,-0.579C0.47,-0.579 0.509,-0.542 0.509,-0.488C0.509,-0.481 0.508,-0.474 0.507,-0.467Z" style="fill:white;fill-rule:nonzero;stroke:white;stroke-width:0.02px;stroke-miterlimit:2;"/>
                    </g>
                    <g transform="matrix(67.3155,0,0,151.523,1410.25,235.437)">
                        <path d="M0.472,-0.446L0.438,-0.379C0.407,-0.43 0.353,-0.457 0.285,-0.457C0.157,-0.457 0.064,-0.365 0.04,-0.233C0.037,-0.214 0.035,-0.197 0.035,-0.179C0.035,-0.069 0.103,0.008 0.216,0.008C0.273,0.008 0.326,-0.011 0.37,-0.05C0.364,-0.028 0.359,-0.005 0.355,0.016C0.34,0.092 0.283,0.134 0.199,0.134C0.145,0.134 0.1,0.115 0.06,0.079L0.008,0.159C0.059,0.207 0.125,0.232 0.203,0.232C0.333,0.232 0.438,0.169 0.463,0.026L0.545,-0.446L0.472,-0.446ZM0.402,-0.225C0.387,-0.144 0.333,-0.085 0.25,-0.085C0.189,-0.085 0.146,-0.123 0.146,-0.19C0.146,-0.201 0.147,-0.211 0.149,-0.223C0.164,-0.309 0.223,-0.361 0.298,-0.361C0.369,-0.361 0.405,-0.316 0.405,-0.255C0.405,-0.245 0.404,-0.235 0.402,-0.225Z" style="fill:white;fill-rule:nonzero;stroke:white;stroke-width:0.02px;stroke-miterlimit:2;"/>
                    </g>
                    <g transform="matrix(65.7426,-43.359,19.2627,147.982,1395.89,236.153)">
                        <path d="M0.031,-0.036L0.14,-0.036L0.213,-0.446L0.104,-0.446L0.031,-0.036Z" style="fill:rgb(204,56,106);fill-rule:nonzero;stroke:rgb(204,56,106);stroke-width:0.1px;stroke-miterlimit:2;"/>
                    </g>
                    <g transform="matrix(65.7426,-43.359,19.2627,147.982,1397.42,237.57)">
                        <path d="M0.033,-0.047L0.142,-0.047L0.213,-0.446L0.104,-0.446L0.033,-0.047Z" style="fill:white;fill-rule:nonzero;stroke:white;stroke-width:0.02px;stroke-miterlimit:2;"/>
                    </g>
                    <g transform="matrix(68.5065,0,0,154.204,1448.93,235.499)">
                        <path d="M0.025,0L0.135,0L0.175,-0.23C0.187,-0.299 0.234,-0.36 0.304,-0.36C0.347,-0.36 0.369,-0.336 0.369,-0.297C0.369,-0.29 0.368,-0.283 0.367,-0.275L0.318,0L0.428,0L0.477,-0.277C0.48,-0.294 0.481,-0.31 0.481,-0.325C0.481,-0.408 0.437,-0.458 0.348,-0.458C0.287,-0.458 0.237,-0.43 0.199,-0.389C0.207,-0.421 0.213,-0.447 0.218,-0.475L0.261,-0.72L0.152,-0.72L0.025,0Z" style="fill:white;fill-rule:nonzero;stroke:white;stroke-width:0.02px;stroke-miterlimit:2;"/>
                    </g>
                    <g transform="matrix(68.5065,0,0,154.204,1486.13,236.551)">
                        <path d="M0.201,0.01C0.246,0.01 0.289,-0.001 0.332,-0.028L0.305,-0.114C0.277,-0.097 0.254,-0.09 0.231,-0.09C0.206,-0.09 0.191,-0.1 0.191,-0.126C0.191,-0.132 0.192,-0.138 0.193,-0.145L0.229,-0.354L0.367,-0.354L0.383,-0.446L0.245,-0.446L0.27,-0.589L0.163,-0.589L0.135,-0.446L0.053,-0.446L0.038,-0.359L0.119,-0.354L0.082,-0.14C0.08,-0.127 0.079,-0.115 0.079,-0.104C0.079,-0.028 0.13,0.01 0.201,0.01Z" style="fill:white;fill-rule:nonzero;stroke:white;stroke-width:0.02px;stroke-miterlimit:2;"/>
                    </g>
                </g>
            </g>
            <g transform="matrix(1.2688,0,0,1.2688,-330.106,-110.611)">
                <g transform="matrix(-128.937,-8.12212,8.12212,-128.937,1263.39,324.101)">
                    <path d="M0.182,-0.59C0.224,-0.59 0.252,-0.625 0.252,-0.662C0.252,-0.695 0.23,-0.722 0.19,-0.722C0.147,-0.722 0.121,-0.686 0.121,-0.649C0.121,-0.617 0.143,-0.59 0.182,-0.59Z" style="fill:rgb(204,56,106);fill-rule:nonzero;stroke:rgb(204,56,106);stroke-width:0.1px;stroke-miterlimit:2;"/>
                </g>
                <g transform="matrix(-128.937,-8.12212,8.12212,-128.937,1261.07,321.996)">
                    <path d="M0.182,-0.59C0.224,-0.59 0.252,-0.625 0.252,-0.662C0.252,-0.695 0.23,-0.722 0.19,-0.722C0.147,-0.722 0.121,-0.686 0.121,-0.649C0.121,-0.617 0.143,-0.59 0.182,-0.59Z" style="fill:rgb(204,56,106);fill-rule:nonzero;stroke:white;stroke-width:0.02px;stroke-miterlimit:2;"/>
                </g>
            </g>
            <g transform="matrix(1.2688,0,0,1.2688,-330.106,-110.611)">
                <g transform="matrix(-107.036,-6.74254,6.74254,-107.036,1283.91,281.401)">
                    <path d="M0.182,-0.59C0.224,-0.59 0.252,-0.625 0.252,-0.662C0.252,-0.695 0.23,-0.722 0.19,-0.722C0.147,-0.722 0.121,-0.686 0.121,-0.649C0.121,-0.617 0.143,-0.59 0.182,-0.59Z" style="fill:rgb(204,56,106);fill-rule:nonzero;stroke:rgb(204,56,106);stroke-width:0.1px;stroke-miterlimit:2;"/>
                </g>
                <g transform="matrix(-107.036,-6.74254,6.74254,-107.036,1281.98,279.653)">
                    <path d="M0.182,-0.59C0.224,-0.59 0.252,-0.625 0.252,-0.662C0.252,-0.695 0.23,-0.722 0.19,-0.722C0.147,-0.722 0.121,-0.686 0.121,-0.649C0.121,-0.617 0.143,-0.59 0.182,-0.59Z" style="fill:rgb(204,56,106);fill-rule:nonzero;stroke:white;stroke-width:0.02px;stroke-miterlimit:2;"/>
                </g>
            </g>
            <g transform="matrix(1.23092,-0.307707,0.307707,1.23092,-645.984,356.096)">
                <g transform="matrix(-54.9016,98.9017,-139.483,-77.4288,1423.21,340.935)">
                    <path d="M0.031,-0.036L0.14,-0.036L0.213,-0.446L0.104,-0.446L0.031,-0.036Z" style="fill:rgb(204,56,106);fill-rule:nonzero;stroke:rgb(204,56,106);stroke-width:0.1px;stroke-miterlimit:2;"/>
                </g>
                <g transform="matrix(-54.9016,98.9017,-139.483,-77.4288,1421.15,337.277)">
                    <path d="M0.033,-0.047L0.142,-0.047L0.213,-0.446L0.104,-0.446L0.033,-0.047Z" style="fill:rgb(204,56,106);fill-rule:nonzero;stroke:white;stroke-width:0.02px;stroke-miterlimit:2;"/>
                </g>
            </g>
            <g transform="matrix(1.58144,-0.76252,0.76252,1.58144,-1463.37,875.384)">
                <g transform="matrix(0.520446,-5.47856e-17,4.74885e-17,0.451126,703.158,196.238)">
                    <path d="M1385.99,306.834L1395.86,306.834L1404.06,294.594C1405.58,292.434 1406.94,290.202 1408.38,287.682C1409.82,290.202 1411.26,292.434 1412.7,294.594L1420.84,306.834L1430.7,306.834L1430.7,306.69L1413.5,281.49L1429.26,258.018L1429.26,257.874L1419.54,257.874L1412.85,268.098C1411.41,270.33 1409.89,272.778 1408.45,275.298C1407.02,272.778 1405.5,270.402 1404.06,268.242L1397.22,257.874L1387.43,257.874L1387.43,258.018L1403.27,281.49L1385.99,306.69L1385.99,306.834Z" style="fill:rgb(204,56,106);fill-rule:nonzero;stroke:rgb(204,56,106);stroke-width:16.55px;stroke-linecap:butt;"/>
                </g>
                <g transform="matrix(0.493465,0,0,0.427738,742.376,203.98)">
                    <path d="M1385.99,306.834L1395.86,306.834L1404.06,294.594C1405.58,292.434 1406.94,290.202 1408.38,287.682C1409.82,290.202 1411.26,292.434 1412.7,294.594L1420.84,306.834L1430.7,306.834L1430.7,306.69L1413.5,281.49L1429.26,258.018L1429.26,257.874L1419.54,257.874L1412.85,268.098C1411.41,270.33 1409.89,272.778 1408.45,275.298C1407.02,272.778 1405.5,270.402 1404.06,268.242L1397.22,257.874L1387.43,257.874L1387.43,258.018L1403.27,281.49L1385.99,306.69L1385.99,306.834Z" style="fill:rgb(204,56,106);fill-rule:nonzero;"/>
                    <path d="M1430.83,254.533L1431.06,254.694L1431.29,254.877L1431.49,255.079L1431.68,255.301L1431.86,255.541L1432.02,255.797L1432.16,256.066L1432.28,256.348L1432.38,256.641L1432.45,256.942L1432.51,257.249L1432.54,257.561L1432.56,257.874L1432.56,258.018L1432.54,258.331L1432.51,258.641L1432.45,258.948L1432.38,259.248L1432.28,259.539L1432.16,259.82L1432.02,260.09L1431.87,260.345L1417.67,281.471L1433.29,304.339L1433.45,304.596L1433.59,304.866L1433.71,305.15L1433.81,305.444L1433.89,305.747L1433.95,306.056L1433.98,306.37L1434,306.686L1434,306.83L1433.98,307.144L1433.95,307.456L1433.89,307.763L1433.82,308.064L1433.72,308.357L1433.6,308.639L1433.46,308.909L1433.3,309.165L1433.13,309.405L1432.93,309.627L1432.73,309.83L1432.51,310.013L1432.27,310.174L1432.03,310.312L1431.77,310.426L1431.51,310.516L1431.25,310.58L1430.98,310.619L1430.7,310.632L1420.84,310.632L1420.57,310.619L1420.29,310.58L1420.02,310.514L1419.76,310.423L1419.51,310.307L1419.26,310.167L1419.03,310.004L1418.8,309.819L1418.6,309.613L1418.4,309.388L1418.23,309.145L1410.09,296.906L1409.82,296.497L1409.54,296.081L1409.27,295.662L1408.99,295.24L1408.71,294.813L1408.44,294.382L1408.4,294.322L1408.36,294.376L1408.08,294.816L1407.8,295.253L1407.51,295.688L1407.22,296.121L1406.92,296.552L1406.65,296.944L1398.46,309.158L1398.28,309.399L1398.09,309.622L1397.88,309.826L1397.66,310.01L1397.43,310.171L1397.18,310.31L1396.93,310.425L1396.66,310.515L1396.4,310.58L1396.13,310.619L1395.86,310.632L1385.99,310.632L1385.72,310.619L1385.45,310.58L1385.18,310.516L1384.92,310.426L1384.67,310.312L1384.42,310.174L1384.19,310.014L1383.97,309.831L1383.76,309.628L1383.57,309.406L1383.39,309.167L1383.23,308.911L1383.1,308.641L1382.98,308.359L1382.88,308.067L1382.8,307.766L1382.74,307.459L1382.71,307.147L1382.7,306.833L1382.7,306.689L1382.71,306.407L1382.74,306.127L1382.78,305.849L1382.84,305.576L1382.92,305.31L1383.02,305.051L1383.13,304.801L1383.26,304.561L1383.41,304.333L1399.09,281.471L1384.83,260.351L1384.67,260.096L1384.54,259.826L1384.42,259.544L1384.32,259.251L1384.24,258.95L1384.18,258.642L1384.15,258.331L1384.14,258.017L1384.14,257.873L1384.15,257.559L1384.18,257.248L1384.24,256.941L1384.32,256.64L1384.42,256.347L1384.54,256.065L1384.67,255.796L1384.83,255.54L1385.01,255.301L1385.2,255.079L1385.41,254.876L1385.63,254.694L1385.86,254.533L1386.11,254.395L1386.36,254.281L1386.62,254.192L1386.89,254.127L1387.16,254.089L1387.43,254.076L1397.22,254.075L1397.48,254.087L1397.73,254.12L1397.97,254.176L1398.22,254.253L1398.45,254.351L1398.68,254.47L1398.91,254.61L1399.12,254.768L1399.32,254.945L1399.51,255.139L1399.68,255.349L1399.84,255.573L1406.68,265.936L1406.95,266.343L1407.23,266.766L1407.51,267.194L1407.79,267.627L1408.07,268.065L1408.36,268.509L1408.43,268.63L1408.53,268.48L1408.81,268.027L1409.09,267.579L1409.37,267.134L1409.65,266.694L1409.93,266.26L1410.21,265.821L1416.92,255.584L1417.08,255.358L1417.25,255.146L1417.44,254.951L1417.64,254.773L1417.85,254.614L1418.08,254.474L1418.31,254.353L1418.55,254.254L1418.79,254.176L1419.04,254.12L1419.29,254.087L1419.54,254.076L1429.26,254.076L1429.54,254.088L1429.81,254.127L1430.07,254.192L1430.33,254.281L1430.59,254.395L1430.83,254.533ZM1419.54,257.874L1412.85,268.098L1412.58,268.519L1412.3,268.945L1412.03,269.375L1411.76,269.81L1411.48,270.249L1411.2,270.692L1410.93,271.139L1410.65,271.59L1410.37,272.044L1410.1,272.501L1409.82,272.961L1409.55,273.424L1409.27,273.889L1409,274.356L1408.73,274.826L1408.45,275.298L1408.18,274.827L1407.91,274.36L1407.64,273.896L1407.36,273.436L1407.09,272.98L1406.81,272.527L1406.54,272.079L1406.26,271.635L1405.98,271.195L1405.7,270.759L1405.43,270.328L1405.15,269.901L1404.88,269.479L1404.61,269.062L1404.33,268.649L1404.06,268.242L1397.22,257.874L1387.43,257.874L1387.43,258.018L1403.27,281.49L1385.99,306.69L1385.99,306.834L1395.86,306.834L1404.06,294.594L1404.35,294.188L1404.62,293.78L1404.9,293.37L1405.17,292.957L1405.44,292.541L1405.71,292.122L1405.98,291.699L1406.25,291.273L1406.52,290.842L1406.78,290.407L1407.05,289.967L1407.31,289.521L1407.58,289.07L1407.85,288.614L1408.11,288.151L1408.38,287.682L1408.65,288.151L1408.92,288.614L1409.19,289.07L1409.46,289.521L1409.73,289.967L1410,290.407L1410.27,290.842L1410.54,291.273L1410.81,291.699L1411.08,292.122L1411.35,292.541L1411.62,292.957L1411.89,293.37L1412.16,293.78L1412.43,294.188L1412.7,294.594L1420.84,306.834L1430.7,306.834L1430.7,306.69L1413.5,281.49L1429.26,258.018L1429.26,257.874L1419.54,257.874Z" style="fill:white;"/>
                </g>
            </g>
        </g>
    </g>
</svg>
