<?xml version="1.0" encoding="UTF-8" standalone="no"?>
<!DOCTYPE svg PUBLIC "-//W3C//DTD SVG 1.1//EN" "http://www.w3.org/Graphics/SVG/1.1/DTD/svg11.dtd">
<svg width="100%" height="100%" viewBox="0 0 511 511" version="1.1" xmlns="http://www.w3.org/2000/svg" xmlns:xlink="http://www.w3.org/1999/xlink" xml:space="preserve" xmlns:serif="http://www.serif.com/" style="fill-rule:evenodd;clip-rule:evenodd;stroke-linejoin:round;stroke-miterlimit:1.41421;">
    <path d="M274.027,70.943L26.117,137.372C12.71,140.966 4.752,154.744 8.343,168.151L92.327,481.581C95.922,494.989 109.703,502.946 123.111,499.351L371.02,432.926C384.428,429.332 392.385,415.55 388.79,402.143L304.81,88.717C301.216,75.306 287.434,67.352 274.027,70.943Z" style="fill:white;fill-rule:nonzero;"/>
    <path d="M131.165,471.176L47.185,157.746C43.591,144.339 51.548,130.557 64.955,126.962L26.117,137.372C12.71,140.962 4.752,154.744 8.343,168.151L92.327,481.581C95.922,494.989 109.703,502.946 123.111,499.351L161.949,488.946C148.541,492.536 134.76,484.583 131.165,471.176Z" style="fill:rgb(242,242,242);fill-rule:nonzero;"/>
    <path d="M338.802,370.934L277.122,140.736C261.676,144.873 245.804,135.711 241.664,120.265L78.803,163.906C82.943,179.348 73.778,195.219 58.335,199.36L120.015,429.562C135.458,425.422 151.333,434.587 155.469,450.03L318.334,406.392C314.194,390.946 323.36,375.075 338.802,370.934Z" style="fill:rgb(202,51,106);fill-rule:nonzero;"/>
    <path d="M155.469,450.03L166.346,447.117L89.68,160.99L78.803,163.906C82.943,179.348 73.778,195.219 58.335,199.36L120.015,429.562C135.458,425.422 151.333,434.587 155.469,450.03Z" style="fill:rgb(179,34,87);fill-rule:nonzero;"/>
    <path d="M484.872,78.775L236.962,12.347C223.555,8.756 209.773,16.713 206.179,30.121L122.198,343.547C118.604,356.954 126.561,370.736 139.968,374.33L387.878,440.759C401.289,444.349 415.067,436.392 418.662,422.985L502.646,109.555C506.236,96.148 498.279,82.366 484.872,78.775Z" style="fill:white;fill-rule:nonzero;"/>
    <path d="M161.037,353.956L245.021,40.526C248.611,27.119 262.393,19.161 275.8,22.752L236.962,12.347C223.555,8.756 209.773,16.713 206.179,30.121L122.198,343.547C118.604,356.954 126.561,370.736 139.968,374.33L178.81,384.735C165.399,381.145 157.442,367.363 161.037,353.956Z" style="fill:rgb(242,242,242);fill-rule:nonzero;"/>
    <g transform="matrix(4.14633,1.111,-1.111,4.14633,264.765,144.022)">
        <g>
            <path d="M22.301,15.658L30.02,23.377C30.939,24.296 31.389,25.408 31.371,26.712C31.371,27.999 30.92,29.092 30.02,29.993C29.101,30.912 27.998,31.371 26.712,31.371C25.425,31.371 24.323,30.912 23.404,29.993L15.685,22.274L7.967,29.993C7.048,30.912 5.954,31.38 4.686,31.399C3.4,31.399 2.288,30.93 1.351,29.993C0.45,29.092 0,27.999 0,26.712C0.018,25.444 0.487,24.351 1.406,23.432L9.124,15.713L1.378,7.967C0.478,7.067 0.028,5.973 0.028,4.687C0.028,3.4 0.487,2.298 1.406,1.379C2.306,0.478 3.4,0.028 4.686,0.028C5.991,0.01 7.094,0.451 7.994,1.351L15.74,9.097L23.459,1.379C24.36,0.478 25.444,0.019 26.712,0.001C28.017,-0.018 29.119,0.423 30.02,1.324C30.957,2.261 31.417,3.382 31.398,4.687C31.38,5.955 30.92,7.039 30.02,7.94L22.301,15.658ZM30.02,6.12C30.351,5.165 30.295,4.227 29.854,3.309C29.652,2.886 29.404,2.527 29.11,2.233C28.853,1.976 28.568,1.783 28.256,1.655C28.053,1.563 27.916,1.553 27.842,1.627C27.732,1.737 27.75,1.866 27.897,2.013C29.037,3.152 29.615,4.521 29.634,6.12C29.615,6.249 29.634,6.341 29.689,6.396C29.726,6.433 29.772,6.442 29.827,6.424C29.864,6.424 29.891,6.414 29.91,6.396C29.946,6.359 29.983,6.267 30.02,6.12ZM29.882,27.815C30.213,26.859 30.167,25.931 29.744,25.031C29.524,24.59 29.276,24.231 29,23.956C28.743,23.698 28.458,23.505 28.145,23.377C27.925,23.267 27.778,23.248 27.704,23.322C27.594,23.432 27.612,23.561 27.759,23.708C28.917,24.865 29.496,26.235 29.496,27.815C29.478,27.944 29.496,28.036 29.551,28.091C29.588,28.127 29.634,28.137 29.689,28.118C29.744,28.137 29.781,28.137 29.799,28.118C29.836,28.082 29.864,27.98 29.882,27.815Z" style="fill:rgb(202,51,106);fill-rule:nonzero;"/>
        </g>
    </g>
    <path d="M506.615,86.74C502.26,79.196 495.227,73.801 486.81,71.543L238.9,5.115C230.483,2.861 221.691,4.019 214.148,8.374C206.6,12.733 201.204,19.766 198.951,28.183L183.033,87.575L138.436,99.524C134.44,100.596 132.074,104.701 133.142,108.693C134.039,112.038 137.064,114.245 140.366,114.245C141.009,114.245 141.66,114.159 142.311,113.988L178.561,104.276L171.298,131.372L76.865,156.674C74.947,157.188 73.31,158.444 72.319,160.163C71.325,161.882 71.056,163.925 71.571,165.843C73.056,171.379 72.296,177.165 69.427,182.132C66.561,187.095 61.934,190.646 56.394,192.132C54.475,192.646 52.842,193.898 51.848,195.617C50.858,197.34 50.589,199.383 51.103,201.297L112.787,431.496C113.302,433.414 114.553,435.051 116.273,436.041C117.996,437.036 120.039,437.305 121.953,436.79C133.38,433.726 145.177,440.537 148.241,451.967C149.138,455.312 152.159,457.519 155.465,457.519C156.109,457.519 156.76,457.437 157.407,457.262L288.978,422.006L335.913,434.583L121.169,492.123C111.774,494.638 102.074,489.043 99.559,479.644L15.575,166.218C13.056,156.818 18.655,147.122 28.055,144.6L115.649,121.13C119.645,120.062 122.011,115.957 120.943,111.96C119.875,107.968 115.77,105.602 111.774,106.67L24.179,130.14C6.807,134.795 -3.54,152.717 1.115,170.089L85.099,483.519C88.998,498.072 102.21,507.698 116.612,507.698C119.399,507.698 122.23,507.336 125.048,506.583L364.837,442.33L385.94,447.987C388.759,448.739 391.59,449.102 394.377,449.102C408.779,449.098 421.991,439.476 425.89,424.919L453.671,321.246C454.739,317.254 452.369,313.149 448.377,312.081C444.385,311.009 440.279,313.379 439.207,317.371L411.43,421.047C408.911,430.447 399.215,436.041 389.816,433.527L141.906,367.098C132.506,364.58 126.908,354.884 129.427,345.484L196.428,95.434L196.428,95.43L213.411,32.058C214.631,27.505 217.551,23.699 221.633,21.341C225.715,18.982 230.471,18.358 235.025,19.579L482.934,86.007C487.488,87.228 491.293,90.148 493.652,94.23C496.006,98.311 496.63,103.068 495.414,107.621L446.611,289.757C445.539,293.749 447.909,297.855 451.901,298.923C455.897,299.991 460.003,297.625 461.071,293.629L509.874,111.493C512.131,103.079 510.973,94.288 506.615,86.74ZM114.967,341.609C110.312,358.981 120.659,376.903 138.031,381.558L260.058,414.256L160.019,441.063C153.512,428.209 139.859,420.353 125.512,421.137L67.306,203.913C73.579,200.756 78.803,195.839 82.394,189.613C85.988,183.391 87.633,176.409 87.236,169.395L166.826,148.07L114.967,341.609Z" style="fill-rule:nonzero;"/>
    <g transform="matrix(0.973817,0.227334,-0.227334,0.973817,-44.1777,-114.527)">
        <path d="M307.147,85.007C307.413,84.511 307.931,84.201 308.494,84.201C309.057,84.201 309.574,84.511 309.84,85.007L312.71,90.354L318.682,91.431C319.236,91.531 319.691,91.927 319.865,92.462C320.039,92.998 319.904,93.586 319.515,93.992L315.315,98.374L316.137,104.387C316.213,104.944 315.977,105.499 315.521,105.83C315.066,106.161 314.465,106.214 313.958,105.97L308.494,103.33L303.029,105.97C302.522,106.214 301.922,106.161 301.466,105.83C301.011,105.499 300.774,104.944 300.85,104.387L301.672,98.374L297.473,93.992C297.083,93.586 296.949,92.998 297.123,92.462C297.297,91.927 297.751,91.531 298.305,91.431L304.278,90.354L307.147,85.007Z" style="fill:rgb(255,228,70);"/>
    </g>
    <g transform="matrix(0.957213,0.289385,-0.289385,0.957213,125.015,226.406)">
        <path d="M307.147,85.007C307.413,84.511 307.931,84.201 308.494,84.201C309.057,84.201 309.574,84.511 309.84,85.007L312.71,90.354L318.682,91.431C319.236,91.531 319.691,91.927 319.865,92.462C320.039,92.998 319.904,93.586 319.515,93.992L315.315,98.374L316.137,104.387C316.213,104.944 315.977,105.499 315.521,105.83C315.066,106.161 314.465,106.214 313.958,105.97L308.494,103.33L303.029,105.97C302.522,106.214 301.922,106.161 301.466,105.83C301.011,105.499 300.774,104.944 300.85,104.387L301.672,98.374L297.473,93.992C297.083,93.586 296.949,92.998 297.123,92.462C297.297,91.927 297.751,91.531 298.305,91.431L304.278,90.354L307.147,85.007Z" style="fill:rgb(255,228,70);"/>
    </g>
</svg>
