<svg id="filled_outline" height="512" viewBox="0 0 512 512" width="512" xmlns="http://www.w3.org/2000/svg" data-name="filled outline"><g fill="#009ff5"><path d="m104 344-16 144h24l38.4-144z"/><path d="m296 344 16 144h-24l-38.4-144z"/><path d="m400 200 32 32h56l-24-32 24-32h-56z"/></g><circle cx="200" cy="200" fill="#f07f2f" r="176"/><circle cx="200" cy="200" fill="#e5e7e9" r="128"/><circle cx="200" cy="200" fill="#f07f2f" r="80"/><circle cx="200" cy="200" fill="#e5e7e9" r="32"/><path d="m495.15525 164.42188a8.00022 8.00022 0 0 0 -7.15525-4.42188h-56a8.00233 8.00233 0 0 0 -5.65723 2.34277l-29.65725 29.65723h-12.87009c-4.2041-97.76-85.03882-176-183.81543-176-101.458 0-184 82.542-184 184a183.91962 183.91962 0 0 0 79.15942 151.12061l-15.11059 135.9956a8.00088 8.00088 0 0 0 7.95117 8.88379h24a7.99951 7.99951 0 0 0 7.72949-5.93848l19.74976-74.06152h121.0415l19.74976 74.06152a7.99951 7.99951 0 0 0 7.72949 5.93848h24a8.00088 8.00088 0 0 0 7.95117-8.88379l-15.11059-135.9956a183.9747 183.9747 0 0 0 78.97485-143.12061h12.87009l29.65723 29.65723a8.00233 8.00233 0 0 0 5.65725 2.34277h56a8.00013 8.00013 0 0 0 6.40039-12.7998l-20.40039-27.2002 20.40039-27.2002a8.00093 8.00093 0 0 0 .75486-8.37792zm-389.30173 315.57812h-8.915l13.27173-119.44751a183.21023 183.21023 0 0 0 24.44409 11.447zm37.89233-80 6.11841-22.9436a184.47246 184.47246 0 0 0 100.27148 0l6.11841 22.9436zm159.31567 80h-8.915l-28.80082-108.00049a183.21023 183.21023 0 0 0 24.44409-11.447zm-103.06152-112c-92.63574 0-168-75.36426-168-168s75.36426-168 168-168c89.95361 0 163.6145 71.06494 167.80518 160h-32.04688c-4.15576-71.28027-63.4541-128-135.7583-128-74.99023 0-136 61.00977-136 136s61.00977 136 136 136c72.3042 0 131.60254-56.71973 135.7583-128h32.04688c-4.19068 88.93506-77.85157 160-167.80518 160zm87.63257-176a88 88 0 1 0 0 16h32.09448a120 120 0 1 1 0-16zm-48.4375 0a40 40 0 1 0 0 16h32.34985a72 72 0 1 1 0-16zm-39.19507 0a8 8 0 0 0 0 16h22.62378a24 24 0 1 1 0-16zm257.59958 12.7998 14.40042 19.2002h-36.68655l-16-16h20.68655v-16h-20.68655l16-16h36.68655l-14.4004 19.2002a8.001 8.001 0 0 0 -.00002 9.5996z"/></svg>