<?xml version="1.0" encoding="UTF-8" standalone="no"?>
<!DOCTYPE svg PUBLIC "-//W3C//DTD SVG 1.1//EN" "http://www.w3.org/Graphics/SVG/1.1/DTD/svg11.dtd">
<svg width="100%" height="100%" viewBox="0 0 1391 765" version="1.1" xmlns="http://www.w3.org/2000/svg" xmlns:xlink="http://www.w3.org/1999/xlink" xml:space="preserve" xmlns:serif="http://www.serif.com/" style="fill-rule:evenodd;clip-rule:evenodd;stroke-linejoin:round;stroke-miterlimit:1.41421;">
    <g transform="matrix(1,0,0,1,-1080.03,-805.565)">
        <g>
            <g transform="matrix(0.85636,-0.174218,0.174218,0.85636,-170.205,643.777)">
                <g transform="matrix(1,0,0,1,0,116.895)">
                    <path d="M1357.61,938.535L1357.61,1085.02C1357.61,1094.79 1354.19,1103.09 1347.35,1109.92C1340.52,1116.76 1332.31,1120.18 1322.74,1120.18C1312.98,1120.18 1304.68,1116.76 1297.84,1109.92C1291,1103.09 1287.59,1094.79 1287.59,1085.02L1287.59,733.75C1287.78,723.789 1291.2,715.586 1297.84,709.14C1304.68,702.5 1312.98,698.984 1322.74,698.594L1542.18,698.594C1589.05,699.961 1623.23,718.906 1644.72,755.429C1655.85,774.375 1661.41,794.785 1661.41,816.66C1661.41,824.863 1660.63,833.164 1659.07,841.562C1653.21,873.789 1638.27,898.691 1614.25,916.269C1595.5,929.551 1572.84,936.875 1546.28,938.242L1621.28,1067.73C1624.21,1073.4 1625.67,1079.26 1625.67,1085.31C1625.67,1088.24 1625.38,1091.27 1624.79,1094.39C1622.25,1103.77 1616.69,1110.8 1608.09,1115.49C1602.62,1118.81 1596.96,1120.47 1591.1,1120.47C1587.98,1120.47 1584.75,1119.98 1581.43,1119C1572.06,1116.66 1565.03,1111.29 1560.34,1102.89L1465.42,938.535L1357.61,938.535ZM1357.61,868.222L1542.18,868.222C1565.61,868.027 1580.85,857.969 1587.88,838.047C1590.03,831.797 1591.1,825.449 1591.1,819.004C1591.1,811.387 1589.54,803.672 1586.41,795.859C1580.16,780.234 1569.62,771.543 1554.77,769.785L1542.18,768.906L1357.61,768.906L1357.61,868.222ZM1623.62,754.551C1606.04,726.816 1578.8,712.949 1541.88,712.949C1537.39,712.949 1532.8,713.144 1528.11,713.535C1524.6,714.121 1522.84,715.293 1522.84,717.051C1522.84,719.394 1524.69,720.566 1528.41,720.566C1557.9,721.738 1587.98,734.824 1618.64,759.824C1620.59,761.191 1622.16,761.875 1623.33,761.875C1623.72,761.875 1624.21,761.582 1624.79,760.996C1625.18,760.605 1625.38,760.019 1625.38,759.238C1625.38,758.066 1624.79,756.504 1623.62,754.551Z" style="fill:white;fill-rule:nonzero;"/>
                </g>
                <path d="M1757.67,1085.31C1757.67,1094.88 1754.25,1103.09 1747.42,1109.92C1740.58,1116.95 1732.28,1120.47 1722.52,1120.47C1712.94,1120.47 1704.74,1116.95 1697.91,1109.92C1691.07,1103.09 1687.65,1094.88 1687.65,1085.31L1687.65,850.644C1687.65,841.074 1691.07,832.871 1697.91,826.035C1704.74,819.004 1712.94,815.488 1722.52,815.488C1732.28,815.488 1740.58,819.004 1747.42,826.035C1754.25,832.871 1757.67,841.074 1757.67,850.644L1757.67,1085.31ZM1745.95,841.269C1742.44,834.629 1737.16,830.039 1730.13,827.5C1726.81,826.328 1723.59,825.742 1720.47,825.742C1717.73,825.742 1715.19,826.23 1712.85,827.207C1710.89,827.988 1709.92,828.672 1709.92,829.258C1708.36,832.383 1707.57,834.629 1707.57,835.996C1707.57,836.777 1707.97,837.168 1708.75,837.168C1712.46,836.191 1715.78,835.703 1718.71,835.703C1728.08,835.703 1735.02,840.39 1739.51,849.765C1740.29,850.547 1740.88,850.937 1741.27,850.937C1744.39,846.836 1746.05,844.687 1746.25,844.492C1746.44,844.297 1746.54,844.004 1746.54,843.613C1746.54,843.027 1746.34,842.246 1745.95,841.269Z" style="fill:white;fill-rule:nonzero;"/>
                <path d="M1838.4,1085.61C1834.3,1082.09 1830.2,1078.18 1826.1,1073.89C1798.17,1044.79 1784.2,1009.82 1784.2,969.004L1784.2,966.953C1784.59,924.961 1799.24,889.609 1828.15,860.898C1849.83,839.023 1876,825.156 1906.66,819.297C1916.82,817.539 1926.88,816.66 1936.84,816.66C1956.57,816.66 1975.9,820.469 1994.85,828.086C2022.78,839.804 2045.34,858.554 2062.52,884.336C2079.32,910.117 2087.82,938.144 2088.01,968.418C2088.01,998.105 2079.71,1025.74 2063.11,1051.33C2046.51,1076.91 2024.73,1095.66 1997.78,1107.58C1978.25,1115.98 1957.64,1120.37 1935.96,1120.76C1914.28,1123.89 1899.05,1128.57 1890.26,1134.82C1876.39,1143.81 1866.23,1156.11 1859.79,1171.74C1855.88,1181.89 1853.93,1192.25 1853.93,1202.79C1853.93,1208.26 1854.42,1213.73 1855.39,1219.2C1859.11,1237.95 1868.68,1253.48 1884.11,1265.78C1899.14,1278.28 1916.43,1284.53 1935.96,1284.53C1945.53,1284.53 1953.73,1287.95 1960.57,1294.79C1967.6,1301.82 1971.12,1310.12 1971.12,1319.69C1971.12,1329.26 1967.6,1337.56 1960.57,1344.59C1953.73,1351.43 1945.53,1354.84 1935.96,1354.84C1905.49,1354.65 1877.37,1346.05 1851.59,1329.06C1825.41,1311.68 1806.66,1289.12 1795.34,1261.39C1787.52,1242.64 1783.62,1223.5 1783.62,1203.96C1783.62,1193.61 1784.69,1183.26 1786.84,1172.91C1792.89,1142.44 1806.66,1116.46 1828.15,1094.98C1831.47,1091.66 1834.89,1088.54 1838.4,1085.61ZM1935.96,1050.45C1958.42,1050.06 1977.56,1041.95 1993.38,1026.13C2009.59,1010.12 2017.7,990.879 2017.7,968.418C2017.7,949.277 2011.55,932.09 1999.24,916.855C1986.74,901.621 1971.12,892.051 1952.37,888.144C1946.51,886.972 1940.75,886.387 1935.08,886.387C1919.65,886.387 1904.91,890.976 1890.84,900.156C1871.7,912.851 1859.89,930.137 1855.39,952.012C1854.22,957.871 1853.64,963.535 1853.64,969.004C1853.64,987.558 1859.98,1004.45 1872.68,1019.69C1889.09,1039.61 1910.18,1049.86 1935.96,1050.45ZM2028.25,871.738C2019.07,857.285 2005,846.64 1986.06,839.804C1974.14,835.312 1962.43,833.066 1950.9,833.066C1945.63,833.066 1940.36,833.554 1935.08,834.531C1931.57,835.117 1929.81,836.191 1929.81,837.754L1929.81,838.047C1929.81,840.195 1931.57,841.465 1935.08,841.855C1968.87,845.176 1998.27,856.797 2023.27,876.719C2025.22,878.281 2026.78,879.062 2027.95,879.062C2028.34,879.062 2028.83,878.867 2029.42,878.476C2029.81,877.89 2030,877.207 2030,876.426C2030,875.254 2029.42,873.691 2028.25,871.738ZM1959.11,1309.14C1955.59,1302.5 1950.32,1297.91 1943.29,1295.37C1939.97,1294.2 1936.74,1293.61 1933.62,1293.61C1930.88,1293.61 1928.34,1294.1 1926,1295.08C1924.05,1295.86 1922,1297.71 1919.85,1300.64C1918.87,1301.82 1918.38,1302.79 1918.38,1303.57C1918.38,1304.55 1919.36,1305.04 1921.31,1305.04L1921.9,1305.04C1925.61,1304.06 1928.93,1303.57 1931.86,1303.57C1941.23,1303.57 1948.17,1308.26 1952.66,1317.64C1953.05,1318.03 1953.44,1318.22 1953.83,1318.22C1954.81,1318.22 1955.88,1317.54 1957.06,1316.17C1958.81,1314.41 1959.69,1312.95 1959.69,1311.78L1959.69,1311.48C1959.69,1310.9 1959.5,1310.12 1959.11,1309.14Z" style="fill:white;fill-rule:nonzero;"/>
                <path d="M2113.96,734.043C2113.96,724.472 2117.38,716.269 2124.21,709.433C2131.24,702.402 2139.54,698.887 2149.11,698.887C2158.68,698.887 2166.98,702.402 2174.01,709.433C2180.85,716.269 2184.27,724.472 2184.27,734.043L2184.27,840.39C2210.05,823.984 2237.1,815.781 2265.42,815.781C2275.77,815.781 2286.22,816.855 2296.77,819.004C2326.46,824.863 2352.04,838.828 2373.53,860.898C2394.03,881.992 2407.9,907.578 2415.13,937.656L2418.35,968.125L2418.35,1085.31C2418.35,1095.08 2414.93,1103.38 2408.1,1110.21C2401.07,1117.05 2392.76,1120.47 2383.2,1120.47C2373.62,1120.47 2365.32,1117.05 2358.29,1110.21C2351.46,1103.38 2348.04,1095.08 2348.04,1085.31L2348.04,968.125C2345.11,930.429 2328.51,905.234 2298.23,892.539C2288.08,888.242 2277.73,886.094 2267.18,886.094C2261.51,886.094 2255.95,886.679 2250.48,887.851C2234.07,891.172 2220.01,898.594 2208.29,910.117C2200.68,917.929 2194.82,926.621 2190.72,936.191C2188.96,940.293 2186.81,950.937 2184.27,968.125L2184.27,1085.31C2184.27,1095.08 2180.85,1103.38 2174.01,1110.21C2166.98,1117.05 2158.68,1120.47 2149.11,1120.47C2139.54,1120.47 2131.24,1117.05 2124.21,1110.21C2117.38,1103.38 2113.96,1095.08 2113.96,1085.31L2113.96,734.043ZM2171.97,724.082C2168.45,717.441 2163.18,712.851 2156.14,710.312C2152.82,709.14 2149.6,708.554 2146.48,708.554C2143.74,708.554 2141.2,709.043 2138.86,710.019C2136.91,710.801 2134.86,712.656 2132.71,715.586C2131.73,716.758 2131.24,717.734 2131.24,718.515C2131.24,719.492 2132.22,719.98 2134.17,719.98L2134.76,719.98C2138.47,719.004 2141.79,718.515 2144.72,718.515C2154.09,718.515 2161.03,723.203 2165.52,732.578C2165.91,732.969 2166.3,733.164 2166.69,733.164C2167.67,733.164 2168.74,732.48 2169.91,731.113C2171.67,729.355 2172.55,727.89 2172.55,726.719L2172.55,726.426C2172.55,725.84 2172.36,725.058 2171.97,724.082ZM2358.29,869.394C2349.11,854.941 2335.05,844.297 2316.11,837.461C2304.19,832.969 2292.47,830.722 2280.95,830.722C2275.68,830.722 2270.4,831.211 2265.13,832.187C2261.61,832.773 2259.86,833.847 2259.86,835.41L2259.86,835.703C2259.86,837.851 2261.61,839.121 2265.13,839.512C2298.92,842.832 2328.31,854.453 2353.31,874.375C2355.26,875.937 2356.83,876.719 2358,876.719C2358.39,876.719 2358.88,876.523 2359.47,876.133C2359.86,875.547 2360.05,874.863 2360.05,874.082C2360.05,872.91 2359.47,871.347 2358.29,869.394Z" style="fill:white;fill-rule:nonzero;"/>
                <path d="M2611,1120.47C2579.75,1120.47 2550.64,1111.39 2523.69,1093.22C2494.59,1074.08 2477.3,1049.77 2471.84,1020.27L2467.44,945.566L2467.73,886.094L2461.88,886.094C2452.3,886.094 2444.1,882.773 2437.26,876.133C2430.23,869.297 2426.72,860.898 2426.72,850.937C2426.72,841.367 2430.23,833.164 2437.26,826.328C2444.1,819.297 2452.3,815.781 2461.88,815.781L2467.73,815.781L2467.73,734.043C2467.73,724.472 2471.15,716.172 2477.99,709.14C2484.82,702.304 2493.12,698.887 2502.89,698.887C2512.66,698.887 2520.86,702.402 2527.5,709.433C2534.53,716.269 2538.05,724.472 2538.05,734.043L2537.75,815.781L2586.09,815.781C2595.66,815.781 2603.87,819.297 2610.7,826.328C2617.73,833.164 2621.25,841.367 2621.25,850.937C2621.25,860.898 2617.73,869.297 2610.7,876.133C2603.87,882.773 2595.66,886.094 2586.09,886.094L2537.75,886.094L2537.75,945.566C2537.75,947.715 2537.66,954.746 2537.46,966.66C2537.26,971.152 2537.17,975.156 2537.17,978.672C2537.17,982.383 2537.26,985.703 2537.46,988.633C2538.83,1005.62 2544.2,1018.32 2553.57,1026.72C2570.18,1042.34 2589.32,1050.16 2611,1050.16C2620.76,1050.16 2629.06,1053.48 2635.9,1060.12C2642.73,1067.15 2646.15,1075.55 2646.15,1085.31C2646.15,1095.08 2642.73,1103.38 2635.9,1110.21C2629.06,1117.05 2620.76,1120.47 2611,1120.47ZM2526.03,724.082C2522.52,717.441 2517.25,712.851 2510.22,710.312C2506.89,709.14 2503.67,708.554 2500.55,708.554C2497.81,708.554 2495.27,709.043 2492.93,710.019C2490.98,710.801 2488.83,712.461 2486.48,715C2485.7,716.562 2485.31,717.734 2485.31,718.515C2485.31,719.492 2486.29,719.98 2488.24,719.98L2488.83,719.98C2492.54,719.004 2495.86,718.515 2498.79,718.515C2508.16,718.515 2515.1,723.203 2519.59,732.578C2519.98,732.969 2520.37,733.164 2520.76,733.164C2521.74,733.164 2522.81,732.48 2523.98,731.113C2525.74,729.355 2526.62,727.89 2526.62,726.719L2526.62,726.426C2526.62,725.84 2526.43,725.058 2526.03,724.082ZM2609.24,839.512C2605.72,832.871 2600.45,828.281 2593.42,825.742C2590.1,824.57 2586.88,823.984 2583.75,823.984L2569.69,823.984C2568.12,825.742 2567.34,827.402 2567.34,828.965C2567.34,829.355 2567.44,829.844 2567.64,830.429C2568.42,832.383 2570.27,833.457 2573.2,833.652C2576.13,833.847 2579.06,833.945 2581.99,833.945C2591.37,833.945 2598.3,838.633 2602.79,848.008C2603.18,848.398 2603.57,848.594 2603.97,848.594C2604.94,848.594 2606.01,847.91 2607.19,846.543C2608.95,844.785 2609.82,843.32 2609.82,842.148L2609.82,841.855C2609.82,841.269 2609.63,840.488 2609.24,839.512Z" style="fill:white;fill-rule:nonzero;"/>
            </g>
            <g transform="matrix(0.797507,-0.162245,0.165047,0.811277,21.7949,877.222)">
                <g transform="matrix(0.998475,0.0546457,-0.0557565,0.998475,-771.241,-0.301186)">
                    <path d="M2985.45,769.199C2946.97,769.59 2913.86,783.359 2886.13,810.508C2858.59,838.242 2844.82,871.347 2844.82,909.824C2844.82,942.637 2855.47,972.129 2876.75,998.301C2898.04,1024.67 2924.8,1040.98 2957.03,1047.23C2966.79,1049.18 2976.36,1050.16 2985.74,1050.16C3012.5,1050.16 3038.08,1042.25 3062.5,1026.43C3095.31,1004.94 3115.43,975.449 3122.85,937.949C3124.8,928.379 3125.78,918.906 3125.78,909.531C3125.78,887.656 3120.5,866.269 3109.96,845.371C3094.72,815.683 3072.16,794.297 3042.28,781.211C3024.51,773.398 3005.56,769.394 2985.45,769.199ZM2986.03,698.887C3045.6,699.863 3095.5,721.054 3135.74,762.461C3160.15,787.265 3177.34,816.562 3187.3,850.351C3193.16,870.273 3196.09,890.293 3196.09,910.41C3196.09,924.277 3194.62,938.144 3191.7,952.012C3183.49,992.832 3164.25,1028.28 3133.98,1058.36C3103.9,1088.63 3068.45,1107.87 3027.63,1116.07C3013.76,1119 2999.9,1120.47 2986.03,1120.47C2965.72,1120.47 2945.31,1117.34 2924.8,1111.09C2890.62,1101.13 2861.13,1083.55 2836.32,1058.36C2806.25,1028.67 2787.11,992.734 2778.9,950.547C2776.17,936.289 2774.8,922.129 2774.8,908.066C2774.8,881.113 2780.07,854.746 2790.62,828.965C2806.64,790.097 2832.42,758.75 2867.97,734.922C2903.12,711.484 2941.79,699.472 2983.98,698.887L2986.03,698.887ZM3121.68,770.664C3112.3,755.625 3094.04,741.953 3066.89,729.648C3045.21,719.883 3027.05,715 3012.4,715C3009.08,715 3005.95,715.195 3003.02,715.586C2999.51,716.367 2997.75,717.441 2997.75,718.808C2997.75,721.152 2999.61,722.422 3003.32,722.617C3039.64,726.523 3077.53,744.101 3116.99,775.351C3118.75,777.109 3120.21,777.988 3121.38,777.988C3121.97,777.988 3122.46,777.695 3122.85,777.109C3123.24,776.719 3123.43,776.035 3123.43,775.058C3123.43,773.887 3122.85,772.422 3121.68,770.664Z" style="fill:rgb(255,58,106);fill-rule:nonzero;"/>
                </g>
                <g transform="matrix(1,0,0,1,-826.513,161.454)">
                    <path d="M3222.03,850.937C3222.03,841.367 3225.55,833.164 3232.58,826.328C3239.42,819.297 3247.62,815.781 3257.19,815.781C3274.77,815.781 3286,824.179 3290.88,840.976C3316.08,824.765 3343.91,816.562 3374.38,816.367C3405.04,816.367 3432.97,824.668 3458.17,841.269C3490.59,862.558 3512.07,893.613 3522.62,934.433C3525.16,944.004 3526.43,955.234 3526.43,968.125L3526.43,1085.31C3526.43,1095.08 3523.01,1103.38 3516.18,1110.21C3509.53,1117.05 3501.23,1120.47 3491.27,1120.47C3481.7,1120.47 3473.5,1117.05 3466.66,1110.21C3459.63,1103.38 3456.12,1095.08 3456.12,1085.31L3456.12,968.125C3456.12,951.719 3451.53,936.582 3442.35,922.715C3432.97,908.652 3420.86,898.594 3406.02,892.539C3395.67,888.242 3385.32,886.094 3374.97,886.094C3365.2,886.094 3355.34,888.047 3345.38,891.953C3325.06,899.57 3310.22,913.047 3300.84,932.383C3295.57,942.929 3292.74,954.844 3292.35,968.125L3292.35,1085.31C3292.35,1095.08 3288.93,1103.38 3282.09,1110.21C3275.26,1117.05 3266.96,1120.47 3257.19,1120.47C3247.62,1120.47 3239.42,1117.05 3232.58,1110.21C3225.55,1103.38 3222.03,1095.08 3222.03,1085.31L3222.03,850.937ZM3468.72,871.445C3459.93,856.992 3446.06,846.347 3427.11,839.512C3415,835.019 3403.28,832.773 3391.96,832.773C3386.49,832.773 3381.22,833.262 3376.14,834.238C3372.62,834.824 3370.86,835.898 3370.86,837.461L3370.86,837.754C3370.86,839.902 3372.62,841.172 3376.14,841.562C3409.73,844.883 3439.12,856.504 3464.32,876.426C3466.08,877.988 3467.54,878.769 3468.72,878.769C3469.3,878.769 3469.79,878.574 3470.18,878.183C3470.76,877.597 3471.06,877.012 3471.06,876.426C3471.06,875.058 3470.28,873.398 3468.72,871.445ZM3280.34,839.219C3276.82,832.578 3271.55,827.988 3264.51,825.449C3261.2,824.277 3257.97,823.691 3254.85,823.691C3252.11,823.691 3249.57,824.179 3247.23,825.156C3245.28,825.937 3243.23,827.793 3241.08,830.722C3240.1,831.894 3239.61,832.871 3239.61,833.652C3239.61,834.629 3240.59,835.117 3242.54,835.117L3243.13,835.117C3246.84,834.14 3250.16,833.652 3253.09,833.652C3262.47,833.652 3269.4,838.34 3273.89,847.715C3274.28,848.105 3274.67,848.301 3275.06,848.301C3276.04,848.301 3277.11,847.617 3278.28,846.25C3280.04,844.492 3280.92,843.027 3280.92,841.855L3280.92,841.562C3280.92,840.976 3280.73,840.195 3280.34,839.219Z" style="fill:rgb(255,58,106);fill-rule:nonzero;"/>
                </g>
                <g transform="matrix(0.935925,1.82725e-17,6.64772e-18,0.971851,-570.164,192.671)">
                    <path d="M3613.61,967.832C3613.61,977.597 3610.19,985.996 3603.35,993.027C3596.51,999.668 3588.22,1002.99 3578.45,1002.99C3568.88,1002.99 3560.68,999.668 3553.84,993.027C3547,985.996 3543.59,977.597 3543.59,967.832L3543.59,734.043C3543.59,724.472 3547,716.269 3553.84,709.433C3560.68,702.402 3568.88,698.887 3578.45,698.887C3588.22,698.887 3596.51,702.402 3603.35,709.433C3610.19,716.269 3613.61,724.472 3613.61,734.043L3613.61,967.832ZM3578.45,1120.47C3568.88,1120.47 3560.68,1117.05 3553.84,1110.21C3547,1103.18 3543.59,1094.88 3543.59,1085.31C3543.59,1075.74 3547,1067.54 3553.84,1060.7C3560.68,1053.67 3568.88,1050.16 3578.45,1050.16C3588.22,1050.16 3596.51,1053.67 3603.35,1060.7C3610.19,1067.54 3613.61,1075.74 3613.61,1085.31C3613.61,1094.88 3610.19,1103.18 3603.35,1110.21C3596.51,1117.05 3588.22,1120.47 3578.45,1120.47ZM3601.89,723.496C3598.37,716.855 3593.1,712.168 3586.07,709.433C3582.75,708.262 3579.62,707.676 3576.69,707.676C3573.76,707.676 3571.12,708.164 3568.78,709.14C3567.22,709.922 3566.44,710.605 3566.44,711.191L3566.44,712.07C3566.44,713.047 3567.22,713.535 3568.78,713.535C3580.89,713.535 3591.24,717.734 3599.84,726.133C3600.62,726.719 3601.2,727.012 3601.59,727.012C3601.79,727.012 3601.98,726.914 3602.18,726.719C3602.57,726.523 3602.76,726.328 3602.76,726.133C3602.76,725.351 3602.47,724.472 3601.89,723.496ZM3605.11,1072.42C3601.59,1065.78 3596.32,1061.19 3589.29,1058.65C3585.97,1057.48 3582.75,1056.89 3579.62,1056.89C3576.89,1056.89 3574.35,1057.38 3572,1058.36C3570.05,1059.14 3568,1061 3565.85,1063.93C3564.88,1065.1 3564.39,1066.07 3564.39,1066.86C3564.39,1067.83 3565.36,1068.32 3567.32,1068.32L3567.9,1068.32C3571.61,1067.34 3574.93,1066.86 3577.86,1066.86C3587.24,1066.86 3594.17,1071.54 3598.66,1080.92C3599.06,1081.31 3599.45,1081.5 3599.84,1081.5C3600.81,1081.5 3601.89,1080.82 3603.06,1079.45C3604.82,1077.69 3605.7,1076.23 3605.7,1075.06L3605.7,1074.77C3605.7,1074.18 3605.5,1073.4 3605.11,1072.42Z" style="fill:rgb(255,58,106);fill-rule:nonzero;"/>
                </g>
            </g>
            <g transform="matrix(0.454938,-0.103328,0.103328,0.454938,-444.513,910.904)">
                <path d="M3894.6,918.613L3986.59,826.328C3993.43,819.297 4001.73,815.781 4011.49,815.781C4021.06,815.781 4029.26,819.297 4036.1,826.328C4042.94,833.164 4046.36,841.367 4046.36,850.937C4046.36,860.898 4042.94,869.297 4036.1,876.133L3944.11,968.125L4036.1,1060.12C4042.94,1067.15 4046.36,1075.55 4046.36,1085.31C4046.36,1094.88 4042.94,1103.18 4036.1,1110.21C4029.26,1117.05 4021.06,1120.47 4011.49,1120.47C4001.73,1120.47 3993.43,1117.05 3986.59,1110.21L3894.6,1017.64L3802.02,1110.21C3795.18,1117.05 3786.98,1120.47 3777.41,1120.47C3767.64,1120.47 3759.34,1117.05 3752.51,1110.21C3745.67,1103.18 3742.25,1094.88 3742.25,1085.31C3742.25,1075.55 3745.67,1067.15 3752.51,1060.12L3844.5,968.125L3752.51,876.133C3745.67,869.297 3742.25,860.898 3742.25,850.937C3742.25,841.367 3745.67,833.164 3752.51,826.328C3759.34,819.297 3767.64,815.781 3777.41,815.781C3786.98,815.781 3795.18,819.297 3802.02,826.328L3894.6,918.613ZM4036.98,840.39C4033.47,833.75 4028.19,829.16 4021.16,826.621C4017.84,825.449 4014.62,824.863 4011.49,824.863C4008.76,824.863 4006.22,825.351 4003.88,826.328C4001.92,827.109 3999.77,828.769 3997.43,831.308C3996.65,832.871 3996.26,834.043 3996.26,834.824C3996.26,835.801 3997.23,836.289 3999.19,836.289L3999.77,836.289C4003.48,835.312 4006.81,834.824 4009.73,834.824C4019.11,834.824 4026.04,839.512 4030.54,848.887C4030.93,849.277 4031.32,849.472 4031.71,849.472C4032.68,849.472 4033.76,848.789 4034.93,847.422C4036.69,845.664 4037.57,844.199 4037.57,843.027L4037.57,842.734C4037.57,842.148 4037.37,841.367 4036.98,840.39ZM3752.51,842.441C3752.12,843.418 3751.92,844.199 3751.92,844.785L3751.92,845.078C3751.92,846.25 3752.8,847.715 3754.56,849.472C3755.73,850.84 3756.81,851.523 3757.78,851.523C3758.17,851.523 3758.56,851.328 3758.95,850.937C3763.45,841.562 3770.38,836.875 3779.75,836.875C3782.68,836.875 3786,837.363 3789.72,838.34L3790.3,838.34C3792.25,838.34 3793.23,837.851 3793.23,836.875C3793.23,836.094 3792.84,834.922 3792.06,833.359C3789.72,830.82 3787.57,829.16 3785.61,828.379C3783.27,827.402 3780.73,826.914 3778,826.914C3774.87,826.914 3771.65,827.5 3768.33,828.672C3761.3,831.211 3756.02,835.801 3752.51,842.441Z" style="fill:rgb(255,58,106);fill-rule:nonzero;"/>
            </g>
        </g>
    </g>
</svg>
