<?xml version="1.0" encoding="UTF-8" standalone="no"?>
<!DOCTYPE svg PUBLIC "-//W3C//DTD SVG 1.1//EN" "http://www.w3.org/Graphics/SVG/1.1/DTD/svg11.dtd">
<svg width="100%" height="100%" viewBox="0 0 249 180" version="1.1" xmlns="http://www.w3.org/2000/svg" xmlns:xlink="http://www.w3.org/1999/xlink" xml:space="preserve" xmlns:serif="http://www.serif.com/" style="fill-rule:evenodd;clip-rule:evenodd;stroke-linecap:square;stroke-linejoin:round;stroke-miterlimit:1.41421;">
    <g transform="matrix(1,0,0,1,-1159.21,-93.0537)">
        <g transform="matrix(0.876449,0,0,0.876449,288.199,-128.672)">
            <g transform="matrix(0.970147,-0.242518,0.242518,0.970147,-401.53,325.837)">
                <g>
                    <g transform="matrix(128.845,0,0,128.845,1403.12,484.699)">
                        <path d="M0.243,0.012C0.39,0.012 0.491,-0.08 0.515,-0.215C0.518,-0.23 0.519,-0.246 0.519,-0.26C0.519,-0.376 0.436,-0.458 0.311,-0.458C0.164,-0.458 0.062,-0.364 0.039,-0.231C0.036,-0.215 0.035,-0.2 0.035,-0.185C0.035,-0.069 0.118,0.012 0.243,0.012ZM0.251,-0.084C0.185,-0.084 0.145,-0.127 0.145,-0.191C0.145,-0.201 0.146,-0.211 0.148,-0.222C0.161,-0.301 0.219,-0.362 0.302,-0.362C0.369,-0.362 0.409,-0.318 0.409,-0.254C0.409,-0.244 0.408,-0.234 0.406,-0.224C0.391,-0.141 0.334,-0.084 0.251,-0.084Z" style="fill:rgb(204,56,106);fill-rule:nonzero;stroke:rgb(204,56,106);stroke-width:0.11px;"/>
                    </g>
                    <g transform="matrix(128.845,0,0,128.845,1478.9,484.699)">
                        <path d="M0.347,-0.458C0.278,-0.458 0.223,-0.421 0.186,-0.374L0.176,-0.446L0.103,-0.446L0.024,0L0.134,0L0.174,-0.229C0.187,-0.303 0.233,-0.36 0.303,-0.36C0.347,-0.36 0.368,-0.337 0.368,-0.297C0.368,-0.29 0.368,-0.281 0.366,-0.272L0.318,0L0.427,0L0.476,-0.277C0.479,-0.295 0.481,-0.312 0.481,-0.327C0.481,-0.413 0.432,-0.458 0.347,-0.458Z" style="fill:rgb(204,56,106);fill-rule:nonzero;stroke:rgb(204,56,106);stroke-width:0.11px;"/>
                    </g>
                    <g transform="matrix(206.123,50.5766,-55.6151,226.657,1544.57,485.212)">
                        <path d="M0.081,-0.215L0.18,-0.215L0.211,-0.367L0.28,-0.707L0.155,-0.707L0.081,-0.215ZM0.101,-0.01C0.137,-0.01 0.17,-0.031 0.17,-0.074C0.169,-0.106 0.143,-0.126 0.108,-0.126C0.073,-0.127 0.039,-0.105 0.039,-0.063C0.04,-0.031 0.064,-0.012 0.097,-0.01C0.098,-0.01 0.1,-0.01 0.101,-0.01Z" style="fill:rgb(204,56,106);fill-rule:nonzero;stroke:white;stroke-width:0.03px;"/>
                    </g>
                    <g transform="matrix(1,0,0,1,3.26718,-0.416053)">
                        <g transform="matrix(128.845,0,0,128.845,1401.55,487.367)">
                            <path d="M0.243,0.012C0.39,0.012 0.491,-0.08 0.515,-0.215C0.518,-0.23 0.519,-0.246 0.519,-0.26C0.519,-0.376 0.436,-0.458 0.311,-0.458C0.164,-0.458 0.062,-0.364 0.039,-0.231C0.036,-0.215 0.035,-0.2 0.035,-0.185C0.035,-0.069 0.118,0.012 0.243,0.012ZM0.251,-0.084C0.185,-0.084 0.145,-0.127 0.145,-0.191C0.145,-0.201 0.146,-0.211 0.148,-0.222C0.161,-0.301 0.219,-0.362 0.302,-0.362C0.369,-0.362 0.409,-0.318 0.409,-0.254C0.409,-0.244 0.408,-0.234 0.406,-0.224C0.391,-0.141 0.334,-0.084 0.251,-0.084Z" style="fill:white;fill-rule:nonzero;stroke:white;stroke-width:0.02px;stroke-linecap:butt;"/>
                        </g>
                        <g transform="matrix(128.845,0,0,128.845,1477.33,487.367)">
                            <path d="M0.347,-0.458C0.278,-0.458 0.223,-0.421 0.186,-0.374L0.176,-0.446L0.103,-0.446L0.024,0L0.134,0L0.174,-0.229C0.187,-0.303 0.233,-0.36 0.303,-0.36C0.347,-0.36 0.368,-0.337 0.368,-0.297C0.368,-0.29 0.368,-0.281 0.366,-0.272L0.318,0L0.427,0L0.476,-0.277C0.479,-0.295 0.481,-0.312 0.481,-0.327C0.481,-0.413 0.432,-0.458 0.347,-0.458Z" style="fill:white;fill-rule:nonzero;stroke:white;stroke-width:0.02px;stroke-linecap:butt;"/>
                        </g>
                        <g transform="matrix(206.123,50.5766,-55.6151,226.657,1539.57,484.661)">
                            <path d="M0.081,-0.215L0.18,-0.215L0.28,-0.707L0.155,-0.707L0.081,-0.215ZM0.101,-0.01C0.137,-0.01 0.17,-0.031 0.17,-0.074C0.169,-0.106 0.143,-0.126 0.108,-0.126C0.073,-0.127 0.039,-0.105 0.039,-0.063C0.04,-0.03 0.066,-0.01 0.101,-0.01Z" style="fill:rgb(204,56,106);fill-rule:nonzero;stroke:white;stroke-width:0.01px;stroke-linecap:butt;"/>
                        </g>
                    </g>
                </g>
            </g>
            <g transform="matrix(1.63351,-0.408347,0.181412,0.725704,-1245.85,773.903)">
                <g transform="matrix(68.1314,-16.1152,7.15934,153.359,1348.64,285.166)">
                    <path d="M0.62,-0.459C0.623,-0.473 0.624,-0.487 0.624,-0.501C0.624,-0.61 0.539,-0.68 0.426,-0.68L0.164,-0.68L0.044,0L0.161,0L0.207,-0.259L0.314,-0.259L0.436,0L0.563,0L0.563,-0.003L0.432,-0.27C0.535,-0.295 0.603,-0.36 0.62,-0.459ZM0.507,-0.467C0.495,-0.397 0.434,-0.357 0.357,-0.357L0.224,-0.357L0.263,-0.579L0.405,-0.579C0.47,-0.579 0.509,-0.542 0.509,-0.488C0.509,-0.481 0.508,-0.474 0.507,-0.467Z" style="fill:rgb(204,56,106);fill-rule:nonzero;stroke:rgb(204,56,106);stroke-width:0.1px;stroke-miterlimit:2;"/>
                </g>
                <g transform="matrix(67.3155,0,2.1028e-15,151.523,1408.49,234.123)">
                    <path d="M0.472,-0.446L0.438,-0.379C0.407,-0.43 0.353,-0.457 0.285,-0.457C0.157,-0.457 0.064,-0.365 0.04,-0.233C0.037,-0.214 0.035,-0.197 0.035,-0.179C0.035,-0.069 0.103,0.008 0.216,0.008C0.273,0.008 0.326,-0.011 0.37,-0.05C0.364,-0.028 0.359,-0.005 0.355,0.016C0.34,0.092 0.283,0.134 0.199,0.134C0.145,0.134 0.1,0.115 0.06,0.079L0.008,0.159C0.059,0.207 0.125,0.232 0.203,0.232C0.333,0.232 0.438,0.169 0.463,0.026L0.545,-0.446L0.472,-0.446ZM0.402,-0.225C0.387,-0.144 0.333,-0.085 0.25,-0.085C0.189,-0.085 0.146,-0.123 0.146,-0.19C0.146,-0.201 0.147,-0.211 0.149,-0.223C0.164,-0.309 0.223,-0.361 0.298,-0.361C0.369,-0.361 0.405,-0.316 0.405,-0.255C0.405,-0.245 0.404,-0.235 0.402,-0.225Z" style="fill:rgb(204,56,106);fill-rule:nonzero;stroke:rgb(204,56,106);stroke-width:0.11px;stroke-miterlimit:2;"/>
                </g>
                <g transform="matrix(68.5065,0,4.28001e-15,154.204,1447.14,234.162)">
                    <path d="M0.025,0L0.135,0L0.175,-0.23C0.187,-0.299 0.234,-0.36 0.304,-0.36C0.347,-0.36 0.369,-0.336 0.369,-0.297C0.369,-0.29 0.368,-0.283 0.367,-0.275L0.318,0L0.428,0L0.477,-0.277C0.48,-0.294 0.481,-0.31 0.481,-0.325C0.481,-0.408 0.437,-0.458 0.348,-0.458C0.287,-0.458 0.237,-0.43 0.199,-0.389C0.207,-0.421 0.213,-0.447 0.218,-0.475L0.261,-0.72L0.152,-0.72L0.025,0Z" style="fill:rgb(204,56,106);fill-rule:nonzero;stroke:rgb(204,56,106);stroke-width:0.1px;stroke-miterlimit:2;"/>
                </g>
                <g transform="matrix(68.5065,0,2.14001e-15,154.204,1484.35,235.214)">
                    <path d="M0.201,0.01C0.246,0.01 0.289,-0.001 0.332,-0.028L0.305,-0.114C0.277,-0.097 0.254,-0.09 0.231,-0.09C0.206,-0.09 0.191,-0.1 0.191,-0.126C0.191,-0.132 0.192,-0.138 0.193,-0.145L0.229,-0.354L0.367,-0.354L0.383,-0.446L0.245,-0.446L0.27,-0.589L0.163,-0.589L0.135,-0.446L0.053,-0.446L0.038,-0.359L0.119,-0.354L0.082,-0.14C0.08,-0.127 0.079,-0.115 0.079,-0.104C0.079,-0.028 0.13,0.01 0.201,0.01Z" style="fill:rgb(204,56,106);fill-rule:nonzero;stroke:rgb(204,56,106);stroke-width:0.1px;stroke-miterlimit:2;"/>
                </g>
                <g transform="matrix(1,4.44089e-16,6.93889e-17,1,-0.432097,1.21711)">
                    <g transform="matrix(68.1314,-16.1152,7.15934,153.359,1350.53,286.171)">
                        <path d="M0.62,-0.459C0.623,-0.473 0.624,-0.487 0.624,-0.501C0.624,-0.61 0.539,-0.68 0.426,-0.68L0.164,-0.68L0.044,0L0.161,0L0.207,-0.259L0.314,-0.259L0.436,0L0.563,0L0.563,-0.003L0.432,-0.27C0.535,-0.295 0.603,-0.36 0.62,-0.459ZM0.507,-0.467C0.495,-0.397 0.434,-0.357 0.357,-0.357L0.224,-0.357L0.263,-0.579L0.405,-0.579C0.47,-0.579 0.509,-0.542 0.509,-0.488C0.509,-0.481 0.508,-0.474 0.507,-0.467Z" style="fill:white;fill-rule:nonzero;stroke:white;stroke-width:0.02px;stroke-miterlimit:2;"/>
                    </g>
                    <g transform="matrix(67.3155,0,0,151.523,1410.25,235.437)">
                        <path d="M0.472,-0.446L0.438,-0.379C0.407,-0.43 0.353,-0.457 0.285,-0.457C0.157,-0.457 0.064,-0.365 0.04,-0.233C0.037,-0.214 0.035,-0.197 0.035,-0.179C0.035,-0.069 0.103,0.008 0.216,0.008C0.273,0.008 0.326,-0.011 0.37,-0.05C0.364,-0.028 0.359,-0.005 0.355,0.016C0.34,0.092 0.283,0.134 0.199,0.134C0.145,0.134 0.1,0.115 0.06,0.079L0.008,0.159C0.059,0.207 0.125,0.232 0.203,0.232C0.333,0.232 0.438,0.169 0.463,0.026L0.545,-0.446L0.472,-0.446ZM0.402,-0.225C0.387,-0.144 0.333,-0.085 0.25,-0.085C0.189,-0.085 0.146,-0.123 0.146,-0.19C0.146,-0.201 0.147,-0.211 0.149,-0.223C0.164,-0.309 0.223,-0.361 0.298,-0.361C0.369,-0.361 0.405,-0.316 0.405,-0.255C0.405,-0.245 0.404,-0.235 0.402,-0.225Z" style="fill:white;fill-rule:nonzero;stroke:white;stroke-width:0.02px;stroke-miterlimit:2;"/>
                    </g>
                    <g transform="matrix(65.7426,-43.359,19.2627,147.982,1395.89,236.153)">
                        <path d="M0.182,-0.59C0.224,-0.59 0.252,-0.625 0.252,-0.662C0.252,-0.695 0.23,-0.722 0.19,-0.722C0.147,-0.722 0.121,-0.686 0.121,-0.649C0.121,-0.617 0.143,-0.59 0.182,-0.59ZM0.031,-0.036L0.14,-0.036L0.213,-0.446L0.104,-0.446L0.031,-0.036Z" style="fill:rgb(204,56,106);fill-rule:nonzero;stroke:white;stroke-width:0.06px;stroke-miterlimit:2;"/>
                    </g>
                    <g transform="matrix(65.7426,-43.359,19.2627,147.982,1397.42,237.57)">
                        <path d="M0.182,-0.59C0.224,-0.59 0.252,-0.625 0.252,-0.662C0.252,-0.695 0.23,-0.722 0.19,-0.722C0.147,-0.722 0.121,-0.686 0.121,-0.649C0.121,-0.617 0.143,-0.59 0.182,-0.59ZM0.033,-0.047L0.142,-0.047L0.213,-0.446L0.104,-0.446L0.033,-0.047Z" style="fill:rgb(204,56,106);fill-rule:nonzero;"/>
                    </g>
                    <g transform="matrix(68.5065,0,0,154.204,1448.93,235.499)">
                        <path d="M0.025,0L0.135,0L0.175,-0.23C0.187,-0.299 0.234,-0.36 0.304,-0.36C0.347,-0.36 0.369,-0.336 0.369,-0.297C0.369,-0.29 0.368,-0.283 0.367,-0.275L0.318,0L0.428,0L0.477,-0.277C0.48,-0.294 0.481,-0.31 0.481,-0.325C0.481,-0.408 0.437,-0.458 0.348,-0.458C0.287,-0.458 0.237,-0.43 0.199,-0.389C0.207,-0.421 0.213,-0.447 0.218,-0.475L0.261,-0.72L0.152,-0.72L0.025,0Z" style="fill:white;fill-rule:nonzero;stroke:white;stroke-width:0.02px;stroke-miterlimit:2;"/>
                    </g>
                    <g transform="matrix(68.5065,0,0,154.204,1486.13,236.551)">
                        <path d="M0.201,0.01C0.246,0.01 0.289,-0.001 0.332,-0.028L0.305,-0.114C0.277,-0.097 0.254,-0.09 0.231,-0.09C0.206,-0.09 0.191,-0.1 0.191,-0.126C0.191,-0.132 0.192,-0.138 0.193,-0.145L0.229,-0.354L0.367,-0.354L0.383,-0.446L0.245,-0.446L0.27,-0.589L0.163,-0.589L0.135,-0.446L0.053,-0.446L0.038,-0.359L0.119,-0.354L0.082,-0.14C0.08,-0.127 0.079,-0.115 0.079,-0.104C0.079,-0.028 0.13,0.01 0.201,0.01Z" style="fill:white;fill-rule:nonzero;stroke:white;stroke-width:0.02px;stroke-miterlimit:2;"/>
                    </g>
                </g>
            </g>
        </g>
    </g>
</svg>
