<svg version="1.2" xmlns="http://www.w3.org/2000/svg" viewBox="0 0 1450 800" width="1450" height="800"><style>tspan{white-space:pre}.a{fill:#fff}.b{fill:#ff3a6a}.c{font-size: 70px;fill: #ffffff;font-weight: 900;font-family: "Fulbo-Argenta", "Fulbo Argenta"}</style><path fill-rule="evenodd" class="a" d="m125.2 522.5l25.6 125.5q2.5 12.5-4.5 23.1-7 10.5-19.3 13-12.5 2.6-23.1-4.4-10.6-7-13.1-19.5l-61.2-300.9q-2.4-12.8 4.5-22.8 7-10.3 19.5-13.4l187.9-38.2q60.6-10.5 97.7 30.8 19.3 21.4 25 49.5 2.1 10.6 2.3 21.8 0.9 42.9-25.4 71.7-20.6 22-54.3 30.7l86.7 97.8q5.3 6.5 6.9 14.3 0.7 3.8 0.8 7.9-0.8 12.8-10.6 21-6.2 5.7-13.7 7.2-4 0.9-8.5 0.5-12.7-0.6-20.9-10.2l-109.9-124.2zm-12.3-60.2l158.1-32.1q30-6.4 33.9-33.8 1.1-8.6-0.6-16.9-2-9.8-8.1-19-12.1-18.4-31.6-16.8l-10.9 1.4-158.1 32.2zm208-143.7q-29.8-31-77.2-21.4-5.8 1.2-11.7 2.9-4.4 1.7-3.9 3.9 0.6 3 5.4 2.1 38.1-6.2 84.1 17.9 2.8 1.2 4.3 0.9 0.5-0.1 1.1-1 0.4-0.6 0.2-1.6-0.3-1.5-2.3-3.7z"/><path fill-rule="evenodd" class="a" d="m473 478.4q2.5 12.3-4.4 22.9-7 10.8-19.5 13.3-12.3 2.5-22.9-4.7-10.6-7-13.1-19.3l-40.9-200.9q-2.5-12.3 4.5-22.9 6.9-10.8 19.2-13.3 12.6-2.6 23.2 4.7 10.6 7 13.1 19.3zm-52.6-207q-6.2-7.6-15.9-9-4.6-0.7-8.6 0.1-3.5 0.8-6.3 2.6-2.3 1.5-2.1 2.3-1.2 4.4-0.9 6.2 0.2 1 1.2 0.8 4.5-2.2 8.3-3 12.1-2.5 20.3 8.4 1.2 0.8 1.7 0.7 2.9-6.1 3.1-6.4 0.2-0.3 0.1-0.8-0.1-0.7-0.9-1.9z"/><path fill-rule="evenodd" class="a" d="m542.2 464.6q-6.2-3.4-12.5-7.9-43.5-30.1-54.2-82.5l-0.4-1.8q-10.4-54 19.2-98.4 22.1-33.8 60-49.3 12.6-5 25.4-7.6 25.3-5.1 51.6-0.3 39 7.8 67.8 36.4 28.3 28.7 36.5 67.6 7.7 38.1-6.9 75.3-14.7 37.2-46.2 59.5-22.9 15.9-50.6 22.1-27 9.7-36.7 20-15.5 15.2-19.6 36.9-2.4 14.1 0.3 27.6 1.5 7.1 4.2 13.8 9.6 23.2 32.7 34.9 22.5 12.2 47.6 7.1 12.3-2.5 22.9 4.5 10.9 7.1 13.4 19.4 2.5 12.3-4.7 23.2-7 10.6-19.3 13.1-39.2 7.7-76.8-7.4-38.1-15.5-59.9-48.2-15-22-20.1-47.1-2.7-13.3-2.6-27.2-0.2-40.7 21.8-73.9 3.4-5.1 7.1-9.8zm77.5-47.1q28.7-6.4 44.9-30.8 16.6-24.8 10.8-53.7-5-24.6-24.8-40.9-20.1-16.3-45.2-16.5-7.8 0.1-15.1 1.6-19.8 4-35.5 19.5-21.2 21.3-21.3 50.5 0 7.9 1.5 14.9 4.8 23.8 25.1 40.1 26.3 21.3 59.6 15.3zm47.8-169.1q-15.5-16.2-41.6-20-16.5-2.7-31.3 0.3-6.8 1.4-13.3 4-4.4 1.7-4 3.7l0.1 0.3q0.5 2.7 5.2 2.3 44.2-4.5 81.6 14.5 2.9 1.5 4.4 1.2 0.5-0.1 1.1-0.8 0.4-0.8 0.2-1.8-0.3-1.5-2.4-3.7zm17 386.6q-6.2-7.6-15.9-9-4.6-0.7-8.6 0.1-3.5 0.8-6.3 2.6-2.3 1.5-4.3 5.9-0.9 1.7-0.7 2.7 0.3 1.3 2.8 0.8l0.5-0.1q4.5-2.3 8.2-3 12.1-2.5 20.3 8.4 0.6 0.4 1.1 0.3 1.3-0.3 2.4-2.3 1.8-2.7 1.5-4.2l-0.1-0.3q-0.1-0.7-0.9-1.9z"/><path fill-rule="evenodd" class="a" d="m717 115.5q-2.5-12.3 4.4-22.8 7.2-10.9 19.5-13.4 12.3-2.5 23.2 4.7 10.6 7 13.1 19.3l18.5 91q28.8-27.8 65.2-35.2 13.3-2.7 27.4-2.7 39.7-0.2 73 22.5 31.9 21.8 49 58.5l8.1 25.6 20.4 100.3q2.6 12.6-4.4 23.1-7.3 10.6-19.6 13.1-12.3 2.5-23.1-4.4-10.5-7-13.1-19.5l-20.4-100.4q-13.6-47.7-55.8-56-14.2-2.9-27.7-0.2-7.3 1.5-14 4.5-20.2 8.5-32.3 26.4-7.7 12-10.5 25.4-1.2 5.7 0.1 28.4l20.4 100.4q2.5 12.5-4.5 23.1-7.2 10.6-19.5 13.1-12.3 2.5-23.1-4.4-10.6-7-13.1-19.6zm47.9-18.6q-6.3-7.6-16-9-4.5-0.7-8.5 0.1-3.6 0.8-6.3 2.6-2.3 1.5-4.3 5.9-1 1.7-0.8 2.7 0.3 1.3 2.8 0.8l0.5-0.1q4.5-2.3 8.3-3 12-2.5 20.3 8.4 0.6 0.4 1.1 0.3 1.2-0.3 2.4-2.3 1.8-2.7 1.5-4.2l-0.1-0.3q-0.1-0.7-0.9-1.9zm184.9 92q-15.6-16.2-41.7-20-16.5-2.7-31.3 0.3-6.8 1.4-13.3 4-4.4 1.7-3.9 3.7v0.3q0.6 2.7 5.2 2.3 44.3-4.5 81.6 14.5 2.9 1.5 4.4 1.2 0.5-0.1 1.2-0.8 0.3-0.8 0.1-1.8-0.3-1.5-2.3-3.7z"/><path fill-rule="evenodd" class="a" d="m1209.9 359.9q-40.1 8.1-79.5-8.2-42.4-16.9-57.1-53.4l-16.8-63.2-10.1-51-5 1q-12.3 2.5-22.8-4.2-10.8-7-13.4-19.8-2.5-12.3 4.7-22.9 6.9-10.8 19.2-13.3l5.1-1-14.3-70q-2.5-12.3 4.5-23.1 6.9-10.6 19.5-13.1 12.5-2.6 22.9 4.7 10.8 6.9 13.3 19.2l14 70.1 41.4-8.4q12.3-2.5 22.9 4.7 10.8 7 13.3 19.3 2.6 12.7-4.6 23.4-7 10.3-19.3 12.8l-41.4 8.4 10.3 50.9q0.6 2.8 3.5 18.1 0.9 5.9 1.8 10.4 1 4.8 2 8.5 6.2 21.4 20.4 29.8 25.4 15.7 53.3 10 12.5-2.5 23 4.2 10.6 7.3 13.2 19.8 2.6 12.6-4.4 23.1-7 10.6-19.6 13.2zm-141.8-324.7q-6.2-7.6-15.9-9-4.6-0.7-8.6 0.1-3.5 0.8-6.3 2.6-2.3 1.5-4.6 5.4-0.6 2.2-0.4 3.2 0.2 1.3 2.7 0.8l0.5-0.1q4.5-2.2 8.3-3 12-2.5 20.3 8.4 0.6 0.4 1.1 0.3 1.2-0.3 2.4-2.3 1.8-2.7 1.5-4.2l-0.1-0.3q-0.1-0.7-0.9-1.9zm91.4 84.4q-6.3-7.7-16-9.1-4.5-0.6-8.6 0.2l-12 2.5q-1.6 2.6-1.1 4.6 0.1 0.5 0.5 1.2 1.5 2.3 5.3 1.8 3.8-0.5 7.6-1.3 12-2.4 20.2 8.5 0.6 0.4 1.1 0.3 1.3-0.3 2.4-2.4 1.8-2.7 1.5-4.2v-0.2q-0.2-0.8-0.9-1.9z"/><path fill-rule="evenodd" class="b" d="m844.4 434.6q72.2-9.3 128.2 34.5 34 26.2 52.1 65.9 10.7 23.5 14.3 48.2 2.5 17 1.5 34.6-2.5 51.6-33.7 93.9-30.8 42.5-78.7 59.8-16.2 6-33 8.5-24.5 3.5-50.4-0.5-43.1-6.2-77.6-32.8-41.7-31.2-59.2-81.6-5.9-17-8.4-34.3-4.9-33.1 3.2-66.6 12.3-50.6 51-86.2 38.2-35 89.1-43.1zm8 57.6q-46.5 7.3-75 45.6-28.3 38.9-21.4 86.2 6 40.3 36.4 68.7 30.5 28.6 70.5 30.6 12.2 0.7 23.5-1 32.3-4.7 59-28.4 35.7-32.2 37.9-79.6 0.6-12.1-1-23.6-4-26.9-20.5-50.7-23.8-33.8-62.2-44.6-22.9-6.5-47.2-3.2zm109.8-14.8q-14-16.8-49-27.1-28-8.2-45.7-5.6-4 0.6-7.4 1.6-4.1 1.5-3.9 3.2 0.4 2.9 4.9 2.5 44.6-1.6 97.9 29.8 2.5 1.9 3.9 1.6 0.7-0.1 1.1-0.8 0.4-0.6 0.2-1.8-0.2-1.4-2-3.4z"/><path fill-rule="evenodd" class="b" d="m1048.3 521.3q-2.4-11.6 4.4-21.7 6.4-10.2 17.8-12.5 21.1-4.3 31.1 15 26.1-25.9 62.5-33.5 36.7-7.5 70.9 6.6 44.1 18 66.8 65.1 5.4 11 8.6 26.7l19.3 95.1q2.5 11.9-4 21.8-6.3 10-18.2 12.4-11.4 2.3-21.3-4.3-10.1-6.6-12.5-18.5l-19.4-95.1q-4-19.9-18.4-34.6-14.8-14.8-34-18.6-13.4-2.7-25.8-0.2-11.7 2.4-22.7 9.6-22.4 14.2-28.8 40-3.7 14.1-0.9 30.4l19.4 95.1q2.4 11.8-4.1 21.8-6.5 10-18.2 12.4-11.4 2.3-21.3-4.3-10.1-6.6-12.5-18.5zm200.1-23.4q-14.1-15.5-38.5-19.2-15.6-2.5-29.1 0.3-6.5 1.3-12.4 3.7-4 1.6-3.7 3.5l0.1 0.2q0.5 2.6 4.8 2.3 41-4.2 76.1 13.9 2.5 1.5 3.9 1.2 0.7-0.1 1.1-0.7 0.5-0.8 0.4-1.6-0.3-1.6-2.7-3.6zm-155.6 4.4q-5.8-7.2-14.8-8.6-4.3-0.6-8 0.1-3.3 0.7-5.9 2.5-2.1 1.4-4 5.5-0.8 1.6-0.7 2.6 0.3 1.2 2.6 0.7l0.5-0.1q4.2-2.1 7.7-2.8 11.2-2.3 18.9 8 0.6 0.4 1 0.3 1.2-0.2 2.3-2.2 1.6-2.5 1.3-4v-0.2q-0.1-0.7-0.9-1.8z"/><path fill-rule="evenodd" class="b" d="m1400.3 551.8q2.4 11.6-3.6 21.4-6.1 9.5-17 11.7-10.7 2.2-20-4.1-9.3-6.8-11.6-18.3l-37.5-184.4q-2.4-11.3 3.7-20.9 5.9-9.9 16.6-12.1 11-2.2 20.3 4.6 9.3 6.5 11.6 17.8zm-1.7 125.7q-10.8 2.2-20.1-4.4-9.3-6.7-11.6-18-2.3-11.4 3.7-21 6-9.9 16.7-12.1 10.9-2.2 20.3 4.6 9.3 6.5 11.6 17.8 2.3 11.3-3.7 21.2-6 9.7-16.9 11.9zm-46.2-316.6q-5.6-7-14.1-8.7-4-0.6-7.3 0.1-3.2 0.7-5.6 2.3-1.6 1.3-1.5 2l0.2 0.7q0.2 1.2 2 0.8 13.5-2.8 25.2 5.2 1 0.5 1.4 0.5 0.2-0.1 0.4-0.4 0.4-0.3 0.4-0.5-0.2-0.9-1.1-2zm58.4 274.7q-5.6-7.1-14.1-8.5-4-0.6-7.5 0.1-3 0.6-5.4 2.3-2 1.4-3.7 5.3-0.8 1.6-0.6 2.6 0.2 1.1 2.4 0.7l0.4-0.1q3.9-2 7.2-2.7 10.5-2.1 17.8 7.9 0.5 0.4 1 0.3 1.1-0.2 2-2.1 1.6-2.5 1.3-3.9v-0.2q-0.2-0.7-0.8-1.7z"/><path fill-rule="evenodd" class="b" d="m371.2 137.8l32.3-51.5q3.6-5.8 10.2-7.3 6.6-1.5 12.3 2.2 5.7 3.6 7.2 10.2 1.6 6.8-2 12.5l-32.4 51.3 51.4 32.4q5.7 3.7 7.2 10.4 1.5 6.5-2.1 12.4-3.6 5.7-10.1 7.2-6.6 1.5-12.4-2.1l-51.4-32.6-32.5 51.7q-3.7 5.7-10.2 7.2-6.6 1.5-12.4-2.1-5.7-3.8-7.2-10.3-1.5-6.7 2.1-12.5l32.3-51.4-51.4-32.3q-5.7-3.6-7.2-10.4-1.5-6.5 2.1-12.3 3.6-5.8 10.2-7.3 6.6-1.5 12.3 2.2zm56.7-50.3q-3.4-4-8.6-4.6-2.5-0.3-4.6 0.2-1.9 0.4-3.3 1.4-1.2 0.9-2.4 3-0.3 1.2-0.2 1.7 0.2 0.7 1.5 0.4l0.3-0.1q2.3-1.2 4.3-1.7 6.4-1.5 11 4.2 0.3 0.3 0.6 0.2 0.6-0.2 1.2-1.3 0.9-1.4 0.8-2.2l-0.1-0.2q-0.1-0.4-0.5-1zm-129.2 30.3q-0.1 0.8 0 1.2v0.1q0.2 0.8 1.7 1.7 1 0.8 1.6 0.6 0.3 0 0.5-0.4 1.6-7.1 8-8.5 2-0.5 4.7-0.4h0.3q1.3-0.3 1.2-1-0.2-0.5-0.9-1.5-2-1.3-3.5-1.6-1.7-0.3-3.6 0.1-2.1 0.5-4.2 1.8-4.4 2.9-5.8 7.9z"/><text style="transform:matrix(.562,-0.112,.112,.562,1371.896,337.508)" ><tspan x="0" y="49.6" class="c">T</tspan><tspan  y="49.6" class="c">M
</tspan></text></svg>