<?xml version="1.0" encoding="UTF-8" standalone="no"?>
<!DOCTYPE svg PUBLIC "-//W3C//DTD SVG 1.1//EN" "http://www.w3.org/Graphics/SVG/1.1/DTD/svg11.dtd">
<svg width="100%" height="100%" viewBox="0 0 512 512" version="1.1" xmlns="http://www.w3.org/2000/svg" xmlns:xlink="http://www.w3.org/1999/xlink" xml:space="preserve" xmlns:serif="http://www.serif.com/" style="fill-rule:evenodd;clip-rule:evenodd;stroke-linejoin:round;stroke-miterlimit:1.41421;">
    <path d="M502.001,20.063C499.371,20.063 496.792,19.002 494.932,17.132C493.072,15.273 492.002,12.693 492.002,10.064C492.002,7.435 493.072,4.855 494.932,2.995C496.792,1.135 499.372,0.065 502.001,0.065C504.63,0.065 507.21,1.134 509.07,2.995C510.94,4.855 512,7.435 512,10.064C512,12.693 510.94,15.273 509.07,17.132C507.211,19.004 504.631,20.063 502.001,20.063Z" style="fill:white;fill-rule:nonzero;"/>
    <circle cx="43.016" cy="363.872" r="19.998" style="fill:rgb(173,229,255);"/>
    <path d="M43.019,333.877C26.479,333.877 13.022,347.334 13.022,363.874C13.022,380.414 26.479,393.871 43.019,393.871C59.559,393.871 73.016,380.414 73.016,363.874C73.016,347.334 59.559,333.877 43.019,333.877ZM43.019,373.873C37.506,373.873 33.02,369.387 33.02,363.874C33.02,358.361 37.506,353.875 43.019,353.875C48.532,353.875 53.018,358.361 53.018,363.874C53.018,369.387 48.532,373.873 43.019,373.873Z" style="fill:white;fill-rule:nonzero;"/>
    <circle cx="373.641" cy="49.693" r="19.998" style="fill:rgb(160,229,87);"/>
    <g>
        <path d="M316.388,107.809C297.869,107.809 282.855,122.821 282.855,141.342L282.855,174.875L316.388,174.875C334.907,174.875 349.921,159.863 349.921,141.342C349.921,122.823 334.907,107.809 316.388,107.809Z" style="fill:rgb(114,216,255);fill-rule:nonzero;"/>
        <path d="M195.584,107.809C214.103,107.809 229.117,122.821 229.117,141.342L229.117,174.875L195.584,174.875C177.065,174.875 162.051,159.863 162.051,141.342C162.052,122.823 177.065,107.809 195.584,107.809Z" style="fill:rgb(114,216,255);fill-rule:nonzero;"/>
    </g>
    <path d="M255.987,121.134C270.826,121.134 282.857,133.164 282.857,148.004C282.857,162.843 270.827,174.874 255.987,174.874C241.148,174.874 229.117,162.844 229.117,148.004C229.116,133.164 241.146,121.134 255.987,121.134Z" style="fill:rgb(255,198,108);fill-rule:nonzero;"/>
    <path d="M391.972,238.007L391.972,408.979C391.972,422.238 381.223,432.987 367.964,432.987L144.008,432.987C130.749,432.987 120,422.238 120,408.979L120,238.007L391.972,238.007Z" style="fill:rgb(114,216,255);fill-rule:nonzero;"/>
    <rect x="227.986" y="238.595" width="55.994" height="194.39" style="fill:white;"/>
    <path d="M169.645,238.007L122.018,238.007C114.277,238.007 108.001,231.732 108.001,223.99L108.001,189.031C108.001,181.29 114.276,175.014 122.018,175.014L389.953,175.014C397.694,175.014 403.97,181.289 403.97,189.031L403.97,223.99C403.97,231.731 397.695,238.007 389.953,238.007L345.728,238.007L169.645,238.007Z" style="fill:rgb(255,93,93);fill-rule:nonzero;"/>
    <path d="M203.482,174.769L164.897,242.422L195.134,234.307L203.224,264.551L252.607,178.247L259.945,177.456L315.655,276.505L323.745,246.261L353.982,254.376L308.798,174.752L203.482,174.769Z" style="fill:rgb(201,243,255);fill-rule:nonzero;"/>
    <path d="M227.989,386.496C225.359,386.496 222.78,387.556 220.92,389.416C219.06,391.276 217.99,393.856 217.99,396.495C217.99,399.125 219.06,401.704 220.92,403.564C222.78,405.423 225.36,406.494 227.989,406.494C230.618,406.494 233.198,405.424 235.058,403.564C236.918,401.694 237.988,399.124 237.988,396.495C237.988,393.855 236.918,391.286 235.058,389.416C233.199,387.555 230.619,386.496 227.989,386.496Z" style="fill-rule:nonzero;"/>
    <path d="M376.902,135.174C378.855,137.126 381.414,138.103 383.972,138.103C386.53,138.103 389.09,137.126 391.042,135.174L482.825,43.39C486.73,39.485 486.73,33.154 482.825,29.248C478.921,25.344 472.589,25.344 468.684,29.248L376.901,121.032C372.998,124.938 372.998,131.269 376.902,135.174Z" style="fill:white;fill-rule:nonzero;"/>
    <path d="M389.954,165.014L352.89,165.014C357.329,158.194 359.918,150.067 359.918,141.34C359.918,117.337 340.39,97.81 316.386,97.81C300.471,97.81 286.53,106.4 278.937,119.183C272.634,114.153 264.656,111.135 255.983,111.135C247.31,111.135 239.333,114.153 233.029,119.183C225.437,106.4 211.496,97.81 195.58,97.81C171.576,97.81 152.049,117.338 152.049,141.341C152.049,150.066 154.639,158.193 159.077,165.014L122.015,165.014C108.772,165.014 97.998,175.787 97.998,189.031L97.998,223.99C97.998,232.856 102.83,240.609 109.997,244.77L109.997,408.98C109.997,427.731 125.252,442.987 144.003,442.987L367.96,442.987C386.711,442.987 401.967,427.732 401.967,408.98L401.967,244.77C409.133,240.609 413.966,232.856 413.966,223.99L413.966,189.031C413.97,175.788 403.196,165.014 389.954,165.014ZM393.972,189.031L393.972,223.99C393.972,226.206 392.169,228.009 389.953,228.009L350.515,228.009L326.117,185.013L389.953,185.013C392.169,185.012 393.972,186.815 393.972,189.031ZM237.215,185.012L206.607,238.504L204.793,231.723C204.107,229.16 202.431,226.975 200.133,225.648C197.835,224.322 195.106,223.963 192.542,224.65L185.461,226.55L209.152,185.012L237.215,185.012ZM256.457,191.652L277.237,228.597L235.317,228.597L256.457,191.652ZM275.666,185.012L303.123,185.012L333.489,238.523L326.338,236.603C323.774,235.917 321.045,236.274 318.747,237.601C316.449,238.928 314.772,241.114 314.087,243.676L312.338,250.21L275.666,185.012ZM292.855,141.341C292.855,128.364 303.412,117.808 316.389,117.808C329.366,117.808 339.923,128.366 339.923,141.342C339.923,154.318 329.366,164.875 316.389,164.875L292.855,164.875L292.855,141.341ZM255.987,131.133C265.29,131.133 272.858,138.7 272.858,148.003C272.858,157.306 265.29,164.874 255.987,164.874C246.684,164.874 239.116,157.306 239.116,148.003C239.116,138.7 246.683,131.133 255.987,131.133ZM195.584,117.808C208.561,117.808 219.118,128.365 219.118,141.341L219.118,164.875L195.584,164.875C182.607,164.875 172.05,154.317 172.05,141.341C172.05,128.365 182.608,117.808 195.584,117.808ZM118.001,189.031C118.001,186.815 119.804,185.012 122.02,185.012L186.13,185.012L161.609,228.008L122.02,228.008C119.804,228.008 118.001,226.205 118.001,223.989L118.001,189.031ZM130,408.979L130,248.006L156.635,248.006C156.753,248.181 156.852,248.364 156.982,248.532C159.447,251.726 163.591,253.125 167.489,252.08L188.06,246.56L193.564,267.136C194.611,271.051 197.918,273.946 201.935,274.468C202.367,274.524 202.798,274.551 203.226,274.551C206.778,274.551 210.105,272.656 211.902,269.519L217.989,258.88L217.989,359.996C217.989,365.517 222.466,369.995 227.988,369.995C233.51,369.995 237.987,365.517 237.987,359.996L237.987,248.595L273.983,248.595L273.983,422.988L144.007,422.988C136.283,422.988 130,416.703 130,408.979ZM367.965,422.988L293.983,422.988L293.983,258.369L306.941,281.408C308.727,284.583 312.074,286.505 315.653,286.505C316.069,286.505 316.487,286.48 316.907,286.426C320.941,285.917 324.264,283.017 325.315,279.09L330.819,258.514L351.391,264.034C355.285,265.079 359.425,263.684 361.892,260.495C364.359,257.306 364.669,252.948 362.68,249.441L361.865,248.005L381.974,248.005L381.974,408.978C381.973,416.703 375.689,422.988 367.965,422.988Z" style="fill-rule:nonzero;"/>
    <path d="M85.932,102.093C87.885,104.045 90.444,105.022 93.002,105.022C95.561,105.022 98.12,104.045 100.072,102.093C103.977,98.188 103.977,91.857 100.072,87.951L43.578,31.457C39.673,27.553 33.342,27.553 29.436,31.457C25.531,35.362 25.531,41.693 29.436,45.599L85.932,102.093Z" style="fill:white;fill-rule:nonzero;"/>
    <path d="M81.39,417.46L3.941,494.909C0.036,498.814 0.036,505.145 3.941,509.051C5.894,511.003 8.453,511.98 11.011,511.98C13.569,511.98 16.129,511.003 18.081,509.051L95.53,431.602C99.435,427.697 99.435,421.366 95.53,417.46C91.627,413.557 85.295,413.557 81.39,417.46Z" style="fill:white;fill-rule:nonzero;"/>
    <path d="M434.099,419.977C430.194,416.073 423.863,416.073 419.958,419.977C416.053,423.882 416.053,430.213 419.958,434.119L469.877,484.038C471.83,485.99 474.389,486.967 476.947,486.967C479.506,486.967 482.065,485.99 484.017,484.038C487.922,480.133 487.922,473.802 484.017,469.896L434.099,419.977Z" style="fill:white;fill-rule:nonzero;"/>
    <path d="M9.999,266.004L66.493,266.004C72.015,266.004 76.492,261.526 76.492,256.005C76.492,250.484 72.015,246.006 66.493,246.006L9.999,246.006C4.477,246.006 0,250.484 0,256.005C0,261.526 4.477,266.004 9.999,266.004Z" style="fill:white;fill-rule:nonzero;"/>
    <path d="M434.913,256.005C434.913,261.526 439.39,266.004 444.912,266.004L501.948,266.004C507.47,266.004 511.947,261.526 511.947,256.005C511.947,250.484 507.47,246.006 501.948,246.006L444.912,246.006C439.39,246.006 434.913,250.484 434.913,256.005Z" style="fill:white;fill-rule:nonzero;"/>
    <path d="M255.987,96.678C261.509,96.678 265.986,92.2 265.986,86.679L265.986,10.019C265.986,4.498 261.509,0.02 255.987,0.02C250.465,0.02 245.988,4.498 245.988,10.019L245.988,86.678C245.988,92.2 250.464,96.678 255.987,96.678Z" style="fill:white;fill-rule:nonzero;"/>
    <path d="M255.987,453.757C250.465,453.757 245.988,458.235 245.988,463.756L245.988,501.981C245.988,507.502 250.465,511.98 255.987,511.98C261.509,511.98 265.986,507.502 265.986,501.981L265.986,463.756C265.985,458.233 261.509,453.757 255.987,453.757Z" style="fill:white;fill-rule:nonzero;"/>
    <path d="M501.961,353.875L495.103,353.875C489.581,353.875 485.104,358.353 485.104,363.874C485.104,369.395 489.581,373.873 495.103,373.873L501.961,373.873C507.483,373.873 511.96,369.395 511.96,363.874C511.96,358.353 507.483,353.875 501.961,353.875Z" style="fill:white;fill-rule:nonzero;"/>
    <path d="M446.587,353.875C441.065,353.875 436.588,358.353 436.588,363.874C436.588,369.395 441.065,373.873 446.587,373.873L453.445,373.873C458.967,373.873 463.444,369.395 463.444,363.874C463.444,358.353 458.967,353.875 453.445,353.875L446.587,353.875Z" style="fill:white;fill-rule:nonzero;"/>
    <path d="M474.274,374.703C468.752,374.703 464.275,379.181 464.275,384.702L464.275,391.56C464.275,397.081 468.752,401.559 474.274,401.559C479.796,401.559 484.273,397.081 484.273,391.56L484.273,384.702C484.273,379.18 479.796,374.703 474.274,374.703Z" style="fill:white;fill-rule:nonzero;"/>
    <path d="M484.273,336.187C484.273,330.666 479.796,326.188 474.274,326.188C468.752,326.188 464.275,330.666 464.275,336.187L464.275,343.045C464.275,348.566 468.752,353.044 474.274,353.044C479.796,353.044 484.273,348.566 484.273,343.045L484.273,336.187Z" style="fill:white;fill-rule:nonzero;"/>
    <path d="M59.587,159.03C54.065,159.03 49.588,163.508 49.588,169.029C49.588,174.55 54.065,179.028 59.587,179.028L66.445,179.028C71.967,179.028 76.444,174.55 76.444,169.029C76.444,163.508 71.967,159.03 66.445,159.03L59.587,159.03Z" style="fill:white;fill-rule:nonzero;"/>
    <path d="M11.072,179.028L17.93,179.028C23.452,179.028 27.929,174.55 27.929,169.029C27.929,163.508 23.452,159.03 17.93,159.03L11.072,159.03C5.55,159.03 1.073,163.508 1.073,169.029C1.073,174.55 5.549,179.028 11.072,179.028Z" style="fill:white;fill-rule:nonzero;"/>
    <path d="M38.759,179.859C33.237,179.859 28.76,184.337 28.76,189.858L28.76,196.715C28.76,202.236 33.237,206.714 38.759,206.714C44.281,206.714 48.758,202.236 48.758,196.715L48.758,189.858C48.758,184.335 44.281,179.859 38.759,179.859Z" style="fill:white;fill-rule:nonzero;"/>
    <path d="M48.758,141.342C48.758,135.821 44.281,131.343 38.759,131.343C33.237,131.343 28.76,135.821 28.76,141.342L28.76,148.199C28.76,153.72 33.237,158.198 38.759,158.198C44.281,158.198 48.758,153.72 48.758,148.199L48.758,141.342Z" style="fill:white;fill-rule:nonzero;"/>
    <path d="M373.64,79.69C390.18,79.69 403.637,66.233 403.637,49.693C403.637,33.153 390.18,19.696 373.64,19.696C357.1,19.696 343.643,33.153 343.643,49.693C343.643,66.233 357.1,79.69 373.64,79.69ZM373.64,39.694C379.153,39.694 383.639,44.18 383.639,49.693C383.639,55.206 379.153,59.692 373.64,59.692C368.127,59.692 363.641,55.206 363.641,49.693C363.641,44.18 368.127,39.694 373.64,39.694Z" style="fill:white;fill-rule:nonzero;"/>
    <path d="M373.644,463.759C371.004,463.759 368.435,464.828 366.565,466.689C364.705,468.548 363.645,471.128 363.645,473.758C363.645,476.388 364.705,478.956 366.565,480.826C368.435,482.686 371.015,483.757 373.644,483.757C376.273,483.757 378.853,482.687 380.713,480.826C382.573,478.956 383.643,476.387 383.643,473.758C383.643,471.127 382.573,468.548 380.713,466.689C378.854,464.827 376.274,463.759 373.644,463.759Z" style="fill:white;fill-rule:nonzero;"/>
    <path d="M157.997,463.759C155.367,463.759 152.788,464.828 150.928,466.689C149.068,468.548 147.998,471.119 147.998,473.758C147.998,476.388 149.068,478.956 150.928,480.826C152.788,482.686 155.368,483.757 157.997,483.757C160.627,483.757 163.206,482.687 165.066,480.826C166.926,478.956 167.996,476.387 167.996,473.758C167.996,471.117 166.926,468.548 165.066,466.689C163.206,464.827 160.626,463.759 157.997,463.759Z" style="fill:white;fill-rule:nonzero;"/>
    <path d="M164.885,59.979C167.515,59.979 170.094,58.918 171.954,57.049C173.814,55.189 174.884,52.618 174.884,49.98C174.884,47.35 173.814,44.781 171.954,42.911C170.094,41.052 167.514,39.981 164.885,39.981C162.256,39.981 159.676,41.051 157.816,42.911C155.956,44.771 154.886,47.351 154.886,49.98C154.886,52.62 155.956,55.189 157.816,57.049C159.675,58.919 162.255,59.979 164.885,59.979Z" style="fill:white;fill-rule:nonzero;"/>
    <path d="M480.553,170.088C482.413,168.218 483.483,165.648 483.483,163.019C483.483,160.379 482.413,157.81 480.553,155.95C478.693,154.08 476.113,153.02 473.484,153.02C470.854,153.02 468.275,154.08 466.415,155.95C464.555,157.81 463.485,160.381 463.485,163.019C463.485,165.649 464.555,168.218 466.415,170.088C468.275,171.947 470.855,173.018 473.484,173.018C476.114,173.018 478.693,171.948 480.553,170.088Z" style="fill:white;fill-rule:nonzero;"/>
</svg>
