<?xml version="1.0" encoding="UTF-8" standalone="no"?>
<!DOCTYPE svg PUBLIC "-//W3C//DTD SVG 1.1//EN" "http://www.w3.org/Graphics/SVG/1.1/DTD/svg11.dtd">
<svg width="100%" height="100%" viewBox="0 0 102 102" version="1.1" xmlns="http://www.w3.org/2000/svg" xmlns:xlink="http://www.w3.org/1999/xlink" xml:space="preserve" xmlns:serif="http://www.serif.com/" style="fill-rule:evenodd;clip-rule:evenodd;stroke-linejoin:round;stroke-miterlimit:1.41421;">
    <g transform="matrix(1,0,0,1,497.285,-1195.95)">
        <path d="M-437.097,1255.57L-433.019,1237.64L-456.222,1237.64L-460.3,1255.57L-437.097,1255.57ZM-411.785,1220.77L-404.402,1220.77C-402.105,1220.77 -400.136,1221.57 -398.496,1223.16C-396.808,1224.85 -395.964,1226.86 -395.964,1229.21C-395.964,1231.5 -396.808,1233.5 -398.496,1235.18C-400.136,1236.82 -402.105,1237.64 -404.402,1237.64L-415.722,1237.64L-419.8,1255.57L-404.402,1255.57C-402.105,1255.57 -400.136,1256.42 -398.496,1258.1C-396.808,1259.75 -395.964,1261.71 -395.964,1264.01C-395.964,1266.4 -396.808,1268.39 -398.496,1269.99C-400.136,1271.63 -402.105,1272.45 -404.402,1272.45L-423.597,1272.45L-427.746,1290.66C-428.308,1292.91 -429.574,1294.67 -431.543,1295.93C-432.902,1296.82 -434.332,1297.27 -435.832,1297.27C-436.535,1297.27 -437.214,1297.17 -437.871,1296.99C-440.121,1296.52 -441.878,1295.3 -443.144,1293.33C-444.035,1291.92 -444.48,1290.45 -444.48,1288.9C-444.48,1288.29 -444.386,1287.66 -444.199,1287L-440.894,1272.45L-464.097,1272.45L-468.246,1290.66C-468.761,1292.91 -470.027,1294.67 -472.043,1295.93C-473.402,1296.82 -474.832,1297.27 -476.332,1297.27C-477.035,1297.27 -477.714,1297.17 -478.371,1296.99C-480.621,1296.52 -482.378,1295.3 -483.644,1293.33C-484.535,1291.92 -484.98,1290.45 -484.98,1288.9C-484.98,1288.29 -484.886,1287.66 -484.699,1287L-481.394,1272.45L-488.847,1272.45C-491.144,1272.45 -493.136,1271.63 -494.824,1269.99C-496.464,1268.39 -497.285,1266.4 -497.285,1264.01C-497.285,1261.71 -496.464,1259.75 -494.824,1258.1C-493.136,1256.42 -491.144,1255.57 -488.847,1255.57L-477.527,1255.57L-473.519,1237.64L-488.847,1237.64C-491.144,1237.64 -493.136,1236.82 -494.824,1235.18C-496.464,1233.5 -497.285,1231.5 -497.285,1229.21C-497.285,1226.86 -496.464,1224.85 -494.824,1223.16C-493.136,1221.57 -491.144,1220.77 -488.847,1220.77L-469.582,1220.77L-465.503,1202.49C-464.988,1200.24 -463.746,1198.5 -461.777,1197.28C-460.371,1196.39 -458.871,1195.95 -457.277,1195.95C-456.668,1195.95 -456.035,1196.02 -455.378,1196.16C-453.128,1196.67 -451.371,1197.92 -450.105,1199.89C-449.214,1201.29 -448.769,1202.77 -448.769,1204.32C-448.769,1204.92 -448.863,1205.56 -449.05,1206.21L-452.285,1220.77L-429.082,1220.77L-425.003,1202.49C-424.488,1200.24 -423.246,1198.5 -421.277,1197.28C-419.871,1196.39 -418.394,1195.95 -416.847,1195.95C-416.238,1195.95 -415.605,1196.02 -414.949,1196.16C-412.652,1196.67 -410.871,1197.92 -409.605,1199.89C-408.714,1201.29 -408.269,1202.77 -408.269,1204.32C-408.269,1204.92 -408.363,1205.56 -408.55,1206.21L-411.785,1220.77ZM-410.73,1201.64C-411.574,1200.1 -412.839,1199.02 -414.527,1198.41C-415.371,1198.03 -416.144,1197.85 -416.847,1197.85C-417.503,1197.85 -418.113,1197.96 -418.675,1198.2C-419.05,1198.43 -419.238,1198.64 -419.238,1198.83C-419.238,1199.11 -419.05,1199.25 -418.675,1199.25C-415.769,1199.25 -413.285,1200.26 -411.222,1202.28C-411.035,1202.42 -410.894,1202.49 -410.8,1202.49C-410.707,1202.49 -410.613,1202.46 -410.519,1202.42C-410.472,1202.37 -410.449,1202.32 -410.449,1202.28C-410.449,1202.14 -410.543,1201.92 -410.73,1201.64ZM-451.441,1201.64C-452.238,1200.1 -453.503,1199.02 -455.238,1198.41C-456.082,1198.03 -456.878,1197.85 -457.628,1197.85C-458.238,1197.85 -458.824,1197.96 -459.386,1198.2C-459.808,1198.43 -460.019,1198.64 -460.019,1198.83C-460.019,1199.11 -459.808,1199.25 -459.386,1199.25C-456.48,1199.25 -454.019,1200.26 -452.003,1202.28C-451.816,1202.42 -451.675,1202.49 -451.582,1202.49C-451.441,1202.49 -451.347,1202.46 -451.3,1202.42C-451.253,1202.37 -451.23,1202.32 -451.23,1202.28C-451.23,1202.14 -451.3,1201.92 -451.441,1201.64ZM-398.496,1226.67C-399.293,1225.03 -400.558,1223.91 -402.293,1223.3C-403.089,1223.02 -403.839,1222.88 -404.543,1222.88C-405.246,1222.88 -405.878,1222.97 -406.441,1223.16C-406.816,1223.35 -407.003,1223.56 -407.003,1223.79C-407.003,1224.07 -406.816,1224.21 -406.441,1224.21L-406.16,1224.21C-403.394,1224.21 -401.003,1225.2 -398.988,1227.17C-398.753,1227.4 -398.589,1227.52 -398.496,1227.52C-398.449,1227.52 -398.378,1227.47 -398.285,1227.38C-398.238,1227.33 -398.214,1227.28 -398.214,1227.24C-398.214,1227.14 -398.308,1226.96 -398.496,1226.67ZM-398.496,1261.41C-399.293,1259.82 -400.558,1258.71 -402.293,1258.1C-403.089,1257.82 -403.839,1257.68 -404.543,1257.68C-405.246,1257.68 -405.878,1257.8 -406.441,1258.03C-406.816,1258.22 -407.003,1258.39 -407.003,1258.53C-407.003,1258.81 -406.816,1258.95 -406.441,1258.95C-403.535,1258.95 -401.05,1259.96 -398.988,1261.97C-398.8,1262.16 -398.66,1262.25 -398.566,1262.25C-398.472,1262.25 -398.378,1262.23 -398.285,1262.18C-398.238,1262.14 -398.214,1262.07 -398.214,1261.97C-398.214,1261.88 -398.308,1261.69 -398.496,1261.41Z" style="fill:rgb(196,50,107);fill-rule:nonzero;"/>
    </g>
</svg>
