<?xml version="1.0" encoding="UTF-8" standalone="no"?>
<!DOCTYPE svg PUBLIC "-//W3C//DTD SVG 1.1//EN" "http://www.w3.org/Graphics/SVG/1.1/DTD/svg11.dtd">
<svg width="100%" height="100%" viewBox="0 0 62 62" version="1.1" xmlns="http://www.w3.org/2000/svg" xmlns:xlink="http://www.w3.org/1999/xlink" xml:space="preserve" xmlns:serif="http://www.serif.com/" style="fill-rule:evenodd;clip-rule:evenodd;stroke-linejoin:round;stroke-miterlimit:1.41421;">
    <g transform="matrix(1,0,0,1,-100.533,-2410.27)">
        <g transform="matrix(0.838645,0,0,0.838645,-208.967,-244.357)">
            <path d="M413.907,3193.5L433.594,3193.5C435.938,3193.5 437.93,3194.34 439.571,3196.03C441.212,3197.67 442.032,3199.64 442.032,3201.94C442.032,3204.28 441.212,3206.27 439.571,3207.91C437.93,3209.56 435.938,3210.38 433.594,3210.38L413.907,3210.38L413.907,3230.06C413.907,3232.41 413.11,3234.4 411.516,3236.04C409.876,3237.68 407.86,3238.5 405.469,3238.5C403.173,3238.5 401.204,3237.68 399.563,3236.04C397.969,3234.4 397.173,3232.41 397.173,3230.06L397.173,3210.38L377.415,3210.38C375.118,3210.38 373.149,3209.56 371.509,3207.91C369.868,3206.27 369.048,3204.28 369.048,3201.94C369.048,3199.64 369.868,3197.67 371.509,3196.03C373.149,3194.34 375.118,3193.5 377.415,3193.5L397.173,3193.5L397.173,3173.81C397.173,3171.52 397.969,3169.55 399.563,3167.91C401.204,3166.22 403.173,3165.38 405.469,3165.38C407.86,3165.38 409.876,3166.22 411.516,3167.91C413.11,3169.55 413.907,3171.52 413.907,3173.81L413.907,3193.5ZM411.587,3171.49C410.79,3169.85 409.524,3168.73 407.79,3168.12C406.993,3167.84 406.219,3167.7 405.469,3167.7C404.813,3167.7 404.204,3167.81 403.641,3168.05C403.266,3168.19 403.079,3168.35 403.079,3168.54C403.079,3168.82 403.266,3168.96 403.641,3168.96C406.548,3168.96 409.032,3169.97 411.094,3171.99C411.235,3172.17 411.376,3172.27 411.516,3172.27C411.61,3172.27 411.68,3172.22 411.727,3172.13C411.774,3172.08 411.798,3172.03 411.798,3171.99C411.798,3171.89 411.727,3171.73 411.587,3171.49ZM439.079,3199.34C438.282,3197.7 437.04,3196.57 435.352,3195.96C434.509,3195.68 433.735,3195.54 433.032,3195.54C432.376,3195.54 431.766,3195.66 431.204,3195.89C430.782,3196.03 430.571,3196.2 430.571,3196.38C430.571,3196.66 430.759,3196.81 431.134,3196.81C434.087,3196.81 436.571,3197.81 438.587,3199.83C438.727,3200.02 438.868,3200.11 439.009,3200.11C439.102,3200.11 439.173,3200.06 439.219,3199.97C439.313,3199.92 439.36,3199.88 439.36,3199.83C439.36,3199.74 439.266,3199.57 439.079,3199.34Z" style="fill:rgb(202,51,106);fill-rule:nonzero;"/>
        </g>
    </g>
</svg>
