<?xml version="1.0" encoding="iso-8859-1"?>
<!-- Generator: Adobe Illustrator 19.0.0, SVG Export Plug-In . SVG Version: 6.00 Build 0)  -->
<svg version="1.1" id="Capa_1" xmlns="http://www.w3.org/2000/svg" xmlns:xlink="http://www.w3.org/1999/xlink" x="0px" y="0px"
	 viewBox="0 0 512 512" style="enable-background:new 0 0 512 512;" xml:space="preserve">
<polyline style="fill:#EDF2FA;" points="287.075,384.081 502,384.081 502,10.006 10.013,10.006 10.013,384.081 42.012,384.081 "/>
<rect x="10.01" y="309.803" style="fill:#70DDD6;" width="491.988" height="73.998"/>
<rect x="266.883" y="461.929" style="fill:#EDF2FA;" width="90.448" height="40.059"/>
<polyline style="fill:#7D9BFF;" points="154.675,501.994 357.337,501.994 357.337,461.933 275.099,461.933 "/>
<g>
	<path style="fill:#FF5D5D;" d="M303.655,456.981v-28.126c0-25.541-14.161-48.978-36.771-60.858l0,0v88.984"/>
	<path style="fill:#FF5D5D;" d="M29.973,456.981v-28.126c0-25.541,14.161-48.978,36.771-60.858l0,0v82.998"/>
</g>
<path style="fill:#FFFFFF;" d="M266.884,436.762v-76.125c0-81-36.827-157.607-100.085-208.197l0,0h-0.001
	C103.558,203.031,66.744,279.626,66.744,360.613v85.135L266.884,436.762z"/>
<circle style="fill:#5A54E0;" cx="166.816" cy="303.793" r="47.999"/>
<g>
	<path style="fill:#ADE5FF;" d="M315.16,501.994c0-22.125-17.937-40.062-40.062-40.062s-40.062,17.937-40.062,40.062H315.16z"/>
	<path style="fill:#ADE5FF;" d="M264.828,445.156c-16.48-33.658-51.068-56.835-91.07-56.835c-44.948,0-83.055,29.266-96.322,69.78
		c-5.941-2.638-12.512-4.113-19.433-4.113C31.492,453.989,10,475.481,10,501.994h42.767h182.27"/>
</g>
<polygon style="fill:#C9F3FF;" points="315.615,123.607 265.616,173.383 265.616,255.794 315.615,255.794 "/>
<polygon style="fill:#FFC66C;" points="365.614,156.608 315.615,123.607 315.615,255.794 365.614,255.794 "/>
<polygon style="fill:#FE8F8D;" points="415.612,104.638 365.614,156.608 365.614,255.794 415.612,255.794 "/>
<polygon style="fill:#A0E557;" points="465.611,54.639 415.612,104.638 415.612,255.794 465.611,255.794 "/>
<path d="M502,0.007H10.013c-5.522,0-10,4.477-10,10V384.08c0,5.522,4.478,10,10,10h18.031c-5.218,10.616-8.069,22.461-8.069,34.775
	v28.126c0,0.408,0.032,0.807,0.079,1.202C7.783,468.828,0,484.514,0,501.994c0,5.522,4.478,10,10,10h144.676h80.361h80.123h42.177
	c5.522,0,10-4.478,10-10v-40.062c0-5.522-4.478-10-10-10h-43.682v-23.077c0-12.315-2.851-24.159-8.069-34.775H502
	c5.522,0,10-4.478,10-10V10.006C512,4.483,507.522,0.007,502,0.007z M76.744,367.997v-7.385c0-75.667,32.721-146.354,90.057-195.207
	c57.353,48.853,90.085,119.551,90.085,195.232v7.36v47.586c-6.811-7.639-14.674-14.345-23.399-19.901
	c-17.837-11.358-38.489-17.361-59.726-17.361c-40.854,0-77.582,22.066-97.016,56.638C76.744,434.96,76.744,367.997,76.744,367.997z
	 M375.613,245.794v-87.016l29.999-29.999v117.015H375.613z M355.614,245.794h-29.999V132.722l29.999,29.999V245.794z
	 M305.615,245.794h-29.999v-68.046l29.999-29.999V245.794z M255.617,245.794h-3.728c-0.761-1.669-1.518-3.339-2.313-4.992
	c-3.938-8.192-8.318-16.181-13.061-23.954l19.101-19.101v48.047H255.617z M260.065,265.793h55.531c0.007,0,0.013,0.001,0.019,0.001
	s0.013-0.001,0.019-0.001h99.958c0.007,0,0.013,0.001,0.019,0.001s0.013-0.001,0.019-0.001h76.368v34.206H270.102
	C267.493,288.393,264.129,276.961,260.065,265.793z M492.001,20.006v225.788h-16.39v-72.291c0-5.523-4.478-10-10-10
	c-5.522,0-10,4.477-10,10v72.291h-29.999V111.172c0-0.74-0.086-1.459-0.239-2.153l30.238-30.238v11.934c0,5.523,4.478,10,10,10
	c5.522,0,10-4.477,10-10V54.639c0-5.523-4.478-10-10-10h-36.075c-5.522,0-10,4.477-10,10s4.478,10,10,10h11.933l-77.827,77.827
	L330.2,109.023c-3.906-3.905-10.236-3.905-14.143,0l-90.797,90.797c-14.797-20.672-32.416-39.353-52.217-55.188
	c-3.652-2.921-8.841-2.921-12.493,0.001c-32.192,25.753-58.649,59.007-76.508,96.165c-9.05,18.831-15.929,38.76-20.521,59.202
	H20.012V20.007h471.988V20.006z M42.012,374.08H20.012v-54.082h39.785c-2.009,13.455-3.053,27.044-3.053,40.614v1.623
	c-5.395,3.393-10.292,7.379-14.628,11.85C42.082,374.085,42.047,374.08,42.012,374.08z M39.974,428.856
	c0-15.666,6.164-30.324,16.771-41.127v56.293c-5.842,0.125-11.473,1.114-16.771,2.852V428.856z M21.334,491.994
	c4.4-16.121,19.175-28.005,36.67-28.005c5.341,0,10.514,1.095,15.378,3.253c2.584,1.149,5.535,1.147,8.119-0.002
	c2.584-1.148,4.561-3.338,5.441-6.025c12.318-37.618,47.207-62.893,86.817-62.893c35.161,0,66.615,19.632,82.088,51.232
	c0.295,0.603,0.646,1.162,1.038,1.676v4.149c-15.611,6.121-27.431,19.853-30.843,36.616h-71.365L21.334,491.994L21.334,491.994z
	 M246.747,491.994c4.13-11.676,15.279-20.062,28.352-20.062s24.222,8.387,28.352,20.062H246.747z M347.337,491.994h-23.182
	c-1.508-7.41-4.66-14.229-9.054-20.062h32.236V491.994z M276.885,451.933v-15.171v-49.034c0.838,0.853,1.638,1.739,2.419,2.639
	c0.054,0.067,0.111,0.131,0.166,0.196c9.009,10.467,14.186,23.952,14.186,38.292v23.077L276.885,451.933L276.885,451.933z
	 M492.001,374.08H291.507c-4.334-4.469-9.23-8.454-14.623-11.845v-1.598c0-13.579-1.045-27.176-3.057-40.639H492L492.001,374.08
	L492.001,374.08z"/>
<path d="M166.814,361.791c31.98,0,57.999-26.018,57.999-57.999s-26.018-57.999-57.999-57.999s-57.999,26.018-57.999,57.999
	S134.834,361.791,166.814,361.791z M166.814,265.793c20.952,0,37.999,17.048,37.999,38c0,20.952-17.047,37.999-37.999,37.999
	s-37.999-17.047-37.999-37.999C128.815,282.84,145.861,265.793,166.814,265.793z"/>
<path d="M50.771,110.493h91.998c5.522,0,10-4.477,10-10c0-5.523-4.478-10-10-10H50.771c-5.522,0-10,4.477-10,10
	C40.771,106.016,45.249,110.493,50.771,110.493z"/>
<path d="M127.8,130.493c-2.63,0-5.21,1.07-7.07,2.93s-2.93,4.44-2.93,7.07c0,2.63,1.069,5.21,2.93,7.07
	c1.86,1.86,4.44,2.93,7.07,2.93c2.63,0,5.21-1.07,7.069-2.93c1.87-1.86,2.931-4.44,2.931-7.07c0-2.63-1.061-5.21-2.931-7.07
	C133.01,131.563,130.43,130.493,127.8,130.493z"/>
<path d="M50.771,150.492h33.635c5.522,0,10-4.477,10-10c0-5.523-4.478-10-10-10H50.771c-5.522,0-10,4.477-10,10
	C40.771,146.015,45.249,150.492,50.771,150.492z"/>
<path d="M50.771,70.494h55.333c5.522,0,10-4.477,10-10s-4.478-10-10-10H50.771c-5.522,0-10,4.477-10,10S45.249,70.494,50.771,70.494
	z"/>
<path d="M465.61,130.493c-2.63,0-5.21,1.07-7.069,2.93c-1.86,1.86-2.931,4.44-2.931,7.07c0,2.63,1.07,5.21,2.931,7.07
	c1.859,1.86,4.439,2.93,7.069,2.93c2.631,0,5.21-1.07,7.07-2.93c1.86-1.86,2.93-4.44,2.93-7.07c0-2.63-1.069-5.21-2.93-7.07
	C470.819,131.563,468.241,130.493,465.61,130.493z"/>
<g>
</g>
<g>
</g>
<g>
</g>
<g>
</g>
<g>
</g>
<g>
</g>
<g>
</g>
<g>
</g>
<g>
</g>
<g>
</g>
<g>
</g>
<g>
</g>
<g>
</g>
<g>
</g>
<g>
</g>
</svg>
