<svg height="512pt" viewBox="0 -4 512.00201 512" width="512pt" xmlns="http://www.w3.org/2000/svg"><path d="m423.175781 214.210938c-18.035156-2.070313-32.035156-17.382813-32.035156-35.972657 0-18.578125 14-33.898437 32.035156-35.96875 2.367188-.269531 4.175781-2.230469 4.175781-4.613281l.007813-14.625c0-11.734375-9.605469-21.339844-21.339844-21.339844h-14.6875c-2.378906 0-4.339843 1.804688-4.613281 4.171875-2.089844 18.007813-17.402344 31.984375-35.964844 31.984375-18.566406 0-33.875-13.976562-35.96875-31.984375-.273437-2.367187-2.234375-4.171875-4.613281-4.171875h-14.6875c-11.738281 0-21.339844 9.601563-21.339844 21.339844 0-11.734375-9.605469-21.339844-21.347656-21.339844l-15.410156-.039062c-1.96875-.003906-3.621094-1.496094-3.808594-3.457032-1.734375-18.378906-17.210937-32.757812-36.042969-32.757812-18.835937 0-34.308594 14.378906-36.046875 32.757812-.183593 1.960938-1.839843 3.453126-3.808593 3.457032l-15.410157.039062c-11.734375 0-21.339843 9.601563-21.339843 21.339844v15.347656c0 1.972656-1.496094 3.632813-3.457032 3.816406-18.371094 1.746094-32.746094 17.21875-32.746094 36.046876 0 18.828124 14.371094 34.300781 32.746094 36.042968 1.960938.1875 3.457032 1.84375 3.457032 3.816406v15.457032c0 11.734375 9.601562 21.347656 21.339843 21.347656l19.058594-.066406c0-20 16.207031-36.210938 36.207031-36.210938 18.832032 0 34.304688 14.378906 36.039063 32.765625.183593 1.957031 1.835937 3.449219 3.804687 3.457031l15.414063.054688c11.746093 0 21.347656-9.613281 21.347656-21.347656 0 11.734375 9.605469 21.347656 21.339844 21.347656l14.695312-.050781c2.378907-.007813 4.332031-1.816407 4.601563-4.175781 2.066406-18.042969 17.386718-32.046876 35.972656-32.046876s33.90625 14.003907 35.972656 32.046876c.269532 2.359374 2.222656 4.167968 4.601563 4.175781l14.691406.050781c11.738281 0 21.339844-9.613281 21.339844-21.347656l-.003907-14.730469c0-2.386719-1.808593-4.347656-4.175781-4.617187zm0 0" fill="#6990d7"/><path d="m391.140625 178.238281c0-18.578125 14-33.898437 32.035156-35.96875 2.367188-.273437 4.175781-2.234375 4.175781-4.617187l.007813-14.621094c0-11.738281-9.605469-21.339844-21.339844-21.339844h-14.6875c-2.382812 0-4.339843 1.804688-4.617187 4.171875-2.089844 18.007813-17.398438 31.984375-35.964844 31.984375-18.5625 0-33.875-13.976562-35.964844-31.984375-.273437-2.367187-2.234375-4.171875-4.617187-4.171875h-14.683594c-11.738281 0-21.339844 9.601563-21.339844 21.339844v14.625c0 2.382812-1.808593 4.34375-4.175781 4.617188-18.023438 2.074218-32.023438 17.386718-32.023438 35.964843 0 18.582031 13.996094 33.894531 32.023438 35.96875 2.367188.273438 4.175781 2.234375 4.175781 4.617188v14.730469c0 11.738281 9.601563 21.351562 21.339844 21.351562l14.695313-.050781c2.375-.011719 4.328124-1.816407 4.601562-4.179688 2.0625-18.039062 17.382812-32.046875 35.96875-32.046875s33.910156 14.007813 35.972656 32.046875c.269532 2.363281 2.222656 4.167969 4.601563 4.179688l14.695312.050781c11.734375 0 21.339844-9.613281 21.339844-21.351562l-.007813-14.730469c0-2.382813-1.808593-4.34375-4.175781-4.613281-18.035156-2.070313-32.035156-17.382813-32.035156-35.972657zm0 0" fill="#6990d7"/><path d="m237.929688 178.238281c0-18.828125 14.371093-34.304687 32.746093-36.046875 1.960938-.183594 3.453125-1.839844 3.457031-3.8125l.011719-15.351562c0-11.734375-9.605469-21.339844-21.347656-21.339844l-15.410156-.035156c-1.96875-.007813-3.621094-1.5-3.808594-3.457032-1.734375-18.378906-17.210937-32.761718-36.042969-32.761718-18.835937 0-34.308594 14.382812-36.046875 32.761718-.183593 1.957032-1.839843 3.453126-3.808593 3.457032l-15.410157.035156c-11.734375 0-21.339843 9.605469-21.339843 21.339844v15.351562c0 1.972656-1.496094 3.628906-3.457032 3.816406-18.371094 1.742188-32.746094 17.214844-32.746094 36.042969s14.375 34.300781 32.746094 36.046875c1.960938.183594 3.457032 1.84375 3.457032 3.816406v15.453126c0 11.738281 9.601562 21.347656 21.339843 21.347656l19.058594-.066406c0-20 16.207031-36.207032 36.207031-36.207032 18.832032 0 34.304688 14.378906 36.039063 32.761719.183593 1.960937 1.835937 3.453125 3.804687 3.460937l15.414063.050782c11.746093 0 21.347656-9.609375 21.347656-21.347656l-.011719-15.457032c0-1.96875-1.496094-3.628906-3.457031-3.8125-18.371094-1.738281-32.742187-17.210937-32.742187-36.046875zm0 0" fill="#1ed688"/><path d="m494.199219 398.636719-172.480469 87.453125c-23.175781 14.746094-52.652344 14.488281-75.457031-.199219-10.707031-6.902344-14.066407-7.570313-70.359375-35.402344-25.015625-12.238281-47.800782-16.132812-84.945313-20.710937v-108.039063h123.179688c7.648437 0 14.976562 3.042969 20.386719 8.453125 1.695312 1.691406-11.234376-11.234375 55.40625 55.394532 5.0625 5.0625 7.570312 11.820312 7.386718 18.507812l1.183594-.8125 180.789062-45.515625c23.957032-3.027344 34.6875 28.316406 14.910157 40.871094zm0 0" fill="#f2bb88"/><path d="m290.621094 420.214844c-9.507813 9.832031-25.148438 9.984375-34.847656.304687l-46.066407-46.074219c-2.460937-2.460937-5.796875-3.84375-9.273437-3.84375h-109.476563v-48.863281h123.183594c7.648437 0 14.976563 3.039063 20.382813 8.445313 1.695312 1.695312-11.234376-11.230469 55.410156 55.398437 9.398437 9.402344 10.070312 24.921875.6875 34.632813zm0 0" fill="#f2d1a5"/><path d="m97.121094 318.742188v133.566406c0 1.898437-.183594 3.765625-.511719 5.574218 0 0 0 0-.011719 0-2.628906 14.132813-15.097656 24.921876-29.972656 24.921876h-28.601562c-16.773438 0-30.496094-13.722657-30.496094-30.496094v-133.566406c0-14.949219 10.894531-27.464844 25.136718-30.015626 1.746094-.320312 3.535157-.480468 5.359376-.480468h28.601562c16.773438 0 30.496094 13.722656 30.496094 30.496094zm0 0" fill="#919196"/><path d="m97.121094 318.742188v133.566406c0 1.898437-.183594 3.765625-.511719 5.574218 0 0 0 0-.011719 0-1.746094.320313-3.535156.480469-5.371094.480469h-28.589843c-16.773438 0-30.496094-13.722656-30.496094-30.496093v-133.570313c0-1.894531.183594-3.761719.523437-5.570313 1.746094-.320312 3.535157-.480468 5.359376-.480468h28.601562c16.773438 0 30.496094 13.722656 30.496094 30.496094zm0 0" fill="#a0a0a5"/><path d="m70.359375 434.765625c0 9.960937-8.074219 18.035156-18.035156 18.035156-9.960938 0-18.035157-8.074219-18.035157-18.035156s8.074219-18.039063 18.035157-18.039063c9.960937 0 18.035156 8.078126 18.035156 18.039063zm0 0" fill="#5a5f64"/><path d="m482.285156 350.507812c-6.867187 0 5.734375-1.757812-178.371094 44.113282-1.488281-5.109375-4.238281-9.933594-8.25-13.945313l-55.289062-55.289062c-6.855469-6.855469-15.972656-10.632813-25.667969-10.632813h-110.289062c-2.078125-19.011718-18.238281-33.855468-37.792969-33.855468h-28.601562c-20.96875 0-38.023438 17.054687-38.023438 38.023437v133.566406c0 20.972657 17.054688 38.035157 38.023438 38.035157h28.601562c20.957031 0 38.023438-17.0625 38.023438-38.035157v-13.320312c18.265624 3.882812 39.6875 4.214843 68.601562 18.359375 57.195312 28.253906 59.339844 28.382812 69.433594 34.890625 25.234375 16.261719 57.652344 16.453125 83.105468.425781l143.203126-72.605469c3.707031-1.882812 5.191406-6.414062 3.3125-10.121093-1.882813-3.707032-6.414063-5.1875-10.121094-3.308594-149.75 75.9375-143.574219 72.757812-144.160156 73.132812-20.539063 13.070313-46.785157 12.964844-67.183594-.179687-11.285156-7.273438-14.808594-7.984375-70.972656-35.757813-31.578126-15.453125-55.214844-15.867187-75.21875-20.117187v-94.074219h110.058593c5.671875 0 11.011719 2.207031 15.027344 6.222656l55.28125 55.289063c10.890625 10.878906 3.566406 29.152343-11.515625 29.152343-4.496094 0-8.730469-1.757812-11.921875-4.9375l-49.800781-49.820312c-2.941406-2.941406-7.710938-2.941406-10.652344 0s-2.941406 7.710938 0 10.648438l49.8125 49.820312c17.957031 17.898438 48.863281 8.78125 53.699219-16.222656l176.046875-44.3125c8.761718-.949219 16.261718 5.953125 16.261718 14.617187 0 9.527344-7.800781 12.816407-7.902343 12.917969-3.707031 1.878906-5.1875 6.410156-3.308594 10.117188 1.878906 3.710937 6.410156 5.191406 10.121094 3.3125l1.726562-.878907c7.535157-3.800781 14.421875-14.066406 14.421875-25.46875-.003906-16.410156-13.335937-29.761719-29.71875-29.761719zm-392.695312 101.984376c0 12.667968-10.308594 22.976562-22.964844 22.976562h-28.601562c-12.65625 0-22.964844-10.308594-22.964844-22.976562v-133.570313c0-12.65625 10.308594-22.96875 22.964844-22.96875h28.601562c11.230469 0 20.617188 8.121094 22.585938 18.804687.570312 3.082032.378906 137.625.378906 137.734376zm0 0"/><path d="m62.417969 411.453125c-3.816407-1.640625-8.246094.125-9.890625 3.941406-1.644532 3.820313.121094 8.25 3.941406 9.890625 10.492188 4.511719 7.175781 20.167969-4.144531 20.167969-7.121094 0-12.160157-6.949219-10.019531-13.6875 1.257812-3.964844-.933594-8.199219-4.894532-9.457031-3.96875-1.257813-8.195312.9375-9.457031 4.898437-5.238281 16.5 7.15625 33.304688 24.371094 33.304688 14.097656 0 25.566406-11.46875 25.566406-25.566407 0-10.226562-6.074219-19.449218-15.472656-23.492187zm0 0"/><path d="m86.945312 192.84375c4.078126-.824219 6.710938-4.800781 5.882813-8.875-3.621094-17.859375 10.101563-34.402344 28.101563-34.40625 4.160156 0 7.527343-3.371094 7.527343-7.527344v-19.003906c0-7.617188 6.199219-13.8125 13.8125-13.8125h19.058594c4.160156 0 7.527344-3.371094 7.527344-7.527344 0-.050781 0-.101562 0-.15625.058593-15.765625 12.902343-28.570312 28.679687-28.570312 15.789063 0 28.640625 12.828125 28.675782 28.613281v.113281c0 4.15625 3.371093 7.527344 7.527343 7.527344h19.054688c7.621093 0 13.820312 6.195312 13.820312 13.8125v12.117188c-12.820312 2.21875-24.585937 10.253906-31.144531 22.636718-.132812.25-.246094.503906-.347656.757813-3 5.925781-4.703125 12.617187-4.703125 19.695312 0 4.910157.820312 9.628907 2.320312 14.039063.0625.253906.136719.503906.226563.753906 5.371094 14.953125 18.554687 25.660156 33.648437 28.292969v12.230469c0 7.621093-6.199219 13.820312-13.820312 13.820312h-12.164063c-3.550781-20.574219-21.523437-36.273438-43.09375-36.273438-21.554687 0-39.519531 15.675782-43.089844 36.273438h-12.175781c-7.617187 0-13.8125-6.199219-13.8125-13.820312v-19.109376c0-4.15625-3.371093-7.527343-7.527343-7.527343-5.191407 0-10.273438-1.402344-14.699219-4.050781-3.570313-2.132813-8.191407-.976563-10.328125 2.59375-2.136719 3.566406-.976563 8.191406 2.59375 10.328124 4.59375 2.75 9.648437 4.621094 14.902344 5.535157v12.234375c0 15.921875 12.953124 28.875 28.871093 28.875h19.058594c4.15625 0 7.527344-3.4375 7.527344-7.59375 0-15.8125 12.863281-28.679688 28.679687-28.679688 15.808594 0 28.671875 12.867188 28.671875 28.746094 0 4.15625 3.371094 7.527344 7.527344 7.527344h19.058594c8.449219 0 16.0625-3.648438 21.347656-9.449219 5.285156 5.800781 12.894531 9.449219 21.339844 9.449219h19.058593c4.160157 0 7.53125-3.4375 7.53125-7.59375 0-15.8125 12.863282-28.679688 28.679688-28.679688 15.8125 0 28.679688 12.867188 28.679688 28.746094 0 4.15625 3.367187 7.527344 7.527343 7.527344h19.058594c15.917969 0 28.867187-12.953125 28.867187-28.875v-19.109375c0-4.15625-3.378906-7.527344-7.535156-7.527344-15.816406 0-28.679687-12.867187-28.679687-28.683594 0-15.8125 12.863281-28.679687 28.679687-28.679687h.007813c4.160156 0 7.527343-3.371094 7.527343-7.527344v-19c0-15.917969-12.949218-28.867188-28.867187-28.867188h-19.058594c-4.15625 0-7.523437 3.363282-7.527343 7.519532-.019532 15.789062-12.886719 28.636718-28.679688 28.636718s-28.660156-12.847656-28.679688-28.640624c-.007812-4.152344-3.375-7.515626-7.53125-7.515626h-19.054687c-8.445313 0-16.058594 3.644532-21.339844 9.445313-5.285156-5.800781-12.898437-9.445313-21.347656-9.445313h-12.167969c-3.558594-20.566406-21.527344-36.257812-43.09375-36.257812-21.570312 0-39.539062 15.691406-43.097656 36.257812h-12.167969c-15.917969 0-28.867187 12.949219-28.867187 28.867188v12.121094c-24.097656 4.203125-40.242188 27.597656-35.332032 51.808594.820313 4.035156 4.753907 6.714843 8.875 5.882812zm187.199219-43.28125c4.160157 0 7.527344-3.371094 7.527344-7.527344v-19.003906c0-7.617188 6.195313-13.8125 13.8125-13.8125h12.1875c3.601563 20.515625 21.558594 36.160156 43.082031 36.160156 21.523438 0 39.476563-15.644531 43.078125-36.160156h12.1875c7.617188 0 13.8125 6.195312 13.8125 13.8125v12.117188c-20.546875 3.578124-36.21875 21.539062-36.21875 43.089843s15.667969 39.511719 36.21875 43.089844v12.226563c0 7.621093-6.195312 13.820312-13.8125 13.820312h-12.167969c-3.550781-20.574219-21.523437-36.273438-43.097656-36.273438-21.558594 0-39.523437 15.675782-43.09375 36.273438h-12.175781c-7.617187 0-13.8125-6.199219-13.8125-13.820312 0-11.59375 0-6.941407 0-19.109376 0-3.960937-3.109375-7.511718-7.648437-7.53125-5.960938-.023437-12.039063-1.925781-17.234376-5.875-21.738281-16.589843-10.035156-51.476562 17.355469-51.476562zm0 0"/><path d="m248.515625 296.183594v19.242187c0 4.15625 3.371094 7.527344 7.527344 7.527344 4.160156 0 7.53125-3.371094 7.53125-7.527344v-19.242187c0-4.160156-3.371094-7.53125-7.53125-7.53125-4.15625 0-7.527344 3.371094-7.527344 7.53125zm0 0"/><path d="m256.042969 34.300781c4.160156 0 7.53125-3.367187 7.53125-7.527343v-19.242188c0-4.160156-3.371094-7.53125-7.53125-7.53125-4.15625 0-7.527344 3.371094-7.527344 7.53125v19.242188c0 4.160156 3.371094 7.527343 7.527344 7.527343zm0 0"/><path d="m33.613281 143.132812h19.242188c4.160156 0 7.53125-3.371093 7.53125-7.53125 0-4.15625-3.371094-7.527343-7.53125-7.527343h-19.242188c-4.160156 0-7.53125 3.371093-7.53125 7.527343 0 4.160157 3.371094 7.53125 7.53125 7.53125zm0 0"/><path d="m93.605469 37.445312c14.035156 11.101563 14.925781 14.132813 19.578125 14.132813 7.003906 0 10.214844-8.789063 4.84375-13.296875l-14.742188-12.367188c-3.1875-2.675781-7.933594-2.257812-10.609375.925782-2.671875 3.183594-2.253906 7.933594.929688 10.605468zm0 0"/><path d="m54.277344 258.042969c2.515625 0 2.453125-.589844 20.664062-7.644531 3.863282-1.539063 5.75-5.917969 4.210938-9.78125-1.535156-3.863282-5.914063-5.746094-9.773438-4.210938l-17.882812 7.109375c-7.664063 3.046875-5.492188 14.527344 2.78125 14.527344zm0 0"/><path d="m472.382812 153.113281h19.242188c4.160156 0 7.53125-3.371093 7.53125-7.527343 0-4.160157-3.371094-7.53125-7.53125-7.53125h-19.242188c-4.160156 0-7.527343 3.371093-7.527343 7.53125 0 4.15625 3.367187 7.527343 7.527343 7.527343zm0 0"/><path d="m437.328125 288.578125 14.742187 12.371094c3.199219 2.683593 7.945313 2.242187 10.605469-.929688 2.671875-3.183593 2.257813-7.933593-.925781-10.605469l-14.746094-12.371093c-3.183594-2.671875-7.933594-2.257813-10.605468.929687-2.671876 3.183594-2.257813 7.933594.929687 10.605469zm0 0"/><path d="m392.824219 45.085938 15.160156-11.851563c3.277344-2.5625 3.859375-7.292969 1.296875-10.566406-2.5625-3.277344-7.289062-3.855469-10.566406-1.296875l-15.164063 11.851562c-3.273437 2.558594-3.855469 7.289063-1.292969 10.566406 2.566407 3.285157 7.296876 3.851563 10.566407 1.296876zm0 0"/></svg>